<svg width="49" height="65" viewBox="0 0 49 65" fill="none" xmlns="http://www.w3.org/2000/svg">
<path d="M2.76343 54.9173V51.3198V47.7223L5.72029 42.9256L7.4944 38.129L10.4513 35.7306L22.2787 35.131V3.35303H45.3422L45.9335 12.3468L31.7406 14.1456V56.1165L27.601 58.5149L22.2787 62.7119L12.2254 63.3115L2.76343 54.9173Z" fill="#F1C851"/>
<path fill-rule="evenodd" clip-rule="evenodd" d="M0.36499 57.3158V42.9258H5.16167V57.3158H0.36499Z" fill="#211F22"/>
<path fill-rule="evenodd" clip-rule="evenodd" d="M24.3485 64.5107H8.75928V59.7141H24.3485V64.5107Z" fill="#211F22"/>
<path fill-rule="evenodd" clip-rule="evenodd" d="M23.1493 36.9297H8.75928V32.133H23.1493V36.9297Z" fill="#211F22"/>
<path fill-rule="evenodd" clip-rule="evenodd" d="M43.5351 4.55225L23.1492 4.55225V0.954736L43.5351 0.954736V4.55225Z" fill="#211F22"/>
<path fill-rule="evenodd" clip-rule="evenodd" d="M48.3317 15.3447L29.145 15.3447V10.548H48.3317V15.3447Z" fill="#211F22"/>
<path fill-rule="evenodd" clip-rule="evenodd" d="M29.145 57.3155V10.5479H33.9417V57.3155H29.145Z" fill="#211F22"/>
<path fill-rule="evenodd" clip-rule="evenodd" d="M20.7507 36.9297V0.95459H24.3482V36.9297H20.7507Z" fill="#211F22"/>
<path fill-rule="evenodd" clip-rule="evenodd" d="M5.16187 60.9129V56.1162H9.95855V60.9129H5.16187Z" fill="#211F22"/>
<path fill-rule="evenodd" clip-rule="evenodd" d="M24.3484 60.9129V56.1162H29.1451V60.9129H24.3484Z" fill="#211F22"/>
<path fill-rule="evenodd" clip-rule="evenodd" d="M5.16187 44.1247V35.7305H9.95855V44.1247H5.16187Z" fill="#211F22"/>
<path fill-rule="evenodd" clip-rule="evenodd" d="M42.3362 11.7471L42.3362 0.95459L48.332 0.95459L48.332 11.7471L42.3362 11.7471Z" fill="#211F22"/>
</svg>
