<svg width="386" height="215" viewBox="0 0 386 215" fill="none" xmlns="http://www.w3.org/2000/svg">
<path d="M86.9521 2C99.9686 2 112.15 4.48944 123.474 9.48242L124.532 9.9375C135.414 14.7089 144.868 21.6228 152.882 30.6621L153.673 31.5244C161.792 40.4884 168.149 51.2641 172.762 63.8184L173.202 65.041C177.682 77.7243 179.905 91.8853 179.905 107.5C179.905 123.618 177.536 138.188 172.762 151.182C168.001 164.137 161.384 175.299 152.897 184.637L152.898 184.638C144.625 193.763 134.821 200.828 123.503 205.823L123.488 205.83L123.474 205.836C112.149 210.617 99.9676 213 86.9521 213C73.9369 213 61.7562 210.617 50.4316 205.836L50.417 205.83L50.4023 205.823C39.0891 200.83 29.186 193.77 20.7051 184.656L20.6875 184.639L20.6719 184.62C12.6627 175.576 6.3087 164.824 1.59473 152.391L1.14355 151.182C-3.63084 138.188 -6 123.618 -6 107.5C-6 91.3817 -3.63084 76.8123 1.14355 63.8184L1.59473 62.6094C6.30997 50.1795 12.6683 39.5264 20.6875 30.6816L20.6885 30.6797L21.4883 29.8105C29.7968 20.9016 39.448 14.1196 50.4316 9.48242C61.7549 4.48952 73.9359 2.00006 86.9521 2ZM351.683 148.492C361.061 148.492 368.82 151.513 374.77 157.648L375.34 158.211C381.142 164.079 384 171.65 384 180.746C384 189.843 381.143 197.497 375.364 203.555L374.796 204.136C368.835 210.084 361.065 213 351.683 213C342.299 213 334.44 210.085 328.276 204.162L328.249 204.136L328.224 204.108C322.288 197.958 319.365 190.114 319.365 180.746C319.365 171.379 322.288 163.624 328.25 157.675L328.832 157.108C334.902 151.342 342.57 148.492 351.683 148.492ZM297.946 5.18457V209.815H230.12V84.1621L214.08 94.834L212.337 95.9941L211.258 94.2002L182.536 46.4307L181.552 44.793L183.143 43.7344L240.586 5.51953L241.09 5.18457H297.946ZM86.9521 66.5078C80.4577 66.5079 74.613 69.5151 69.3789 75.9307L69.3799 75.9316C64.4769 82.1943 61.8262 92.5739 61.8262 107.5C61.8262 122.426 64.4769 132.806 69.3799 139.068C74.614 145.484 80.4577 148.492 86.9521 148.492C93.4495 148.492 99.1856 145.482 104.207 139.068L104.23 139.039C109.326 132.781 112.079 122.414 112.079 107.5C112.079 92.5857 109.326 82.2194 104.23 75.9609L104.207 75.9316C99.1856 69.5177 93.4495 66.5078 86.9521 66.5078Z" stroke="#F9FAFC" stroke-width="4"/>
</svg>
