<svg width="262" height="423" viewBox="0 0 262 423" fill="none" xmlns="http://www.w3.org/2000/svg">
<path d="M8.45161 4.18812C8.45161 6.50115 6.55965 8.37624 4.22581 8.37624C1.89196 8.37624 0 6.50115 0 4.18812C0 1.87508 1.89196 0 4.22581 0C6.55965 0 8.45161 1.87508 8.45161 4.18812Z" fill="black"/>
<path d="M8.45161 50.2574C8.45161 52.5705 6.55965 54.4455 4.22581 54.4455C1.89196 54.4455 0 52.5705 0 50.2574C0 47.9444 1.89196 46.0693 4.22581 46.0693C6.55965 46.0693 8.45161 47.9444 8.45161 50.2574Z" fill="black"/>
<path d="M8.45161 96.3267C8.45161 98.6398 6.55965 100.515 4.22581 100.515C1.89196 100.515 0 98.6398 0 96.3267C0 94.0137 1.89196 92.1386 4.22581 92.1386C6.55965 92.1386 8.45161 94.0137 8.45161 96.3267Z" fill="black"/>
<path d="M8.45161 142.396C8.45161 144.709 6.55965 146.584 4.22581 146.584C1.89196 146.584 0 144.709 0 142.396C0 140.083 1.89196 138.208 4.22581 138.208C6.55965 138.208 8.45161 140.083 8.45161 142.396Z" fill="black"/>
<path d="M8.45161 188.465C8.45161 190.778 6.55965 192.653 4.22581 192.653C1.89196 192.653 0 190.778 0 188.465C0 186.152 1.89196 184.277 4.22581 184.277C6.55965 184.277 8.45161 186.152 8.45161 188.465Z" fill="black"/>
<path d="M8.45161 234.535C8.45161 236.848 6.55965 238.723 4.22581 238.723C1.89196 238.723 0 236.848 0 234.535C0 232.222 1.89196 230.347 4.22581 230.347C6.55965 230.347 8.45161 232.222 8.45161 234.535Z" fill="black"/>
<path d="M8.45161 280.604C8.45161 282.917 6.55965 284.792 4.22581 284.792C1.89196 284.792 0 282.917 0 280.604C0 278.291 1.89196 276.416 4.22581 276.416C6.55965 276.416 8.45161 278.291 8.45161 280.604Z" fill="black"/>
<path d="M8.45161 326.673C8.45161 328.986 6.55965 330.861 4.22581 330.861C1.89196 330.861 0 328.986 0 326.673C0 324.36 1.89196 322.485 4.22581 322.485C6.55965 322.485 8.45161 324.36 8.45161 326.673Z" fill="black"/>
<path d="M8.45161 372.743C8.45161 375.056 6.55965 376.931 4.22581 376.931C1.89196 376.931 0 375.056 0 372.743C0 370.43 1.89196 368.554 4.22581 368.554C6.55965 368.554 8.45161 370.43 8.45161 372.743Z" fill="black"/>
<path d="M8.45161 418.812C8.45161 421.125 6.55965 423 4.22581 423C1.89196 423 0 421.125 0 418.812C0 416.499 1.89196 414.624 4.22581 414.624C6.55965 414.624 8.45161 416.499 8.45161 418.812Z" fill="black"/>
<path d="M59.1613 4.18812C59.1613 6.50115 57.2693 8.37624 54.9355 8.37624C52.6016 8.37624 50.7097 6.50115 50.7097 4.18812C50.7097 1.87508 52.6016 0 54.9355 0C57.2693 0 59.1613 1.87508 59.1613 4.18812Z" fill="black"/>
<path d="M59.1613 50.2574C59.1613 52.5705 57.2693 54.4455 54.9355 54.4455C52.6016 54.4455 50.7097 52.5705 50.7097 50.2574C50.7097 47.9444 52.6016 46.0693 54.9355 46.0693C57.2693 46.0693 59.1613 47.9444 59.1613 50.2574Z" fill="black"/>
<path d="M59.1613 96.3267C59.1613 98.6398 57.2693 100.515 54.9355 100.515C52.6016 100.515 50.7097 98.6398 50.7097 96.3267C50.7097 94.0137 52.6016 92.1386 54.9355 92.1386C57.2693 92.1386 59.1613 94.0137 59.1613 96.3267Z" fill="black"/>
<path d="M59.1613 142.396C59.1613 144.709 57.2693 146.584 54.9355 146.584C52.6016 146.584 50.7097 144.709 50.7097 142.396C50.7097 140.083 52.6016 138.208 54.9355 138.208C57.2693 138.208 59.1613 140.083 59.1613 142.396Z" fill="black"/>
<path d="M59.1613 188.465C59.1613 190.778 57.2693 192.653 54.9355 192.653C52.6016 192.653 50.7097 190.778 50.7097 188.465C50.7097 186.152 52.6016 184.277 54.9355 184.277C57.2693 184.277 59.1613 186.152 59.1613 188.465Z" fill="black"/>
<path d="M59.1613 234.535C59.1613 236.848 57.2693 238.723 54.9355 238.723C52.6016 238.723 50.7097 236.848 50.7097 234.535C50.7097 232.222 52.6016 230.347 54.9355 230.347C57.2693 230.347 59.1613 232.222 59.1613 234.535Z" fill="black"/>
<path d="M59.1613 280.604C59.1613 282.917 57.2693 284.792 54.9355 284.792C52.6016 284.792 50.7097 282.917 50.7097 280.604C50.7097 278.291 52.6016 276.416 54.9355 276.416C57.2693 276.416 59.1613 278.291 59.1613 280.604Z" fill="black"/>
<path d="M59.1613 326.673C59.1613 328.986 57.2693 330.861 54.9355 330.861C52.6016 330.861 50.7097 328.986 50.7097 326.673C50.7097 324.36 52.6016 322.485 54.9355 322.485C57.2693 322.485 59.1613 324.36 59.1613 326.673Z" fill="black"/>
<path d="M59.1613 372.743C59.1613 375.056 57.2693 376.931 54.9355 376.931C52.6016 376.931 50.7097 375.056 50.7097 372.743C50.7097 370.43 52.6016 368.554 54.9355 368.554C57.2693 368.554 59.1613 370.43 59.1613 372.743Z" fill="black"/>
<path d="M59.1613 418.812C59.1613 421.125 57.2693 423 54.9355 423C52.6016 423 50.7097 421.125 50.7097 418.812C50.7097 416.499 52.6016 414.624 54.9355 414.624C57.2693 414.624 59.1613 416.499 59.1613 418.812Z" fill="black"/>
<path d="M109.871 4.18812C109.871 6.50115 107.979 8.37624 105.645 8.37624C103.311 8.37624 101.419 6.50115 101.419 4.18812C101.419 1.87508 103.311 0 105.645 0C107.979 0 109.871 1.87508 109.871 4.18812Z" fill="black"/>
<path d="M109.871 50.2574C109.871 52.5705 107.979 54.4455 105.645 54.4455C103.311 54.4455 101.419 52.5705 101.419 50.2574C101.419 47.9444 103.311 46.0693 105.645 46.0693C107.979 46.0693 109.871 47.9444 109.871 50.2574Z" fill="black"/>
<path d="M109.871 96.3267C109.871 98.6398 107.979 100.515 105.645 100.515C103.311 100.515 101.419 98.6398 101.419 96.3267C101.419 94.0137 103.311 92.1386 105.645 92.1386C107.979 92.1386 109.871 94.0137 109.871 96.3267Z" fill="black"/>
<path d="M109.871 142.396C109.871 144.709 107.979 146.584 105.645 146.584C103.311 146.584 101.419 144.709 101.419 142.396C101.419 140.083 103.311 138.208 105.645 138.208C107.979 138.208 109.871 140.083 109.871 142.396Z" fill="black"/>
<path d="M109.871 188.465C109.871 190.778 107.979 192.653 105.645 192.653C103.311 192.653 101.419 190.778 101.419 188.465C101.419 186.152 103.311 184.277 105.645 184.277C107.979 184.277 109.871 186.152 109.871 188.465Z" fill="black"/>
<path d="M109.871 234.535C109.871 236.848 107.979 238.723 105.645 238.723C103.311 238.723 101.419 236.848 101.419 234.535C101.419 232.222 103.311 230.347 105.645 230.347C107.979 230.347 109.871 232.222 109.871 234.535Z" fill="black"/>
<path d="M109.871 280.604C109.871 282.917 107.979 284.792 105.645 284.792C103.311 284.792 101.419 282.917 101.419 280.604C101.419 278.291 103.311 276.416 105.645 276.416C107.979 276.416 109.871 278.291 109.871 280.604Z" fill="black"/>
<path d="M109.871 326.673C109.871 328.986 107.979 330.861 105.645 330.861C103.311 330.861 101.419 328.986 101.419 326.673C101.419 324.36 103.311 322.485 105.645 322.485C107.979 322.485 109.871 324.36 109.871 326.673Z" fill="black"/>
<path d="M109.871 372.743C109.871 375.056 107.979 376.931 105.645 376.931C103.311 376.931 101.419 375.056 101.419 372.743C101.419 370.43 103.311 368.554 105.645 368.554C107.979 368.554 109.871 370.43 109.871 372.743Z" fill="black"/>
<path d="M109.871 418.812C109.871 421.125 107.979 423 105.645 423C103.311 423 101.419 421.125 101.419 418.812C101.419 416.499 103.311 414.624 105.645 414.624C107.979 414.624 109.871 416.499 109.871 418.812Z" fill="black"/>
<path d="M160.581 4.18812C160.581 6.50115 158.689 8.37624 156.355 8.37624C154.021 8.37624 152.129 6.50115 152.129 4.18812C152.129 1.87508 154.021 0 156.355 0C158.689 0 160.581 1.87508 160.581 4.18812Z" fill="black"/>
<path d="M160.581 50.2574C160.581 52.5705 158.689 54.4455 156.355 54.4455C154.021 54.4455 152.129 52.5705 152.129 50.2574C152.129 47.9444 154.021 46.0693 156.355 46.0693C158.689 46.0693 160.581 47.9444 160.581 50.2574Z" fill="black"/>
<path d="M160.581 96.3267C160.581 98.6398 158.689 100.515 156.355 100.515C154.021 100.515 152.129 98.6398 152.129 96.3267C152.129 94.0137 154.021 92.1386 156.355 92.1386C158.689 92.1386 160.581 94.0137 160.581 96.3267Z" fill="black"/>
<path d="M160.581 142.396C160.581 144.709 158.689 146.584 156.355 146.584C154.021 146.584 152.129 144.709 152.129 142.396C152.129 140.083 154.021 138.208 156.355 138.208C158.689 138.208 160.581 140.083 160.581 142.396Z" fill="black"/>
<path d="M160.581 188.465C160.581 190.778 158.689 192.653 156.355 192.653C154.021 192.653 152.129 190.778 152.129 188.465C152.129 186.152 154.021 184.277 156.355 184.277C158.689 184.277 160.581 186.152 160.581 188.465Z" fill="black"/>
<path d="M160.581 234.535C160.581 236.848 158.689 238.723 156.355 238.723C154.021 238.723 152.129 236.848 152.129 234.535C152.129 232.222 154.021 230.347 156.355 230.347C158.689 230.347 160.581 232.222 160.581 234.535Z" fill="black"/>
<path d="M160.581 280.604C160.581 282.917 158.689 284.792 156.355 284.792C154.021 284.792 152.129 282.917 152.129 280.604C152.129 278.291 154.021 276.416 156.355 276.416C158.689 276.416 160.581 278.291 160.581 280.604Z" fill="black"/>
<path d="M160.581 326.673C160.581 328.986 158.689 330.861 156.355 330.861C154.021 330.861 152.129 328.986 152.129 326.673C152.129 324.36 154.021 322.485 156.355 322.485C158.689 322.485 160.581 324.36 160.581 326.673Z" fill="black"/>
<path d="M160.581 372.743C160.581 375.056 158.689 376.931 156.355 376.931C154.021 376.931 152.129 375.056 152.129 372.743C152.129 370.43 154.021 368.554 156.355 368.554C158.689 368.554 160.581 370.43 160.581 372.743Z" fill="black"/>
<path d="M160.581 418.812C160.581 421.125 158.689 423 156.355 423C154.021 423 152.129 421.125 152.129 418.812C152.129 416.499 154.021 414.624 156.355 414.624C158.689 414.624 160.581 416.499 160.581 418.812Z" fill="black"/>
<path d="M211.29 4.18812C211.29 6.50115 209.398 8.37624 207.064 8.37624C204.731 8.37624 202.839 6.50115 202.839 4.18812C202.839 1.87508 204.731 0 207.064 0C209.398 0 211.29 1.87508 211.29 4.18812Z" fill="black"/>
<path d="M211.29 50.2574C211.29 52.5705 209.398 54.4455 207.064 54.4455C204.731 54.4455 202.839 52.5705 202.839 50.2574C202.839 47.9444 204.731 46.0693 207.064 46.0693C209.398 46.0693 211.29 47.9444 211.29 50.2574Z" fill="black"/>
<path d="M211.29 96.3267C211.29 98.6398 209.398 100.515 207.064 100.515C204.731 100.515 202.839 98.6398 202.839 96.3267C202.839 94.0137 204.731 92.1386 207.064 92.1386C209.398 92.1386 211.29 94.0137 211.29 96.3267Z" fill="black"/>
<path d="M211.29 142.396C211.29 144.709 209.398 146.584 207.064 146.584C204.731 146.584 202.839 144.709 202.839 142.396C202.839 140.083 204.731 138.208 207.064 138.208C209.398 138.208 211.29 140.083 211.29 142.396Z" fill="black"/>
<path d="M211.29 188.465C211.29 190.778 209.398 192.653 207.064 192.653C204.731 192.653 202.839 190.778 202.839 188.465C202.839 186.152 204.731 184.277 207.064 184.277C209.398 184.277 211.29 186.152 211.29 188.465Z" fill="black"/>
<path d="M211.29 234.535C211.29 236.848 209.398 238.723 207.064 238.723C204.731 238.723 202.839 236.848 202.839 234.535C202.839 232.222 204.731 230.347 207.064 230.347C209.398 230.347 211.29 232.222 211.29 234.535Z" fill="black"/>
<path d="M211.29 280.604C211.29 282.917 209.398 284.792 207.064 284.792C204.731 284.792 202.839 282.917 202.839 280.604C202.839 278.291 204.731 276.416 207.064 276.416C209.398 276.416 211.29 278.291 211.29 280.604Z" fill="black"/>
<path d="M211.29 326.673C211.29 328.986 209.398 330.861 207.064 330.861C204.731 330.861 202.839 328.986 202.839 326.673C202.839 324.36 204.731 322.485 207.064 322.485C209.398 322.485 211.29 324.36 211.29 326.673Z" fill="black"/>
<path d="M211.29 372.743C211.29 375.056 209.398 376.931 207.064 376.931C204.731 376.931 202.839 375.056 202.839 372.743C202.839 370.43 204.731 368.554 207.064 368.554C209.398 368.554 211.29 370.43 211.29 372.743Z" fill="black"/>
<path d="M211.29 418.812C211.29 421.125 209.398 423 207.064 423C204.731 423 202.839 421.125 202.839 418.812C202.839 416.499 204.731 414.624 207.064 414.624C209.398 414.624 211.29 416.499 211.29 418.812Z" fill="black"/>
<path d="M262 4.18812C262 6.50115 260.108 8.37624 257.774 8.37624C255.44 8.37624 253.548 6.50115 253.548 4.18812C253.548 1.87508 255.44 0 257.774 0C260.108 0 262 1.87508 262 4.18812Z" fill="black"/>
<path d="M262 50.2574C262 52.5705 260.108 54.4455 257.774 54.4455C255.44 54.4455 253.548 52.5705 253.548 50.2574C253.548 47.9444 255.44 46.0693 257.774 46.0693C260.108 46.0693 262 47.9444 262 50.2574Z" fill="black"/>
<path d="M262 96.3267C262 98.6398 260.108 100.515 257.774 100.515C255.44 100.515 253.548 98.6398 253.548 96.3267C253.548 94.0137 255.44 92.1386 257.774 92.1386C260.108 92.1386 262 94.0137 262 96.3267Z" fill="black"/>
<path d="M262 142.396C262 144.709 260.108 146.584 257.774 146.584C255.44 146.584 253.548 144.709 253.548 142.396C253.548 140.083 255.44 138.208 257.774 138.208C260.108 138.208 262 140.083 262 142.396Z" fill="black"/>
<path d="M262 188.465C262 190.778 260.108 192.653 257.774 192.653C255.44 192.653 253.548 190.778 253.548 188.465C253.548 186.152 255.44 184.277 257.774 184.277C260.108 184.277 262 186.152 262 188.465Z" fill="black"/>
<path d="M262 234.535C262 236.848 260.108 238.723 257.774 238.723C255.44 238.723 253.548 236.848 253.548 234.535C253.548 232.222 255.44 230.347 257.774 230.347C260.108 230.347 262 232.222 262 234.535Z" fill="black"/>
<path d="M262 280.604C262 282.917 260.108 284.792 257.774 284.792C255.44 284.792 253.548 282.917 253.548 280.604C253.548 278.291 255.44 276.416 257.774 276.416C260.108 276.416 262 278.291 262 280.604Z" fill="black"/>
<path d="M262 326.673C262 328.986 260.108 330.861 257.774 330.861C255.44 330.861 253.548 328.986 253.548 326.673C253.548 324.36 255.44 322.485 257.774 322.485C260.108 322.485 262 324.36 262 326.673Z" fill="black"/>
<path d="M262 372.743C262 375.056 260.108 376.931 257.774 376.931C255.44 376.931 253.548 375.056 253.548 372.743C253.548 370.43 255.44 368.554 257.774 368.554C260.108 368.554 262 370.43 262 372.743Z" fill="black"/>
<path d="M262 418.812C262 421.125 260.108 423 257.774 423C255.44 423 253.548 421.125 253.548 418.812C253.548 416.499 255.44 414.624 257.774 414.624C260.108 414.624 262 416.499 262 418.812Z" fill="black"/>
</svg>
