<svg width="201" height="200" viewBox="0 0 201 200" fill="none" xmlns="http://www.w3.org/2000/svg">
<path fill-rule="evenodd" clip-rule="evenodd" d="M125.224 173.134C165.615 159.619 187.402 115.92 173.887 75.5297C160.373 35.139 116.674 13.3516 76.2834 26.8661C35.8927 40.3806 14.1053 84.0794 27.6199 124.47C41.1344 164.861 84.8332 186.648 125.224 173.134ZM125.821 174.917C167.197 161.073 189.515 116.309 175.671 74.9328C161.827 33.557 117.062 11.2382 75.6866 25.0824C34.3108 38.9265 11.9919 83.6911 25.8361 125.067C39.6803 166.443 84.4449 188.762 125.821 174.917Z" fill="black"/>
<path d="M82.0758 81.9961C86.1063 94.0423 86.4017 104.802 82.7355 106.029C79.0693 107.255 72.8298 98.4845 68.7992 86.4384C64.7686 74.3923 64.4733 63.6325 68.1395 62.4058C71.8057 61.1791 78.0452 69.95 82.0758 81.9961Z" fill="black"/>
<path d="M120.009 69.3038C124.039 81.3499 124.122 92.1807 120.194 93.495C116.266 94.8094 109.814 86.1095 105.784 74.0634C101.753 62.0173 101.67 51.1865 105.598 49.8722C109.526 48.5579 115.978 57.2577 120.009 69.3038Z" fill="black"/>
<path fill-rule="evenodd" clip-rule="evenodd" d="M148.301 106.587C132.844 137.996 93.3354 151.235 62.9476 135.132L63.8088 133.465C93.2372 149.06 131.618 136.239 146.626 105.741L148.301 106.587Z" fill="black"/>
<path fill-rule="evenodd" clip-rule="evenodd" d="M62.1399 142.173C60.6405 133.979 66.4762 128.853 69.5491 127.312L70.3683 128.946C67.6648 130.302 62.6456 134.783 63.9378 141.844L62.1399 142.173Z" fill="black"/>
<path fill-rule="evenodd" clip-rule="evenodd" d="M155.076 111.077C151.342 103.631 143.597 103.049 140.215 103.668L140.544 105.466C143.519 104.921 150.224 105.479 153.442 111.896L155.076 111.077Z" fill="black"/>
</svg>
