<svg width="195" height="194" viewBox="0 0 195 194" fill="none" xmlns="http://www.w3.org/2000/svg">
<path fill-rule="evenodd" clip-rule="evenodd" d="M77.55 171.246C118.69 182.27 160.978 157.855 172.001 116.715C183.025 75.5743 158.61 33.2871 117.47 22.2636C76.3294 11.24 34.0421 35.6546 23.0186 76.795C11.9951 117.935 36.4096 160.223 77.55 171.246ZM77.0632 173.063C119.207 184.355 162.526 159.345 173.818 117.202C185.11 75.0577 160.1 31.7391 117.957 20.4467C75.8128 9.1543 32.4941 34.1643 21.2017 76.3081C9.90933 118.452 34.9193 161.771 77.0632 173.063Z" fill="black"/>
<path d="M91.8716 71.4325C88.584 83.7023 82.8916 92.8377 79.1573 91.8371C75.4231 90.8365 75.061 80.0788 78.3487 67.8091C81.6363 55.5393 87.3287 46.4039 91.063 47.4045C94.7973 48.4051 95.1593 59.1628 91.8716 71.4325Z" fill="black"/>
<path d="M130.509 81.7856C127.221 94.0553 121.312 103.133 117.311 102.061C113.31 100.989 112.732 90.173 116.02 77.9033C119.307 65.6336 125.216 56.5561 129.217 57.6282C133.218 58.7002 133.796 69.5159 130.509 81.7856Z" fill="black"/>
<path fill-rule="evenodd" clip-rule="evenodd" d="M133.523 128.491C103.298 146.151 63.0453 135.385 46.5933 105.184L48.2314 104.27C64.1639 133.517 103.245 144.008 132.593 126.861L133.523 128.491Z" fill="black"/>
<path fill-rule="evenodd" clip-rule="evenodd" d="M42.0336 110.61C45.3058 102.95 53.0011 101.896 56.414 102.307L56.1953 104.122C53.1927 103.76 46.5342 104.727 43.7143 111.328L42.0336 110.61Z" fill="black"/>
<path fill-rule="evenodd" clip-rule="evenodd" d="M136.694 135.974C137.691 127.704 131.553 122.944 128.392 121.594L127.674 123.275C130.455 124.463 135.738 128.629 134.88 135.756L136.694 135.974Z" fill="black"/>
</svg>
