<svg width="196" height="207" viewBox="0 0 196 207" fill="none" xmlns="http://www.w3.org/2000/svg">
<path d="M75.0872 33.7188C75.0872 56.8227 91.1315 84.419 98.191 97.2545C105.892 83.7772 123.22 58.3629 123.22 33.7188C123.22 9.07464 113.594 0.988281 98.191 0.988281C82.7885 0.988281 75.0872 10.6149 75.0872 33.7188Z" fill="#030106"/>
<path d="M143.589 50.084C123.58 61.6359 107.703 89.3289 100.117 101.86C115.639 101.791 146.313 104.091 167.655 91.7685C188.998 79.4464 191.187 67.0663 183.486 53.7273C175.785 40.3883 163.597 38.5321 143.589 50.084Z" fill="#030106"/>
<path d="M52.4121 50.084C72.4206 61.6359 88.2976 89.3289 95.8837 101.86C80.3614 101.791 49.688 104.091 28.3456 91.7685C7.0031 79.4464 4.81341 67.0663 12.5147 53.7273C20.216 40.3883 32.4035 38.5321 52.4121 50.084Z" fill="#030106"/>
<path d="M75.0872 173.595C75.0872 150.491 91.1315 122.895 98.191 110.059C105.892 123.536 123.22 148.951 123.22 173.595C123.22 198.239 113.594 206.325 98.191 206.325C82.7885 206.325 75.0872 196.699 75.0872 173.595Z" fill="#030106"/>
<path d="M143.589 157.229C123.58 145.678 107.703 117.985 100.117 105.453C115.639 105.522 146.313 103.223 167.655 115.545C188.998 127.867 191.187 140.247 183.486 153.586C175.785 166.925 163.597 168.781 143.589 157.229Z" fill="#030106"/>
<path d="M52.4121 157.229C72.4206 145.678 88.2976 117.985 95.8837 105.453C80.3614 105.522 49.688 103.223 28.3456 115.545C7.0031 127.867 4.81341 140.247 12.5147 153.586C20.216 166.925 32.4035 168.781 52.4121 157.229Z" fill="#030106"/>
<circle cx="98.192" cy="101.105" r="25.0292" fill="#CEF101"/>
</svg>
