<svg width="109" height="114" viewBox="0 0 109 114" fill="none" xmlns="http://www.w3.org/2000/svg">
<path d="M41.4407 18.0639C41.4407 30.815 50.2955 46.0453 54.1917 53.1292C58.442 45.6911 68.0053 31.665 68.0053 18.0639C68.0053 4.46285 62.6924 0 54.1917 0C45.691 0 41.4407 5.31292 41.4407 18.0639Z" fill="#030106"/>
<path d="M79.2461 27.0959C68.2034 33.4714 59.4409 48.7552 55.2541 55.6713C63.8209 55.6331 80.7495 56.9021 92.5284 50.1016C104.307 43.301 105.516 36.4685 101.265 29.1067C97.0151 21.7449 90.2888 20.7204 79.2461 27.0959Z" fill="#030106"/>
<path d="M28.9262 27.0959C39.9689 33.4714 48.7313 48.7552 52.9181 55.6713C44.3514 55.6331 27.4228 56.9021 15.6439 50.1016C3.86499 43.301 2.6565 36.4685 6.90684 29.1067C11.1572 21.7449 17.8835 20.7204 28.9262 27.0959Z" fill="#030106"/>
<path d="M41.4407 95.2613C41.4407 82.5102 50.2955 67.2799 54.1917 60.196C58.442 67.6341 68.0053 81.6602 68.0053 95.2613C68.0053 108.862 62.6924 113.325 54.1917 113.325C45.691 113.325 41.4407 108.012 41.4407 95.2613Z" fill="#030106"/>
<path d="M79.2461 86.2293C68.2034 79.8538 59.4409 64.57 55.2541 57.6539C63.8209 57.6921 80.7495 56.4231 92.5284 63.2236C104.307 70.0242 105.516 76.8567 101.265 84.2185C97.0151 91.5803 90.2888 92.6048 79.2461 86.2293Z" fill="#030106"/>
<path d="M28.9262 86.2293C39.9689 79.8538 48.7313 64.57 52.9181 57.6539C44.3514 57.6921 27.4228 56.4231 15.6439 63.2236C3.86499 70.0242 2.6565 76.8567 6.90684 84.2185C11.1572 91.5803 17.8835 92.6048 28.9262 86.2293Z" fill="#030106"/>
<circle cx="54.1918" cy="55.2545" r="13.8136" fill="#CAA3E4"/>
</svg>
