<svg width="678" height="290" viewBox="0 0 678 290" fill="none" xmlns="http://www.w3.org/2000/svg">
<path d="M339 1.5C432.459 1.5 517 17.7061 578.119 43.8486C608.682 56.9211 633.319 72.4487 650.293 89.6143C667.261 106.774 676.5 125.488 676.5 145C676.5 164.512 667.261 183.226 650.293 200.386C633.319 217.551 608.682 233.079 578.119 246.151C517 272.294 432.459 288.5 339 288.5C245.541 288.5 161 272.294 99.8809 246.151C69.3184 233.079 44.6814 217.551 27.707 200.386C10.7389 183.226 1.5 164.512 1.5 145C1.5 125.488 10.7389 106.774 27.707 89.6143C44.6814 72.4487 69.3184 56.9211 99.8809 43.8486C161 17.7061 245.541 1.5 339 1.5Z" fill="#CEF101" stroke="black" stroke-width="3"/>
</svg>
