<svg width="454" height="454" viewBox="0 0 454 454" fill="none" xmlns="http://www.w3.org/2000/svg">
<path d="M58.9187 0L453.153 58.9188L394.235 453.153L-5.90754e-05 394.235L58.9187 0Z" fill="#975DA9"/>
<path fill-rule="evenodd" clip-rule="evenodd" d="M450.091 61.1844L61.1843 3.06185L3.06179 391.969L391.969 450.092L450.091 61.1844ZM58.9187 0L-5.90754e-05 394.235L394.235 453.153L453.153 58.9188L58.9187 0Z" fill="black"/>
<path d="M106.177 335.507L144.106 341.175L138.176 380.854L123.588 378.674L121.717 371.236C120.084 372.583 118.169 373.688 115.972 374.553C114.019 375.375 111.618 376.01 108.767 376.459C106.005 376.842 102.718 376.748 98.9059 376.178C94.0822 375.458 89.6372 373.799 85.5709 371.203C81.5163 368.529 78.072 365.23 75.2381 361.307C72.4042 357.383 70.3578 352.981 69.0987 348.1C67.8397 343.219 67.6055 338.133 68.3962 332.843C69.1753 327.63 70.8803 322.874 73.5114 318.574C76.232 314.208 79.5597 310.57 83.4946 307.658C87.5074 304.758 91.9931 302.684 96.952 301.437C102 300.123 107.209 299.867 112.577 300.67C116.389 301.24 119.793 302.146 122.789 303.389C125.797 304.554 128.413 305.94 130.639 307.545C132.877 309.073 134.774 310.748 136.331 312.572C137.899 314.317 139.223 316.106 140.301 317.937C142.777 322.125 144.316 326.73 144.918 331.751L121.228 330.597C120.535 329.38 119.63 328.251 118.513 327.209C117.529 326.346 116.266 325.481 114.725 324.614C113.262 323.759 111.442 323.169 109.263 322.843C107.24 322.541 105.231 322.678 103.236 323.255C101.33 323.766 99.5667 324.656 97.9454 325.924C96.3356 327.116 94.9575 328.62 93.811 330.437C92.7539 332.188 92.0626 334.153 91.737 336.331C91.4114 338.51 91.4923 340.63 91.9796 342.691C92.5564 344.686 93.4345 346.527 94.614 348.215C95.8052 349.825 97.2315 351.191 98.8931 352.314C100.644 353.372 102.531 354.051 104.554 354.354C106.421 354.633 108.09 354.643 109.56 354.386C111.108 354.14 112.434 353.781 113.539 353.31C114.81 352.784 115.938 352.157 116.922 351.43L104.085 349.511L106.177 335.507Z" fill="#F14857"/>
<path d="M205.505 353.334C205.831 351.155 205.705 349.069 205.128 347.073C204.641 345.012 203.802 343.177 202.611 341.567C201.431 339.879 199.966 338.507 198.215 337.45C196.553 336.327 194.711 335.614 192.688 335.311C190.665 335.009 188.656 335.146 186.661 335.723C184.755 336.234 182.992 337.123 181.37 338.392C179.761 339.584 178.383 341.088 177.236 342.905C176.179 344.656 175.488 346.621 175.162 348.799C174.836 350.978 174.917 353.097 175.405 355.159C175.981 357.154 176.86 358.995 178.039 360.683C179.23 362.293 180.657 363.659 182.318 364.782C184.069 365.839 185.956 366.519 187.979 366.822C190.002 367.124 191.966 367.02 193.872 366.509C195.867 365.932 197.669 365.048 199.279 363.857C200.901 362.588 202.24 361.078 203.297 359.327C204.443 357.51 205.179 355.512 205.505 353.334ZM228.846 356.822C228.055 362.113 226.305 366.902 223.596 371.19C220.965 375.49 217.643 379.09 213.631 381.99C209.696 384.901 205.204 387.014 200.156 388.328C195.197 389.575 190.033 389.798 184.665 388.995C179.297 388.193 174.385 386.465 169.93 383.81C165.564 381.09 161.886 377.756 158.897 373.81C155.985 369.875 153.861 365.461 152.524 360.568C151.265 355.687 151.031 350.601 151.821 345.311C152.6 340.098 154.305 335.342 156.936 331.042C159.657 326.676 162.985 323.038 166.92 320.126C170.932 317.226 175.418 315.152 180.377 313.905C185.425 312.591 190.634 312.335 196.002 313.138C201.37 313.94 206.237 315.701 210.603 318.422C215.059 321.076 218.742 324.371 221.654 328.306C224.643 332.252 226.762 336.705 228.009 341.664C229.346 346.557 229.625 351.609 228.846 356.822Z" fill="#F14857"/>
<path d="M289.5 365.887C289.825 363.709 289.7 361.622 289.123 359.627C288.636 357.565 287.797 355.73 286.605 354.12C285.426 352.432 283.961 351.06 282.21 350.003C280.548 348.88 278.706 348.167 276.683 347.865C274.66 347.562 272.651 347.699 270.656 348.276C268.75 348.787 266.987 349.677 265.365 350.946C263.756 352.137 262.377 353.641 261.231 355.458C260.174 357.209 259.482 359.174 259.157 361.352C258.831 363.531 258.912 365.651 259.4 367.712C259.976 369.707 260.854 371.548 262.034 373.236C263.225 374.846 264.651 376.212 266.313 377.336C268.064 378.393 269.951 379.072 271.974 379.375C273.997 379.677 275.961 379.573 277.867 379.062C279.862 378.485 281.664 377.601 283.274 376.41C284.895 375.141 286.235 373.631 287.292 371.88C288.438 370.063 289.174 368.065 289.5 365.887ZM312.841 369.375C312.05 374.666 310.3 379.455 307.591 383.743C304.96 388.043 301.638 391.643 297.626 394.543C293.691 397.455 289.199 399.567 284.151 400.881C279.192 402.128 274.028 402.351 268.66 401.548C263.292 400.746 258.38 399.018 253.924 396.363C249.559 393.643 245.881 390.309 242.891 386.363C239.98 382.428 237.855 378.014 236.519 373.121C235.26 368.24 235.025 363.154 235.816 357.864C236.595 352.651 238.3 347.895 240.931 343.595C243.652 339.229 246.98 335.591 250.915 332.679C254.927 329.779 259.413 327.705 264.372 326.458C269.42 325.144 274.629 324.889 279.997 325.691C285.365 326.493 290.232 328.255 294.598 330.975C299.053 333.629 302.737 336.924 305.649 340.859C308.638 344.806 310.757 349.258 312.004 354.217C313.341 359.11 313.62 364.163 312.841 369.375Z" fill="#F14857"/>
<path d="M347.799 390.707C349.822 391.009 351.787 390.905 353.692 390.394C355.687 389.818 357.49 388.934 359.1 387.743C360.721 386.474 362.06 384.964 363.117 383.213C364.264 381.395 365 379.398 365.325 377.219C365.651 375.041 365.525 372.954 364.949 370.959C364.461 368.897 363.622 367.062 362.431 365.452C361.251 363.765 359.786 362.392 358.035 361.335C356.374 360.212 354.531 359.499 352.509 359.197L347.84 358.499L343.131 390.009L347.799 390.707ZM327.639 334.004L355.648 338.19C361.328 339.039 366.401 340.752 370.868 343.328C375.335 345.905 378.997 349.077 381.854 352.845C384.789 356.624 386.853 360.909 388.046 365.701C389.238 370.493 389.445 375.495 388.666 380.708C387.876 385.998 386.209 390.76 383.668 394.994C381.138 399.149 377.917 402.605 374.005 405.361C370.171 408.129 365.742 410.092 360.717 411.25C355.692 412.408 350.34 412.562 344.66 411.714L316.651 407.528L327.639 334.004Z" fill="#F14857"/>
<path d="M93.1775 324.507L131.106 330.175L125.176 369.854L110.588 367.674L108.717 360.236C107.084 361.583 105.169 362.688 102.972 363.553C101.019 364.375 98.6177 365.01 95.7668 365.459C93.0052 365.842 89.7182 365.748 85.9059 365.178C81.0822 364.458 76.6372 362.799 72.5709 360.203C68.5163 357.529 65.072 354.23 62.2381 350.307C59.4042 346.383 57.3578 341.981 56.0987 337.1C54.8397 332.219 54.6055 327.133 55.3962 321.843C56.1753 316.63 57.8803 311.874 60.5114 307.574C63.232 303.208 66.5597 299.57 70.4946 296.658C74.5074 293.758 78.9931 291.684 83.952 290.437C89.0003 289.123 94.2086 288.867 99.577 289.67C103.389 290.24 106.793 291.146 109.789 292.389C112.797 293.554 115.413 294.94 117.639 296.545C119.877 298.073 121.774 299.748 123.331 301.572C124.899 303.317 126.223 305.106 127.301 306.937C129.777 311.125 131.316 315.73 131.918 320.751L108.228 319.597C107.535 318.38 106.63 317.251 105.513 316.209C104.529 315.346 103.266 314.481 101.725 313.614C100.262 312.759 98.4416 312.169 96.2631 311.843C94.2402 311.541 92.2312 311.678 90.236 312.255C88.3303 312.766 86.5667 313.656 84.9454 314.924C83.3356 316.116 81.9575 317.62 80.811 319.437C79.7539 321.188 79.0626 323.153 78.737 325.331C78.4114 327.51 78.4923 329.63 78.9796 331.691C79.5564 333.686 80.4345 335.527 81.614 337.215C82.8052 338.825 84.2315 340.191 85.8931 341.314C87.6441 342.372 89.531 343.051 91.5539 343.354C93.4211 343.633 95.0899 343.643 96.5601 343.386C98.1081 343.14 99.4343 342.781 100.539 342.31C101.81 341.784 102.938 341.157 103.922 340.43L91.0845 338.511L93.1775 324.507Z" fill="white"/>
<path d="M192.505 342.334C192.831 340.155 192.705 338.069 192.128 336.073C191.641 334.012 190.802 332.177 189.611 330.567C188.431 328.879 186.966 327.507 185.215 326.45C183.553 325.327 181.711 324.614 179.688 324.311C177.665 324.009 175.656 324.146 173.661 324.723C171.755 325.234 169.992 326.123 168.37 327.392C166.761 328.584 165.383 330.088 164.236 331.905C163.179 333.656 162.488 335.621 162.162 337.799C161.836 339.978 161.917 342.097 162.405 344.159C162.981 346.154 163.86 347.995 165.039 349.683C166.23 351.293 167.657 352.659 169.318 353.782C171.069 354.839 172.956 355.519 174.979 355.822C177.002 356.124 178.966 356.02 180.872 355.509C182.867 354.932 184.669 354.048 186.279 352.857C187.901 351.588 189.24 350.078 190.297 348.327C191.443 346.51 192.179 344.512 192.505 342.334ZM215.846 345.822C215.055 351.113 213.305 355.902 210.596 360.19C207.965 364.49 204.643 368.09 200.631 370.99C196.696 373.901 192.204 376.014 187.156 377.328C182.197 378.575 177.033 378.798 171.665 377.995C166.297 377.193 161.385 375.465 156.93 372.81C152.564 370.09 148.886 366.756 145.897 362.81C142.985 358.875 140.861 354.461 139.524 349.568C138.265 344.687 138.031 339.601 138.821 334.311C139.6 329.098 141.305 324.342 143.936 320.042C146.657 315.676 149.985 312.038 153.92 309.126C157.932 306.226 162.418 304.152 167.377 302.905C172.425 301.591 177.634 301.335 183.002 302.138C188.37 302.94 193.237 304.701 197.603 307.422C202.059 310.076 205.742 313.371 208.654 317.306C211.643 321.252 213.762 325.705 215.009 330.664C216.346 335.557 216.625 340.609 215.846 345.822Z" fill="white"/>
<path d="M276.5 354.887C276.825 352.709 276.7 350.622 276.123 348.627C275.636 346.565 274.797 344.73 273.605 343.12C272.426 341.432 270.961 340.06 269.21 339.003C267.548 337.88 265.706 337.167 263.683 336.865C261.66 336.562 259.651 336.699 257.656 337.276C255.75 337.787 253.987 338.677 252.365 339.946C250.756 341.137 249.377 342.641 248.231 344.458C247.174 346.209 246.482 348.174 246.157 350.352C245.831 352.531 245.912 354.651 246.4 356.712C246.976 358.707 247.854 360.548 249.034 362.236C250.225 363.846 251.651 365.212 253.313 366.336C255.064 367.393 256.951 368.072 258.974 368.375C260.997 368.677 262.961 368.573 264.867 368.062C266.862 367.485 268.664 366.601 270.274 365.41C271.895 364.141 273.235 362.631 274.292 360.88C275.438 359.063 276.174 357.065 276.5 354.887ZM299.841 358.375C299.05 363.666 297.3 368.455 294.591 372.743C291.96 377.043 288.638 380.643 284.626 383.543C280.691 386.455 276.199 388.567 271.151 389.881C266.192 391.128 261.028 391.351 255.66 390.548C250.292 389.746 245.38 388.018 240.924 385.363C236.559 382.643 232.881 379.309 229.891 375.363C226.98 371.428 224.855 367.014 223.519 362.121C222.26 357.24 222.025 352.154 222.816 346.864C223.595 341.651 225.3 336.895 227.931 332.595C230.652 328.229 233.98 324.591 237.915 321.679C241.927 318.779 246.413 316.705 251.372 315.458C256.42 314.144 261.629 313.889 266.997 314.691C272.365 315.493 277.232 317.255 281.598 319.975C286.053 322.629 289.737 325.924 292.649 329.859C295.638 333.806 297.757 338.258 299.004 343.217C300.341 348.11 300.62 353.163 299.841 358.375Z" fill="white"/>
<path d="M334.799 379.707C336.822 380.009 338.787 379.905 340.692 379.394C342.687 378.818 344.49 377.934 346.1 376.743C347.721 375.474 349.06 373.964 350.117 372.213C351.264 370.395 352 368.398 352.325 366.219C352.651 364.041 352.525 361.954 351.949 359.959C351.461 357.897 350.622 356.062 349.431 354.452C348.251 352.765 346.786 351.392 345.035 350.335C343.374 349.212 341.531 348.499 339.509 348.197L334.84 347.499L330.131 379.009L334.799 379.707ZM314.639 323.004L342.648 327.19C348.328 328.039 353.401 329.752 357.868 332.328C362.335 334.905 365.997 338.077 368.854 341.845C371.789 345.624 373.853 349.909 375.046 354.701C376.238 359.493 376.445 364.495 375.666 369.708C374.876 374.998 373.209 379.76 370.668 383.994C368.138 388.149 364.917 391.605 361.005 394.361C357.171 397.129 352.742 399.092 347.717 400.25C342.692 401.408 337.34 401.562 331.66 400.714L303.651 396.528L314.639 323.004Z" fill="white"/>
<path fill-rule="evenodd" clip-rule="evenodd" d="M92.3362 323.37L132.243 329.334L126.017 370.991L109.781 368.565L108.116 361.948C106.693 362.946 105.102 363.789 103.349 364.479C101.303 365.339 98.8212 365.991 95.9222 366.447L95.9131 366.448L95.9039 366.45C93.0194 366.849 89.6315 366.746 85.758 366.168C80.7969 365.426 76.2186 363.718 72.0327 361.046L72.0264 361.042L72.0202 361.038C67.8649 358.297 64.3324 354.914 61.4274 350.892C58.5174 346.864 56.4192 342.347 55.1303 337.35C53.8358 332.331 53.5978 327.11 54.4071 321.695C55.205 316.356 56.9541 311.472 59.6584 307.052L59.6626 307.045C62.4463 302.578 65.8585 298.844 69.8997 295.854L69.9087 295.847C74.0266 292.871 78.6278 290.745 83.704 289.468C88.8867 288.12 94.2299 287.86 99.7247 288.681C103.599 289.26 107.08 290.184 110.161 291.461C113.226 292.649 115.913 294.069 118.214 295.727C120.506 297.293 122.466 299.02 124.083 300.913C125.688 302.7 127.049 304.538 128.162 306.429C130.712 310.741 132.293 315.479 132.911 320.633L133.052 321.808L107.631 320.569L107.359 320.092C106.723 318.974 105.887 317.927 104.843 316.951C103.926 316.149 102.729 315.326 101.235 314.486L101.228 314.482L101.221 314.478C99.895 313.703 98.2037 313.145 96.1152 312.833C94.2368 312.552 92.3729 312.678 90.5136 313.216L90.5042 313.219L90.4947 313.221C88.7246 313.695 87.0817 314.522 85.5616 315.712L85.551 315.72L85.5401 315.728C84.0395 316.839 82.7461 318.246 81.6619 319.962C80.681 321.59 80.0329 323.425 79.7259 325.479C79.4196 327.528 79.4952 329.512 79.9471 331.437C80.4924 333.314 81.3183 335.044 82.4259 336.631C83.5427 338.138 84.8768 339.417 86.4318 340.472C88.0635 341.453 89.8177 342.083 91.7016 342.365C93.4894 342.632 95.0469 342.636 96.3875 342.401L96.3953 342.4L96.4031 342.398C97.8933 342.162 99.1361 341.821 100.146 341.39L100.157 341.386C100.45 341.265 100.735 341.138 101.011 341.006L89.9476 339.352L92.3362 323.37ZM103.922 340.43C103.529 340.721 103.112 340.995 102.673 341.254C102.014 341.643 101.302 341.995 100.539 342.31C99.4342 342.782 98.108 343.14 96.56 343.386C95.0898 343.643 93.421 343.633 91.5538 343.354C89.5309 343.051 87.644 342.372 85.893 341.315C84.2314 340.191 82.8051 338.825 81.6139 337.215C80.4344 335.527 79.5563 333.686 78.9795 331.691C78.4922 329.63 78.4113 327.51 78.7369 325.331C79.0625 323.153 79.7538 321.188 80.8109 319.437C81.9574 317.62 83.3355 316.116 84.9453 314.925C86.5666 313.656 88.3302 312.766 90.2359 312.255C92.2311 311.679 94.2401 311.541 96.263 311.844C98.4415 312.169 100.262 312.759 101.725 313.614C103.266 314.481 104.529 315.346 105.513 316.209C106.63 317.251 107.535 318.38 108.228 319.597L131.918 320.752C131.877 320.414 131.833 320.078 131.784 319.744C131.105 315.113 129.611 310.844 127.301 306.937C126.223 305.106 124.899 303.317 123.331 301.572C121.774 299.748 119.877 298.073 117.639 296.545C115.413 294.94 112.797 293.555 109.789 292.389C106.793 291.146 103.389 290.24 99.5769 289.67C94.2085 288.868 89.0002 289.123 83.9519 290.437C78.993 291.684 74.5073 293.758 70.4945 296.658C66.5596 299.57 63.2319 303.208 60.5113 307.574C57.8802 311.874 56.1752 316.63 55.3961 321.843C54.6054 327.134 54.8396 332.219 56.0986 337.1C57.3577 341.981 59.4041 346.384 62.238 350.307C65.0719 354.23 68.5162 357.529 72.5708 360.203C76.637 362.799 81.0821 364.458 85.9058 365.179C89.7181 365.748 93.0051 365.842 95.7667 365.459C98.6176 365.01 101.019 364.375 102.972 363.553C104.793 362.836 106.421 361.954 107.854 360.906C108.15 360.69 108.438 360.466 108.717 360.236L110.588 367.674L125.176 369.854L131.106 330.175L93.1774 324.507L91.0844 338.511L103.922 340.43ZM191.161 336.328L191.155 336.304C190.697 334.366 189.913 332.656 188.807 331.162L188.799 331.151L188.791 331.14C187.691 329.566 186.328 328.29 184.698 327.306L184.676 327.293L184.655 327.278C183.119 326.24 181.418 325.581 179.54 325.301C177.662 325.02 175.798 325.146 173.939 325.684L173.929 325.687L173.92 325.689C172.15 326.163 170.507 326.99 168.987 328.18L168.976 328.188L168.965 328.196C167.465 329.307 166.171 330.714 165.087 332.43C164.106 334.057 163.458 335.892 163.151 337.947C162.845 339.996 162.92 341.98 163.372 343.905C163.917 345.782 164.743 347.512 165.851 349.099C166.968 350.606 168.302 351.885 169.857 352.94C171.489 353.921 173.243 354.551 175.127 354.833C177.015 355.115 178.838 355.017 180.603 354.546C182.48 354.002 184.168 353.173 185.673 352.062C187.195 350.869 188.449 349.453 189.441 347.811L189.446 347.802L189.451 347.794C190.522 346.097 191.21 344.231 191.516 342.186C191.822 340.141 191.702 338.2 191.167 336.351L191.161 336.328ZM186.279 352.857C184.669 354.048 182.867 354.932 180.872 355.509C178.966 356.02 177.002 356.124 174.979 355.822C172.956 355.519 171.069 354.84 169.318 353.782C167.656 352.659 166.23 351.293 165.039 349.683C163.859 347.995 162.981 346.154 162.405 344.159C161.917 342.098 161.836 339.978 162.162 337.799C162.487 335.621 163.179 333.656 164.236 331.905C165.382 330.088 166.761 328.584 168.37 327.393C169.992 326.124 171.755 325.234 173.661 324.723C175.656 324.146 177.665 324.009 179.688 324.312C181.711 324.614 183.553 325.327 185.215 326.45C186.966 327.507 188.431 328.879 189.61 330.567C190.802 332.177 191.641 334.012 192.128 336.074C192.705 338.069 192.831 340.156 192.505 342.334C192.179 344.512 191.443 346.51 190.297 348.327C189.24 350.078 187.9 351.588 186.279 352.857ZM187.408 378.295L187.4 378.298C182.305 379.579 177.008 379.805 171.517 378.984C166.026 378.164 160.99 376.393 156.418 373.669L156.409 373.664L156.401 373.659C151.935 370.877 148.165 367.461 145.099 363.414L145.093 363.405C142.105 359.367 139.927 354.84 138.559 349.832L138.557 349.825L138.555 349.818C137.261 344.799 137.023 339.578 137.832 334.163C138.63 328.824 140.379 323.939 143.083 319.52L143.088 319.513C145.871 315.046 149.284 311.312 153.325 308.322L153.334 308.315C157.452 305.339 162.053 303.213 167.129 301.936C172.312 300.588 177.655 300.328 183.15 301.149C188.642 301.97 193.638 303.774 198.124 306.568C202.681 309.284 206.462 312.664 209.454 316.707C212.524 320.76 214.697 325.332 215.976 330.411C217.349 335.439 217.633 340.629 216.835 345.97C216.025 351.388 214.23 356.308 211.445 360.719C208.748 365.124 205.339 368.82 201.221 371.797C197.178 374.788 192.57 376.952 187.408 378.295ZM200.631 370.99C204.643 368.09 207.965 364.49 210.596 360.19C213.305 355.902 215.055 351.113 215.846 345.822C216.625 340.61 216.346 335.557 215.009 330.664C213.762 325.705 211.643 321.253 208.654 317.306C205.742 313.371 202.059 310.076 197.603 307.422C193.237 304.702 188.37 302.94 183.002 302.138C177.634 301.336 172.425 301.591 167.377 302.905C162.418 304.152 157.932 306.226 153.92 309.126C149.985 312.038 146.657 315.676 143.936 320.042C141.305 324.342 139.6 329.098 138.821 334.311C138.03 339.601 138.265 344.687 139.524 349.568C140.86 354.461 142.985 358.875 145.896 362.81C148.886 366.756 152.564 370.09 156.929 372.81C161.385 375.465 166.297 377.193 171.665 377.995C177.033 378.798 182.197 378.575 187.156 377.328C192.204 376.014 196.696 373.901 200.631 370.99ZM275.156 348.881L275.15 348.857C274.692 346.919 273.907 345.21 272.801 343.715L272.793 343.704L272.786 343.693C271.686 342.119 270.323 340.844 268.693 339.859L268.671 339.846L268.649 339.832C267.114 338.794 265.413 338.134 263.535 337.854C261.657 337.573 259.793 337.7 257.934 338.237L257.924 338.24L257.915 338.242C256.145 338.717 254.502 339.543 252.982 340.733L252.971 340.741L252.96 340.75C251.459 341.86 250.166 343.267 249.082 344.984C248.101 346.611 247.453 348.446 247.146 350.5C246.84 352.549 246.915 354.533 247.367 356.458C247.912 358.335 248.738 360.065 249.846 361.652C250.963 363.159 252.297 364.438 253.852 365.493C255.483 366.474 257.238 367.104 259.122 367.386C261.01 367.668 262.833 367.571 264.598 367.099C266.475 366.555 268.163 365.727 269.668 364.615C271.19 363.422 272.444 362.006 273.436 360.364L273.441 360.355L273.446 360.347C274.517 358.65 275.205 356.784 275.511 354.739C275.816 352.694 275.697 350.753 275.162 348.904L275.156 348.881ZM270.274 365.41C268.664 366.602 266.862 367.486 264.867 368.062C262.961 368.573 260.997 368.677 258.974 368.375C256.951 368.072 255.064 367.393 253.313 366.336C251.651 365.212 250.225 363.846 249.034 362.236C247.854 360.549 246.976 358.707 246.399 356.712C245.912 354.651 245.831 352.531 246.157 350.352C246.482 348.174 247.174 346.209 248.231 344.458C249.377 342.641 250.755 341.137 252.365 339.946C253.987 338.677 255.75 337.787 257.656 337.276C259.651 336.7 261.66 336.562 263.683 336.865C265.706 337.167 267.548 337.88 269.21 339.003C270.961 340.06 272.426 341.432 273.605 343.12C274.796 344.73 275.636 346.565 276.123 348.627C276.7 350.622 276.825 352.709 276.5 354.887C276.174 357.066 275.438 359.063 274.292 360.881C273.235 362.632 271.895 364.142 270.274 365.41ZM271.402 390.849L271.395 390.851C266.3 392.132 261.003 392.358 255.512 391.537C250.021 390.717 244.985 388.947 240.413 386.223L240.404 386.217L240.395 386.212C235.93 383.43 232.16 380.014 229.094 375.967L229.087 375.958C226.099 371.92 223.922 367.393 222.554 362.385L222.552 362.378L222.55 362.371C221.256 357.353 221.018 352.131 221.827 346.716C222.625 341.377 224.374 336.493 227.078 332.073L227.083 332.066C229.866 327.599 233.278 323.866 237.32 320.875L237.329 320.869C241.446 317.893 246.047 315.767 251.124 314.489C256.306 313.141 261.65 312.881 267.145 313.702C272.637 314.523 277.632 316.327 282.119 319.121C286.675 321.838 290.456 325.217 293.449 329.26C296.519 333.314 298.692 337.885 299.971 342.964C301.344 347.992 301.628 353.182 300.83 358.523C300.02 363.941 298.225 368.861 295.44 373.272C292.743 377.678 289.334 381.373 285.216 384.35C281.173 387.341 276.565 389.505 271.402 390.849ZM284.625 383.543C288.638 380.643 291.96 377.043 294.591 372.743C297.3 368.455 299.05 363.666 299.841 358.375C300.62 353.163 300.341 348.11 299.004 343.217C297.757 338.258 295.638 333.806 292.649 329.859C289.737 325.924 286.053 322.63 281.598 319.975C277.232 317.255 272.365 315.493 266.997 314.691C261.628 313.889 256.42 314.144 251.372 315.458C246.413 316.705 241.927 318.779 237.914 321.679C233.98 324.591 230.652 328.23 227.931 332.595C225.3 336.895 223.595 341.651 222.816 346.864C222.025 352.155 222.26 357.24 223.519 362.121C224.855 367.014 226.98 371.428 229.891 375.363C232.881 379.309 236.559 382.643 240.924 385.363C245.38 388.018 250.291 389.746 255.66 390.548C261.028 391.351 266.192 391.128 271.151 389.881C276.199 388.567 280.691 386.455 284.625 383.543ZM349.266 371.687L349.272 371.679C350.342 369.982 351.031 368.116 351.336 366.072C351.642 364.026 351.522 362.085 350.988 360.237L350.981 360.213L350.975 360.189C350.517 358.252 349.733 356.542 348.627 355.047L348.619 355.036L348.611 355.025C347.511 353.451 346.149 352.176 344.518 351.191L344.496 351.178L344.475 351.164C342.94 350.126 341.239 349.467 339.361 349.186L335.682 348.636L331.268 378.168L334.947 378.718C336.836 379 338.659 378.903 340.424 378.431C342.301 377.887 343.989 377.059 345.494 375.947C347.016 374.754 348.27 373.338 349.261 371.696L349.266 371.687ZM330.131 379.009L334.84 347.499L339.508 348.197C341.531 348.499 343.374 349.212 345.035 350.335C346.786 351.392 348.251 352.765 349.431 354.452C350.622 356.062 351.461 357.898 351.949 359.959C352.525 361.954 352.651 364.041 352.325 366.219C352 368.398 351.264 370.396 350.117 372.213C349.06 373.964 347.721 375.474 346.1 376.743C344.49 377.934 342.687 378.818 340.692 379.395C338.786 379.905 336.822 380.009 334.799 379.707L330.131 379.009ZM313.798 321.867L342.796 326.201C348.585 327.066 353.78 328.816 358.367 331.462C362.938 334.098 366.703 337.355 369.647 341.236C372.668 345.128 374.791 349.539 376.016 354.459C377.242 359.387 377.452 364.522 376.655 369.855C375.847 375.265 374.14 380.153 371.525 384.508L371.522 384.514C368.923 388.783 365.609 392.339 361.586 395.175C357.636 398.026 353.082 400.04 347.941 401.224C342.781 402.414 337.301 402.568 331.512 401.703L302.514 397.369L313.798 321.867ZM361.005 394.361C364.917 391.605 368.138 388.149 370.668 383.994C373.209 379.76 374.875 374.998 375.666 369.708C376.445 364.495 376.238 359.493 375.045 354.701C373.853 349.909 371.789 345.624 368.854 341.845C365.997 338.077 362.335 334.905 357.868 332.328C353.401 329.752 348.328 328.039 342.648 327.19L314.639 323.004L303.651 396.528L331.66 400.714C337.339 401.562 342.692 401.408 347.717 400.25C352.742 399.092 357.171 397.129 361.005 394.361Z" fill="black"/>
</svg>
