<svg width="437" height="382" viewBox="0 0 437 382" fill="none" xmlns="http://www.w3.org/2000/svg">
<path d="M353.543 5.04086L33.2933 58.6322L6.87752 105.302L34.3876 269.696L54.9977 266.247L58.4365 286.796L71.1196 284.674L73.2358 297.319L141.408 285.911L154.634 364.947L220.677 272.646L380.802 245.85L391.369 231.082L387.93 210.533L405.37 207.615L402.989 193.388L415.672 191.266L388.956 31.6143L376.272 33.7367L374.156 21.091L356.717 24.0094L353.543 5.04086Z" fill="white"/>
<path d="M327.99 24.7234L44.0193 72.2438L20.5965 113.63L44.9922 259.413L63.2676 256.355L66.3171 274.578L77.5635 272.696L79.4401 283.91L139.889 273.794L151.618 343.882L210.179 262.032L352.165 238.271L361.535 225.175L358.485 206.952L373.949 204.365L371.838 191.749L383.084 189.867L359.392 48.2888L348.146 50.1708L346.269 38.9568L330.805 41.5445L327.99 24.7234Z" fill="#975DA9"/>
<path fill-rule="evenodd" clip-rule="evenodd" d="M43.0204 70.8702L329.224 22.9761L332.036 39.7803L347.508 37.1911L349.383 48.3939L360.635 46.5109L384.772 190.746L373.519 192.629L375.629 205.232L360.156 207.822L363.065 225.206L353.001 239.25L210.939 263.023L150.67 347.122L138.621 275.124L78.1394 285.246L76.2647 274.043L65.0122 275.926L61.9658 257.721L43.6806 260.781L18.9923 113.25L43.0204 70.8702ZM44.833 73.446L21.9711 113.769L46.025 257.51L64.3103 254.45L67.3566 272.655L78.6091 270.771L80.4838 281.974L140.966 271.853L152.351 339.89L209.305 260.417L351.367 236.644L360.058 224.516L356.875 205.492L372.347 202.902L370.238 190.299L381.49 188.416L358.291 49.7823L347.038 51.6653L345.164 40.4626L329.691 43.0517L326.879 26.2476L44.833 73.446Z" fill="black"/>
<path fill-rule="evenodd" clip-rule="evenodd" d="M58.2521 60.6182L344.456 12.7242L347.297 29.7043L362.769 27.1151L364.664 38.4352L375.916 36.5522L400.305 182.298L389.053 184.181L391.184 196.916L375.712 199.505L378.652 217.071L368.608 231.241L226.546 255.014L166.403 339.867L154.229 267.116L93.7465 277.237L91.8522 265.917L80.5997 267.8L77.5214 249.405L59.2361 252.465L34.2894 103.389L58.2521 60.6182ZM60.0696 63.2233L37.2699 103.919L61.5757 249.164L79.8609 246.104L82.9392 264.499L94.1917 262.616L96.086 273.936L156.568 263.815L168.073 332.564L224.907 252.379L366.969 228.606L375.642 216.37L372.425 197.146L387.897 194.557L385.766 181.822L397.019 179.939L373.576 39.8529L362.324 41.7359L360.43 30.4159L344.957 33.005L342.116 16.025L60.0696 63.2233Z" fill="black"/>
<path d="M343.222 14.4714L59.2508 61.9919L35.8928 103.766L60.5481 251.1L78.8235 248.041L81.9054 266.458L93.1518 264.576L95.0483 275.91L155.498 265.794L167.351 336.628L225.788 254.031L367.773 230.271L377.123 217.056L374.041 198.639L389.505 196.051L387.371 183.301L398.618 181.419L374.673 38.3351L363.427 40.2171L361.53 28.8837L346.067 31.4715L343.222 14.4714Z" fill="#80FAEB"/>
</svg>
