<svg width="183" height="295" viewBox="0 0 183 295" fill="none" xmlns="http://www.w3.org/2000/svg">
<path d="M5.90323 2.92079C5.90323 4.5339 4.58174 5.84158 2.95161 5.84158C1.32148 5.84158 0 4.5339 0 2.92079C0 1.30768 1.32148 0 2.95161 0C4.58174 0 5.90323 1.30768 5.90323 2.92079Z" fill="black"/>
<path d="M5.90323 35.0495C5.90323 36.6626 4.58174 37.9703 2.95161 37.9703C1.32148 37.9703 0 36.6626 0 35.0495C0 33.4364 1.32148 32.1287 2.95161 32.1287C4.58174 32.1287 5.90323 33.4364 5.90323 35.0495Z" fill="black"/>
<path d="M5.90323 67.1782C5.90323 68.7913 4.58174 70.099 2.95161 70.099C1.32148 70.099 0 68.7913 0 67.1782C0 65.5651 1.32148 64.2574 2.95161 64.2574C4.58174 64.2574 5.90323 65.5651 5.90323 67.1782Z" fill="black"/>
<path d="M5.90323 99.3069C5.90323 100.92 4.58174 102.228 2.95161 102.228C1.32148 102.228 0 100.92 0 99.3069C0 97.6938 1.32148 96.3861 2.95161 96.3861C4.58174 96.3861 5.90323 97.6938 5.90323 99.3069Z" fill="black"/>
<path d="M5.90323 131.436C5.90323 133.049 4.58174 134.356 2.95161 134.356C1.32148 134.356 0 133.049 0 131.436C0 129.823 1.32148 128.515 2.95161 128.515C4.58174 128.515 5.90323 129.823 5.90323 131.436Z" fill="black"/>
<path d="M5.90323 163.564C5.90323 165.177 4.58174 166.485 2.95161 166.485C1.32148 166.485 0 165.177 0 163.564C0 161.951 1.32148 160.644 2.95161 160.644C4.58174 160.644 5.90323 161.951 5.90323 163.564Z" fill="black"/>
<path d="M5.90323 195.693C5.90323 197.306 4.58174 198.614 2.95161 198.614C1.32148 198.614 0 197.306 0 195.693C0 194.08 1.32148 192.772 2.95161 192.772C4.58174 192.772 5.90323 194.08 5.90323 195.693Z" fill="black"/>
<path d="M5.90323 227.822C5.90323 229.435 4.58174 230.743 2.95161 230.743C1.32148 230.743 0 229.435 0 227.822C0 226.209 1.32148 224.901 2.95161 224.901C4.58174 224.901 5.90323 226.209 5.90323 227.822Z" fill="black"/>
<path d="M5.90323 259.951C5.90323 261.564 4.58174 262.871 2.95161 262.871C1.32148 262.871 0 261.564 0 259.951C0 258.337 1.32148 257.03 2.95161 257.03C4.58174 257.03 5.90323 258.337 5.90323 259.951Z" fill="black"/>
<path d="M5.90323 292.079C5.90323 293.692 4.58174 295 2.95161 295C1.32148 295 0 293.692 0 292.079C0 290.466 1.32148 289.158 2.95161 289.158C4.58174 289.158 5.90323 290.466 5.90323 292.079Z" fill="black"/>
<path d="M41.3226 2.92079C41.3226 4.5339 40.0011 5.84158 38.371 5.84158C36.7408 5.84158 35.4194 4.5339 35.4194 2.92079C35.4194 1.30768 36.7408 0 38.371 0C40.0011 0 41.3226 1.30768 41.3226 2.92079Z" fill="black"/>
<path d="M41.3226 35.0495C41.3226 36.6626 40.0011 37.9703 38.371 37.9703C36.7408 37.9703 35.4194 36.6626 35.4194 35.0495C35.4194 33.4364 36.7408 32.1287 38.371 32.1287C40.0011 32.1287 41.3226 33.4364 41.3226 35.0495Z" fill="black"/>
<path d="M41.3226 67.1782C41.3226 68.7913 40.0011 70.099 38.371 70.099C36.7408 70.099 35.4194 68.7913 35.4194 67.1782C35.4194 65.5651 36.7408 64.2574 38.371 64.2574C40.0011 64.2574 41.3226 65.5651 41.3226 67.1782Z" fill="black"/>
<path d="M41.3226 99.3069C41.3226 100.92 40.0011 102.228 38.371 102.228C36.7408 102.228 35.4194 100.92 35.4194 99.3069C35.4194 97.6938 36.7408 96.3861 38.371 96.3861C40.0011 96.3861 41.3226 97.6938 41.3226 99.3069Z" fill="black"/>
<path d="M41.3226 131.436C41.3226 133.049 40.0011 134.356 38.371 134.356C36.7408 134.356 35.4194 133.049 35.4194 131.436C35.4194 129.823 36.7408 128.515 38.371 128.515C40.0011 128.515 41.3226 129.823 41.3226 131.436Z" fill="black"/>
<path d="M41.3226 163.564C41.3226 165.177 40.0011 166.485 38.371 166.485C36.7408 166.485 35.4194 165.177 35.4194 163.564C35.4194 161.951 36.7408 160.644 38.371 160.644C40.0011 160.644 41.3226 161.951 41.3226 163.564Z" fill="black"/>
<path d="M41.3226 195.693C41.3226 197.306 40.0011 198.614 38.371 198.614C36.7408 198.614 35.4194 197.306 35.4194 195.693C35.4194 194.08 36.7408 192.772 38.371 192.772C40.0011 192.772 41.3226 194.08 41.3226 195.693Z" fill="black"/>
<path d="M41.3226 227.822C41.3226 229.435 40.0011 230.743 38.371 230.743C36.7408 230.743 35.4194 229.435 35.4194 227.822C35.4194 226.209 36.7408 224.901 38.371 224.901C40.0011 224.901 41.3226 226.209 41.3226 227.822Z" fill="black"/>
<path d="M41.3226 259.951C41.3226 261.564 40.0011 262.871 38.371 262.871C36.7408 262.871 35.4194 261.564 35.4194 259.951C35.4194 258.337 36.7408 257.03 38.371 257.03C40.0011 257.03 41.3226 258.337 41.3226 259.951Z" fill="black"/>
<path d="M41.3226 292.079C41.3226 293.692 40.0011 295 38.371 295C36.7408 295 35.4194 293.692 35.4194 292.079C35.4194 290.466 36.7408 289.158 38.371 289.158C40.0011 289.158 41.3226 290.466 41.3226 292.079Z" fill="black"/>
<path d="M76.7419 2.92079C76.7419 4.5339 75.4205 5.84158 73.7903 5.84158C72.1602 5.84158 70.8387 4.5339 70.8387 2.92079C70.8387 1.30768 72.1602 0 73.7903 0C75.4205 0 76.7419 1.30768 76.7419 2.92079Z" fill="black"/>
<path d="M76.7419 35.0495C76.7419 36.6626 75.4205 37.9703 73.7903 37.9703C72.1602 37.9703 70.8387 36.6626 70.8387 35.0495C70.8387 33.4364 72.1602 32.1287 73.7903 32.1287C75.4205 32.1287 76.7419 33.4364 76.7419 35.0495Z" fill="black"/>
<path d="M76.7419 67.1782C76.7419 68.7913 75.4205 70.099 73.7903 70.099C72.1602 70.099 70.8387 68.7913 70.8387 67.1782C70.8387 65.5651 72.1602 64.2574 73.7903 64.2574C75.4205 64.2574 76.7419 65.5651 76.7419 67.1782Z" fill="black"/>
<path d="M76.7419 99.3069C76.7419 100.92 75.4205 102.228 73.7903 102.228C72.1602 102.228 70.8387 100.92 70.8387 99.3069C70.8387 97.6938 72.1602 96.3861 73.7903 96.3861C75.4205 96.3861 76.7419 97.6938 76.7419 99.3069Z" fill="black"/>
<path d="M76.7419 131.436C76.7419 133.049 75.4205 134.356 73.7903 134.356C72.1602 134.356 70.8387 133.049 70.8387 131.436C70.8387 129.823 72.1602 128.515 73.7903 128.515C75.4205 128.515 76.7419 129.823 76.7419 131.436Z" fill="black"/>
<path d="M76.7419 163.564C76.7419 165.177 75.4205 166.485 73.7903 166.485C72.1602 166.485 70.8387 165.177 70.8387 163.564C70.8387 161.951 72.1602 160.644 73.7903 160.644C75.4205 160.644 76.7419 161.951 76.7419 163.564Z" fill="black"/>
<path d="M76.7419 195.693C76.7419 197.306 75.4205 198.614 73.7903 198.614C72.1602 198.614 70.8387 197.306 70.8387 195.693C70.8387 194.08 72.1602 192.772 73.7903 192.772C75.4205 192.772 76.7419 194.08 76.7419 195.693Z" fill="black"/>
<path d="M76.7419 227.822C76.7419 229.435 75.4205 230.743 73.7903 230.743C72.1602 230.743 70.8387 229.435 70.8387 227.822C70.8387 226.209 72.1602 224.901 73.7903 224.901C75.4205 224.901 76.7419 226.209 76.7419 227.822Z" fill="black"/>
<path d="M76.7419 259.951C76.7419 261.564 75.4205 262.871 73.7903 262.871C72.1602 262.871 70.8387 261.564 70.8387 259.951C70.8387 258.337 72.1602 257.03 73.7903 257.03C75.4205 257.03 76.7419 258.337 76.7419 259.951Z" fill="black"/>
<path d="M76.7419 292.079C76.7419 293.692 75.4205 295 73.7903 295C72.1602 295 70.8387 293.692 70.8387 292.079C70.8387 290.466 72.1602 289.158 73.7903 289.158C75.4205 289.158 76.7419 290.466 76.7419 292.079Z" fill="black"/>
<path d="M112.161 2.92079C112.161 4.5339 110.84 5.84158 109.21 5.84158C107.58 5.84158 106.258 4.5339 106.258 2.92079C106.258 1.30768 107.58 0 109.21 0C110.84 0 112.161 1.30768 112.161 2.92079Z" fill="black"/>
<path d="M112.161 35.0495C112.161 36.6626 110.84 37.9703 109.21 37.9703C107.58 37.9703 106.258 36.6626 106.258 35.0495C106.258 33.4364 107.58 32.1287 109.21 32.1287C110.84 32.1287 112.161 33.4364 112.161 35.0495Z" fill="black"/>
<path d="M112.161 67.1782C112.161 68.7913 110.84 70.099 109.21 70.099C107.58 70.099 106.258 68.7913 106.258 67.1782C106.258 65.5651 107.58 64.2574 109.21 64.2574C110.84 64.2574 112.161 65.5651 112.161 67.1782Z" fill="black"/>
<path d="M112.161 99.3069C112.161 100.92 110.84 102.228 109.21 102.228C107.58 102.228 106.258 100.92 106.258 99.3069C106.258 97.6938 107.58 96.3861 109.21 96.3861C110.84 96.3861 112.161 97.6938 112.161 99.3069Z" fill="black"/>
<path d="M112.161 131.436C112.161 133.049 110.84 134.356 109.21 134.356C107.58 134.356 106.258 133.049 106.258 131.436C106.258 129.823 107.58 128.515 109.21 128.515C110.84 128.515 112.161 129.823 112.161 131.436Z" fill="black"/>
<path d="M112.161 163.564C112.161 165.177 110.84 166.485 109.21 166.485C107.58 166.485 106.258 165.177 106.258 163.564C106.258 161.951 107.58 160.644 109.21 160.644C110.84 160.644 112.161 161.951 112.161 163.564Z" fill="black"/>
<path d="M112.161 195.693C112.161 197.306 110.84 198.614 109.21 198.614C107.58 198.614 106.258 197.306 106.258 195.693C106.258 194.08 107.58 192.772 109.21 192.772C110.84 192.772 112.161 194.08 112.161 195.693Z" fill="black"/>
<path d="M112.161 227.822C112.161 229.435 110.84 230.743 109.21 230.743C107.58 230.743 106.258 229.435 106.258 227.822C106.258 226.209 107.58 224.901 109.21 224.901C110.84 224.901 112.161 226.209 112.161 227.822Z" fill="black"/>
<path d="M112.161 259.951C112.161 261.564 110.84 262.871 109.21 262.871C107.58 262.871 106.258 261.564 106.258 259.951C106.258 258.337 107.58 257.03 109.21 257.03C110.84 257.03 112.161 258.337 112.161 259.951Z" fill="black"/>
<path d="M112.161 292.079C112.161 293.692 110.84 295 109.21 295C107.58 295 106.258 293.692 106.258 292.079C106.258 290.466 107.58 289.158 109.21 289.158C110.84 289.158 112.161 290.466 112.161 292.079Z" fill="black"/>
<path d="M147.581 2.92079C147.581 4.5339 146.259 5.84158 144.629 5.84158C142.999 5.84158 141.677 4.5339 141.677 2.92079C141.677 1.30768 142.999 0 144.629 0C146.259 0 147.581 1.30768 147.581 2.92079Z" fill="black"/>
<path d="M147.581 35.0495C147.581 36.6626 146.259 37.9703 144.629 37.9703C142.999 37.9703 141.677 36.6626 141.677 35.0495C141.677 33.4364 142.999 32.1287 144.629 32.1287C146.259 32.1287 147.581 33.4364 147.581 35.0495Z" fill="black"/>
<path d="M147.581 67.1782C147.581 68.7913 146.259 70.099 144.629 70.099C142.999 70.099 141.677 68.7913 141.677 67.1782C141.677 65.5651 142.999 64.2574 144.629 64.2574C146.259 64.2574 147.581 65.5651 147.581 67.1782Z" fill="black"/>
<path d="M147.581 99.3069C147.581 100.92 146.259 102.228 144.629 102.228C142.999 102.228 141.677 100.92 141.677 99.3069C141.677 97.6938 142.999 96.3861 144.629 96.3861C146.259 96.3861 147.581 97.6938 147.581 99.3069Z" fill="black"/>
<path d="M147.581 131.436C147.581 133.049 146.259 134.356 144.629 134.356C142.999 134.356 141.677 133.049 141.677 131.436C141.677 129.823 142.999 128.515 144.629 128.515C146.259 128.515 147.581 129.823 147.581 131.436Z" fill="black"/>
<path d="M147.581 163.564C147.581 165.177 146.259 166.485 144.629 166.485C142.999 166.485 141.677 165.177 141.677 163.564C141.677 161.951 142.999 160.644 144.629 160.644C146.259 160.644 147.581 161.951 147.581 163.564Z" fill="black"/>
<path d="M147.581 195.693C147.581 197.306 146.259 198.614 144.629 198.614C142.999 198.614 141.677 197.306 141.677 195.693C141.677 194.08 142.999 192.772 144.629 192.772C146.259 192.772 147.581 194.08 147.581 195.693Z" fill="black"/>
<path d="M147.581 227.822C147.581 229.435 146.259 230.743 144.629 230.743C142.999 230.743 141.677 229.435 141.677 227.822C141.677 226.209 142.999 224.901 144.629 224.901C146.259 224.901 147.581 226.209 147.581 227.822Z" fill="black"/>
<path d="M147.581 259.951C147.581 261.564 146.259 262.871 144.629 262.871C142.999 262.871 141.677 261.564 141.677 259.951C141.677 258.337 142.999 257.03 144.629 257.03C146.259 257.03 147.581 258.337 147.581 259.951Z" fill="black"/>
<path d="M147.581 292.079C147.581 293.692 146.259 295 144.629 295C142.999 295 141.677 293.692 141.677 292.079C141.677 290.466 142.999 289.158 144.629 289.158C146.259 289.158 147.581 290.466 147.581 292.079Z" fill="black"/>
<path d="M183 2.92079C183 4.5339 181.679 5.84158 180.048 5.84158C178.418 5.84158 177.097 4.5339 177.097 2.92079C177.097 1.30768 178.418 0 180.048 0C181.679 0 183 1.30768 183 2.92079Z" fill="black"/>
<path d="M183 35.0495C183 36.6626 181.679 37.9703 180.048 37.9703C178.418 37.9703 177.097 36.6626 177.097 35.0495C177.097 33.4364 178.418 32.1287 180.048 32.1287C181.679 32.1287 183 33.4364 183 35.0495Z" fill="black"/>
<path d="M183 67.1782C183 68.7913 181.679 70.099 180.048 70.099C178.418 70.099 177.097 68.7913 177.097 67.1782C177.097 65.5651 178.418 64.2574 180.048 64.2574C181.679 64.2574 183 65.5651 183 67.1782Z" fill="black"/>
<path d="M183 99.3069C183 100.92 181.679 102.228 180.048 102.228C178.418 102.228 177.097 100.92 177.097 99.3069C177.097 97.6938 178.418 96.3861 180.048 96.3861C181.679 96.3861 183 97.6938 183 99.3069Z" fill="black"/>
<path d="M183 131.436C183 133.049 181.679 134.356 180.048 134.356C178.418 134.356 177.097 133.049 177.097 131.436C177.097 129.823 178.418 128.515 180.048 128.515C181.679 128.515 183 129.823 183 131.436Z" fill="black"/>
<path d="M183 163.564C183 165.177 181.679 166.485 180.048 166.485C178.418 166.485 177.097 165.177 177.097 163.564C177.097 161.951 178.418 160.644 180.048 160.644C181.679 160.644 183 161.951 183 163.564Z" fill="black"/>
<path d="M183 195.693C183 197.306 181.679 198.614 180.048 198.614C178.418 198.614 177.097 197.306 177.097 195.693C177.097 194.08 178.418 192.772 180.048 192.772C181.679 192.772 183 194.08 183 195.693Z" fill="black"/>
<path d="M183 227.822C183 229.435 181.679 230.743 180.048 230.743C178.418 230.743 177.097 229.435 177.097 227.822C177.097 226.209 178.418 224.901 180.048 224.901C181.679 224.901 183 226.209 183 227.822Z" fill="black"/>
<path d="M183 259.951C183 261.564 181.679 262.871 180.048 262.871C178.418 262.871 177.097 261.564 177.097 259.951C177.097 258.337 178.418 257.03 180.048 257.03C181.679 257.03 183 258.337 183 259.951Z" fill="black"/>
<path d="M183 292.079C183 293.692 181.679 295 180.048 295C178.418 295 177.097 293.692 177.097 292.079C177.097 290.466 178.418 289.158 180.048 289.158C181.679 289.158 183 290.466 183 292.079Z" fill="black"/>
</svg>
