<svg width="457" height="454" viewBox="0 0 457 454" fill="none" xmlns="http://www.w3.org/2000/svg">
<path d="M244.041 142.763L244.224 144.388L244.98 142.938L309.426 19.6055L273.963 154.166L273.546 155.748L274.776 154.67L379.422 62.9453L297.745 175.609L296.785 176.933L298.322 176.372L429.037 128.644L312.176 204.195L310.803 205.083L312.438 205.115L451.563 207.83L315.306 236.063L313.704 236.396L315.217 237.016L443.974 289.807L306.711 266.91L305.099 266.642L306.285 267.767L407.274 363.504L287.555 292.57L286.147 291.736L286.848 293.214L346.434 418.97L260.422 309.576L259.411 308.291L259.53 309.922L269.664 448.709L228.979 315.633L228.5 314.069L228.021 315.633L187.335 448.709L197.47 309.922L197.589 308.291L196.578 309.576L110.565 418.97L170.152 293.214L170.853 291.736L169.445 292.57L49.7246 363.504L150.715 267.767L151.901 266.642L150.288 266.91L13.0254 289.807L141.783 237.016L143.296 236.396L141.694 236.063L5.43555 207.83L144.562 205.115L146.197 205.083L144.824 204.195L27.9619 128.644L158.678 176.372L160.215 176.933L159.255 175.609L77.5771 62.9453L182.224 154.67L183.454 155.748L183.037 154.166L147.573 19.6055L212.02 142.938L212.776 144.388L212.959 142.763L228.5 4.47852L244.041 142.763Z" fill="#E3868E" stroke="black"/>
</svg>
