<svg width="1770" height="895" viewBox="0 0 1770 895" fill="none" xmlns="http://www.w3.org/2000/svg">
<g clip-path="url(#clip0_18_72611)">
<rect width="1770" height="895" fill="white"/>
<g clip-path="url(#clip1_18_72611)">
<rect width="310" height="310" transform="translate(310 620)" fill="#7FFF5B"/>
<rect x="570.4" y="620" width="49.6367" height="49.6367" fill="#FFFF50"/>
<path fill-rule="evenodd" clip-rule="evenodd" d="M465.301 680.725L416.507 708.896V765.239L465.301 793.41L514.095 765.239V708.896L465.301 680.725ZM566.685 678.534L465.301 620L363.917 678.534V795.601L465.301 854.135L566.685 795.601V678.534Z" fill="#FFFF50"/>
<path d="M565.574 875.12H363.733V942.401H565.574V875.12Z" fill="#FFFF50"/>
</g>
<g clip-path="url(#clip2_18_72611)">
<rect width="310" height="310" transform="translate(0 620)" fill="#4D7BFF"/>
<path fill-rule="evenodd" clip-rule="evenodd" d="M202.008 723.317C230.824 723.317 254.183 699.957 254.183 671.142C254.183 642.326 230.824 618.967 202.008 618.967C173.193 618.967 149.833 642.326 149.833 671.142C149.833 699.957 173.193 723.317 202.008 723.317ZM206.666 827.669H309.839V733.754H229.835V804.193C229.835 817.057 219.49 827.504 206.666 827.669ZM149.834 827.67H233.314V932.02H149.834V827.67Z" fill="#FF5C5C"/>
</g>
<rect width="310" height="310" transform="translate(310 310)" fill="#FF5C5C"/>
<path fill-rule="evenodd" clip-rule="evenodd" d="M384.49 310H546.229L546.229 323.478H559.707V336.957H573.186V404.348L546.229 404.348V336.957H478.838V404.348H546.229V431.304L573.186 431.304V498.696H559.707V512.174H546.229L546.229 525.652H492.316V512.174H478.838L478.838 593.043H467.044V606.522H451.881V620H384.49V593.043H440.088V579.565H451.881V525.652H384.49V498.696H451.881V431.304L384.49 431.304V404.348H451.881V336.957H384.49V404.348L371.012 404.348V390.87H357.533V336.957H371.012V323.478H384.49V310ZM532.751 444.783H546.229V485.217H532.751V498.696H492.316V485.217H478.838V444.783H492.316V431.304H532.751V444.783Z" fill="#FF90FF"/>
<path d="M384.49 431.304V498.696L357.533 498.696V431.304L384.49 431.304Z" fill="#FF90FF"/>
<path d="M384.49 525.652H371.012V539.13H357.533V593.043H384.49V525.652Z" fill="#FF90FF"/>
<rect width="310" height="310" transform="translate(0 310)" fill="#FF90FF"/>
<path fill-rule="evenodd" clip-rule="evenodd" d="M155 388.529L109.542 343.091C76.3634 309.928 19.6333 333.415 19.6333 380.315V549.917C19.6333 596.818 76.3634 620.305 109.542 587.142L155 541.704L200.458 587.142C233.637 620.306 290.367 596.818 290.367 549.918V380.316C290.367 333.416 233.637 309.928 200.458 343.091L155 388.529Z" fill="#4D7BFF"/>
<g clip-path="url(#clip3_18_72611)">
<rect width="310" height="310" transform="translate(310)" fill="#FFFF50"/>
<path fill-rule="evenodd" clip-rule="evenodd" d="M551.913 81.375C544.024 79.5658 538.141 72.4612 538.141 63.9727V40.7697V17.4447C538.141 6.66935 529.462 -2.06665 518.758 -2.06665C515.648 -2.06665 512.621 -1.31367 509.916 0.0807455C507.665 1.23811 505.636 2.84517 503.963 4.83569L474.471 39.8877C469.512 45.7791 460.487 45.7791 455.528 39.8877L426.037 4.83569C422.352 0.457237 416.942 -2.06665 411.242 -2.06665C400.538 -2.06665 391.859 6.66935 391.859 17.4447V67.5111C390.062 75.4523 383.004 81.375 374.571 81.375H351.521H328.35C317.645 81.375 308.967 90.111 308.967 100.886C308.967 106.624 311.474 112.07 315.823 115.779L350.645 145.466C356.498 150.458 356.498 159.542 350.645 164.534L315.823 194.221C311.474 197.931 308.967 203.376 308.967 209.114C308.967 219.889 317.645 228.625 328.35 228.625H378.087C385.975 230.434 391.859 237.539 391.859 246.027V269.23V292.555C391.859 303.331 400.538 312.067 411.242 312.067C416.942 312.067 422.352 309.543 426.037 305.164L455.528 270.112C460.487 264.221 469.512 264.221 474.471 270.112L503.963 305.164C506.29 307.932 509.31 309.958 512.656 311.073C514.602 311.725 516.659 312.067 518.758 312.067C529.462 312.067 538.141 303.331 538.141 292.555V242.489C539.938 234.548 546.996 228.625 555.428 228.625H578.479H601.65C612.355 228.625 621.033 219.889 621.033 209.114C621.033 206.855 620.645 204.641 619.911 202.56C618.775 199.356 616.815 196.47 614.176 194.221L579.355 164.534C573.502 159.542 573.502 150.458 579.355 145.466L614.176 115.779C618.526 112.07 621.033 106.624 621.033 100.886C621.033 90.111 612.355 81.375 601.65 81.375H551.913Z" fill="#FF90FF"/>
</g>
<rect width="310" height="310" fill="#7FFF5B"/>
<path d="M155.71 0H222.443V88.5714H155.71C137.322 88.5714 121.602 95.0667 108.552 108.057C95.5023 121.048 88.9773 136.695 88.9773 155C88.9773 173.305 95.5023 188.952 108.552 201.943C121.602 214.933 137.322 221.429 155.71 221.429H222.443V310H155.71C112.705 310 76.0015 294.869 45.6009 264.607C15.2003 234.345 0 197.81 0 155C0 112.19 15.2003 75.6548 45.6009 45.3929C76.0015 15.131 112.705 0 155.71 0Z" fill="#4D7BFF"/>
</g>
<defs>
<clipPath id="clip0_18_72611">
<rect width="1770" height="895" fill="white"/>
</clipPath>
<clipPath id="clip1_18_72611">
<rect width="310" height="310" fill="white" transform="translate(310 620)"/>
</clipPath>
<clipPath id="clip2_18_72611">
<rect width="310" height="310" fill="white" transform="translate(0 620)"/>
</clipPath>
<clipPath id="clip3_18_72611">
<rect width="310" height="310" fill="white" transform="translate(310)"/>
</clipPath>
</defs>
</svg>
