<svg width="140" height="198" viewBox="0 0 140 198" fill="none" xmlns="http://www.w3.org/2000/svg">
<path d="M188.756 11.7267C183.064 11.7292 177.411 12.6757 172.023 14.5281C172.023 0.596817 166.538 -12.7639 156.775 -22.6148C147.012 -32.4658 133.771 -38 119.964 -38C106.157 -38 92.916 -32.4658 83.1531 -22.6148C73.3902 -12.7639 67.9054 0.596817 67.9054 14.5281C54.7517 10.289 40.4677 11.496 28.1959 17.8835C15.9241 24.271 6.66959 35.3157 2.46836 48.5881C-1.73287 61.8604 -0.536721 76.2732 5.79368 88.6557C12.1241 101.038 23.0702 110.376 36.2239 114.615C28.1152 125.893 24.7785 139.959 26.9481 153.719C29.1176 167.479 36.6156 179.806 47.7926 187.988C58.9696 196.17 72.91 199.536 86.5471 197.347C100.184 195.158 112.401 187.593 120.51 176.315C124.542 181.886 129.623 186.602 135.461 190.192C141.3 193.783 147.782 196.178 154.538 197.24C161.294 198.303 168.191 198.013 174.836 196.386C181.48 194.759 187.742 191.827 193.264 187.758C198.786 183.69 203.459 178.563 207.018 172.672C210.576 166.781 212.949 160.24 214.003 153.423C215.056 146.607 214.768 139.647 213.155 132.943C211.543 126.238 208.638 119.92 204.605 114.348C216.478 110.569 226.615 102.621 233.178 91.9467C239.741 81.2724 242.296 68.5783 240.379 56.1664C238.462 43.7546 232.201 32.4468 222.73 24.2937C213.259 16.1406 201.206 11.6821 188.756 11.7267Z" fill="#7FFF5B"/>
</svg>
