<svg width="48" height="48" viewBox="0 0 48 48" fill="none" xmlns="http://www.w3.org/2000/svg">
<path fill-rule="evenodd" clip-rule="evenodd" d="M42 8.00012V10.0001H44V38.0001H42V40.0001H40V42.0001H38V44.0001H10V42.0001H8V40.0001H6V38.0001H4V10.0001H6V8.00012H8V6.00012H10V4.00012H38V6.00012H40V8.00012H42ZM38 34.0001H40V14.0001H38V12.0001H36V10.0001H34V8.00012H14V10.0001H12V12.0001H10V14.0001H8V34.0001H10V36.0001H12V38.0001H14V40.0001H34V38.0001H36V36.0001H38V34.0001ZM26 12.0001H22V16.0001H26V12.0001ZM26 20.0001H22V36.0001H26V20.0001Z" fill="#FF5C5C"/>
</svg>
