<svg width="512" height="216" viewBox="0 0 512 216" fill="none" xmlns="http://www.w3.org/2000/svg">
<rect x="4" y="4.00012" width="504" height="208" fill="#4D7BFF"/>
<rect x="4" y="4.00012" width="504" height="208" stroke="black" stroke-width="8"/>
<path opacity="0.5" d="M172.986 64.5655C172.918 63.878 172.625 63.3439 172.108 62.9632C171.591 62.5825 170.889 62.3922 170.003 62.3922C169.401 62.3922 168.892 62.4774 168.477 62.6478C168.063 62.8126 167.744 63.0427 167.523 63.3382C167.307 63.6336 167.199 63.9689 167.199 64.3439C167.188 64.6564 167.253 64.9291 167.395 65.1621C167.543 65.395 167.744 65.5967 168 65.7672C168.256 65.9319 168.551 66.0768 168.886 66.2018C169.222 66.3211 169.58 66.4234 169.96 66.5086L171.528 66.8836C172.29 67.0541 172.989 67.2814 173.625 67.5655C174.261 67.8496 174.813 68.199 175.278 68.6138C175.744 69.0285 176.105 69.5172 176.361 70.0797C176.622 70.6422 176.756 71.2871 176.761 72.0143C176.756 73.0825 176.483 74.0086 175.943 74.7927C175.409 75.5711 174.636 76.1763 173.625 76.6081C172.619 77.0342 171.406 77.2473 169.986 77.2473C168.577 77.2473 167.349 77.0314 166.304 76.5996C165.264 76.1677 164.452 75.5285 163.866 74.6819C163.287 73.8297 162.983 72.7757 162.955 71.52H166.526C166.565 72.1052 166.733 72.5939 167.028 72.9859C167.33 73.3723 167.73 73.6649 168.23 73.8638C168.736 74.0569 169.307 74.1535 169.943 74.1535C170.568 74.1535 171.111 74.0626 171.571 73.8808C172.037 73.699 172.398 73.4461 172.653 73.1223C172.909 72.7984 173.037 72.4263 173.037 72.0058C173.037 71.6138 172.92 71.2842 172.688 71.0172C172.46 70.7501 172.125 70.5228 171.682 70.3353C171.244 70.1478 170.707 69.9774 170.071 69.824L168.17 69.3467C166.699 68.9888 165.537 68.4291 164.685 67.6677C163.832 66.9064 163.409 65.8808 163.415 64.591C163.409 63.5342 163.69 62.6109 164.259 61.8211C164.832 61.0314 165.619 60.4149 166.619 59.9717C167.619 59.5285 168.756 59.3069 170.028 59.3069C171.324 59.3069 172.455 59.5285 173.42 59.9717C174.392 60.4149 175.148 61.0314 175.688 61.8211C176.227 62.6109 176.506 63.5257 176.523 64.5655H172.986ZM182.806 69.4319V77.0001H179.175V59.5456H182.704V66.2189H182.857C183.153 65.4461 183.63 64.841 184.289 64.4035C184.948 63.9603 185.775 63.7388 186.769 63.7388C187.678 63.7388 188.471 63.9376 189.147 64.3353C189.829 64.7274 190.357 65.2927 190.732 66.0314C191.113 66.7643 191.3 67.6422 191.295 68.6649V77.0001H187.664V69.3126C187.67 68.5058 187.465 67.878 187.05 67.4291C186.641 66.9802 186.067 66.7558 185.329 66.7558C184.835 66.7558 184.397 66.8609 184.016 67.0711C183.641 67.2814 183.346 67.5882 183.13 67.9916C182.92 68.3893 182.812 68.8694 182.806 69.4319ZM197.885 77.2473C197.05 77.2473 196.305 77.1024 195.652 76.8126C194.999 76.5172 194.482 76.0825 194.101 75.5086C193.726 74.9291 193.538 74.2075 193.538 73.3439C193.538 72.6166 193.672 72.0058 193.939 71.5115C194.206 71.0172 194.57 70.6194 195.03 70.3183C195.49 70.0172 196.013 69.7899 196.598 69.6365C197.189 69.4831 197.808 69.3751 198.456 69.3126C199.217 69.2331 199.831 69.1592 200.297 69.091C200.763 69.0172 201.101 68.9092 201.311 68.7672C201.521 68.6251 201.626 68.4149 201.626 68.1365V68.0853C201.626 67.5456 201.456 67.128 201.115 66.8325C200.78 66.5371 200.303 66.3893 199.683 66.3893C199.03 66.3893 198.51 66.5342 198.124 66.824C197.737 67.1081 197.482 67.466 197.357 67.8978L193.999 67.6251C194.169 66.8297 194.504 66.1422 195.004 65.5626C195.504 64.9774 196.149 64.5285 196.939 64.216C197.734 63.8978 198.655 63.7388 199.7 63.7388C200.428 63.7388 201.124 63.824 201.788 63.9944C202.459 64.1649 203.053 64.4291 203.57 64.7871C204.092 65.145 204.504 65.6052 204.805 66.1677C205.107 66.7246 205.257 67.3922 205.257 68.1706V77.0001H201.814V75.1848H201.712C201.501 75.5939 201.22 75.9547 200.868 76.2672C200.516 76.574 200.092 76.8155 199.598 76.9916C199.104 77.1621 198.533 77.2473 197.885 77.2473ZM198.925 74.7416C199.459 74.7416 199.93 74.6365 200.339 74.4263C200.749 74.2103 201.07 73.9206 201.303 73.5569C201.536 73.1933 201.652 72.7814 201.652 72.3211V70.9319C201.538 71.0058 201.382 71.074 201.183 71.1365C200.99 71.1933 200.771 71.2473 200.527 71.2984C200.283 71.3439 200.038 71.3865 199.794 71.4263C199.55 71.4603 199.328 71.4916 199.129 71.52C198.703 71.5825 198.331 71.6819 198.013 71.8183C197.695 71.9547 197.447 72.1393 197.271 72.3723C197.095 72.5996 197.007 72.8836 197.007 73.2246C197.007 73.7189 197.186 74.0967 197.544 74.3581C197.908 74.6138 198.368 74.7416 198.925 74.7416ZM208.074 77.0001V63.9092H211.594V66.1933H211.73C211.969 65.3808 212.369 64.7672 212.932 64.3524C213.494 63.9319 214.142 63.7217 214.875 63.7217C215.057 63.7217 215.253 63.7331 215.463 63.7558C215.673 63.7785 215.858 63.8098 216.017 63.8496V67.0711C215.847 67.02 215.611 66.9746 215.31 66.9348C215.009 66.895 214.733 66.8751 214.483 66.8751C213.949 66.8751 213.472 66.9916 213.051 67.2246C212.636 67.4518 212.307 67.77 212.062 68.1791C211.824 68.5882 211.705 69.0598 211.705 69.5939V77.0001H208.074ZM223.251 77.2558C221.904 77.2558 220.745 76.9831 219.773 76.4376C218.808 75.8865 218.063 75.1081 217.54 74.1024C217.018 73.091 216.756 71.895 216.756 70.5143C216.756 69.1677 217.018 67.9859 217.54 66.9689C218.063 65.9518 218.799 65.1592 219.748 64.591C220.702 64.0228 221.822 63.7388 223.106 63.7388C223.969 63.7388 224.773 63.878 225.518 64.1564C226.268 64.4291 226.921 64.841 227.478 65.3922C228.04 65.9433 228.478 66.6365 228.79 67.4717C229.103 68.3013 229.259 69.2728 229.259 70.3865V71.3836H218.205V69.1336H225.842C225.842 68.6109 225.728 68.1478 225.501 67.7444C225.273 67.341 224.958 67.0257 224.555 66.7984C224.157 66.5655 223.694 66.449 223.165 66.449C222.614 66.449 222.126 66.5768 221.7 66.8325C221.279 67.0825 220.95 67.4206 220.711 67.8467C220.472 68.2672 220.35 68.7359 220.344 69.253V71.3922C220.344 72.0399 220.464 72.5996 220.702 73.0711C220.947 73.5427 221.29 73.9064 221.734 74.1621C222.177 74.4177 222.702 74.5456 223.31 74.5456C223.714 74.5456 224.083 74.4888 224.418 74.3751C224.754 74.2615 225.04 74.091 225.279 73.8638C225.518 73.6365 225.7 73.3581 225.825 73.0285L229.183 73.2501C229.012 74.0569 228.663 74.7615 228.134 75.3638C227.612 75.9603 226.935 76.4263 226.106 76.7615C225.282 77.091 224.33 77.2558 223.251 77.2558ZM233.751 77.2217C233.188 77.2217 232.705 77.0228 232.302 76.6251C231.904 76.2217 231.705 75.7388 231.705 75.1763C231.705 74.6194 231.904 74.1422 232.302 73.7444C232.705 73.3467 233.188 73.1478 233.751 73.1478C234.296 73.1478 234.773 73.3467 235.183 73.7444C235.592 74.1422 235.796 74.6194 235.796 75.1763C235.796 75.5513 235.7 75.895 235.506 76.2075C235.319 76.5143 235.072 76.7615 234.765 76.949C234.458 77.1308 234.12 77.2217 233.751 77.2217ZM233.751 68.0513C233.188 68.0513 232.705 67.8524 232.302 67.4547C231.904 67.0569 231.705 66.574 231.705 66.0058C231.705 65.449 231.904 64.9746 232.302 64.5825C232.705 64.1848 233.188 63.9859 233.751 63.9859C234.296 63.9859 234.773 64.1848 235.183 64.5825C235.592 64.9746 235.796 65.449 235.796 66.0058C235.796 66.3865 235.7 66.7331 235.506 67.0456C235.319 67.3524 235.072 67.5967 234.765 67.7785C234.458 67.9603 234.12 68.0513 233.751 68.0513Z" fill="white"/>
<rect x="237" y="98.0001" width="46" height="46" stroke="white" stroke-width="6"/>
<path fill-rule="evenodd" clip-rule="evenodd" d="M267 111H262V112H261V113V114H260V115H259V116H260V117H257V116H254V115H252V114H251V113H250V112H249V113V114V115V116V117H250V118H251V119H249V120V121H250V122H252V123H250V124H252V125H253V126H255V127H253V128H248V129H250V130H253V131H258V130H261V129H263V128H264V127H265V126H266V125H267V124H268V123V122H269V121V120V119H270V118V117V116V115H271V114H272V113H271V112H272V111H270V112H269V113H268V112H267V111ZM271 113V114H270V113H271Z" fill="white"/>
<rect x="166" y="98.0001" width="46" height="46" stroke="white" stroke-width="6"/>
<path d="M197.334 110H192.334V111H190.334V112H189.334V114H188.334V116H190.334V115H192.334V114H193.334V113H195.334V114H196.334V115H197.334V117H196.334V118H195.334V119H194.334V120H193.334V121H192.334V122H188.334V121H187.334V122H186.334V124H188.334V125H193.334V124H195.334V123H196.334V122H197.334V121H198.334V120H199.334V118H200.334V113H199.334V112H198.334V111H197.334V110Z" fill="white"/>
<path d="M181.334 132H186.334V131H188.334V130H189.334V128H190.334V126H188.334V127H186.334V128H185.334V129H183.334V128H182.334V127H181.334V125H182.334V124H183.334V123H184.334V122H185.334V121H186.334V120H190.334V121H191.334V120H192.334V118H190.334V117H185.334V118H183.334V119H182.334V120H181.334V121H180.334V122H179.334V124H178.334V129H179.334V130H180.334V131H181.334V132Z" fill="white"/>
<rect x="308" y="98.0001" width="46" height="46" stroke="white" stroke-width="6"/>
<g clip-path="url(#clip0_18_72470)">
<path fill-rule="evenodd" clip-rule="evenodd" d="M340 109V110H342V111H343V131H342V132H340V133H335V124H338V123H339V120H338H335V117H336V116H339V113H334V114H333V115H332V120H329V124H332V133H322V132H320V131H319V111H320V110H322V109H340Z" fill="white"/>
</g>
<defs>
<clipPath id="clip0_18_72470">
<rect width="24" height="24" fill="white" transform="translate(319 109)"/>
</clipPath>
</defs>
</svg>
