<svg width="512" height="216" viewBox="0 0 512 216" fill="none" xmlns="http://www.w3.org/2000/svg">
<rect x="4" y="4.00012" width="504" height="208" fill="#4D7BFF"/>
<rect x="4" y="4.00012" width="504" height="208" stroke="black" stroke-width="8"/>
<path d="M89.1165 57.5455V75H85.929L78.3352 64.0142H78.2074V75H74.517V57.5455H77.7557L85.2898 68.5227H85.4432V57.5455H89.1165ZM95.8303 75.2472C94.995 75.2472 94.2507 75.1023 93.5973 74.8125C92.9439 74.517 92.4268 74.0824 92.0462 73.5085C91.6712 72.929 91.4837 72.2074 91.4837 71.3438C91.4837 70.6165 91.6172 70.0057 91.8842 69.5114C92.1513 69.017 92.5149 68.6193 92.9751 68.3182C93.4354 68.017 93.9581 67.7898 94.5433 67.6364C95.1342 67.483 95.7536 67.375 96.4013 67.3125C97.1626 67.233 97.7763 67.1591 98.2422 67.0909C98.7081 67.017 99.0462 66.9091 99.2564 66.767C99.4666 66.625 99.5717 66.4148 99.5717 66.1364V66.0852C99.5717 65.5455 99.4013 65.1278 99.0604 64.8324C98.7251 64.5369 98.2479 64.3892 97.6286 64.3892C96.9751 64.3892 96.4553 64.5341 96.0689 64.8239C95.6825 65.108 95.4268 65.4659 95.3018 65.8977L91.9439 65.625C92.1143 64.8295 92.4496 64.142 92.9496 63.5625C93.4496 62.9773 94.0945 62.5284 94.8842 62.2159C95.6797 61.8977 96.6001 61.7386 97.6456 61.7386C98.3729 61.7386 99.0689 61.8239 99.7337 61.9943C100.404 62.1648 100.998 62.429 101.515 62.7869C102.038 63.1449 102.45 63.6051 102.751 64.1676C103.052 64.7244 103.202 65.392 103.202 66.1705V75H99.7592V73.1847H99.657C99.4467 73.5938 99.1655 73.9545 98.8132 74.267C98.4609 74.5739 98.0376 74.8153 97.5433 74.9915C97.049 75.1619 96.478 75.2472 95.8303 75.2472ZM96.87 72.7415C97.4041 72.7415 97.8757 72.6364 98.2848 72.4261C98.6939 72.2102 99.0149 71.9205 99.2479 71.5568C99.4808 71.1932 99.5973 70.7812 99.5973 70.321V68.9318C99.4837 69.0057 99.3274 69.0739 99.1286 69.1364C98.9354 69.1932 98.7166 69.2472 98.4723 69.2983C98.228 69.3437 97.9837 69.3864 97.7393 69.4261C97.495 69.4602 97.2734 69.4915 97.0746 69.5199C96.6484 69.5824 96.2763 69.6818 95.9581 69.8182C95.6399 69.9545 95.3928 70.1392 95.2166 70.3722C95.0405 70.5994 94.9524 70.8835 94.9524 71.2244C94.9524 71.7188 95.1314 72.0966 95.4893 72.358C95.853 72.6136 96.3132 72.7415 96.87 72.7415ZM106.019 75V61.9091H109.479V64.2188H109.633C109.906 63.4517 110.36 62.8466 110.996 62.4034C111.633 61.9602 112.394 61.7386 113.281 61.7386C114.178 61.7386 114.942 61.9631 115.573 62.4119C116.204 62.8551 116.624 63.4574 116.835 64.2188H116.971C117.238 63.4688 117.721 62.8693 118.42 62.4205C119.124 61.9659 119.957 61.7386 120.917 61.7386C122.138 61.7386 123.13 62.1278 123.891 62.9062C124.658 63.679 125.042 64.7756 125.042 66.196V75H121.42V66.9119C121.42 66.1847 121.227 65.6392 120.84 65.2756C120.454 64.9119 119.971 64.7301 119.391 64.7301C118.732 64.7301 118.218 64.9403 117.849 65.3608C117.479 65.7756 117.295 66.3239 117.295 67.0057V75H113.775V66.8352C113.775 66.1932 113.59 65.6818 113.221 65.3011C112.857 64.9205 112.377 64.7301 111.781 64.7301C111.377 64.7301 111.013 64.8324 110.69 65.0369C110.371 65.2358 110.119 65.517 109.931 65.8807C109.744 66.2386 109.65 66.6591 109.65 67.142V75H106.019ZM133.876 75.2557C132.529 75.2557 131.37 74.983 130.398 74.4375C129.433 73.8864 128.688 73.108 128.165 72.1023C127.643 71.0909 127.381 69.8949 127.381 68.5142C127.381 67.1676 127.643 65.9858 128.165 64.9688C128.688 63.9517 129.424 63.1591 130.373 62.5909C131.327 62.0227 132.447 61.7386 133.731 61.7386C134.594 61.7386 135.398 61.8778 136.143 62.1562C136.893 62.429 137.546 62.8409 138.103 63.392C138.665 63.9432 139.103 64.6364 139.415 65.4716C139.728 66.3011 139.884 67.2727 139.884 68.3864V69.3835H128.83V67.1335H136.467C136.467 66.6108 136.353 66.1477 136.126 65.7443C135.898 65.3409 135.583 65.0256 135.18 64.7983C134.782 64.5653 134.319 64.4489 133.79 64.4489C133.239 64.4489 132.751 64.5767 132.325 64.8324C131.904 65.0824 131.575 65.4205 131.336 65.8466C131.097 66.267 130.975 66.7358 130.969 67.2528V69.392C130.969 70.0398 131.089 70.5994 131.327 71.071C131.572 71.5426 131.915 71.9062 132.359 72.1619C132.802 72.4176 133.327 72.5455 133.935 72.5455C134.339 72.5455 134.708 72.4886 135.043 72.375C135.379 72.2614 135.665 72.0909 135.904 71.8636C136.143 71.6364 136.325 71.358 136.45 71.0284L139.808 71.25C139.637 72.0568 139.288 72.7614 138.759 73.3636C138.237 73.9602 137.56 74.4261 136.731 74.7614C135.907 75.0909 134.955 75.2557 133.876 75.2557ZM144.376 75.2216C143.813 75.2216 143.33 75.0227 142.927 74.625C142.529 74.2216 142.33 73.7386 142.33 73.1761C142.33 72.6193 142.529 72.142 142.927 71.7443C143.33 71.3466 143.813 71.1477 144.376 71.1477C144.921 71.1477 145.398 71.3466 145.808 71.7443C146.217 72.142 146.421 72.6193 146.421 73.1761C146.421 73.5511 146.325 73.8949 146.131 74.2074C145.944 74.5142 145.697 74.7614 145.39 74.9489C145.083 75.1307 144.745 75.2216 144.376 75.2216ZM144.376 66.0511C143.813 66.0511 143.33 65.8523 142.927 65.4545C142.529 65.0568 142.33 64.5739 142.33 64.0057C142.33 63.4489 142.529 62.9744 142.927 62.5824C143.33 62.1847 143.813 61.9858 144.376 61.9858C144.921 61.9858 145.398 62.1847 145.808 62.5824C146.217 62.9744 146.421 63.4489 146.421 64.0057C146.421 64.3864 146.325 64.733 146.131 65.0455C145.944 65.3523 145.697 65.5966 145.39 65.7784C145.083 65.9602 144.745 66.0511 144.376 66.0511Z" fill="white"/>
<path d="M73.8523 144.588V141.545H88.1875V144.588H82.8438V159H79.196V144.588H73.8523ZM92.4318 159.247C91.5966 159.247 90.8523 159.102 90.1989 158.812C89.5455 158.517 89.0284 158.082 88.6477 157.509C88.2727 156.929 88.0852 156.207 88.0852 155.344C88.0852 154.616 88.2188 154.006 88.4858 153.511C88.7528 153.017 89.1165 152.619 89.5767 152.318C90.0369 152.017 90.5597 151.79 91.1449 151.636C91.7358 151.483 92.3551 151.375 93.0028 151.312C93.7642 151.233 94.3778 151.159 94.8438 151.091C95.3097 151.017 95.6477 150.909 95.858 150.767C96.0682 150.625 96.1733 150.415 96.1733 150.136V150.085C96.1733 149.545 96.0028 149.128 95.6619 148.832C95.3267 148.537 94.8494 148.389 94.2301 148.389C93.5767 148.389 93.0568 148.534 92.6705 148.824C92.2841 149.108 92.0284 149.466 91.9034 149.898L88.5455 149.625C88.7159 148.83 89.0511 148.142 89.5511 147.562C90.0511 146.977 90.696 146.528 91.4858 146.216C92.2813 145.898 93.2017 145.739 94.2472 145.739C94.9744 145.739 95.6705 145.824 96.3352 145.994C97.0057 146.165 97.5994 146.429 98.1165 146.787C98.6392 147.145 99.0511 147.605 99.3523 148.168C99.6534 148.724 99.804 149.392 99.804 150.17V159H96.3608V157.185H96.2585C96.0483 157.594 95.767 157.955 95.4148 158.267C95.0625 158.574 94.6392 158.815 94.1449 158.991C93.6506 159.162 93.0795 159.247 92.4318 159.247ZM93.4716 156.741C94.0057 156.741 94.4773 156.636 94.8864 156.426C95.2955 156.21 95.6165 155.92 95.8494 155.557C96.0824 155.193 96.1989 154.781 96.1989 154.321V152.932C96.0852 153.006 95.929 153.074 95.7301 153.136C95.5369 153.193 95.3182 153.247 95.0739 153.298C94.8295 153.344 94.5852 153.386 94.3409 153.426C94.0966 153.46 93.875 153.491 93.6761 153.52C93.25 153.582 92.8778 153.682 92.5597 153.818C92.2415 153.955 91.9943 154.139 91.8182 154.372C91.642 154.599 91.554 154.884 91.554 155.224C91.554 155.719 91.733 156.097 92.0909 156.358C92.4545 156.614 92.9148 156.741 93.4716 156.741ZM108.518 164.182C107.342 164.182 106.334 164.02 105.493 163.696C104.658 163.378 103.993 162.943 103.499 162.392C103.004 161.841 102.683 161.222 102.536 160.534L105.893 160.082C105.996 160.344 106.158 160.588 106.379 160.815C106.601 161.043 106.893 161.224 107.257 161.361C107.626 161.503 108.075 161.574 108.604 161.574C109.393 161.574 110.044 161.381 110.555 160.994C111.072 160.614 111.331 159.974 111.331 159.077V156.682H111.178C111.018 157.045 110.78 157.389 110.462 157.713C110.143 158.037 109.734 158.301 109.234 158.506C108.734 158.71 108.138 158.812 107.445 158.812C106.462 158.812 105.567 158.585 104.76 158.131C103.959 157.67 103.32 156.969 102.842 156.026C102.371 155.077 102.135 153.878 102.135 152.429C102.135 150.946 102.376 149.707 102.859 148.713C103.342 147.719 103.984 146.974 104.786 146.48C105.592 145.986 106.476 145.739 107.436 145.739C108.169 145.739 108.783 145.864 109.277 146.114C109.771 146.358 110.169 146.665 110.47 147.034C110.777 147.398 111.013 147.756 111.178 148.108H111.314V145.909H114.919V159.128C114.919 160.241 114.646 161.173 114.101 161.923C113.555 162.673 112.8 163.236 111.834 163.611C110.874 163.991 109.768 164.182 108.518 164.182ZM108.595 156.085C109.18 156.085 109.675 155.94 110.078 155.651C110.487 155.355 110.8 154.935 111.016 154.389C111.237 153.838 111.348 153.179 111.348 152.412C111.348 151.645 111.24 150.98 111.024 150.418C110.808 149.849 110.496 149.409 110.087 149.097C109.678 148.784 109.18 148.628 108.595 148.628C107.999 148.628 107.496 148.79 107.087 149.114C106.678 149.432 106.368 149.875 106.158 150.443C105.947 151.011 105.842 151.668 105.842 152.412C105.842 153.168 105.947 153.821 106.158 154.372C106.374 154.918 106.683 155.341 107.087 155.642C107.496 155.937 107.999 156.085 108.595 156.085ZM128.7 149.642L125.376 149.847C125.32 149.562 125.197 149.307 125.01 149.08C124.822 148.847 124.575 148.662 124.268 148.526C123.967 148.384 123.607 148.312 123.186 148.312C122.624 148.312 122.149 148.432 121.763 148.67C121.376 148.903 121.183 149.216 121.183 149.608C121.183 149.92 121.308 150.185 121.558 150.401C121.808 150.616 122.237 150.79 122.845 150.92L125.214 151.398C126.487 151.659 127.436 152.08 128.061 152.659C128.686 153.239 128.999 154 128.999 154.943C128.999 155.801 128.746 156.554 128.24 157.202C127.74 157.849 127.053 158.355 126.178 158.719C125.308 159.077 124.305 159.256 123.169 159.256C121.436 159.256 120.055 158.895 119.027 158.173C118.004 157.446 117.405 156.457 117.229 155.207L120.8 155.02C120.908 155.548 121.169 155.952 121.584 156.23C121.999 156.503 122.53 156.639 123.178 156.639C123.814 156.639 124.325 156.517 124.712 156.273C125.104 156.023 125.303 155.702 125.308 155.31C125.303 154.98 125.163 154.71 124.891 154.5C124.618 154.284 124.197 154.119 123.629 154.006L121.362 153.554C120.084 153.298 119.132 152.855 118.507 152.224C117.888 151.594 117.578 150.79 117.578 149.812C117.578 148.972 117.805 148.247 118.26 147.639C118.72 147.031 119.365 146.562 120.195 146.233C121.03 145.903 122.007 145.739 123.126 145.739C124.78 145.739 126.081 146.088 127.03 146.787C127.984 147.486 128.541 148.437 128.7 149.642ZM133.407 159.222C132.844 159.222 132.362 159.023 131.958 158.625C131.56 158.222 131.362 157.739 131.362 157.176C131.362 156.619 131.56 156.142 131.958 155.744C132.362 155.347 132.844 155.148 133.407 155.148C133.952 155.148 134.43 155.347 134.839 155.744C135.248 156.142 135.452 156.619 135.452 157.176C135.452 157.551 135.356 157.895 135.163 158.207C134.975 158.514 134.728 158.761 134.421 158.949C134.114 159.131 133.776 159.222 133.407 159.222ZM133.407 150.051C132.844 150.051 132.362 149.852 131.958 149.455C131.56 149.057 131.362 148.574 131.362 148.006C131.362 147.449 131.56 146.974 131.958 146.582C132.362 146.185 132.844 145.986 133.407 145.986C133.952 145.986 134.43 146.185 134.839 146.582C135.248 146.974 135.452 147.449 135.452 148.006C135.452 148.386 135.356 148.733 135.163 149.045C134.975 149.352 134.728 149.597 134.421 149.778C134.114 149.96 133.776 150.051 133.407 150.051Z" fill="white"/>
<path opacity="0.5" d="M80.7045 117H74.517V99.5455H80.7557C82.5114 99.5455 84.0227 99.8949 85.2898 100.594C86.5568 101.287 87.5313 102.284 88.2131 103.585C88.9006 104.886 89.2443 106.443 89.2443 108.256C89.2443 110.074 88.9006 111.636 88.2131 112.943C87.5313 114.25 86.5511 115.253 85.2727 115.952C84 116.651 82.4773 117 80.7045 117ZM78.2074 113.838H80.5511C81.642 113.838 82.5597 113.645 83.304 113.259C84.054 112.866 84.6165 112.261 84.9915 111.443C85.3722 110.619 85.5625 109.557 85.5625 108.256C85.5625 106.966 85.3722 105.912 84.9915 105.094C84.6165 104.276 84.0568 103.673 83.3125 103.287C82.5682 102.901 81.6506 102.707 80.5597 102.707H78.2074V113.838ZM97.8757 117.256C96.5291 117.256 95.37 116.983 94.3984 116.438C93.4325 115.886 92.6882 115.108 92.1655 114.102C91.6428 113.091 91.3814 111.895 91.3814 110.514C91.3814 109.168 91.6428 107.986 92.1655 106.969C92.6882 105.952 93.424 105.159 94.3729 104.591C95.3274 104.023 96.4467 103.739 97.7308 103.739C98.5945 103.739 99.3984 103.878 100.143 104.156C100.893 104.429 101.546 104.841 102.103 105.392C102.665 105.943 103.103 106.636 103.415 107.472C103.728 108.301 103.884 109.273 103.884 110.386V111.384H92.8303V109.134H100.467C100.467 108.611 100.353 108.148 100.126 107.744C99.8984 107.341 99.5831 107.026 99.1797 106.798C98.782 106.565 98.3189 106.449 97.7905 106.449C97.2393 106.449 96.7507 106.577 96.3246 106.832C95.9041 107.082 95.5746 107.42 95.3359 107.847C95.0973 108.267 94.9751 108.736 94.9695 109.253V111.392C94.9695 112.04 95.0888 112.599 95.3274 113.071C95.5717 113.543 95.9155 113.906 96.3587 114.162C96.8018 114.418 97.3274 114.545 97.9354 114.545C98.3388 114.545 98.7081 114.489 99.0433 114.375C99.3786 114.261 99.6655 114.091 99.9041 113.864C100.143 113.636 100.325 113.358 100.45 113.028L103.808 113.25C103.637 114.057 103.288 114.761 102.759 115.364C102.237 115.96 101.56 116.426 100.731 116.761C99.907 117.091 98.9553 117.256 97.8757 117.256ZM117.146 107.642L113.822 107.847C113.765 107.562 113.643 107.307 113.455 107.08C113.268 106.847 113.021 106.662 112.714 106.526C112.413 106.384 112.052 106.312 111.631 106.312C111.069 106.312 110.594 106.432 110.208 106.67C109.822 106.903 109.629 107.216 109.629 107.608C109.629 107.92 109.754 108.185 110.004 108.401C110.254 108.616 110.683 108.79 111.29 108.92L113.66 109.398C114.933 109.659 115.881 110.08 116.506 110.659C117.131 111.239 117.444 112 117.444 112.943C117.444 113.801 117.191 114.554 116.685 115.202C116.185 115.849 115.498 116.355 114.623 116.719C113.754 117.077 112.751 117.256 111.614 117.256C109.881 117.256 108.501 116.895 107.472 116.173C106.45 115.446 105.85 114.457 105.674 113.207L109.245 113.02C109.353 113.548 109.614 113.952 110.029 114.23C110.444 114.503 110.975 114.639 111.623 114.639C112.259 114.639 112.771 114.517 113.157 114.273C113.549 114.023 113.748 113.702 113.754 113.31C113.748 112.98 113.609 112.71 113.336 112.5C113.063 112.284 112.643 112.119 112.075 112.006L109.808 111.554C108.529 111.298 107.577 110.855 106.952 110.224C106.333 109.594 106.023 108.79 106.023 107.812C106.023 106.972 106.251 106.247 106.705 105.639C107.165 105.031 107.81 104.562 108.64 104.233C109.475 103.903 110.452 103.739 111.572 103.739C113.225 103.739 114.526 104.088 115.475 104.787C116.43 105.486 116.987 106.437 117.146 107.642ZM125.645 117.256C124.304 117.256 123.151 116.972 122.185 116.403C121.224 115.83 120.486 115.034 119.969 114.017C119.457 113 119.202 111.83 119.202 110.506C119.202 109.165 119.46 107.989 119.977 106.977C120.5 105.96 121.241 105.168 122.202 104.599C123.162 104.026 124.304 103.739 125.628 103.739C126.77 103.739 127.77 103.946 128.628 104.361C129.486 104.776 130.165 105.358 130.665 106.108C131.165 106.858 131.44 107.739 131.491 108.75H128.065C127.969 108.097 127.713 107.571 127.298 107.173C126.889 106.77 126.352 106.568 125.688 106.568C125.125 106.568 124.634 106.722 124.213 107.028C123.798 107.33 123.474 107.77 123.241 108.349C123.009 108.929 122.892 109.631 122.892 110.455C122.892 111.29 123.006 112 123.233 112.585C123.466 113.17 123.793 113.616 124.213 113.923C124.634 114.23 125.125 114.384 125.688 114.384C126.102 114.384 126.474 114.298 126.804 114.128C127.139 113.957 127.415 113.71 127.631 113.386C127.852 113.057 127.997 112.662 128.065 112.202H131.491C131.435 113.202 131.162 114.082 130.673 114.844C130.19 115.599 129.523 116.19 128.67 116.616C127.818 117.043 126.81 117.256 125.645 117.256ZM133.816 117V103.909H137.336V106.193H137.472C137.711 105.381 138.112 104.767 138.674 104.352C139.237 103.932 139.884 103.722 140.617 103.722C140.799 103.722 140.995 103.733 141.205 103.756C141.415 103.778 141.6 103.81 141.759 103.849V107.071C141.589 107.02 141.353 106.974 141.052 106.935C140.751 106.895 140.475 106.875 140.225 106.875C139.691 106.875 139.214 106.991 138.793 107.224C138.379 107.452 138.049 107.77 137.805 108.179C137.566 108.588 137.447 109.06 137.447 109.594V117H133.816ZM143.636 117V103.909H147.267V117H143.636ZM145.46 102.222C144.92 102.222 144.457 102.043 144.071 101.685C143.69 101.321 143.5 100.886 143.5 100.381C143.5 99.8807 143.69 99.4517 144.071 99.0938C144.457 98.7301 144.92 98.5483 145.46 98.5483C146 98.5483 146.46 98.7301 146.841 99.0938C147.227 99.4517 147.42 99.8807 147.42 100.381C147.42 100.886 147.227 101.321 146.841 101.685C146.46 102.043 146 102.222 145.46 102.222ZM150.175 121.909V103.909H153.755V106.108H153.917C154.076 105.756 154.306 105.398 154.607 105.034C154.914 104.665 155.312 104.358 155.8 104.114C156.295 103.864 156.908 103.739 157.641 103.739C158.596 103.739 159.477 103.989 160.283 104.489C161.09 104.983 161.735 105.73 162.218 106.73C162.701 107.724 162.942 108.972 162.942 110.472C162.942 111.932 162.707 113.165 162.235 114.17C161.769 115.17 161.133 115.929 160.326 116.446C159.525 116.957 158.627 117.213 157.633 117.213C156.928 117.213 156.329 117.097 155.835 116.864C155.346 116.631 154.945 116.338 154.633 115.986C154.32 115.628 154.082 115.267 153.917 114.903H153.806V121.909H150.175ZM153.729 110.455C153.729 111.233 153.837 111.912 154.053 112.491C154.269 113.071 154.582 113.523 154.991 113.847C155.4 114.165 155.897 114.324 156.482 114.324C157.073 114.324 157.573 114.162 157.982 113.838C158.391 113.509 158.701 113.054 158.911 112.474C159.127 111.889 159.235 111.216 159.235 110.455C159.235 109.699 159.13 109.034 158.92 108.46C158.71 107.886 158.4 107.437 157.991 107.114C157.582 106.79 157.079 106.628 156.482 106.628C155.891 106.628 155.391 106.784 154.982 107.097C154.579 107.409 154.269 107.852 154.053 108.426C153.837 109 153.729 109.676 153.729 110.455ZM172.326 103.909V106.636H164.442V103.909H172.326ZM166.232 100.773H169.863V112.977C169.863 113.312 169.914 113.574 170.016 113.761C170.119 113.943 170.261 114.071 170.442 114.145C170.63 114.219 170.846 114.256 171.09 114.256C171.261 114.256 171.431 114.241 171.602 114.213C171.772 114.179 171.903 114.153 171.994 114.136L172.565 116.838C172.383 116.895 172.127 116.96 171.798 117.034C171.468 117.114 171.067 117.162 170.596 117.179C169.721 117.213 168.954 117.097 168.295 116.83C167.641 116.562 167.133 116.148 166.769 115.585C166.406 115.023 166.227 114.312 166.232 113.455V100.773ZM174.691 117V103.909H178.322V117H174.691ZM176.515 102.222C175.975 102.222 175.512 102.043 175.126 101.685C174.745 101.321 174.555 100.886 174.555 100.381C174.555 99.8807 174.745 99.4517 175.126 99.0938C175.512 98.7301 175.975 98.5483 176.515 98.5483C177.055 98.5483 177.515 98.7301 177.896 99.0938C178.282 99.4517 178.475 99.8807 178.475 100.381C178.475 100.886 178.282 101.321 177.896 101.685C177.515 102.043 177.055 102.222 176.515 102.222ZM187.145 117.256C185.821 117.256 184.676 116.974 183.71 116.412C182.75 115.844 182.009 115.054 181.486 114.043C180.963 113.026 180.702 111.847 180.702 110.506C180.702 109.153 180.963 107.972 181.486 106.96C182.009 105.943 182.75 105.153 183.71 104.591C184.676 104.023 185.821 103.739 187.145 103.739C188.469 103.739 189.611 104.023 190.571 104.591C191.537 105.153 192.281 105.943 192.804 106.96C193.327 107.972 193.588 109.153 193.588 110.506C193.588 111.847 193.327 113.026 192.804 114.043C192.281 115.054 191.537 115.844 190.571 116.412C189.611 116.974 188.469 117.256 187.145 117.256ZM187.162 114.443C187.764 114.443 188.267 114.273 188.67 113.932C189.074 113.585 189.378 113.114 189.582 112.517C189.793 111.92 189.898 111.241 189.898 110.48C189.898 109.719 189.793 109.04 189.582 108.443C189.378 107.847 189.074 107.375 188.67 107.028C188.267 106.682 187.764 106.509 187.162 106.509C186.554 106.509 186.043 106.682 185.628 107.028C185.219 107.375 184.909 107.847 184.699 108.443C184.494 109.04 184.392 109.719 184.392 110.48C184.392 111.241 184.494 111.92 184.699 112.517C184.909 113.114 185.219 113.585 185.628 113.932C186.043 114.273 186.554 114.443 187.162 114.443ZM199.58 109.432V117H195.949V103.909H199.409V106.219H199.562C199.852 105.457 200.338 104.855 201.02 104.412C201.702 103.963 202.528 103.739 203.5 103.739C204.409 103.739 205.202 103.938 205.878 104.335C206.554 104.733 207.08 105.301 207.455 106.04C207.83 106.773 208.017 107.648 208.017 108.665V117H204.386V109.312C204.392 108.511 204.188 107.886 203.773 107.438C203.358 106.983 202.787 106.756 202.06 106.756C201.571 106.756 201.139 106.861 200.764 107.071C200.395 107.281 200.105 107.588 199.895 107.991C199.69 108.389 199.585 108.869 199.58 109.432ZM213.001 117.222C212.438 117.222 211.955 117.023 211.552 116.625C211.154 116.222 210.955 115.739 210.955 115.176C210.955 114.619 211.154 114.142 211.552 113.744C211.955 113.347 212.438 113.148 213.001 113.148C213.546 113.148 214.023 113.347 214.433 113.744C214.842 114.142 215.046 114.619 215.046 115.176C215.046 115.551 214.95 115.895 214.756 116.207C214.569 116.514 214.322 116.761 214.015 116.949C213.708 117.131 213.37 117.222 213.001 117.222ZM213.001 108.051C212.438 108.051 211.955 107.852 211.552 107.455C211.154 107.057 210.955 106.574 210.955 106.006C210.955 105.449 211.154 104.974 211.552 104.582C211.955 104.185 212.438 103.986 213.001 103.986C213.546 103.986 214.023 104.185 214.433 104.582C214.842 104.974 215.046 105.449 215.046 106.006C215.046 106.386 214.95 106.733 214.756 107.045C214.569 107.352 214.322 107.597 214.015 107.778C213.708 107.96 213.37 108.051 213.001 108.051Z" fill="white"/>
</svg>
