<svg width="512" height="216" viewBox="0 0 512 216" fill="none" xmlns="http://www.w3.org/2000/svg">
<rect x="4" y="4.00012" width="504" height="208" fill="#4D7BFF"/>
<rect x="4" y="4.00012" width="504" height="208" stroke="black" stroke-width="8"/>
<path opacity="0.5" d="M74.517 51V33.5455H81.4034C82.7273 33.5455 83.8551 33.7983 84.7869 34.304C85.7188 34.804 86.429 35.5 86.9176 36.392C87.4119 37.2784 87.6591 38.3011 87.6591 39.4602C87.6591 40.6193 87.4091 41.642 86.9091 42.5284C86.4091 43.4148 85.6847 44.1051 84.7358 44.5994C83.7926 45.0937 82.6506 45.3409 81.3097 45.3409H76.9205V42.3835H80.7131C81.4233 42.3835 82.0085 42.2614 82.4688 42.017C82.9347 41.767 83.2813 41.4233 83.5085 40.9858C83.7415 40.5426 83.858 40.0341 83.858 39.4602C83.858 38.8807 83.7415 38.375 83.5085 37.9432C83.2813 37.5057 82.9347 37.1676 82.4688 36.929C82.0028 36.6847 81.4119 36.5625 80.696 36.5625H78.2074V51H74.517ZM89.9879 51V37.9091H93.5078V40.1932H93.6442C93.8828 39.3807 94.2834 38.767 94.8459 38.3523C95.4084 37.9318 96.0561 37.7216 96.7891 37.7216C96.9709 37.7216 97.1669 37.733 97.3771 37.7557C97.5874 37.7784 97.772 37.8097 97.9311 37.8494V41.071C97.7607 41.0199 97.5249 40.9744 97.2237 40.9347C96.9226 40.8949 96.647 40.875 96.397 40.875C95.8629 40.875 95.3857 40.9915 94.9652 41.2244C94.5504 41.4517 94.2209 41.7699 93.9766 42.179C93.7379 42.5881 93.6186 43.0597 93.6186 43.5938V51H89.9879ZM105.165 51.2557C103.818 51.2557 102.659 50.983 101.688 50.4375C100.722 49.8864 99.9773 49.108 99.4545 48.1023C98.9318 47.0909 98.6705 45.8949 98.6705 44.5142C98.6705 43.1676 98.9318 41.9858 99.4545 40.9688C99.9773 39.9517 100.713 39.1591 101.662 38.5909C102.616 38.0227 103.736 37.7386 105.02 37.7386C105.884 37.7386 106.688 37.8778 107.432 38.1562C108.182 38.429 108.835 38.8409 109.392 39.392C109.955 39.9432 110.392 40.6364 110.705 41.4716C111.017 42.3011 111.173 43.2727 111.173 44.3864V45.3835H100.119V43.1335H107.756C107.756 42.6108 107.642 42.1477 107.415 41.7443C107.188 41.3409 106.872 41.0256 106.469 40.7983C106.071 40.5653 105.608 40.4489 105.08 40.4489C104.528 40.4489 104.04 40.5767 103.614 40.8324C103.193 41.0824 102.864 41.4205 102.625 41.8466C102.386 42.267 102.264 42.7358 102.259 43.2528V45.392C102.259 46.0398 102.378 46.5994 102.616 47.071C102.861 47.5426 103.205 47.9062 103.648 48.1619C104.091 48.4176 104.616 48.5455 105.224 48.5455C105.628 48.5455 105.997 48.4886 106.332 48.375C106.668 48.2614 106.955 48.0909 107.193 47.8636C107.432 47.6364 107.614 47.358 107.739 47.0284L111.097 47.25C110.926 48.0568 110.577 48.7614 110.048 49.3636C109.526 49.9602 108.849 50.4261 108.02 50.7614C107.196 51.0909 106.244 51.2557 105.165 51.2557ZM125.396 37.9091L120.819 51H116.728L112.151 37.9091H115.987L118.705 47.2756H118.842L121.552 37.9091H125.396ZM127.254 51V37.9091H130.884V51H127.254ZM129.077 36.2216C128.538 36.2216 128.075 36.0426 127.688 35.6847C127.308 35.321 127.117 34.8864 127.117 34.3807C127.117 33.8807 127.308 33.4517 127.688 33.0938C128.075 32.7301 128.538 32.5483 129.077 32.5483C129.617 32.5483 130.077 32.7301 130.458 33.0938C130.844 33.4517 131.038 33.8807 131.038 34.3807C131.038 34.8864 130.844 35.321 130.458 35.6847C130.077 36.0426 129.617 36.2216 129.077 36.2216ZM139.759 51.2557C138.412 51.2557 137.253 50.983 136.281 50.4375C135.315 49.8864 134.571 49.108 134.048 48.1023C133.526 47.0909 133.264 45.8949 133.264 44.5142C133.264 43.1676 133.526 41.9858 134.048 40.9688C134.571 39.9517 135.307 39.1591 136.256 38.5909C137.21 38.0227 138.33 37.7386 139.614 37.7386C140.477 37.7386 141.281 37.8778 142.026 38.1562C142.776 38.429 143.429 38.8409 143.986 39.392C144.548 39.9432 144.986 40.6364 145.298 41.4716C145.611 42.3011 145.767 43.2727 145.767 44.3864V45.3835H134.713V43.1335H142.349C142.349 42.6108 142.236 42.1477 142.009 41.7443C141.781 41.3409 141.466 41.0256 141.062 40.7983C140.665 40.5653 140.202 40.4489 139.673 40.4489C139.122 40.4489 138.634 40.5767 138.207 40.8324C137.787 41.0824 137.457 41.4205 137.219 41.8466C136.98 42.267 136.858 42.7358 136.852 43.2528V45.392C136.852 46.0398 136.972 46.5994 137.21 47.071C137.455 47.5426 137.798 47.9062 138.241 48.1619C138.685 48.4176 139.21 48.5455 139.818 48.5455C140.222 48.5455 140.591 48.4886 140.926 48.375C141.261 48.2614 141.548 48.0909 141.787 47.8636C142.026 47.6364 142.207 47.358 142.332 47.0284L145.69 47.25C145.52 48.0568 145.17 48.7614 144.642 49.3636C144.119 49.9602 143.443 50.4261 142.614 50.7614C141.79 51.0909 140.838 51.2557 139.759 51.2557ZM150.625 51L147.062 37.9091H150.736L152.764 46.7045H152.884L154.997 37.9091H158.602L160.75 46.6534H160.861L162.855 37.9091H166.52L162.966 51H159.122L156.872 42.767H156.71L154.46 51H150.625ZM177.744 51.2472C176.909 51.2472 176.165 51.1023 175.511 50.8125C174.858 50.517 174.341 50.0824 173.96 49.5085C173.585 48.929 173.398 48.2074 173.398 47.3438C173.398 46.6165 173.531 46.0057 173.798 45.5114C174.065 45.017 174.429 44.6193 174.889 44.3182C175.349 44.017 175.872 43.7898 176.457 43.6364C177.048 43.483 177.668 43.375 178.315 43.3125C179.077 43.233 179.69 43.1591 180.156 43.0909C180.622 43.017 180.96 42.9091 181.17 42.767C181.381 42.625 181.486 42.4148 181.486 42.1364V42.0852C181.486 41.5455 181.315 41.1278 180.974 40.8324C180.639 40.5369 180.162 40.3892 179.543 40.3892C178.889 40.3892 178.369 40.5341 177.983 40.8239C177.597 41.108 177.341 41.4659 177.216 41.8977L173.858 41.625C174.028 40.8295 174.364 40.142 174.864 39.5625C175.364 38.9773 176.009 38.5284 176.798 38.2159C177.594 37.8977 178.514 37.7386 179.56 37.7386C180.287 37.7386 180.983 37.8239 181.648 37.9943C182.318 38.1648 182.912 38.429 183.429 38.7869C183.952 39.1449 184.364 39.6051 184.665 40.1676C184.966 40.7244 185.116 41.392 185.116 42.1705V51H181.673V49.1847H181.571C181.361 49.5938 181.08 49.9545 180.727 50.267C180.375 50.5739 179.952 50.8153 179.457 50.9915C178.963 51.1619 178.392 51.2472 177.744 51.2472ZM178.784 48.7415C179.318 48.7415 179.79 48.6364 180.199 48.4261C180.608 48.2102 180.929 47.9205 181.162 47.5568C181.395 47.1932 181.511 46.7812 181.511 46.321V44.9318C181.398 45.0057 181.241 45.0739 181.043 45.1364C180.849 45.1932 180.631 45.2472 180.386 45.2983C180.142 45.3437 179.898 45.3864 179.653 45.4261C179.409 45.4602 179.188 45.4915 178.989 45.5199C178.563 45.5824 178.19 45.6818 177.872 45.8182C177.554 45.9545 177.307 46.1392 177.131 46.3722C176.955 46.5994 176.866 46.8835 176.866 47.2244C176.866 47.7188 177.045 48.0966 177.403 48.358C177.767 48.6136 178.227 48.7415 178.784 48.7415ZM198.825 41.642L195.501 41.8466C195.445 41.5625 195.322 41.3068 195.135 41.0795C194.947 40.8466 194.7 40.6619 194.393 40.5256C194.092 40.3835 193.732 40.3125 193.311 40.3125C192.749 40.3125 192.274 40.4318 191.888 40.6705C191.501 40.9034 191.308 41.2159 191.308 41.608C191.308 41.9205 191.433 42.1847 191.683 42.4006C191.933 42.6165 192.362 42.7898 192.97 42.9205L195.339 43.3977C196.612 43.6591 197.561 44.0795 198.186 44.6591C198.811 45.2386 199.124 46 199.124 46.9432C199.124 47.8011 198.871 48.554 198.365 49.2017C197.865 49.8494 197.178 50.3551 196.303 50.7188C195.433 51.0767 194.43 51.2557 193.294 51.2557C191.561 51.2557 190.18 50.8949 189.152 50.1733C188.129 49.446 187.53 48.4574 187.354 47.2074L190.925 47.0199C191.033 47.5483 191.294 47.9517 191.709 48.2301C192.124 48.5028 192.655 48.6392 193.303 48.6392C193.939 48.6392 194.45 48.517 194.837 48.2727C195.229 48.0227 195.428 47.7017 195.433 47.3097C195.428 46.9801 195.288 46.7102 195.016 46.5C194.743 46.2841 194.322 46.1193 193.754 46.0057L191.487 45.554C190.209 45.2983 189.257 44.8551 188.632 44.2244C188.013 43.5937 187.703 42.7898 187.703 41.8125C187.703 40.9716 187.93 40.2472 188.385 39.6392C188.845 39.0312 189.49 38.5625 190.32 38.233C191.155 37.9034 192.132 37.7386 193.251 37.7386C194.905 37.7386 196.206 38.0881 197.155 38.7869C198.109 39.4858 198.666 40.4375 198.825 41.642ZM203.532 51.2216C202.969 51.2216 202.487 51.0227 202.083 50.625C201.685 50.2216 201.487 49.7386 201.487 49.1761C201.487 48.6193 201.685 48.142 202.083 47.7443C202.487 47.3466 202.969 47.1477 203.532 47.1477C204.077 47.1477 204.555 47.3466 204.964 47.7443C205.373 48.142 205.577 48.6193 205.577 49.1761C205.577 49.5511 205.481 49.8949 205.288 50.2074C205.1 50.5142 204.853 50.7614 204.546 50.9489C204.239 51.1307 203.901 51.2216 203.532 51.2216ZM203.532 42.0511C202.969 42.0511 202.487 41.8523 202.083 41.4545C201.685 41.0568 201.487 40.5739 201.487 40.0057C201.487 39.4489 201.685 38.9744 202.083 38.5824C202.487 38.1847 202.969 37.9858 203.532 37.9858C204.077 37.9858 204.555 38.1847 204.964 38.5824C205.373 38.9744 205.577 39.4489 205.577 40.0057C205.577 40.3864 205.481 40.733 205.288 41.0455C205.1 41.3523 204.853 41.5966 204.546 41.7784C204.239 41.9602 203.901 42.0511 203.532 42.0511Z" fill="white"/>
<g opacity="0.5">
<rect x="226" y="30" width="26" height="26" rx="13" stroke="white" stroke-width="6"/>
</g>
<rect x="226" y="75" width="26" height="26" rx="13" stroke="white" stroke-width="6"/>
<rect x="232" y="81.0001" width="14" height="14" rx="7" fill="white"/>
<path opacity="0.5" d="M270.517 51V33.5455H282.074V36.5881H274.207V40.7472H281.307V43.7898H274.207V51H270.517ZM284.488 51V37.9091H288.119V51H284.488ZM286.312 36.2216C285.772 36.2216 285.309 36.0426 284.923 35.6847C284.542 35.321 284.352 34.8864 284.352 34.3807C284.352 33.8807 284.542 33.4517 284.923 33.0938C285.309 32.7301 285.772 32.5483 286.312 32.5483C286.852 32.5483 287.312 32.7301 287.692 33.0938C288.079 33.4517 288.272 33.8807 288.272 34.3807C288.272 34.8864 288.079 35.321 287.692 35.6847C287.312 36.0426 286.852 36.2216 286.312 36.2216ZM294.658 33.5455V51H291.027V33.5455H294.658ZM303.532 51.2557C302.185 51.2557 301.026 50.983 300.055 50.4375C299.089 49.8864 298.344 49.108 297.822 48.1023C297.299 47.0909 297.038 45.8949 297.038 44.5142C297.038 43.1676 297.299 41.9858 297.822 40.9688C298.344 39.9517 299.08 39.1591 300.029 38.5909C300.984 38.0227 302.103 37.7386 303.387 37.7386C304.251 37.7386 305.055 37.8778 305.799 38.1562C306.549 38.429 307.202 38.8409 307.759 39.392C308.322 39.9432 308.759 40.6364 309.072 41.4716C309.384 42.3011 309.54 43.2727 309.54 44.3864V45.3835H298.487V43.1335H306.123C306.123 42.6108 306.009 42.1477 305.782 41.7443C305.555 41.3409 305.239 41.0256 304.836 40.7983C304.438 40.5653 303.975 40.4489 303.447 40.4489C302.896 40.4489 302.407 40.5767 301.981 40.8324C301.56 41.0824 301.231 41.4205 300.992 41.8466C300.754 42.267 300.631 42.7358 300.626 43.2528V45.392C300.626 46.0398 300.745 46.5994 300.984 47.071C301.228 47.5426 301.572 47.9062 302.015 48.1619C302.458 48.4176 302.984 48.5455 303.592 48.5455C303.995 48.5455 304.364 48.4886 304.7 48.375C305.035 48.2614 305.322 48.0909 305.56 47.8636C305.799 47.6364 305.981 47.358 306.106 47.0284L309.464 47.25C309.293 48.0568 308.944 48.7614 308.415 49.3636C307.893 49.9602 307.217 50.4261 306.387 50.7614C305.563 51.0909 304.612 51.2557 303.532 51.2557Z" fill="white"/>
<path d="M270.517 96V78.5455H277.403C278.727 78.5455 279.855 78.7983 280.787 79.304C281.719 79.804 282.429 80.5 282.918 81.392C283.412 82.2784 283.659 83.3011 283.659 84.4602C283.659 85.6193 283.409 86.642 282.909 87.5284C282.409 88.4148 281.685 89.1051 280.736 89.5994C279.793 90.0937 278.651 90.3409 277.31 90.3409H272.92V87.3835H276.713C277.423 87.3835 278.009 87.2614 278.469 87.017C278.935 86.767 279.281 86.4233 279.509 85.9858C279.741 85.5426 279.858 85.0341 279.858 84.4602C279.858 83.8807 279.741 83.375 279.509 82.9432C279.281 82.5057 278.935 82.1676 278.469 81.929C278.003 81.6847 277.412 81.5625 276.696 81.5625H274.207V96H270.517ZM285.988 96V82.9091H289.508V85.1932H289.644C289.883 84.3807 290.283 83.767 290.846 83.3523C291.408 82.9318 292.056 82.7216 292.789 82.7216C292.971 82.7216 293.167 82.733 293.377 82.7557C293.587 82.7784 293.772 82.8097 293.931 82.8494V86.071C293.761 86.0199 293.525 85.9744 293.224 85.9347C292.923 85.8949 292.647 85.875 292.397 85.875C291.863 85.875 291.386 85.9915 290.965 86.2244C290.55 86.4517 290.221 86.7699 289.977 87.179C289.738 87.5881 289.619 88.0597 289.619 88.5938V96H285.988ZM301.114 96.2557C299.79 96.2557 298.645 95.9744 297.679 95.4119C296.719 94.8437 295.977 94.054 295.455 93.0426C294.932 92.0256 294.67 90.8466 294.67 89.5057C294.67 88.1534 294.932 86.9716 295.455 85.9602C295.977 84.9432 296.719 84.1534 297.679 83.5909C298.645 83.0227 299.79 82.7386 301.114 82.7386C302.438 82.7386 303.58 83.0227 304.54 83.5909C305.506 84.1534 306.25 84.9432 306.773 85.9602C307.295 86.9716 307.557 88.1534 307.557 89.5057C307.557 90.8466 307.295 92.0256 306.773 93.0426C306.25 94.054 305.506 94.8437 304.54 95.4119C303.58 95.9744 302.438 96.2557 301.114 96.2557ZM301.131 93.4432C301.733 93.4432 302.236 93.2727 302.639 92.9318C303.043 92.5852 303.347 92.1136 303.551 91.517C303.761 90.9205 303.866 90.2415 303.866 89.4801C303.866 88.7188 303.761 88.0398 303.551 87.4432C303.347 86.8466 303.043 86.375 302.639 86.0284C302.236 85.6818 301.733 85.5085 301.131 85.5085C300.523 85.5085 300.011 85.6818 299.597 86.0284C299.188 86.375 298.878 86.8466 298.668 87.4432C298.463 88.0398 298.361 88.7188 298.361 89.4801C298.361 90.2415 298.463 90.9205 298.668 91.517C298.878 92.1136 299.188 92.5852 299.597 92.9318C300.011 93.2727 300.523 93.4432 301.131 93.4432ZM316.881 82.9091V85.6364H308.997V82.9091H316.881ZM310.787 79.7727H314.418V91.9773C314.418 92.3125 314.469 92.5739 314.571 92.7614C314.673 92.9432 314.815 93.071 314.997 93.1449C315.185 93.2187 315.401 93.2557 315.645 93.2557C315.815 93.2557 315.986 93.2415 316.156 93.2131C316.327 93.179 316.457 93.1534 316.548 93.1364L317.119 95.8381C316.938 95.8949 316.682 95.9602 316.352 96.0341C316.023 96.1136 315.622 96.1619 315.151 96.179C314.276 96.2131 313.509 96.0966 312.849 95.8295C312.196 95.5625 311.688 95.1477 311.324 94.5852C310.96 94.0227 310.781 93.3125 310.787 92.4545V79.7727ZM325.02 96.2557C323.696 96.2557 322.551 95.9744 321.585 95.4119C320.625 94.8437 319.884 94.054 319.361 93.0426C318.838 92.0256 318.577 90.8466 318.577 89.5057C318.577 88.1534 318.838 86.9716 319.361 85.9602C319.884 84.9432 320.625 84.1534 321.585 83.5909C322.551 83.0227 323.696 82.7386 325.02 82.7386C326.344 82.7386 327.486 83.0227 328.446 83.5909C329.412 84.1534 330.156 84.9432 330.679 85.9602C331.202 86.9716 331.463 88.1534 331.463 89.5057C331.463 90.8466 331.202 92.0256 330.679 93.0426C330.156 94.054 329.412 94.8437 328.446 95.4119C327.486 95.9744 326.344 96.2557 325.02 96.2557ZM325.037 93.4432C325.639 93.4432 326.142 93.2727 326.545 92.9318C326.949 92.5852 327.253 92.1136 327.457 91.517C327.668 90.9205 327.773 90.2415 327.773 89.4801C327.773 88.7188 327.668 88.0398 327.457 87.4432C327.253 86.8466 326.949 86.375 326.545 86.0284C326.142 85.6818 325.639 85.5085 325.037 85.5085C324.429 85.5085 323.918 85.6818 323.503 86.0284C323.094 86.375 322.784 86.8466 322.574 87.4432C322.369 88.0398 322.267 88.7188 322.267 89.4801C322.267 90.2415 322.369 90.9205 322.574 91.517C322.784 92.1136 323.094 92.5852 323.503 92.9318C323.918 93.2727 324.429 93.4432 325.037 93.4432ZM340.787 82.9091V85.6364H332.903V82.9091H340.787ZM334.693 79.7727H338.324V91.9773C338.324 92.3125 338.375 92.5739 338.477 92.7614C338.58 92.9432 338.722 93.071 338.903 93.1449C339.091 93.2187 339.307 93.2557 339.551 93.2557C339.722 93.2557 339.892 93.2415 340.062 93.2131C340.233 93.179 340.364 93.1534 340.455 93.1364L341.026 95.8381C340.844 95.8949 340.588 95.9602 340.259 96.0341C339.929 96.1136 339.528 96.1619 339.057 96.179C338.182 96.2131 337.415 96.0966 336.756 95.8295C336.102 95.5625 335.594 95.1477 335.23 94.5852C334.866 94.0227 334.688 93.3125 334.693 92.4545V79.7727ZM345.393 100.909C344.933 100.909 344.501 100.872 344.098 100.798C343.7 100.73 343.371 100.642 343.109 100.534L343.928 97.8239C344.354 97.9545 344.737 98.0256 345.078 98.0369C345.425 98.0483 345.723 97.9688 345.973 97.7983C346.229 97.6278 346.436 97.3381 346.595 96.929L346.808 96.375L342.112 82.9091H345.93L348.641 92.5227H348.777L351.513 82.9091H355.357L350.268 97.4148C350.024 98.1193 349.692 98.733 349.271 99.2557C348.857 99.7841 348.331 100.19 347.695 100.474C347.058 100.764 346.291 100.909 345.393 100.909ZM357.214 100.909V82.9091H360.794V85.108H360.956C361.115 84.7557 361.345 84.3977 361.646 84.0341C361.953 83.6648 362.351 83.358 362.839 83.1136C363.334 82.8636 363.947 82.7386 364.68 82.7386C365.635 82.7386 366.516 82.9886 367.322 83.4886C368.129 83.983 368.774 84.7301 369.257 85.7301C369.74 86.7244 369.982 87.9716 369.982 89.4716C369.982 90.9318 369.746 92.1648 369.274 93.1705C368.808 94.1705 368.172 94.929 367.365 95.446C366.564 95.9574 365.666 96.2131 364.672 96.2131C363.967 96.2131 363.368 96.0966 362.874 95.8636C362.385 95.6307 361.984 95.3381 361.672 94.9858C361.359 94.6278 361.121 94.267 360.956 93.9034H360.845V100.909H357.214ZM360.768 89.4545C360.768 90.233 360.876 90.9119 361.092 91.4915C361.308 92.071 361.621 92.5227 362.03 92.8466C362.439 93.1648 362.936 93.3239 363.521 93.3239C364.112 93.3239 364.612 93.1619 365.021 92.8381C365.43 92.5085 365.74 92.054 365.95 91.4744C366.166 90.8892 366.274 90.2159 366.274 89.4545C366.274 88.6989 366.169 88.0341 365.959 87.4602C365.749 86.8864 365.439 86.4375 365.03 86.1136C364.621 85.7898 364.118 85.6278 363.521 85.6278C362.93 85.6278 362.43 85.7841 362.021 86.0966C361.618 86.4091 361.308 86.8523 361.092 87.4261C360.876 88 360.768 88.6761 360.768 89.4545ZM378.368 96.2557C377.021 96.2557 375.862 95.983 374.891 95.4375C373.925 94.8864 373.18 94.108 372.658 93.1023C372.135 92.0909 371.874 90.8949 371.874 89.5142C371.874 88.1676 372.135 86.9858 372.658 85.9688C373.18 84.9517 373.916 84.1591 374.865 83.5909C375.82 83.0227 376.939 82.7386 378.223 82.7386C379.087 82.7386 379.891 82.8778 380.635 83.1562C381.385 83.429 382.038 83.8409 382.595 84.392C383.158 84.9432 383.595 85.6364 383.908 86.4716C384.22 87.3011 384.376 88.2727 384.376 89.3864V90.3835H373.322V88.1335H380.959C380.959 87.6108 380.845 87.1477 380.618 86.7443C380.391 86.3409 380.075 86.0256 379.672 85.7983C379.274 85.5653 378.811 85.4489 378.283 85.4489C377.732 85.4489 377.243 85.5767 376.817 85.8324C376.396 86.0824 376.067 86.4205 375.828 86.8466C375.589 87.267 375.467 87.7358 375.462 88.2528V90.392C375.462 91.0398 375.581 91.5994 375.82 92.071C376.064 92.5426 376.408 92.9062 376.851 93.1619C377.294 93.4176 377.82 93.5455 378.428 93.5455C378.831 93.5455 379.2 93.4886 379.536 93.375C379.871 93.2614 380.158 93.0909 380.396 92.8636C380.635 92.6364 380.817 92.358 380.942 92.0284L384.3 92.25C384.129 93.0568 383.78 93.7614 383.251 94.3636C382.729 94.9602 382.053 95.4261 381.223 95.7614C380.399 96.0909 379.447 96.2557 378.368 96.2557Z" fill="white"/>
<path d="M358.952 168.576V166.944H361.88L363.44 167.088L363.464 167.016L361.736 165.48L353.672 157.416L354.824 156.264L362.888 164.328L364.424 166.056L364.496 166.032L364.352 164.472V161.544H365.984V168.576H358.952Z" fill="white"/>
<rect x="381" y="144" width="110" height="51" stroke="white" stroke-width="6"/>
<path d="M393.517 178V160.545H400.403C401.727 160.545 402.855 160.798 403.787 161.304C404.719 161.804 405.429 162.5 405.918 163.392C406.412 164.278 406.659 165.301 406.659 166.46C406.659 167.619 406.409 168.642 405.909 169.528C405.409 170.415 404.685 171.105 403.736 171.599C402.793 172.094 401.651 172.341 400.31 172.341H395.92V169.384H399.713C400.423 169.384 401.009 169.261 401.469 169.017C401.935 168.767 402.281 168.423 402.509 167.986C402.741 167.543 402.858 167.034 402.858 166.46C402.858 165.881 402.741 165.375 402.509 164.943C402.281 164.506 401.935 164.168 401.469 163.929C401.003 163.685 400.412 163.562 399.696 163.562H397.207V178H393.517ZM417.383 172.426V164.909H421.013V178H417.528V175.622H417.391C417.096 176.389 416.604 177.006 415.917 177.472C415.235 177.937 414.403 178.17 413.42 178.17C412.545 178.17 411.775 177.972 411.11 177.574C410.445 177.176 409.925 176.611 409.55 175.878C409.181 175.145 408.994 174.267 408.988 173.244V164.909H412.619V172.597C412.624 173.369 412.832 173.98 413.241 174.429C413.65 174.878 414.198 175.102 414.886 175.102C415.323 175.102 415.732 175.003 416.113 174.804C416.494 174.599 416.8 174.298 417.033 173.901C417.272 173.503 417.388 173.011 417.383 172.426ZM423.986 178V160.545H427.616V167.108H427.727C427.886 166.756 428.116 166.398 428.418 166.034C428.724 165.665 429.122 165.358 429.611 165.114C430.105 164.864 430.719 164.739 431.452 164.739C432.406 164.739 433.287 164.989 434.094 165.489C434.901 165.983 435.545 166.73 436.028 167.73C436.511 168.724 436.753 169.972 436.753 171.472C436.753 172.932 436.517 174.165 436.045 175.17C435.58 176.17 434.943 176.929 434.136 177.446C433.335 177.957 432.438 178.213 431.443 178.213C430.739 178.213 430.139 178.097 429.645 177.864C429.156 177.631 428.756 177.338 428.443 176.986C428.131 176.628 427.892 176.267 427.727 175.903H427.565V178H423.986ZM427.54 171.455C427.54 172.233 427.648 172.912 427.864 173.491C428.08 174.071 428.392 174.523 428.801 174.847C429.21 175.165 429.707 175.324 430.293 175.324C430.884 175.324 431.384 175.162 431.793 174.838C432.202 174.509 432.511 174.054 432.722 173.474C432.938 172.889 433.045 172.216 433.045 171.455C433.045 170.699 432.94 170.034 432.73 169.46C432.52 168.886 432.21 168.437 431.801 168.114C431.392 167.79 430.889 167.628 430.293 167.628C429.702 167.628 429.202 167.784 428.793 168.097C428.389 168.409 428.08 168.852 427.864 169.426C427.648 170 427.54 170.676 427.54 171.455ZM442.806 160.545V178H439.175V160.545H442.806ZM445.714 178V164.909H449.345V178H445.714ZM447.538 163.222C446.999 163.222 446.536 163.043 446.149 162.685C445.768 162.321 445.578 161.886 445.578 161.381C445.578 160.881 445.768 160.452 446.149 160.094C446.536 159.73 446.999 159.548 447.538 159.548C448.078 159.548 448.538 159.73 448.919 160.094C449.305 160.452 449.499 160.881 449.499 161.381C449.499 161.886 449.305 162.321 448.919 162.685C448.538 163.043 448.078 163.222 447.538 163.222ZM463.146 168.642L459.822 168.847C459.765 168.562 459.643 168.307 459.455 168.08C459.268 167.847 459.021 167.662 458.714 167.526C458.413 167.384 458.052 167.312 457.631 167.312C457.069 167.312 456.594 167.432 456.208 167.67C455.822 167.903 455.629 168.216 455.629 168.608C455.629 168.92 455.754 169.185 456.004 169.401C456.254 169.616 456.683 169.79 457.29 169.92L459.66 170.398C460.933 170.659 461.881 171.08 462.506 171.659C463.131 172.239 463.444 173 463.444 173.943C463.444 174.801 463.191 175.554 462.685 176.202C462.185 176.849 461.498 177.355 460.623 177.719C459.754 178.077 458.751 178.256 457.614 178.256C455.881 178.256 454.501 177.895 453.472 177.173C452.45 176.446 451.85 175.457 451.674 174.207L455.245 174.02C455.353 174.548 455.614 174.952 456.029 175.23C456.444 175.503 456.975 175.639 457.623 175.639C458.259 175.639 458.771 175.517 459.157 175.273C459.549 175.023 459.748 174.702 459.754 174.31C459.748 173.98 459.609 173.71 459.336 173.5C459.063 173.284 458.643 173.119 458.075 173.006L455.808 172.554C454.529 172.298 453.577 171.855 452.952 171.224C452.333 170.594 452.023 169.79 452.023 168.812C452.023 167.972 452.251 167.247 452.705 166.639C453.165 166.031 453.81 165.562 454.64 165.233C455.475 164.903 456.452 164.739 457.572 164.739C459.225 164.739 460.526 165.088 461.475 165.787C462.43 166.486 462.987 167.437 463.146 168.642ZM469.361 170.432V178H465.73V160.545H469.259V167.219H469.412C469.707 166.446 470.185 165.841 470.844 165.403C471.503 164.96 472.33 164.739 473.324 164.739C474.233 164.739 475.026 164.938 475.702 165.335C476.384 165.727 476.912 166.293 477.287 167.031C477.668 167.764 477.855 168.642 477.849 169.665V178H474.219V170.312C474.224 169.506 474.02 168.878 473.605 168.429C473.196 167.98 472.622 167.756 471.884 167.756C471.389 167.756 470.952 167.861 470.571 168.071C470.196 168.281 469.901 168.588 469.685 168.991C469.474 169.389 469.366 169.869 469.361 170.432Z" fill="white"/>
</svg>
