<svg width="512" height="216" viewBox="0 0 512 216" fill="none" xmlns="http://www.w3.org/2000/svg">
<rect x="4" y="4.00012" width="504" height="208" fill="#4D7BFF"/>
<rect x="4" y="4.00012" width="504" height="208" stroke="black" stroke-width="8"/>
<path opacity="0.5" d="M37.2074 45.5455V63H33.517V45.5455H37.2074ZM43.8061 55.4318V63H40.1754V49.9091H43.6357V52.2188H43.7891C44.0788 51.4574 44.5646 50.8551 45.2464 50.4119C45.9283 49.9631 46.755 49.7386 47.7266 49.7386C48.6357 49.7386 49.4283 49.9375 50.1044 50.3352C50.7805 50.733 51.3061 51.3011 51.6811 52.0398C52.0561 52.7727 52.2436 53.6477 52.2436 54.6648V63H48.6129V55.3125C48.6186 54.5114 48.4141 53.8864 47.9993 53.4375C47.5845 52.983 47.0135 52.7557 46.2862 52.7557C45.7976 52.7557 45.3658 52.8608 44.9908 53.071C44.6214 53.2812 44.3317 53.5881 44.1214 53.9915C43.9169 54.3892 43.8118 54.8693 43.8061 55.4318ZM66.8409 49.9091L62.2642 63H58.1733L53.5966 49.9091H57.4318L60.1506 59.2756H60.2869L62.9972 49.9091H66.8409ZM68.6989 63V49.9091H72.3295V63H68.6989ZM70.5227 48.2216C69.983 48.2216 69.5199 48.0426 69.1335 47.6847C68.7528 47.321 68.5625 46.8864 68.5625 46.3807C68.5625 45.8807 68.7528 45.4517 69.1335 45.0938C69.5199 44.7301 69.983 44.5483 70.5227 44.5483C71.0625 44.5483 71.5227 44.7301 71.9034 45.0938C72.2898 45.4517 72.483 45.8807 72.483 46.3807C72.483 46.8864 72.2898 47.321 71.9034 47.6847C71.5227 48.0426 71.0625 48.2216 70.5227 48.2216ZM82.201 49.9091V52.6364H74.3175V49.9091H82.201ZM76.1072 46.7727H79.7379V58.9773C79.7379 59.3125 79.7891 59.5739 79.8913 59.7614C79.9936 59.9432 80.1357 60.071 80.3175 60.1449C80.505 60.2187 80.7209 60.2557 80.9652 60.2557C81.1357 60.2557 81.3061 60.2415 81.4766 60.2131C81.647 60.179 81.7777 60.1534 81.8686 60.1364L82.4396 62.8381C82.2578 62.8949 82.0021 62.9602 81.6726 63.0341C81.343 63.1136 80.9425 63.1619 80.4709 63.179C79.5959 63.2131 78.8288 63.0966 78.1697 62.8295C77.5163 62.5625 77.0078 62.1477 76.6442 61.5852C76.2805 61.0227 76.1016 60.3125 76.1072 59.4545V46.7727ZM90.3913 63.2557C89.0447 63.2557 87.8857 62.983 86.9141 62.4375C85.9482 61.8864 85.2038 61.108 84.6811 60.1023C84.1584 59.0909 83.897 57.8949 83.897 56.5142C83.897 55.1676 84.1584 53.9858 84.6811 52.9688C85.2038 51.9517 85.9396 51.1591 86.8885 50.5909C87.843 50.0227 88.9624 49.7386 90.2464 49.7386C91.1101 49.7386 91.9141 49.8778 92.6584 50.1562C93.4084 50.429 94.0618 50.8409 94.6186 51.392C95.1811 51.9432 95.6186 52.6364 95.9311 53.4716C96.2436 54.3011 96.3999 55.2727 96.3999 56.3864V57.3835H85.3459V55.1335H92.9822C92.9822 54.6108 92.8686 54.1477 92.6413 53.7443C92.4141 53.3409 92.0987 53.0256 91.6953 52.7983C91.2976 52.5653 90.8345 52.4489 90.3061 52.4489C89.755 52.4489 89.2663 52.5767 88.8402 52.8324C88.4197 53.0824 88.0902 53.4205 87.8516 53.8466C87.6129 54.267 87.4908 54.7358 87.4851 55.2528V57.392C87.4851 58.0398 87.6044 58.5994 87.843 59.071C88.0874 59.5426 88.4311 59.9062 88.8743 60.1619C89.3175 60.4176 89.843 60.5455 90.451 60.5455C90.8544 60.5455 91.2237 60.4886 91.5589 60.375C91.8942 60.2614 92.1811 60.0909 92.4197 59.8636C92.6584 59.6364 92.8402 59.358 92.9652 59.0284L96.3232 59.25C96.1527 60.0568 95.8033 60.7614 95.2749 61.3636C94.7521 61.9602 94.076 62.4261 93.2464 62.7614C92.4226 63.0909 91.4709 63.2557 90.3913 63.2557Z" fill="white"/>
<rect x="127" y="29" width="286" height="51" stroke="white" stroke-width="6"/>
<path d="M139.517 63V45.5455H146.403C147.727 45.5455 148.855 45.7983 149.787 46.304C150.719 46.804 151.429 47.5 151.918 48.392C152.412 49.2784 152.659 50.3011 152.659 51.4602C152.659 52.6193 152.409 53.642 151.909 54.5284C151.409 55.4148 150.685 56.1051 149.736 56.5994C148.793 57.0937 147.651 57.3409 146.31 57.3409H141.92V54.3835H145.713C146.423 54.3835 147.009 54.2614 147.469 54.017C147.935 53.767 148.281 53.4233 148.509 52.9858C148.741 52.5426 148.858 52.0341 148.858 51.4602C148.858 50.8807 148.741 50.375 148.509 49.9432C148.281 49.5057 147.935 49.1676 147.469 48.929C147.003 48.6847 146.412 48.5625 145.696 48.5625H143.207V63H139.517ZM163.383 57.4261V49.9091H167.013V63H163.528V60.6222H163.391C163.096 61.3892 162.604 62.0057 161.917 62.4716C161.235 62.9375 160.403 63.1705 159.42 63.1705C158.545 63.1705 157.775 62.9716 157.11 62.5739C156.445 62.1761 155.925 61.6108 155.55 60.8778C155.181 60.1449 154.994 59.267 154.988 58.2443V49.9091H158.619V57.5966C158.624 58.3693 158.832 58.9801 159.241 59.429C159.65 59.8778 160.198 60.1023 160.886 60.1023C161.323 60.1023 161.732 60.0028 162.113 59.804C162.494 59.5994 162.8 59.2983 163.033 58.9006C163.272 58.5028 163.388 58.0114 163.383 57.4261ZM169.986 63V45.5455H173.616V52.108H173.727C173.886 51.7557 174.116 51.3977 174.418 51.0341C174.724 50.6648 175.122 50.358 175.611 50.1136C176.105 49.8636 176.719 49.7386 177.452 49.7386C178.406 49.7386 179.287 49.9886 180.094 50.4886C180.901 50.983 181.545 51.7301 182.028 52.7301C182.511 53.7244 182.753 54.9716 182.753 56.4716C182.753 57.9318 182.517 59.1648 182.045 60.1705C181.58 61.1705 180.943 61.929 180.136 62.446C179.335 62.9574 178.438 63.2131 177.443 63.2131C176.739 63.2131 176.139 63.0966 175.645 62.8636C175.156 62.6307 174.756 62.3381 174.443 61.9858C174.131 61.6278 173.892 61.267 173.727 60.9034H173.565V63H169.986ZM173.54 56.4545C173.54 57.233 173.648 57.9119 173.864 58.4915C174.08 59.071 174.392 59.5227 174.801 59.8466C175.21 60.1648 175.707 60.3239 176.293 60.3239C176.884 60.3239 177.384 60.1619 177.793 59.8381C178.202 59.5085 178.511 59.054 178.722 58.4744C178.938 57.8892 179.045 57.2159 179.045 56.4545C179.045 55.6989 178.94 55.0341 178.73 54.4602C178.52 53.8864 178.21 53.4375 177.801 53.1136C177.392 52.7898 176.889 52.6278 176.293 52.6278C175.702 52.6278 175.202 52.7841 174.793 53.0966C174.389 53.4091 174.08 53.8523 173.864 54.4261C173.648 55 173.54 55.6761 173.54 56.4545ZM188.806 45.5455V63H185.175V45.5455H188.806ZM191.714 63V49.9091H195.345V63H191.714ZM193.538 48.2216C192.999 48.2216 192.536 48.0426 192.149 47.6847C191.768 47.321 191.578 46.8864 191.578 46.3807C191.578 45.8807 191.768 45.4517 192.149 45.0938C192.536 44.7301 192.999 44.5483 193.538 44.5483C194.078 44.5483 194.538 44.7301 194.919 45.0938C195.305 45.4517 195.499 45.8807 195.499 46.3807C195.499 46.8864 195.305 47.321 194.919 47.6847C194.538 48.0426 194.078 48.2216 193.538 48.2216ZM209.146 53.642L205.822 53.8466C205.765 53.5625 205.643 53.3068 205.455 53.0795C205.268 52.8466 205.021 52.6619 204.714 52.5256C204.413 52.3835 204.052 52.3125 203.631 52.3125C203.069 52.3125 202.594 52.4318 202.208 52.6705C201.822 52.9034 201.629 53.2159 201.629 53.608C201.629 53.9205 201.754 54.1847 202.004 54.4006C202.254 54.6165 202.683 54.7898 203.29 54.9205L205.66 55.3977C206.933 55.6591 207.881 56.0795 208.506 56.6591C209.131 57.2386 209.444 58 209.444 58.9432C209.444 59.8011 209.191 60.554 208.685 61.2017C208.185 61.8494 207.498 62.3551 206.623 62.7188C205.754 63.0767 204.751 63.2557 203.614 63.2557C201.881 63.2557 200.501 62.8949 199.472 62.1733C198.45 61.446 197.85 60.4574 197.674 59.2074L201.245 59.0199C201.353 59.5483 201.614 59.9517 202.029 60.2301C202.444 60.5028 202.975 60.6392 203.623 60.6392C204.259 60.6392 204.771 60.517 205.157 60.2727C205.549 60.0227 205.748 59.7017 205.754 59.3097C205.748 58.9801 205.609 58.7102 205.336 58.5C205.063 58.2841 204.643 58.1193 204.075 58.0057L201.808 57.554C200.529 57.2983 199.577 56.8551 198.952 56.2244C198.333 55.5937 198.023 54.7898 198.023 53.8125C198.023 52.9716 198.251 52.2472 198.705 51.6392C199.165 51.0312 199.81 50.5625 200.64 50.233C201.475 49.9034 202.452 49.7386 203.572 49.7386C205.225 49.7386 206.526 50.0881 207.475 50.7869C208.43 51.4858 208.987 52.4375 209.146 53.642ZM215.361 55.4318V63H211.73V45.5455H215.259V52.2188H215.412C215.707 51.446 216.185 50.8409 216.844 50.4034C217.503 49.9602 218.33 49.7386 219.324 49.7386C220.233 49.7386 221.026 49.9375 221.702 50.3352C222.384 50.7273 222.912 51.2926 223.287 52.0312C223.668 52.7642 223.855 53.642 223.849 54.6648V63H220.219V55.3125C220.224 54.5057 220.02 53.8778 219.605 53.429C219.196 52.9801 218.622 52.7557 217.884 52.7557C217.389 52.7557 216.952 52.8608 216.571 53.071C216.196 53.2812 215.901 53.5881 215.685 53.9915C215.474 54.3892 215.366 54.8693 215.361 55.4318ZM231.665 48.5881V45.5455H246V48.5881H240.656V63H237.009V48.5881H231.665ZM252.309 63.2557C250.985 63.2557 249.84 62.9744 248.874 62.4119C247.914 61.8437 247.173 61.054 246.65 60.0426C246.127 59.0256 245.866 57.8466 245.866 56.5057C245.866 55.1534 246.127 53.9716 246.65 52.9602C247.173 51.9432 247.914 51.1534 248.874 50.5909C249.84 50.0227 250.985 49.7386 252.309 49.7386C253.633 49.7386 254.775 50.0227 255.735 50.5909C256.701 51.1534 257.445 51.9432 257.968 52.9602C258.491 53.9716 258.752 55.1534 258.752 56.5057C258.752 57.8466 258.491 59.0256 257.968 60.0426C257.445 61.054 256.701 61.8437 255.735 62.4119C254.775 62.9744 253.633 63.2557 252.309 63.2557ZM252.326 60.4432C252.928 60.4432 253.431 60.2727 253.835 59.9318C254.238 59.5852 254.542 59.1136 254.746 58.517C254.957 57.9205 255.062 57.2415 255.062 56.4801C255.062 55.7188 254.957 55.0398 254.746 54.4432C254.542 53.8466 254.238 53.375 253.835 53.0284C253.431 52.6818 252.928 52.5085 252.326 52.5085C251.718 52.5085 251.207 52.6818 250.792 53.0284C250.383 53.375 250.073 53.8466 249.863 54.4432C249.658 55.0398 249.556 55.7188 249.556 56.4801C249.556 57.2415 249.658 57.9205 249.863 58.517C250.073 59.1136 250.383 59.5852 250.792 59.9318C251.207 60.2727 251.718 60.4432 252.326 60.4432ZM282.136 51.6562H278.403C278.335 51.1733 278.196 50.7443 277.986 50.3693C277.776 49.9886 277.506 49.6648 277.176 49.3977C276.847 49.1307 276.466 48.9261 276.034 48.7841C275.608 48.642 275.145 48.571 274.645 48.571C273.741 48.571 272.955 48.7955 272.284 49.2443C271.614 49.6875 271.094 50.3352 270.724 51.1875C270.355 52.0341 270.17 53.0625 270.17 54.2727C270.17 55.517 270.355 56.5625 270.724 57.4091C271.099 58.2557 271.622 58.8949 272.293 59.3267C272.963 59.7585 273.739 59.9744 274.619 59.9744C275.114 59.9744 275.571 59.9091 275.991 59.7784C276.418 59.6477 276.795 59.4574 277.125 59.2074C277.455 58.9517 277.727 58.642 277.943 58.2784C278.165 57.9148 278.318 57.5 278.403 57.0341L282.136 57.0511C282.04 57.8523 281.798 58.625 281.412 59.3693C281.031 60.108 280.517 60.7699 279.869 61.3551C279.227 61.9347 278.46 62.3949 277.568 62.7358C276.682 63.071 275.679 63.2386 274.56 63.2386C273.003 63.2386 271.611 62.8864 270.384 62.1818C269.162 61.4773 268.196 60.4574 267.486 59.1222C266.781 57.7869 266.429 56.1705 266.429 54.2727C266.429 52.3693 266.787 50.75 267.503 49.4148C268.219 48.0795 269.19 47.0625 270.418 46.3636C271.645 45.6591 273.026 45.3068 274.56 45.3068C275.571 45.3068 276.509 45.4489 277.372 45.733C278.241 46.017 279.011 46.4318 279.682 46.9773C280.352 47.517 280.898 48.179 281.318 48.9631C281.744 49.7472 282.017 50.6449 282.136 51.6562ZM290.629 63.2557C289.305 63.2557 288.161 62.9744 287.195 62.4119C286.234 61.8437 285.493 61.054 284.97 60.0426C284.447 59.0256 284.186 57.8466 284.186 56.5057C284.186 55.1534 284.447 53.9716 284.97 52.9602C285.493 51.9432 286.234 51.1534 287.195 50.5909C288.161 50.0227 289.305 49.7386 290.629 49.7386C291.953 49.7386 293.095 50.0227 294.055 50.5909C295.021 51.1534 295.766 51.9432 296.288 52.9602C296.811 53.9716 297.072 55.1534 297.072 56.5057C297.072 57.8466 296.811 59.0256 296.288 60.0426C295.766 61.054 295.021 61.8437 294.055 62.4119C293.095 62.9744 291.953 63.2557 290.629 63.2557ZM290.646 60.4432C291.249 60.4432 291.751 60.2727 292.155 59.9318C292.558 59.5852 292.862 59.1136 293.067 58.517C293.277 57.9205 293.382 57.2415 293.382 56.4801C293.382 55.7188 293.277 55.0398 293.067 54.4432C292.862 53.8466 292.558 53.375 292.155 53.0284C291.751 52.6818 291.249 52.5085 290.646 52.5085C290.038 52.5085 289.527 52.6818 289.112 53.0284C288.703 53.375 288.393 53.8466 288.183 54.4432C287.979 55.0398 287.876 55.7188 287.876 56.4801C287.876 57.2415 287.979 57.9205 288.183 58.517C288.393 59.1136 288.703 59.5852 289.112 59.9318C289.527 60.2727 290.038 60.4432 290.646 60.4432ZM299.433 63V49.9091H302.893V52.2188H303.047C303.32 51.4517 303.774 50.8466 304.411 50.4034C305.047 49.9602 305.808 49.7386 306.695 49.7386C307.592 49.7386 308.357 49.9631 308.987 50.4119C309.618 50.8551 310.038 51.4574 310.249 52.2188H310.385C310.652 51.4688 311.135 50.8693 311.834 50.4205C312.538 49.9659 313.371 49.7386 314.331 49.7386C315.553 49.7386 316.544 50.1278 317.305 50.9062C318.072 51.679 318.456 52.7756 318.456 54.196V63H314.834V54.9119C314.834 54.1847 314.641 53.6392 314.254 53.2756C313.868 52.9119 313.385 52.7301 312.805 52.7301C312.146 52.7301 311.632 52.9403 311.263 53.3608C310.893 53.7756 310.709 54.3239 310.709 55.0057V63H307.189V54.8352C307.189 54.1932 307.004 53.6818 306.635 53.3011C306.271 52.9205 305.791 52.7301 305.195 52.7301C304.791 52.7301 304.428 52.8324 304.104 53.0369C303.786 53.2358 303.533 53.517 303.345 53.8807C303.158 54.2386 303.064 54.6591 303.064 55.142V63H299.433ZM321.324 63V49.9091H324.784V52.2188H324.938C325.21 51.4517 325.665 50.8466 326.301 50.4034C326.938 49.9602 327.699 49.7386 328.585 49.7386C329.483 49.7386 330.247 49.9631 330.878 50.4119C331.509 50.8551 331.929 51.4574 332.139 52.2188H332.276C332.543 51.4688 333.026 50.8693 333.724 50.4205C334.429 49.9659 335.261 49.7386 336.222 49.7386C337.443 49.7386 338.435 50.1278 339.196 50.9062C339.963 51.679 340.347 52.7756 340.347 54.196V63H336.724V54.9119C336.724 54.1847 336.531 53.6392 336.145 53.2756C335.759 52.9119 335.276 52.7301 334.696 52.7301C334.037 52.7301 333.523 52.9403 333.153 53.3608C332.784 53.7756 332.599 54.3239 332.599 55.0057V63H329.08V54.8352C329.08 54.1932 328.895 53.6818 328.526 53.3011C328.162 52.9205 327.682 52.7301 327.085 52.7301C326.682 52.7301 326.318 52.8324 325.994 53.0369C325.676 53.2358 325.423 53.517 325.236 53.8807C325.048 54.2386 324.955 54.6591 324.955 55.142V63H321.324ZM351.609 57.4261V49.9091H355.24V63H351.754V60.6222H351.618C351.322 61.3892 350.831 62.0057 350.143 62.4716C349.462 62.9375 348.629 63.1705 347.646 63.1705C346.771 63.1705 346.001 62.9716 345.337 62.5739C344.672 62.1761 344.152 61.6108 343.777 60.8778C343.408 60.1449 343.22 59.267 343.214 58.2443V49.9091H346.845V57.5966C346.851 58.3693 347.058 58.9801 347.467 59.429C347.876 59.8778 348.425 60.1023 349.112 60.1023C349.55 60.1023 349.959 60.0028 350.339 59.804C350.72 59.5994 351.027 59.2983 351.26 58.9006C351.499 58.5028 351.615 58.0114 351.609 57.4261ZM361.775 55.4318V63H358.144V49.9091H361.604V52.2188H361.758C362.048 51.4574 362.533 50.8551 363.215 50.4119C363.897 49.9631 364.724 49.7386 365.695 49.7386C366.604 49.7386 367.397 49.9375 368.073 50.3352C368.749 50.733 369.275 51.3011 369.65 52.0398C370.025 52.7727 370.212 53.6477 370.212 54.6648V63H366.582V55.3125C366.587 54.5114 366.383 53.8864 365.968 53.4375C365.553 52.983 364.982 52.7557 364.255 52.7557C363.766 52.7557 363.335 52.8608 362.96 53.071C362.59 53.2812 362.3 53.5881 362.09 53.9915C361.886 54.3892 361.781 54.8693 361.775 55.4318ZM373.074 63V49.9091H376.705V63H373.074ZM374.898 48.2216C374.358 48.2216 373.895 48.0426 373.509 47.6847C373.128 47.321 372.938 46.8864 372.938 46.3807C372.938 45.8807 373.128 45.4517 373.509 45.0938C373.895 44.7301 374.358 44.5483 374.898 44.5483C375.438 44.5483 375.898 44.7301 376.278 45.0938C376.665 45.4517 376.858 45.8807 376.858 46.3807C376.858 46.8864 376.665 47.321 376.278 47.6847C375.898 48.0426 375.438 48.2216 374.898 48.2216ZM386.576 49.9091V52.6364H378.692V49.9091H386.576ZM380.482 46.7727H384.113V58.9773C384.113 59.3125 384.164 59.5739 384.266 59.7614C384.369 59.9432 384.511 60.071 384.692 60.1449C384.88 60.2187 385.096 60.2557 385.34 60.2557C385.511 60.2557 385.681 60.2415 385.852 60.2131C386.022 60.179 386.153 60.1534 386.244 60.1364L386.815 62.8381C386.633 62.8949 386.377 62.9602 386.048 63.0341C385.718 63.1136 385.317 63.1619 384.846 63.179C383.971 63.2131 383.204 63.0966 382.545 62.8295C381.891 62.5625 381.383 62.1477 381.019 61.5852C380.656 61.0227 380.477 60.3125 380.482 59.4545V46.7727ZM391.183 67.9091C390.722 67.9091 390.29 67.8722 389.887 67.7983C389.489 67.7301 389.16 67.642 388.898 67.5341L389.717 64.8239C390.143 64.9545 390.526 65.0256 390.867 65.0369C391.214 65.0483 391.512 64.9688 391.762 64.7983C392.018 64.6278 392.225 64.3381 392.384 63.929L392.597 63.375L387.901 49.9091H391.719L394.43 59.5227H394.566L397.302 49.9091H401.146L396.058 64.4148C395.813 65.1193 395.481 65.733 395.06 66.2557C394.646 66.7841 394.12 67.1903 393.484 67.4744C392.847 67.7642 392.08 67.9091 391.183 67.9091Z" fill="white"/>
<path d="M40.448 86.264V87.896H37.52L35.96 87.752L35.936 87.824L37.664 89.36L45.728 97.424L44.576 98.576L36.512 90.512L34.976 88.784L34.904 88.808L35.048 90.368V93.296H33.416V86.264H40.448Z" fill="white"/>
<path d="M358.952 168.576V166.944H361.88L363.44 167.088L363.464 167.016L361.736 165.48L353.672 157.416L354.824 156.264L362.888 164.328L364.424 166.056L364.496 166.032L364.352 164.472V161.544H365.984V168.576H358.952Z" fill="white"/>
<rect x="381" y="144" width="110" height="51" stroke="white" stroke-width="6"/>
<path d="M393.517 178V160.545H400.403C401.727 160.545 402.855 160.798 403.787 161.304C404.719 161.804 405.429 162.5 405.918 163.392C406.412 164.278 406.659 165.301 406.659 166.46C406.659 167.619 406.409 168.642 405.909 169.528C405.409 170.415 404.685 171.105 403.736 171.599C402.793 172.094 401.651 172.341 400.31 172.341H395.92V169.384H399.713C400.423 169.384 401.009 169.261 401.469 169.017C401.935 168.767 402.281 168.423 402.509 167.986C402.741 167.543 402.858 167.034 402.858 166.46C402.858 165.881 402.741 165.375 402.509 164.943C402.281 164.506 401.935 164.168 401.469 163.929C401.003 163.685 400.412 163.562 399.696 163.562H397.207V178H393.517ZM417.383 172.426V164.909H421.013V178H417.528V175.622H417.391C417.096 176.389 416.604 177.006 415.917 177.472C415.235 177.937 414.403 178.17 413.42 178.17C412.545 178.17 411.775 177.972 411.11 177.574C410.445 177.176 409.925 176.611 409.55 175.878C409.181 175.145 408.994 174.267 408.988 173.244V164.909H412.619V172.597C412.624 173.369 412.832 173.98 413.241 174.429C413.65 174.878 414.198 175.102 414.886 175.102C415.323 175.102 415.732 175.003 416.113 174.804C416.494 174.599 416.8 174.298 417.033 173.901C417.272 173.503 417.388 173.011 417.383 172.426ZM423.986 178V160.545H427.616V167.108H427.727C427.886 166.756 428.116 166.398 428.418 166.034C428.724 165.665 429.122 165.358 429.611 165.114C430.105 164.864 430.719 164.739 431.452 164.739C432.406 164.739 433.287 164.989 434.094 165.489C434.901 165.983 435.545 166.73 436.028 167.73C436.511 168.724 436.753 169.972 436.753 171.472C436.753 172.932 436.517 174.165 436.045 175.17C435.58 176.17 434.943 176.929 434.136 177.446C433.335 177.957 432.438 178.213 431.443 178.213C430.739 178.213 430.139 178.097 429.645 177.864C429.156 177.631 428.756 177.338 428.443 176.986C428.131 176.628 427.892 176.267 427.727 175.903H427.565V178H423.986ZM427.54 171.455C427.54 172.233 427.648 172.912 427.864 173.491C428.08 174.071 428.392 174.523 428.801 174.847C429.21 175.165 429.707 175.324 430.293 175.324C430.884 175.324 431.384 175.162 431.793 174.838C432.202 174.509 432.511 174.054 432.722 173.474C432.938 172.889 433.045 172.216 433.045 171.455C433.045 170.699 432.94 170.034 432.73 169.46C432.52 168.886 432.21 168.437 431.801 168.114C431.392 167.79 430.889 167.628 430.293 167.628C429.702 167.628 429.202 167.784 428.793 168.097C428.389 168.409 428.08 168.852 427.864 169.426C427.648 170 427.54 170.676 427.54 171.455ZM442.806 160.545V178H439.175V160.545H442.806ZM445.714 178V164.909H449.345V178H445.714ZM447.538 163.222C446.999 163.222 446.536 163.043 446.149 162.685C445.768 162.321 445.578 161.886 445.578 161.381C445.578 160.881 445.768 160.452 446.149 160.094C446.536 159.73 446.999 159.548 447.538 159.548C448.078 159.548 448.538 159.73 448.919 160.094C449.305 160.452 449.499 160.881 449.499 161.381C449.499 161.886 449.305 162.321 448.919 162.685C448.538 163.043 448.078 163.222 447.538 163.222ZM463.146 168.642L459.822 168.847C459.765 168.562 459.643 168.307 459.455 168.08C459.268 167.847 459.021 167.662 458.714 167.526C458.413 167.384 458.052 167.312 457.631 167.312C457.069 167.312 456.594 167.432 456.208 167.67C455.822 167.903 455.629 168.216 455.629 168.608C455.629 168.92 455.754 169.185 456.004 169.401C456.254 169.616 456.683 169.79 457.29 169.92L459.66 170.398C460.933 170.659 461.881 171.08 462.506 171.659C463.131 172.239 463.444 173 463.444 173.943C463.444 174.801 463.191 175.554 462.685 176.202C462.185 176.849 461.498 177.355 460.623 177.719C459.754 178.077 458.751 178.256 457.614 178.256C455.881 178.256 454.501 177.895 453.472 177.173C452.45 176.446 451.85 175.457 451.674 174.207L455.245 174.02C455.353 174.548 455.614 174.952 456.029 175.23C456.444 175.503 456.975 175.639 457.623 175.639C458.259 175.639 458.771 175.517 459.157 175.273C459.549 175.023 459.748 174.702 459.754 174.31C459.748 173.98 459.609 173.71 459.336 173.5C459.063 173.284 458.643 173.119 458.075 173.006L455.808 172.554C454.529 172.298 453.577 171.855 452.952 171.224C452.333 170.594 452.023 169.79 452.023 168.812C452.023 167.972 452.251 167.247 452.705 166.639C453.165 166.031 453.81 165.562 454.64 165.233C455.475 164.903 456.452 164.739 457.572 164.739C459.225 164.739 460.526 165.088 461.475 165.787C462.43 166.486 462.987 167.437 463.146 168.642ZM469.361 170.432V178H465.73V160.545H469.259V167.219H469.412C469.707 166.446 470.185 165.841 470.844 165.403C471.503 164.96 472.33 164.739 473.324 164.739C474.233 164.739 475.026 164.938 475.702 165.335C476.384 165.727 476.912 166.293 477.287 167.031C477.668 167.764 477.855 168.642 477.849 169.665V178H474.219V170.312C474.224 169.506 474.02 168.878 473.605 168.429C473.196 167.98 472.622 167.756 471.884 167.756C471.389 167.756 470.952 167.861 470.571 168.071C470.196 168.281 469.901 168.588 469.685 168.991C469.474 169.389 469.366 169.869 469.361 170.432Z" fill="white"/>
</svg>
