<svg width="512" height="216" viewBox="0 0 512 216" fill="none" xmlns="http://www.w3.org/2000/svg">
<rect x="4" y="4.00012" width="504" height="208" fill="#4D7BFF"/>
<rect x="4" y="4.00012" width="504" height="208" stroke="black" stroke-width="8"/>
<g opacity="0.5">
<circle cx="127" cy="108" r="32" fill="white"/>
<path fill-rule="evenodd" clip-rule="evenodd" d="M121 108H119V106H117V94H119V92H121V90H133V92H135V94H137V106H135V108H133V110H121V108ZM123 98H121V102H123V104H125V106H129V104H131V102H133V98H131V96H129V94H125V96H123V98ZM141 114V116H143V126H139V120H137V118H135V116H119V118H117V120H115V126H111V116H113V114H115V112H139V114H141Z" fill="#4D7BFF"/>
</g>
<rect x="188" y="73" width="136" height="70" stroke="white" stroke-width="6"/>
<path d="M217.31 102.276C217.196 101.13 216.708 100.24 215.847 99.6051C214.985 98.9706 213.815 98.6534 212.338 98.6534C211.334 98.6534 210.487 98.7955 209.795 99.0795C209.104 99.3542 208.574 99.7377 208.205 100.23C207.845 100.723 207.665 101.281 207.665 101.906C207.646 102.427 207.755 102.882 207.991 103.27C208.238 103.658 208.574 103.994 209 104.278C209.426 104.553 209.919 104.795 210.477 105.003C211.036 105.202 211.633 105.372 212.267 105.514L214.881 106.139C216.15 106.423 217.314 106.802 218.375 107.276C219.436 107.749 220.354 108.331 221.131 109.023C221.907 109.714 222.509 110.528 222.935 111.466C223.37 112.403 223.593 113.478 223.602 114.69C223.593 116.471 223.138 118.014 222.239 119.321C221.348 120.618 220.061 121.627 218.375 122.347C216.699 123.057 214.677 123.412 212.31 123.412C209.961 123.412 207.916 123.052 206.173 122.332C204.44 121.613 203.086 120.547 202.111 119.136C201.145 117.716 200.638 115.959 200.591 113.866H206.543C206.609 114.842 206.888 115.656 207.381 116.31C207.883 116.954 208.55 117.441 209.384 117.773C210.226 118.095 211.178 118.256 212.239 118.256C213.28 118.256 214.185 118.104 214.952 117.801C215.728 117.498 216.33 117.077 216.756 116.537C217.182 115.997 217.395 115.377 217.395 114.676C217.395 114.023 217.201 113.473 216.812 113.028C216.434 112.583 215.875 112.205 215.136 111.892C214.407 111.58 213.512 111.295 212.452 111.04L209.284 110.244C206.831 109.648 204.895 108.715 203.474 107.446C202.054 106.177 201.348 104.468 201.358 102.318C201.348 100.557 201.817 99.018 202.764 97.7017C203.721 96.3854 205.032 95.358 206.699 94.6193C208.366 93.8807 210.259 93.5114 212.381 93.5114C214.54 93.5114 216.424 93.8807 218.034 94.6193C219.653 95.358 220.913 96.3854 221.812 97.7017C222.712 99.018 223.176 100.543 223.205 102.276H217.31ZM233.677 110.386V123H227.626V93.9091H233.506V105.031H233.762C234.254 103.743 235.05 102.735 236.148 102.006C237.247 101.267 238.625 100.898 240.282 100.898C241.797 100.898 243.118 101.229 244.245 101.892C245.381 102.545 246.262 103.488 246.887 104.719C247.522 105.94 247.834 107.403 247.825 109.108V123H241.773V110.188C241.783 108.843 241.442 107.796 240.751 107.048C240.069 106.3 239.112 105.926 237.881 105.926C237.058 105.926 236.328 106.101 235.694 106.452C235.069 106.802 234.576 107.313 234.217 107.986C233.866 108.649 233.686 109.449 233.677 110.386ZM258.808 123.412C257.416 123.412 256.176 123.17 255.087 122.688C253.998 122.195 253.136 121.471 252.501 120.514C251.876 119.548 251.564 118.346 251.564 116.906C251.564 115.694 251.786 114.676 252.232 113.852C252.677 113.028 253.283 112.366 254.05 111.864C254.817 111.362 255.688 110.983 256.663 110.727C257.648 110.472 258.68 110.292 259.76 110.188C261.029 110.055 262.052 109.932 262.828 109.818C263.605 109.695 264.168 109.515 264.518 109.278C264.869 109.042 265.044 108.691 265.044 108.227V108.142C265.044 107.242 264.76 106.546 264.192 106.054C263.633 105.562 262.838 105.315 261.805 105.315C260.716 105.315 259.85 105.557 259.206 106.04C258.562 106.513 258.136 107.11 257.928 107.83L252.331 107.375C252.615 106.049 253.174 104.903 254.007 103.938C254.84 102.962 255.915 102.214 257.232 101.693C258.557 101.163 260.091 100.898 261.834 100.898C263.046 100.898 264.206 101.04 265.314 101.324C266.431 101.608 267.421 102.048 268.283 102.645C269.154 103.241 269.84 104.009 270.342 104.946C270.844 105.874 271.095 106.987 271.095 108.284V123H265.357V119.974H265.186C264.836 120.656 264.367 121.258 263.78 121.778C263.193 122.29 262.487 122.692 261.663 122.986C260.839 123.27 259.888 123.412 258.808 123.412ZM260.541 119.236C261.431 119.236 262.217 119.061 262.899 118.71C263.581 118.35 264.116 117.867 264.504 117.261C264.893 116.655 265.087 115.969 265.087 115.202V112.886C264.897 113.009 264.637 113.123 264.305 113.227C263.983 113.322 263.619 113.412 263.212 113.497C262.804 113.573 262.397 113.644 261.99 113.71C261.583 113.767 261.214 113.819 260.882 113.866C260.172 113.971 259.552 114.136 259.021 114.364C258.491 114.591 258.079 114.899 257.786 115.287C257.492 115.666 257.345 116.139 257.345 116.707C257.345 117.531 257.643 118.161 258.24 118.597C258.846 119.023 259.613 119.236 260.541 119.236ZM275.79 123V101.182H281.656V104.989H281.884C282.281 103.634 282.949 102.612 283.886 101.92C284.824 101.22 285.903 100.869 287.125 100.869C287.428 100.869 287.755 100.888 288.105 100.926C288.455 100.964 288.763 101.016 289.028 101.082V106.452C288.744 106.366 288.351 106.291 287.849 106.224C287.348 106.158 286.888 106.125 286.472 106.125C285.581 106.125 284.786 106.319 284.085 106.707C283.394 107.086 282.845 107.616 282.438 108.298C282.04 108.98 281.841 109.766 281.841 110.656V123H275.79ZM301.085 123.426C298.84 123.426 296.908 122.972 295.289 122.062C293.679 121.144 292.439 119.847 291.567 118.17C290.696 116.485 290.261 114.491 290.261 112.19C290.261 109.946 290.696 107.976 291.567 106.281C292.439 104.586 293.665 103.265 295.246 102.318C296.837 101.371 298.703 100.898 300.843 100.898C302.282 100.898 303.622 101.13 304.863 101.594C306.113 102.048 307.202 102.735 308.13 103.653C309.067 104.572 309.797 105.727 310.317 107.119C310.838 108.502 311.099 110.121 311.099 111.977V113.639H292.675V109.889H305.403C305.403 109.018 305.213 108.246 304.835 107.574C304.456 106.902 303.93 106.376 303.258 105.997C302.595 105.609 301.823 105.415 300.942 105.415C300.024 105.415 299.21 105.628 298.499 106.054C297.799 106.471 297.249 107.034 296.852 107.744C296.454 108.445 296.25 109.226 296.241 110.088V113.653C296.241 114.733 296.44 115.666 296.837 116.452C297.245 117.238 297.817 117.844 298.556 118.27C299.295 118.696 300.171 118.909 301.184 118.909C301.856 118.909 302.472 118.814 303.031 118.625C303.589 118.436 304.067 118.152 304.465 117.773C304.863 117.394 305.166 116.93 305.374 116.381L310.971 116.75C310.687 118.095 310.104 119.269 309.224 120.273C308.353 121.267 307.226 122.044 305.843 122.602C304.47 123.152 302.884 123.426 301.085 123.426Z" fill="white"/>
<g opacity="0.5">
<path d="M401 105.333V102.667H398.333V100H393V94.6667H387.667V89.3333H382.333V84H366.333V132H382.333V129.333V126.667H387.667V121.333H393V116H398.333V113.333H401V110.667H403.667V105.333H401ZM387.667 110.667V116H382.333V121.333H377V126.667H371.667V89.3333H377V94.6667H382.333V100H387.667V105.333H393V110.667H387.667Z" fill="white"/>
</g>
</svg>
