<svg width="163" height="37" viewBox="0 0 163 37" fill="none" xmlns="http://www.w3.org/2000/svg">
<path fill-rule="evenodd" clip-rule="evenodd" d="M146.097 0.00012207L157.555 6.61508V19.845L146.097 26.4599L134.64 19.845V6.61508L146.097 0.00012207ZM140.583 10.0464L146.097 6.86272L151.612 10.0464V16.4137L146.097 19.5973L140.583 16.4137V10.0464Z" fill="black"/>
<path d="M134.755 28.5319H157.597V36.0831H134.755V28.5319Z" fill="black"/>
<path d="M162.385 1.6992H157.525V6.55859H162.385V1.6992Z" fill="black"/>
<path d="M71.7639 6.80958L66.728 1.74514C63.0524 -1.95123 56.7678 0.66668 56.7678 5.89414V24.7978C56.7678 30.0253 63.0524 32.6432 66.728 28.9468L71.7638 23.8824L76.7998 28.9469C80.4753 32.6432 86.76 30.0253 86.76 24.7979V5.89418C86.76 0.666718 80.4753 -1.9512 76.7998 1.74517L71.7639 6.80958Z" fill="black"/>
<path d="M46.4619 6.50908C46.4619 7.33314 47.0335 8.02285 47.7999 8.1985H52.6318C53.6717 8.1985 54.5148 9.04659 54.5148 10.0927C54.5148 10.6497 54.2712 11.1783 53.8487 11.5384L50.4658 14.4204C49.8973 14.9051 49.8973 15.787 50.4658 16.2716L53.8487 19.1537C54.105 19.372 54.2955 19.6522 54.4058 19.9632C54.4771 20.1652 54.5148 20.3801 54.5148 20.5994C54.5148 21.6455 53.6717 22.4936 52.6318 22.4936H48.1414C47.3222 22.4936 46.6365 23.0686 46.4619 23.8395V28.7C46.4619 29.746 45.6188 30.5941 44.5789 30.5941C44.375 30.5941 44.1752 30.561 43.9861 30.4977C43.6611 30.3894 43.3677 30.1928 43.1416 29.9241L40.2766 26.5212C39.7948 25.9492 38.918 25.9492 38.4363 26.5212L35.5712 29.9241C35.2132 30.3491 34.6877 30.5941 34.1339 30.5941C33.094 30.5941 32.2509 29.746 32.2509 28.7V24.183C32.2509 23.3589 31.6793 22.6692 30.9129 22.4936H26.081C25.0411 22.4936 24.198 21.6455 24.198 20.5994C24.198 20.0424 24.4416 19.5138 24.8642 19.1537L28.247 16.2716C28.8156 15.787 28.8156 14.9051 28.247 14.4204L24.8642 11.5384C24.4416 11.1783 24.198 10.6497 24.198 10.0927C24.198 9.04659 25.0411 8.1985 26.081 8.1985H30.5714C31.3907 8.1985 32.0763 7.62351 32.2509 6.85258V1.99211C32.2509 0.946038 33.094 0.0979442 34.1339 0.0979442C34.6877 0.0979442 35.2132 0.342964 35.5712 0.768027L38.4363 4.17089C38.918 4.74283 39.7948 4.74283 40.2766 4.17089L43.1416 0.768027C43.3041 0.574786 43.5013 0.418772 43.72 0.306414C43.9827 0.171044 44.2768 0.0979442 44.5789 0.0979442C45.6188 0.0979442 46.4619 0.946038 46.4619 1.99211V6.50908Z" fill="black"/>
<path d="M21.8325 0.180122H15.2828C11.0618 0.180122 7.45944 1.66863 4.47566 4.64564C1.49189 7.62265 0 11.2168 0 15.4282C0 19.6396 1.49189 23.2338 4.47566 26.2108C7.45944 29.1878 11.0618 30.6763 15.2828 30.6763H21.8325V21.9631H15.2828C13.4779 21.9631 11.9351 21.3242 10.6543 20.0462C9.37342 18.7683 8.733 17.2289 8.733 15.4282C8.733 13.6275 9.37342 12.0882 10.6543 10.8102C11.9351 9.53229 13.4779 8.89332 15.2828 8.89332H21.8325V0.180122Z" fill="black"/>
<path d="M125.907 5.18173C125.907 7.98938 123.631 10.2654 120.824 10.2654C118.016 10.2654 115.74 7.98938 115.74 5.18173C115.74 2.37408 118.016 0.0980321 120.824 0.0980321C123.631 0.0980321 125.907 2.37408 125.907 5.18173Z" fill="black"/>
<path d="M131.27 20.1601H123.84V30.6001H115.74V20.1601H120.782C122.271 20.1499 123.474 18.9399 123.474 17.4489V10.9801H131.27V20.1601Z" fill="black"/>
<path d="M93.9118 0.0980321H109.823V1.42398H111.149V2.74984H112.475V9.37945H109.823V2.7499L109.823 4.07573H108.497V2.74988H103.193V9.37947L109.823 9.37945L109.823 12.0313H103.193V27.9424H102.033V29.2683H100.541V30.5942H93.9118V29.2683H92.5856V27.9424H91.2599V22.6387H92.5857V21.3128H93.9116L95.2377 21.3128V22.6387L93.9116 22.6387L93.9117 26.6165H95.2375V27.9424H99.3813V26.6165H100.541V21.3128L93.9116 21.3128L93.9118 18.6609H100.541V12.0313H93.9118V9.37947L93.9117 8.0535H95.2377V9.37942L94.4204 9.37947H100.541V2.74988H95.2377V4.07573H93.9117L93.9118 0.0980321Z" fill="black"/>
<path d="M93.9118 9.37947L92.5857 9.37951V8.05352H91.2599V2.74984H92.5857V1.42398H93.9116L93.9118 9.37947Z" fill="black"/>
<path d="M93.9118 12.0313L91.2599 12.0314V18.661H92.5856V19.9868H93.9115L93.9118 18.6609L95.2377 18.6609V17.3349H93.9117V13.3573H95.2377V12.0313L93.9118 12.0313Z" fill="black"/>
<path d="M103.193 12.0313L104.519 12.0314V13.3573H103.193L103.193 12.0313Z" fill="black"/>
<path d="M109.823 12.0313L112.475 12.0314V18.661H111.149V19.9868H109.823V21.3128H104.519V19.9868H103.193V17.335H104.519V18.6609H108.497V17.335H109.823V13.3573H108.497V12.0314L109.823 12.0313Z" fill="black"/>
<path d="M108.497 8.0535H109.823L109.823 9.37945L108.497 9.37942V8.0535Z" fill="black"/>
<path d="M93.9115 10.7054H92.5856V12.0313L93.9118 12.0313L93.9115 10.7054Z" fill="black"/>
</svg>
