<svg width="846" height="461" viewBox="0 0 846 461" fill="none" xmlns="http://www.w3.org/2000/svg">
<path d="M3.10843 450.79C5.92974 450.79 8.21687 453.076 8.21687 455.895C8.21687 458.715 5.92974 461 3.10843 461C0.287124 461 -2 458.715 -2 455.895C-2 453.076 0.287124 450.79 3.10843 450.79Z" fill="#611FF3"/>
<path d="M3.10843 418.591C5.92974 418.591 8.21687 420.877 8.21687 423.696C8.21687 426.515 5.92974 428.801 3.10843 428.801C0.287124 428.801 -2 426.515 -2 423.696C-2 420.877 0.287124 418.591 3.10843 418.591Z" fill="#611FF3"/>
<path d="M3.10843 386.392C5.92974 386.392 8.21687 388.677 8.21687 391.497C8.21687 394.316 5.92974 396.601 3.10843 396.601C0.287124 396.601 -2 394.316 -2 391.497C-2 388.677 0.287124 386.392 3.10843 386.392Z" fill="#611FF3"/>
<path d="M3.10843 354.193C5.92974 354.193 8.21687 356.478 8.21687 359.297C8.21687 362.117 5.92974 364.402 3.10843 364.402C0.287124 364.402 -2 362.117 -2 359.297C-2 356.478 0.287124 354.193 3.10843 354.193Z" fill="#611FF3"/>
<path d="M3.10843 321.993C5.92974 321.993 8.21687 324.279 8.21687 327.098C8.21687 329.917 5.92974 332.203 3.10843 332.203C0.287124 332.203 -2 329.917 -2 327.098C-2 324.279 0.287124 321.993 3.10843 321.993Z" fill="#611FF3"/>
<path d="M3.10843 289.794C5.92974 289.794 8.21687 292.079 8.21687 294.899C8.21687 297.718 5.92974 300.003 3.10843 300.003C0.287124 300.003 -2 297.718 -2 294.899C-2 292.079 0.287124 289.794 3.10843 289.794Z" fill="#611FF3"/>
<path d="M3.10843 257.595C5.92974 257.595 8.21687 259.88 8.21687 262.699C8.21687 265.519 5.92974 267.804 3.10843 267.804C0.287124 267.804 -2 265.519 -2 262.699C-2 259.88 0.287124 257.595 3.10843 257.595Z" fill="#611FF3"/>
<path d="M3.10843 225.395C5.92974 225.395 8.21687 227.681 8.21687 230.5C8.21687 233.319 5.92974 235.605 3.10843 235.605C0.287124 235.605 -2 233.319 -2 230.5C-2 227.681 0.287124 225.395 3.10843 225.395Z" fill="#611FF3"/>
<path d="M3.10843 193.196C5.92974 193.196 8.21687 195.481 8.21687 198.301C8.21687 201.12 5.92974 203.405 3.10843 203.405C0.287124 203.405 -2 201.12 -2 198.301C-2 195.481 0.287124 193.196 3.10843 193.196Z" fill="#611FF3"/>
<path d="M3.10843 160.997C5.92974 160.997 8.21687 163.282 8.21687 166.101C8.21687 168.921 5.92974 171.206 3.10843 171.206C0.287124 171.206 -2 168.921 -2 166.101C-2 163.282 0.287124 160.997 3.10843 160.997Z" fill="#611FF3"/>
<path d="M3.10843 128.797C5.92974 128.797 8.21687 131.083 8.21687 133.902C8.21687 136.721 5.92974 139.007 3.10843 139.007C0.287124 139.007 -2 136.721 -2 133.902C-2 131.083 0.287124 128.797 3.10843 128.797Z" fill="#611FF3"/>
<path d="M3.10843 96.598C5.92974 96.598 8.21687 98.8834 8.21687 101.703C8.21687 104.522 5.92974 106.807 3.10843 106.807C0.287124 106.807 -2 104.522 -2 101.703C-2 98.8834 0.287124 96.598 3.10843 96.598Z" fill="#611FF3"/>
<path d="M3.10843 64.3986C5.92974 64.3986 8.21687 66.6841 8.21687 69.5034C8.21687 72.3227 5.92974 74.6082 3.10843 74.6082C0.287124 74.6082 -2 72.3227 -2 69.5034C-2 66.6841 0.287124 64.3986 3.10843 64.3986Z" fill="#611FF3"/>
<path d="M3.10843 32.1993C5.92974 32.1993 8.21687 34.4848 8.21687 37.3041C8.21687 40.1234 5.92974 42.4088 3.10843 42.4088C0.287124 42.4088 -2 40.1234 -2 37.3041C-2 34.4848 0.287124 32.1993 3.10843 32.1993Z" fill="#611FF3"/>
<path d="M3.10843 0C5.92974 0 8.21687 2.28546 8.21687 5.10477C8.21687 7.92404 5.92974 10.2095 3.10843 10.2095C0.287124 10.2095 -2 7.92404 -2 5.10477C-2 2.28546 0.287124 0 3.10843 0Z" fill="#611FF3"/>
<path d="M35.3309 450.79C38.1522 450.79 40.4393 453.076 40.4393 455.895C40.4393 458.715 38.1522 461 35.3309 461C32.5096 461 30.2224 458.715 30.2224 455.895C30.2224 453.076 32.5096 450.79 35.3309 450.79Z" fill="#611FF3"/>
<path d="M35.3309 418.591C38.1522 418.591 40.4393 420.877 40.4393 423.696C40.4393 426.515 38.1522 428.801 35.3309 428.801C32.5096 428.801 30.2224 426.515 30.2224 423.696C30.2224 420.877 32.5096 418.591 35.3309 418.591Z" fill="#611FF3"/>
<path d="M35.3309 386.392C38.1522 386.392 40.4393 388.677 40.4393 391.497C40.4393 394.316 38.1522 396.601 35.3309 396.601C32.5096 396.601 30.2224 394.316 30.2224 391.497C30.2224 388.677 32.5096 386.392 35.3309 386.392Z" fill="#611FF3"/>
<path d="M35.3309 354.193C38.1522 354.193 40.4393 356.478 40.4393 359.297C40.4393 362.117 38.1522 364.402 35.3309 364.402C32.5096 364.402 30.2224 362.117 30.2224 359.297C30.2224 356.478 32.5096 354.193 35.3309 354.193Z" fill="#611FF3"/>
<path d="M35.3309 321.993C38.1522 321.993 40.4393 324.279 40.4393 327.098C40.4393 329.917 38.1522 332.203 35.3309 332.203C32.5096 332.203 30.2224 329.917 30.2224 327.098C30.2224 324.279 32.5096 321.993 35.3309 321.993Z" fill="#611FF3"/>
<path d="M35.3309 289.794C38.1522 289.794 40.4393 292.079 40.4393 294.899C40.4393 297.718 38.1522 300.003 35.3309 300.003C32.5096 300.003 30.2224 297.718 30.2224 294.899C30.2224 292.079 32.5096 289.794 35.3309 289.794Z" fill="#611FF3"/>
<path d="M35.3309 257.595C38.1522 257.595 40.4393 259.88 40.4393 262.699C40.4393 265.519 38.1522 267.804 35.3309 267.804C32.5096 267.804 30.2224 265.519 30.2224 262.699C30.2224 259.88 32.5096 257.595 35.3309 257.595Z" fill="#611FF3"/>
<path d="M35.3309 225.395C38.1522 225.395 40.4393 227.681 40.4393 230.5C40.4393 233.319 38.1522 235.605 35.3309 235.605C32.5096 235.605 30.2224 233.319 30.2224 230.5C30.2224 227.681 32.5096 225.395 35.3309 225.395Z" fill="#611FF3"/>
<path d="M35.3309 193.196C38.1522 193.196 40.4393 195.481 40.4393 198.301C40.4393 201.12 38.1522 203.405 35.3309 203.405C32.5096 203.405 30.2224 201.12 30.2224 198.301C30.2224 195.481 32.5096 193.196 35.3309 193.196Z" fill="#611FF3"/>
<path d="M35.3309 160.997C38.1522 160.997 40.4393 163.282 40.4393 166.101C40.4393 168.921 38.1522 171.206 35.3309 171.206C32.5096 171.206 30.2224 168.921 30.2224 166.101C30.2224 163.282 32.5096 160.997 35.3309 160.997Z" fill="#611FF3"/>
<path d="M35.3309 128.797C38.1522 128.797 40.4393 131.083 40.4393 133.902C40.4393 136.721 38.1522 139.007 35.3309 139.007C32.5096 139.007 30.2224 136.721 30.2224 133.902C30.2224 131.083 32.5096 128.797 35.3309 128.797Z" fill="#611FF3"/>
<path d="M35.3309 96.598C38.1522 96.598 40.4393 98.8834 40.4393 101.703C40.4393 104.522 38.1522 106.807 35.3309 106.807C32.5096 106.807 30.2224 104.522 30.2224 101.703C30.2224 98.8834 32.5096 96.598 35.3309 96.598Z" fill="#611FF3"/>
<path d="M35.3309 64.3986C38.1522 64.3986 40.4393 66.6841 40.4393 69.5034C40.4393 72.3227 38.1522 74.6082 35.3309 74.6082C32.5096 74.6082 30.2224 72.3227 30.2224 69.5034C30.2224 66.6841 32.5096 64.3986 35.3309 64.3986Z" fill="#611FF3"/>
<path d="M35.3309 32.1993C38.1522 32.1993 40.4393 34.4848 40.4393 37.3041C40.4393 40.1234 38.1522 42.4088 35.3309 42.4088C32.5096 42.4088 30.2224 40.1234 30.2224 37.3041C30.2224 34.4848 32.5096 32.1993 35.3309 32.1993Z" fill="#611FF3"/>
<path d="M35.3309 0C38.1522 0 40.4393 2.28546 40.4393 5.10477C40.4393 7.92404 38.1522 10.2095 35.3309 10.2095C32.5096 10.2095 30.2224 7.92404 30.2224 5.10477C30.2224 2.28546 32.5096 0 35.3309 0Z" fill="#611FF3"/>
<path d="M67.5533 450.79C70.3746 450.79 72.6617 453.076 72.6617 455.895C72.6617 458.715 70.3746 461 67.5533 461C64.732 461 62.4449 458.715 62.4449 455.895C62.4449 453.076 64.732 450.79 67.5533 450.79Z" fill="#611FF3"/>
<path d="M67.5533 418.591C70.3746 418.591 72.6617 420.877 72.6617 423.696C72.6617 426.515 70.3746 428.801 67.5533 428.801C64.732 428.801 62.4449 426.515 62.4449 423.696C62.4449 420.877 64.732 418.591 67.5533 418.591Z" fill="#611FF3"/>
<path d="M67.5533 386.392C70.3746 386.392 72.6617 388.677 72.6617 391.497C72.6617 394.316 70.3746 396.601 67.5533 396.601C64.732 396.601 62.4449 394.316 62.4449 391.497C62.4449 388.677 64.732 386.392 67.5533 386.392Z" fill="#611FF3"/>
<path d="M67.5533 354.193C70.3746 354.193 72.6617 356.478 72.6617 359.297C72.6617 362.117 70.3746 364.402 67.5533 364.402C64.732 364.402 62.4449 362.117 62.4449 359.297C62.4449 356.478 64.732 354.193 67.5533 354.193Z" fill="#611FF3"/>
<path d="M67.5533 321.993C70.3746 321.993 72.6617 324.279 72.6617 327.098C72.6617 329.917 70.3746 332.203 67.5533 332.203C64.732 332.203 62.4449 329.917 62.4449 327.098C62.4449 324.279 64.732 321.993 67.5533 321.993Z" fill="#611FF3"/>
<path d="M67.5533 289.794C70.3746 289.794 72.6617 292.079 72.6617 294.899C72.6617 297.718 70.3746 300.003 67.5533 300.003C64.732 300.003 62.4449 297.718 62.4449 294.899C62.4449 292.079 64.732 289.794 67.5533 289.794Z" fill="#611FF3"/>
<path d="M67.5533 257.595C70.3746 257.595 72.6617 259.88 72.6617 262.699C72.6617 265.519 70.3746 267.804 67.5533 267.804C64.732 267.804 62.4449 265.519 62.4449 262.699C62.4449 259.88 64.732 257.595 67.5533 257.595Z" fill="#611FF3"/>
<path d="M67.5533 225.395C70.3746 225.395 72.6617 227.681 72.6617 230.5C72.6617 233.319 70.3746 235.605 67.5533 235.605C64.732 235.605 62.4449 233.319 62.4449 230.5C62.4449 227.681 64.732 225.395 67.5533 225.395Z" fill="#611FF3"/>
<path d="M67.5533 193.196C70.3746 193.196 72.6617 195.481 72.6617 198.301C72.6617 201.12 70.3746 203.405 67.5533 203.405C64.732 203.405 62.4449 201.12 62.4449 198.301C62.4449 195.481 64.732 193.196 67.5533 193.196Z" fill="#611FF3"/>
<path d="M67.5533 160.997C70.3746 160.997 72.6617 163.282 72.6617 166.101C72.6617 168.921 70.3746 171.206 67.5533 171.206C64.732 171.206 62.4449 168.921 62.4449 166.101C62.4449 163.282 64.732 160.997 67.5533 160.997Z" fill="#611FF3"/>
<path d="M67.5533 128.797C70.3746 128.797 72.6617 131.083 72.6617 133.902C72.6617 136.721 70.3746 139.007 67.5533 139.007C64.732 139.007 62.4449 136.721 62.4449 133.902C62.4449 131.083 64.732 128.797 67.5533 128.797Z" fill="#611FF3"/>
<path d="M67.5533 96.598C70.3746 96.598 72.6617 98.8834 72.6617 101.703C72.6617 104.522 70.3746 106.807 67.5533 106.807C64.732 106.807 62.4449 104.522 62.4449 101.703C62.4449 98.8834 64.732 96.598 67.5533 96.598Z" fill="#611FF3"/>
<path d="M67.5533 64.3986C70.3746 64.3986 72.6617 66.6841 72.6617 69.5034C72.6617 72.3227 70.3746 74.6082 67.5533 74.6082C64.732 74.6082 62.4449 72.3227 62.4449 69.5034C62.4449 66.6841 64.732 64.3986 67.5533 64.3986Z" fill="#611FF3"/>
<path d="M67.5533 32.1993C70.3746 32.1993 72.6617 34.4848 72.6617 37.3041C72.6617 40.1234 70.3746 42.4088 67.5533 42.4088C64.732 42.4088 62.4449 40.1234 62.4449 37.3041C62.4449 34.4848 64.732 32.1993 67.5533 32.1993Z" fill="#611FF3"/>
<path d="M67.5533 0C70.3746 0 72.6617 2.28546 72.6617 5.10477C72.6617 7.92404 70.3746 10.2095 67.5533 10.2095C64.732 10.2095 62.4449 7.92404 62.4449 5.10477C62.4449 2.28546 64.732 0 67.5533 0Z" fill="#611FF3"/>
<path d="M99.7757 450.79C102.597 450.79 104.884 453.076 104.884 455.895C104.884 458.715 102.597 461 99.7757 461C96.9544 461 94.6673 458.715 94.6673 455.895C94.6673 453.076 96.9544 450.79 99.7757 450.79Z" fill="#611FF3"/>
<path d="M99.7757 418.591C102.597 418.591 104.884 420.877 104.884 423.696C104.884 426.515 102.597 428.801 99.7757 428.801C96.9544 428.801 94.6673 426.515 94.6673 423.696C94.6673 420.877 96.9544 418.591 99.7757 418.591Z" fill="#611FF3"/>
<path d="M99.7757 386.392C102.597 386.392 104.884 388.677 104.884 391.497C104.884 394.316 102.597 396.601 99.7757 396.601C96.9544 396.601 94.6673 394.316 94.6673 391.497C94.6673 388.677 96.9544 386.392 99.7757 386.392Z" fill="#611FF3"/>
<path d="M99.7757 354.193C102.597 354.193 104.884 356.478 104.884 359.297C104.884 362.117 102.597 364.402 99.7757 364.402C96.9544 364.402 94.6673 362.117 94.6673 359.297C94.6673 356.478 96.9544 354.193 99.7757 354.193Z" fill="#611FF3"/>
<path d="M99.7757 321.993C102.597 321.993 104.884 324.279 104.884 327.098C104.884 329.917 102.597 332.203 99.7757 332.203C96.9544 332.203 94.6673 329.917 94.6673 327.098C94.6673 324.279 96.9544 321.993 99.7757 321.993Z" fill="#611FF3"/>
<path d="M99.7757 289.794C102.597 289.794 104.884 292.079 104.884 294.899C104.884 297.718 102.597 300.003 99.7757 300.003C96.9544 300.003 94.6673 297.718 94.6673 294.899C94.6673 292.079 96.9544 289.794 99.7757 289.794Z" fill="#611FF3"/>
<path d="M99.7757 257.595C102.597 257.595 104.884 259.88 104.884 262.699C104.884 265.519 102.597 267.804 99.7757 267.804C96.9544 267.804 94.6673 265.519 94.6673 262.699C94.6673 259.88 96.9544 257.595 99.7757 257.595Z" fill="#611FF3"/>
<path d="M99.7757 225.395C102.597 225.395 104.884 227.681 104.884 230.5C104.884 233.319 102.597 235.605 99.7757 235.605C96.9544 235.605 94.6673 233.319 94.6673 230.5C94.6673 227.681 96.9544 225.395 99.7757 225.395Z" fill="#611FF3"/>
<path d="M99.7757 193.196C102.597 193.196 104.884 195.481 104.884 198.301C104.884 201.12 102.597 203.405 99.7757 203.405C96.9544 203.405 94.6673 201.12 94.6673 198.301C94.6673 195.481 96.9544 193.196 99.7757 193.196Z" fill="#611FF3"/>
<path d="M99.7757 160.997C102.597 160.997 104.884 163.282 104.884 166.101C104.884 168.921 102.597 171.206 99.7757 171.206C96.9544 171.206 94.6673 168.921 94.6673 166.101C94.6673 163.282 96.9544 160.997 99.7757 160.997Z" fill="#611FF3"/>
<path d="M99.7757 128.797C102.597 128.797 104.884 131.083 104.884 133.902C104.884 136.721 102.597 139.007 99.7757 139.007C96.9544 139.007 94.6673 136.721 94.6673 133.902C94.6673 131.083 96.9544 128.797 99.7757 128.797Z" fill="#611FF3"/>
<path d="M99.7757 96.598C102.597 96.598 104.884 98.8834 104.884 101.703C104.884 104.522 102.597 106.807 99.7757 106.807C96.9544 106.807 94.6673 104.522 94.6673 101.703C94.6673 98.8834 96.9544 96.598 99.7757 96.598Z" fill="#611FF3"/>
<path d="M99.7757 64.3986C102.597 64.3986 104.884 66.6841 104.884 69.5034C104.884 72.3227 102.597 74.6082 99.7757 74.6082C96.9544 74.6082 94.6673 72.3227 94.6673 69.5034C94.6673 66.6841 96.9544 64.3986 99.7757 64.3986Z" fill="#611FF3"/>
<path d="M99.7757 32.1993C102.597 32.1993 104.884 34.4848 104.884 37.3041C104.884 40.1234 102.597 42.4088 99.7757 42.4088C96.9544 42.4088 94.6673 40.1234 94.6673 37.3041C94.6673 34.4848 96.9544 32.1993 99.7757 32.1993Z" fill="#611FF3"/>
<path d="M99.7757 0C102.597 0 104.884 2.28546 104.884 5.10477C104.884 7.92404 102.597 10.2095 99.7757 10.2095C96.9544 10.2095 94.6673 7.92404 94.6673 5.10477C94.6673 2.28546 96.9544 0 99.7757 0Z" fill="#611FF3"/>
<path d="M131.998 450.79C134.819 450.79 137.107 453.076 137.107 455.895C137.107 458.715 134.819 461 131.998 461C129.177 461 126.89 458.715 126.89 455.895C126.89 453.076 129.177 450.79 131.998 450.79Z" fill="#611FF3"/>
<path d="M131.998 418.591C134.819 418.591 137.107 420.877 137.107 423.696C137.107 426.515 134.819 428.801 131.998 428.801C129.177 428.801 126.89 426.515 126.89 423.696C126.89 420.877 129.177 418.591 131.998 418.591Z" fill="#611FF3"/>
<path d="M131.998 386.392C134.819 386.392 137.107 388.677 137.107 391.497C137.107 394.316 134.819 396.601 131.998 396.601C129.177 396.601 126.89 394.316 126.89 391.497C126.89 388.677 129.177 386.392 131.998 386.392Z" fill="#611FF3"/>
<path d="M131.998 354.193C134.819 354.193 137.107 356.478 137.107 359.297C137.107 362.117 134.819 364.402 131.998 364.402C129.177 364.402 126.89 362.117 126.89 359.297C126.89 356.478 129.177 354.193 131.998 354.193Z" fill="#611FF3"/>
<path d="M131.998 321.993C134.819 321.993 137.107 324.279 137.107 327.098C137.107 329.917 134.819 332.203 131.998 332.203C129.177 332.203 126.89 329.917 126.89 327.098C126.89 324.279 129.177 321.993 131.998 321.993Z" fill="#611FF3"/>
<path d="M131.998 289.794C134.819 289.794 137.107 292.079 137.107 294.899C137.107 297.718 134.819 300.003 131.998 300.003C129.177 300.003 126.89 297.718 126.89 294.899C126.89 292.079 129.177 289.794 131.998 289.794Z" fill="#611FF3"/>
<path d="M131.998 257.595C134.819 257.595 137.107 259.88 137.107 262.699C137.107 265.519 134.819 267.804 131.998 267.804C129.177 267.804 126.89 265.519 126.89 262.699C126.89 259.88 129.177 257.595 131.998 257.595Z" fill="#611FF3"/>
<path d="M131.998 225.395C134.819 225.395 137.107 227.681 137.107 230.5C137.107 233.319 134.819 235.605 131.998 235.605C129.177 235.605 126.89 233.319 126.89 230.5C126.89 227.681 129.177 225.395 131.998 225.395Z" fill="#611FF3"/>
<path d="M131.998 193.196C134.819 193.196 137.107 195.481 137.107 198.301C137.107 201.12 134.819 203.405 131.998 203.405C129.177 203.405 126.89 201.12 126.89 198.301C126.89 195.481 129.177 193.196 131.998 193.196Z" fill="#611FF3"/>
<path d="M131.998 160.997C134.819 160.997 137.107 163.282 137.107 166.101C137.107 168.921 134.819 171.206 131.998 171.206C129.177 171.206 126.89 168.921 126.89 166.101C126.89 163.282 129.177 160.997 131.998 160.997Z" fill="#611FF3"/>
<path d="M131.998 128.797C134.819 128.797 137.107 131.083 137.107 133.902C137.107 136.721 134.819 139.007 131.998 139.007C129.177 139.007 126.89 136.721 126.89 133.902C126.89 131.083 129.177 128.797 131.998 128.797Z" fill="#611FF3"/>
<path d="M131.998 96.598C134.819 96.598 137.107 98.8834 137.107 101.703C137.107 104.522 134.819 106.807 131.998 106.807C129.177 106.807 126.89 104.522 126.89 101.703C126.89 98.8834 129.177 96.598 131.998 96.598Z" fill="#611FF3"/>
<path d="M131.998 64.3986C134.819 64.3986 137.107 66.6841 137.107 69.5034C137.107 72.3227 134.819 74.6082 131.998 74.6082C129.177 74.6082 126.89 72.3227 126.89 69.5034C126.89 66.6841 129.177 64.3986 131.998 64.3986Z" fill="#611FF3"/>
<path d="M131.998 32.1993C134.819 32.1993 137.107 34.4848 137.107 37.3041C137.107 40.1234 134.819 42.4088 131.998 42.4088C129.177 42.4088 126.89 40.1234 126.89 37.3041C126.89 34.4848 129.177 32.1993 131.998 32.1993Z" fill="#611FF3"/>
<path d="M131.998 0C134.819 0 137.107 2.28546 137.107 5.10477C137.107 7.92404 134.819 10.2095 131.998 10.2095C129.177 10.2095 126.89 7.92404 126.89 5.10477C126.89 2.28546 129.177 0 131.998 0Z" fill="#611FF3"/>
<path d="M164.221 450.79C167.042 450.79 169.329 453.076 169.329 455.895C169.329 458.715 167.042 461 164.221 461C161.399 461 159.112 458.715 159.112 455.895C159.112 453.076 161.399 450.79 164.221 450.79Z" fill="#611FF3"/>
<path d="M164.221 418.591C167.042 418.591 169.329 420.877 169.329 423.696C169.329 426.515 167.042 428.801 164.221 428.801C161.399 428.801 159.112 426.515 159.112 423.696C159.112 420.877 161.399 418.591 164.221 418.591Z" fill="#611FF3"/>
<path d="M164.221 386.392C167.042 386.392 169.329 388.677 169.329 391.497C169.329 394.316 167.042 396.601 164.221 396.601C161.399 396.601 159.112 394.316 159.112 391.497C159.112 388.677 161.399 386.392 164.221 386.392Z" fill="#611FF3"/>
<path d="M164.221 354.193C167.042 354.193 169.329 356.478 169.329 359.297C169.329 362.117 167.042 364.402 164.221 364.402C161.399 364.402 159.112 362.117 159.112 359.297C159.112 356.478 161.399 354.193 164.221 354.193Z" fill="#611FF3"/>
<path d="M164.221 321.993C167.042 321.993 169.329 324.279 169.329 327.098C169.329 329.917 167.042 332.203 164.221 332.203C161.399 332.203 159.112 329.917 159.112 327.098C159.112 324.279 161.399 321.993 164.221 321.993Z" fill="#611FF3"/>
<path d="M164.221 289.794C167.042 289.794 169.329 292.079 169.329 294.899C169.329 297.718 167.042 300.003 164.221 300.003C161.399 300.003 159.112 297.718 159.112 294.899C159.112 292.079 161.399 289.794 164.221 289.794Z" fill="#611FF3"/>
<path d="M164.221 257.595C167.042 257.595 169.329 259.88 169.329 262.699C169.329 265.519 167.042 267.804 164.221 267.804C161.399 267.804 159.112 265.519 159.112 262.699C159.112 259.88 161.399 257.595 164.221 257.595Z" fill="#611FF3"/>
<path d="M164.221 225.395C167.042 225.395 169.329 227.681 169.329 230.5C169.329 233.319 167.042 235.605 164.221 235.605C161.399 235.605 159.112 233.319 159.112 230.5C159.112 227.681 161.399 225.395 164.221 225.395Z" fill="#611FF3"/>
<path d="M164.221 193.196C167.042 193.196 169.329 195.481 169.329 198.301C169.329 201.12 167.042 203.405 164.221 203.405C161.399 203.405 159.112 201.12 159.112 198.301C159.112 195.481 161.399 193.196 164.221 193.196Z" fill="#611FF3"/>
<path d="M164.221 160.997C167.042 160.997 169.329 163.282 169.329 166.101C169.329 168.921 167.042 171.206 164.221 171.206C161.399 171.206 159.112 168.921 159.112 166.101C159.112 163.282 161.399 160.997 164.221 160.997Z" fill="#611FF3"/>
<path d="M164.221 128.797C167.042 128.797 169.329 131.083 169.329 133.902C169.329 136.721 167.042 139.007 164.221 139.007C161.399 139.007 159.112 136.721 159.112 133.902C159.112 131.083 161.399 128.797 164.221 128.797Z" fill="#611FF3"/>
<path d="M164.221 96.598C167.042 96.598 169.329 98.8834 169.329 101.703C169.329 104.522 167.042 106.807 164.221 106.807C161.399 106.807 159.112 104.522 159.112 101.703C159.112 98.8834 161.399 96.598 164.221 96.598Z" fill="#611FF3"/>
<path d="M164.221 64.3986C167.042 64.3986 169.329 66.6841 169.329 69.5034C169.329 72.3227 167.042 74.6082 164.221 74.6082C161.399 74.6082 159.112 72.3227 159.112 69.5034C159.112 66.6841 161.399 64.3986 164.221 64.3986Z" fill="#611FF3"/>
<path d="M164.221 32.1993C167.042 32.1993 169.329 34.4848 169.329 37.3041C169.329 40.1234 167.042 42.4088 164.221 42.4088C161.399 42.4088 159.112 40.1234 159.112 37.3041C159.112 34.4848 161.399 32.1993 164.221 32.1993Z" fill="#611FF3"/>
<path d="M164.221 0C167.042 0 169.329 2.28546 169.329 5.10477C169.329 7.92404 167.042 10.2095 164.221 10.2095C161.399 10.2095 159.112 7.92404 159.112 5.10477C159.112 2.28546 161.399 0 164.221 0Z" fill="#611FF3"/>
<path d="M196.443 450.79C199.264 450.79 201.551 453.076 201.551 455.895C201.551 458.715 199.264 461 196.443 461C193.622 461 191.335 458.715 191.335 455.895C191.335 453.076 193.622 450.79 196.443 450.79Z" fill="#611FF3"/>
<path d="M196.443 418.591C199.264 418.591 201.551 420.877 201.551 423.696C201.551 426.515 199.264 428.801 196.443 428.801C193.622 428.801 191.335 426.515 191.335 423.696C191.335 420.877 193.622 418.591 196.443 418.591Z" fill="#611FF3"/>
<path d="M196.443 386.392C199.264 386.392 201.551 388.677 201.551 391.497C201.551 394.316 199.264 396.601 196.443 396.601C193.622 396.601 191.335 394.316 191.335 391.497C191.335 388.677 193.622 386.392 196.443 386.392Z" fill="#611FF3"/>
<path d="M196.443 354.193C199.264 354.193 201.551 356.478 201.551 359.297C201.551 362.117 199.264 364.402 196.443 364.402C193.622 364.402 191.335 362.117 191.335 359.297C191.335 356.478 193.622 354.193 196.443 354.193Z" fill="#611FF3"/>
<path d="M196.443 321.993C199.264 321.993 201.551 324.279 201.551 327.098C201.551 329.917 199.264 332.203 196.443 332.203C193.622 332.203 191.335 329.917 191.335 327.098C191.335 324.279 193.622 321.993 196.443 321.993Z" fill="#611FF3"/>
<path d="M196.443 289.794C199.264 289.794 201.551 292.079 201.551 294.899C201.551 297.718 199.264 300.003 196.443 300.003C193.622 300.003 191.335 297.718 191.335 294.899C191.335 292.079 193.622 289.794 196.443 289.794Z" fill="#611FF3"/>
<path d="M196.443 257.595C199.264 257.595 201.551 259.88 201.551 262.699C201.551 265.519 199.264 267.804 196.443 267.804C193.622 267.804 191.335 265.519 191.335 262.699C191.335 259.88 193.622 257.595 196.443 257.595Z" fill="#611FF3"/>
<path d="M196.443 225.395C199.264 225.395 201.551 227.681 201.551 230.5C201.551 233.319 199.264 235.605 196.443 235.605C193.622 235.605 191.335 233.319 191.335 230.5C191.335 227.681 193.622 225.395 196.443 225.395Z" fill="#611FF3"/>
<path d="M196.443 193.196C199.264 193.196 201.551 195.481 201.551 198.301C201.551 201.12 199.264 203.405 196.443 203.405C193.622 203.405 191.335 201.12 191.335 198.301C191.335 195.481 193.622 193.196 196.443 193.196Z" fill="#611FF3"/>
<path d="M196.443 160.997C199.264 160.997 201.551 163.282 201.551 166.101C201.551 168.921 199.264 171.206 196.443 171.206C193.622 171.206 191.335 168.921 191.335 166.101C191.335 163.282 193.622 160.997 196.443 160.997Z" fill="#611FF3"/>
<path d="M196.443 128.797C199.264 128.797 201.551 131.083 201.551 133.902C201.551 136.721 199.264 139.007 196.443 139.007C193.622 139.007 191.335 136.721 191.335 133.902C191.335 131.083 193.622 128.797 196.443 128.797Z" fill="#611FF3"/>
<path d="M196.443 96.598C199.264 96.598 201.551 98.8834 201.551 101.703C201.551 104.522 199.264 106.807 196.443 106.807C193.622 106.807 191.335 104.522 191.335 101.703C191.335 98.8834 193.622 96.598 196.443 96.598Z" fill="#611FF3"/>
<path d="M196.443 64.3986C199.264 64.3986 201.551 66.6841 201.551 69.5034C201.551 72.3227 199.264 74.6082 196.443 74.6082C193.622 74.6082 191.335 72.3227 191.335 69.5034C191.335 66.6841 193.622 64.3986 196.443 64.3986Z" fill="#611FF3"/>
<path d="M196.443 32.1993C199.264 32.1993 201.551 34.4848 201.551 37.3041C201.551 40.1234 199.264 42.4088 196.443 42.4088C193.622 42.4088 191.335 40.1234 191.335 37.3041C191.335 34.4848 193.622 32.1993 196.443 32.1993Z" fill="#611FF3"/>
<path d="M196.443 0C199.264 0 201.551 2.28546 201.551 5.10477C201.551 7.92404 199.264 10.2095 196.443 10.2095C193.622 10.2095 191.335 7.92404 191.335 5.10477C191.335 2.28546 193.622 0 196.443 0Z" fill="#611FF3"/>
<path d="M228.665 450.79C231.487 450.79 233.774 453.076 233.774 455.895C233.774 458.715 231.487 461 228.665 461C225.844 461 223.557 458.715 223.557 455.895C223.557 453.076 225.844 450.79 228.665 450.79Z" fill="#611FF3"/>
<path d="M228.665 418.591C231.487 418.591 233.774 420.877 233.774 423.696C233.774 426.515 231.487 428.801 228.665 428.801C225.844 428.801 223.557 426.515 223.557 423.696C223.557 420.877 225.844 418.591 228.665 418.591Z" fill="#611FF3"/>
<path d="M228.665 386.392C231.487 386.392 233.774 388.677 233.774 391.497C233.774 394.316 231.487 396.601 228.665 396.601C225.844 396.601 223.557 394.316 223.557 391.497C223.557 388.677 225.844 386.392 228.665 386.392Z" fill="#611FF3"/>
<path d="M228.665 354.193C231.487 354.193 233.774 356.478 233.774 359.297C233.774 362.117 231.487 364.402 228.665 364.402C225.844 364.402 223.557 362.117 223.557 359.297C223.557 356.478 225.844 354.193 228.665 354.193Z" fill="#611FF3"/>
<path d="M228.665 321.993C231.487 321.993 233.774 324.279 233.774 327.098C233.774 329.917 231.487 332.203 228.665 332.203C225.844 332.203 223.557 329.917 223.557 327.098C223.557 324.279 225.844 321.993 228.665 321.993Z" fill="#611FF3"/>
<path d="M228.665 289.794C231.487 289.794 233.774 292.079 233.774 294.899C233.774 297.718 231.487 300.003 228.665 300.003C225.844 300.003 223.557 297.718 223.557 294.899C223.557 292.079 225.844 289.794 228.665 289.794Z" fill="#611FF3"/>
<path d="M228.665 257.595C231.487 257.595 233.774 259.88 233.774 262.699C233.774 265.519 231.487 267.804 228.665 267.804C225.844 267.804 223.557 265.519 223.557 262.699C223.557 259.88 225.844 257.595 228.665 257.595Z" fill="#611FF3"/>
<path d="M228.665 225.395C231.487 225.395 233.774 227.681 233.774 230.5C233.774 233.319 231.487 235.605 228.665 235.605C225.844 235.605 223.557 233.319 223.557 230.5C223.557 227.681 225.844 225.395 228.665 225.395Z" fill="#611FF3"/>
<path d="M228.665 193.196C231.487 193.196 233.774 195.481 233.774 198.301C233.774 201.12 231.487 203.405 228.665 203.405C225.844 203.405 223.557 201.12 223.557 198.301C223.557 195.481 225.844 193.196 228.665 193.196Z" fill="#611FF3"/>
<path d="M228.665 160.997C231.487 160.997 233.774 163.282 233.774 166.101C233.774 168.921 231.487 171.206 228.665 171.206C225.844 171.206 223.557 168.921 223.557 166.101C223.557 163.282 225.844 160.997 228.665 160.997Z" fill="#611FF3"/>
<path d="M228.665 128.797C231.487 128.797 233.774 131.083 233.774 133.902C233.774 136.721 231.487 139.007 228.665 139.007C225.844 139.007 223.557 136.721 223.557 133.902C223.557 131.083 225.844 128.797 228.665 128.797Z" fill="#611FF3"/>
<path d="M228.665 96.598C231.487 96.598 233.774 98.8834 233.774 101.703C233.774 104.522 231.487 106.807 228.665 106.807C225.844 106.807 223.557 104.522 223.557 101.703C223.557 98.8834 225.844 96.598 228.665 96.598Z" fill="#611FF3"/>
<path d="M228.665 64.3986C231.487 64.3986 233.774 66.6841 233.774 69.5034C233.774 72.3227 231.487 74.6082 228.665 74.6082C225.844 74.6082 223.557 72.3227 223.557 69.5034C223.557 66.6841 225.844 64.3986 228.665 64.3986Z" fill="#611FF3"/>
<path d="M228.665 32.1993C231.487 32.1993 233.774 34.4848 233.774 37.3041C233.774 40.1234 231.487 42.4088 228.665 42.4088C225.844 42.4088 223.557 40.1234 223.557 37.3041C223.557 34.4848 225.844 32.1993 228.665 32.1993Z" fill="#611FF3"/>
<path d="M228.665 0C231.487 0 233.774 2.28546 233.774 5.10477C233.774 7.92404 231.487 10.2095 228.665 10.2095C225.844 10.2095 223.557 7.92404 223.557 5.10477C223.557 2.28546 225.844 0 228.665 0Z" fill="#611FF3"/>
<path d="M260.888 450.79C263.709 450.79 265.996 453.076 265.996 455.895C265.996 458.715 263.709 461 260.888 461C258.067 461 255.779 458.715 255.779 455.895C255.779 453.076 258.067 450.79 260.888 450.79Z" fill="#611FF3"/>
<path d="M260.888 418.591C263.709 418.591 265.996 420.877 265.996 423.696C265.996 426.515 263.709 428.801 260.888 428.801C258.067 428.801 255.779 426.515 255.779 423.696C255.779 420.877 258.067 418.591 260.888 418.591Z" fill="#611FF3"/>
<path d="M260.888 386.392C263.709 386.392 265.996 388.677 265.996 391.497C265.996 394.316 263.709 396.601 260.888 396.601C258.067 396.601 255.779 394.316 255.779 391.497C255.779 388.677 258.067 386.392 260.888 386.392Z" fill="#611FF3"/>
<path d="M260.888 354.193C263.709 354.193 265.996 356.478 265.996 359.297C265.996 362.117 263.709 364.402 260.888 364.402C258.067 364.402 255.779 362.117 255.779 359.297C255.779 356.478 258.067 354.193 260.888 354.193Z" fill="#611FF3"/>
<path d="M260.888 321.993C263.709 321.993 265.996 324.279 265.996 327.098C265.996 329.917 263.709 332.203 260.888 332.203C258.067 332.203 255.779 329.917 255.779 327.098C255.779 324.279 258.067 321.993 260.888 321.993Z" fill="#611FF3"/>
<path d="M260.888 289.794C263.709 289.794 265.996 292.079 265.996 294.899C265.996 297.718 263.709 300.003 260.888 300.003C258.067 300.003 255.779 297.718 255.779 294.899C255.779 292.079 258.067 289.794 260.888 289.794Z" fill="#611FF3"/>
<path d="M260.888 257.595C263.709 257.595 265.996 259.88 265.996 262.699C265.996 265.519 263.709 267.804 260.888 267.804C258.067 267.804 255.779 265.519 255.779 262.699C255.779 259.88 258.067 257.595 260.888 257.595Z" fill="#611FF3"/>
<path d="M260.888 225.395C263.709 225.395 265.996 227.681 265.996 230.5C265.996 233.319 263.709 235.605 260.888 235.605C258.067 235.605 255.779 233.319 255.779 230.5C255.779 227.681 258.067 225.395 260.888 225.395Z" fill="#611FF3"/>
<path d="M260.888 193.196C263.709 193.196 265.996 195.481 265.996 198.301C265.996 201.12 263.709 203.405 260.888 203.405C258.067 203.405 255.779 201.12 255.779 198.301C255.779 195.481 258.067 193.196 260.888 193.196Z" fill="#611FF3"/>
<path d="M260.888 160.997C263.709 160.997 265.996 163.282 265.996 166.101C265.996 168.921 263.709 171.206 260.888 171.206C258.067 171.206 255.779 168.921 255.779 166.101C255.779 163.282 258.067 160.997 260.888 160.997Z" fill="#611FF3"/>
<path d="M260.888 128.797C263.709 128.797 265.996 131.083 265.996 133.902C265.996 136.721 263.709 139.007 260.888 139.007C258.067 139.007 255.779 136.721 255.779 133.902C255.779 131.083 258.067 128.797 260.888 128.797Z" fill="#611FF3"/>
<path d="M260.888 96.598C263.709 96.598 265.996 98.8834 265.996 101.703C265.996 104.522 263.709 106.807 260.888 106.807C258.067 106.807 255.779 104.522 255.779 101.703C255.779 98.8834 258.067 96.598 260.888 96.598Z" fill="#611FF3"/>
<path d="M260.888 64.3986C263.709 64.3986 265.996 66.6841 265.996 69.5034C265.996 72.3227 263.709 74.6082 260.888 74.6082C258.067 74.6082 255.779 72.3227 255.779 69.5034C255.779 66.6841 258.067 64.3986 260.888 64.3986Z" fill="#611FF3"/>
<path d="M260.888 32.1993C263.709 32.1993 265.996 34.4848 265.996 37.3041C265.996 40.1234 263.709 42.4088 260.888 42.4088C258.067 42.4088 255.779 40.1234 255.779 37.3041C255.779 34.4848 258.067 32.1993 260.888 32.1993Z" fill="#611FF3"/>
<path d="M260.888 0C263.709 0 265.996 2.28546 265.996 5.10477C265.996 7.92404 263.709 10.2095 260.888 10.2095C258.067 10.2095 255.779 7.92404 255.779 5.10477C255.779 2.28546 258.067 0 260.888 0Z" fill="#611FF3"/>
<path d="M293.11 450.79C295.932 450.79 298.219 453.076 298.219 455.895C298.219 458.715 295.932 461 293.11 461C290.289 461 288.002 458.715 288.002 455.895C288.002 453.076 290.289 450.79 293.11 450.79Z" fill="#611FF3"/>
<path d="M293.11 418.591C295.932 418.591 298.219 420.877 298.219 423.696C298.219 426.515 295.932 428.801 293.11 428.801C290.289 428.801 288.002 426.515 288.002 423.696C288.002 420.877 290.289 418.591 293.11 418.591Z" fill="#611FF3"/>
<path d="M293.11 386.392C295.932 386.392 298.219 388.677 298.219 391.497C298.219 394.316 295.932 396.601 293.11 396.601C290.289 396.601 288.002 394.316 288.002 391.497C288.002 388.677 290.289 386.392 293.11 386.392Z" fill="#611FF3"/>
<path d="M293.11 354.193C295.932 354.193 298.219 356.478 298.219 359.297C298.219 362.117 295.932 364.402 293.11 364.402C290.289 364.402 288.002 362.117 288.002 359.297C288.002 356.478 290.289 354.193 293.11 354.193Z" fill="#611FF3"/>
<path d="M293.11 321.993C295.932 321.993 298.219 324.279 298.219 327.098C298.219 329.917 295.932 332.203 293.11 332.203C290.289 332.203 288.002 329.917 288.002 327.098C288.002 324.279 290.289 321.993 293.11 321.993Z" fill="#611FF3"/>
<path d="M293.11 289.794C295.932 289.794 298.219 292.079 298.219 294.899C298.219 297.718 295.932 300.003 293.11 300.003C290.289 300.003 288.002 297.718 288.002 294.899C288.002 292.079 290.289 289.794 293.11 289.794Z" fill="#611FF3"/>
<path d="M293.11 257.595C295.932 257.595 298.219 259.88 298.219 262.699C298.219 265.519 295.932 267.804 293.11 267.804C290.289 267.804 288.002 265.519 288.002 262.699C288.002 259.88 290.289 257.595 293.11 257.595Z" fill="#611FF3"/>
<path d="M293.11 225.395C295.932 225.395 298.219 227.681 298.219 230.5C298.219 233.319 295.932 235.605 293.11 235.605C290.289 235.605 288.002 233.319 288.002 230.5C288.002 227.681 290.289 225.395 293.11 225.395Z" fill="#611FF3"/>
<path d="M293.11 193.196C295.932 193.196 298.219 195.481 298.219 198.301C298.219 201.12 295.932 203.405 293.11 203.405C290.289 203.405 288.002 201.12 288.002 198.301C288.002 195.481 290.289 193.196 293.11 193.196Z" fill="#611FF3"/>
<path d="M293.11 160.997C295.932 160.997 298.219 163.282 298.219 166.101C298.219 168.921 295.932 171.206 293.11 171.206C290.289 171.206 288.002 168.921 288.002 166.101C288.002 163.282 290.289 160.997 293.11 160.997Z" fill="#611FF3"/>
<path d="M293.11 128.797C295.932 128.797 298.219 131.083 298.219 133.902C298.219 136.721 295.932 139.007 293.11 139.007C290.289 139.007 288.002 136.721 288.002 133.902C288.002 131.083 290.289 128.797 293.11 128.797Z" fill="#611FF3"/>
<path d="M293.11 96.598C295.932 96.598 298.219 98.8834 298.219 101.703C298.219 104.522 295.932 106.807 293.11 106.807C290.289 106.807 288.002 104.522 288.002 101.703C288.002 98.8834 290.289 96.598 293.11 96.598Z" fill="#611FF3"/>
<path d="M293.11 64.3986C295.932 64.3986 298.219 66.6841 298.219 69.5034C298.219 72.3227 295.932 74.6082 293.11 74.6082C290.289 74.6082 288.002 72.3227 288.002 69.5034C288.002 66.6841 290.289 64.3986 293.11 64.3986Z" fill="#611FF3"/>
<path d="M293.11 32.1993C295.932 32.1993 298.219 34.4848 298.219 37.3041C298.219 40.1234 295.932 42.4088 293.11 42.4088C290.289 42.4088 288.002 40.1234 288.002 37.3041C288.002 34.4848 290.289 32.1993 293.11 32.1993Z" fill="#611FF3"/>
<path d="M293.11 0C295.932 0 298.219 2.28546 298.219 5.10477C298.219 7.92404 295.932 10.2095 293.11 10.2095C290.289 10.2095 288.002 7.92404 288.002 5.10477C288.002 2.28546 290.289 0 293.11 0Z" fill="#611FF3"/>
<path d="M325.333 450.79C328.154 450.79 330.441 453.076 330.441 455.895C330.441 458.715 328.154 461 325.333 461C322.511 461 320.224 458.715 320.224 455.895C320.224 453.076 322.511 450.79 325.333 450.79Z" fill="#611FF3"/>
<path d="M325.333 418.591C328.154 418.591 330.441 420.877 330.441 423.696C330.441 426.515 328.154 428.801 325.333 428.801C322.511 428.801 320.224 426.515 320.224 423.696C320.224 420.877 322.511 418.591 325.333 418.591Z" fill="#611FF3"/>
<path d="M325.333 386.392C328.154 386.392 330.441 388.677 330.441 391.497C330.441 394.316 328.154 396.601 325.333 396.601C322.511 396.601 320.224 394.316 320.224 391.497C320.224 388.677 322.511 386.392 325.333 386.392Z" fill="#611FF3"/>
<path d="M325.333 354.193C328.154 354.193 330.441 356.478 330.441 359.297C330.441 362.117 328.154 364.402 325.333 364.402C322.511 364.402 320.224 362.117 320.224 359.297C320.224 356.478 322.511 354.193 325.333 354.193Z" fill="#611FF3"/>
<path d="M325.333 321.993C328.154 321.993 330.441 324.279 330.441 327.098C330.441 329.917 328.154 332.203 325.333 332.203C322.511 332.203 320.224 329.917 320.224 327.098C320.224 324.279 322.511 321.993 325.333 321.993Z" fill="#611FF3"/>
<path d="M325.333 289.794C328.154 289.794 330.441 292.079 330.441 294.899C330.441 297.718 328.154 300.003 325.333 300.003C322.511 300.003 320.224 297.718 320.224 294.899C320.224 292.079 322.511 289.794 325.333 289.794Z" fill="#611FF3"/>
<path d="M325.333 257.595C328.154 257.595 330.441 259.88 330.441 262.699C330.441 265.519 328.154 267.804 325.333 267.804C322.511 267.804 320.224 265.519 320.224 262.699C320.224 259.88 322.511 257.595 325.333 257.595Z" fill="#611FF3"/>
<path d="M325.333 225.395C328.154 225.395 330.441 227.681 330.441 230.5C330.441 233.319 328.154 235.605 325.333 235.605C322.511 235.605 320.224 233.319 320.224 230.5C320.224 227.681 322.511 225.395 325.333 225.395Z" fill="#611FF3"/>
<path d="M325.333 193.196C328.154 193.196 330.441 195.481 330.441 198.301C330.441 201.12 328.154 203.405 325.333 203.405C322.511 203.405 320.224 201.12 320.224 198.301C320.224 195.481 322.511 193.196 325.333 193.196Z" fill="#611FF3"/>
<path d="M325.333 160.997C328.154 160.997 330.441 163.282 330.441 166.101C330.441 168.921 328.154 171.206 325.333 171.206C322.511 171.206 320.224 168.921 320.224 166.101C320.224 163.282 322.511 160.997 325.333 160.997Z" fill="#611FF3"/>
<path d="M325.333 128.797C328.154 128.797 330.441 131.083 330.441 133.902C330.441 136.721 328.154 139.007 325.333 139.007C322.511 139.007 320.224 136.721 320.224 133.902C320.224 131.083 322.511 128.797 325.333 128.797Z" fill="#611FF3"/>
<path d="M325.333 96.598C328.154 96.598 330.441 98.8834 330.441 101.703C330.441 104.522 328.154 106.807 325.333 106.807C322.511 106.807 320.224 104.522 320.224 101.703C320.224 98.8834 322.511 96.598 325.333 96.598Z" fill="#611FF3"/>
<path d="M325.333 64.3986C328.154 64.3986 330.441 66.6841 330.441 69.5034C330.441 72.3227 328.154 74.6082 325.333 74.6082C322.511 74.6082 320.224 72.3227 320.224 69.5034C320.224 66.6841 322.511 64.3986 325.333 64.3986Z" fill="#611FF3"/>
<path d="M325.333 32.1993C328.154 32.1993 330.441 34.4848 330.441 37.3041C330.441 40.1234 328.154 42.4088 325.333 42.4088C322.511 42.4088 320.224 40.1234 320.224 37.3041C320.224 34.4848 322.511 32.1993 325.333 32.1993Z" fill="#611FF3"/>
<path d="M325.333 0C328.154 0 330.441 2.28546 330.441 5.10477C330.441 7.92404 328.154 10.2095 325.333 10.2095C322.511 10.2095 320.224 7.92404 320.224 5.10477C320.224 2.28546 322.511 0 325.333 0Z" fill="#611FF3"/>
<path d="M357.555 450.79C360.376 450.79 362.664 453.076 362.664 455.895C362.664 458.715 360.376 461 357.555 461C354.734 461 352.447 458.715 352.447 455.895C352.447 453.076 354.734 450.79 357.555 450.79Z" fill="#611FF3"/>
<path d="M357.555 418.591C360.376 418.591 362.664 420.877 362.664 423.696C362.664 426.515 360.376 428.801 357.555 428.801C354.734 428.801 352.447 426.515 352.447 423.696C352.447 420.877 354.734 418.591 357.555 418.591Z" fill="#611FF3"/>
<path d="M357.555 386.392C360.376 386.392 362.664 388.677 362.664 391.497C362.664 394.316 360.376 396.601 357.555 396.601C354.734 396.601 352.447 394.316 352.447 391.497C352.447 388.677 354.734 386.392 357.555 386.392Z" fill="#611FF3"/>
<path d="M357.555 354.193C360.376 354.193 362.664 356.478 362.664 359.297C362.664 362.117 360.376 364.402 357.555 364.402C354.734 364.402 352.447 362.117 352.447 359.297C352.447 356.478 354.734 354.193 357.555 354.193Z" fill="#611FF3"/>
<path d="M357.555 321.993C360.376 321.993 362.664 324.279 362.664 327.098C362.664 329.917 360.376 332.203 357.555 332.203C354.734 332.203 352.447 329.917 352.447 327.098C352.447 324.279 354.734 321.993 357.555 321.993Z" fill="#611FF3"/>
<path d="M357.555 289.794C360.376 289.794 362.664 292.079 362.664 294.899C362.664 297.718 360.376 300.003 357.555 300.003C354.734 300.003 352.447 297.718 352.447 294.899C352.447 292.079 354.734 289.794 357.555 289.794Z" fill="#611FF3"/>
<path d="M357.555 257.595C360.376 257.595 362.664 259.88 362.664 262.699C362.664 265.519 360.376 267.804 357.555 267.804C354.734 267.804 352.447 265.519 352.447 262.699C352.447 259.88 354.734 257.595 357.555 257.595Z" fill="#611FF3"/>
<path d="M357.555 225.395C360.376 225.395 362.664 227.681 362.664 230.5C362.664 233.319 360.376 235.605 357.555 235.605C354.734 235.605 352.447 233.319 352.447 230.5C352.447 227.681 354.734 225.395 357.555 225.395Z" fill="#611FF3"/>
<path d="M357.555 193.196C360.376 193.196 362.664 195.481 362.664 198.301C362.664 201.12 360.376 203.405 357.555 203.405C354.734 203.405 352.447 201.12 352.447 198.301C352.447 195.481 354.734 193.196 357.555 193.196Z" fill="#611FF3"/>
<path d="M357.555 160.997C360.376 160.997 362.664 163.282 362.664 166.101C362.664 168.921 360.376 171.206 357.555 171.206C354.734 171.206 352.447 168.921 352.447 166.101C352.447 163.282 354.734 160.997 357.555 160.997Z" fill="#611FF3"/>
<path d="M357.555 128.797C360.376 128.797 362.664 131.083 362.664 133.902C362.664 136.721 360.376 139.007 357.555 139.007C354.734 139.007 352.447 136.721 352.447 133.902C352.447 131.083 354.734 128.797 357.555 128.797Z" fill="#611FF3"/>
<path d="M357.555 96.598C360.376 96.598 362.664 98.8834 362.664 101.703C362.664 104.522 360.376 106.807 357.555 106.807C354.734 106.807 352.447 104.522 352.447 101.703C352.447 98.8834 354.734 96.598 357.555 96.598Z" fill="#611FF3"/>
<path d="M357.555 64.3986C360.376 64.3986 362.664 66.6841 362.664 69.5034C362.664 72.3227 360.376 74.6082 357.555 74.6082C354.734 74.6082 352.447 72.3227 352.447 69.5034C352.447 66.6841 354.734 64.3986 357.555 64.3986Z" fill="#611FF3"/>
<path d="M357.555 32.1993C360.376 32.1993 362.664 34.4848 362.664 37.3041C362.664 40.1234 360.376 42.4088 357.555 42.4088C354.734 42.4088 352.447 40.1234 352.447 37.3041C352.447 34.4848 354.734 32.1993 357.555 32.1993Z" fill="#611FF3"/>
<path d="M357.555 0C360.376 0 362.664 2.28546 362.664 5.10477C362.664 7.92404 360.376 10.2095 357.555 10.2095C354.734 10.2095 352.447 7.92404 352.447 5.10477C352.447 2.28546 354.734 0 357.555 0Z" fill="#611FF3"/>
<path d="M389.778 450.79C392.599 450.79 394.886 453.076 394.886 455.895C394.886 458.715 392.599 461 389.778 461C386.956 461 384.669 458.715 384.669 455.895C384.669 453.076 386.956 450.79 389.778 450.79Z" fill="#611FF3"/>
<path d="M389.778 418.591C392.599 418.591 394.886 420.877 394.886 423.696C394.886 426.515 392.599 428.801 389.778 428.801C386.956 428.801 384.669 426.515 384.669 423.696C384.669 420.877 386.956 418.591 389.778 418.591Z" fill="#611FF3"/>
<path d="M389.778 386.392C392.599 386.392 394.886 388.677 394.886 391.497C394.886 394.316 392.599 396.601 389.778 396.601C386.956 396.601 384.669 394.316 384.669 391.497C384.669 388.677 386.956 386.392 389.778 386.392Z" fill="#611FF3"/>
<path d="M389.778 354.193C392.599 354.193 394.886 356.478 394.886 359.297C394.886 362.117 392.599 364.402 389.778 364.402C386.956 364.402 384.669 362.117 384.669 359.297C384.669 356.478 386.956 354.193 389.778 354.193Z" fill="#611FF3"/>
<path d="M389.778 321.993C392.599 321.993 394.886 324.279 394.886 327.098C394.886 329.917 392.599 332.203 389.778 332.203C386.956 332.203 384.669 329.917 384.669 327.098C384.669 324.279 386.956 321.993 389.778 321.993Z" fill="#611FF3"/>
<path d="M389.778 289.794C392.599 289.794 394.886 292.079 394.886 294.899C394.886 297.718 392.599 300.003 389.778 300.003C386.956 300.003 384.669 297.718 384.669 294.899C384.669 292.079 386.956 289.794 389.778 289.794Z" fill="#611FF3"/>
<path d="M389.778 257.595C392.599 257.595 394.886 259.88 394.886 262.699C394.886 265.519 392.599 267.804 389.778 267.804C386.956 267.804 384.669 265.519 384.669 262.699C384.669 259.88 386.956 257.595 389.778 257.595Z" fill="#611FF3"/>
<path d="M389.778 225.395C392.599 225.395 394.886 227.681 394.886 230.5C394.886 233.319 392.599 235.605 389.778 235.605C386.956 235.605 384.669 233.319 384.669 230.5C384.669 227.681 386.956 225.395 389.778 225.395Z" fill="#611FF3"/>
<path d="M389.778 193.196C392.599 193.196 394.886 195.481 394.886 198.301C394.886 201.12 392.599 203.405 389.778 203.405C386.956 203.405 384.669 201.12 384.669 198.301C384.669 195.481 386.956 193.196 389.778 193.196Z" fill="#611FF3"/>
<path d="M389.778 160.997C392.599 160.997 394.886 163.282 394.886 166.101C394.886 168.921 392.599 171.206 389.778 171.206C386.956 171.206 384.669 168.921 384.669 166.101C384.669 163.282 386.956 160.997 389.778 160.997Z" fill="#611FF3"/>
<path d="M389.778 128.797C392.599 128.797 394.886 131.083 394.886 133.902C394.886 136.721 392.599 139.007 389.778 139.007C386.956 139.007 384.669 136.721 384.669 133.902C384.669 131.083 386.956 128.797 389.778 128.797Z" fill="#611FF3"/>
<path d="M389.778 96.598C392.599 96.598 394.886 98.8834 394.886 101.703C394.886 104.522 392.599 106.807 389.778 106.807C386.956 106.807 384.669 104.522 384.669 101.703C384.669 98.8834 386.956 96.598 389.778 96.598Z" fill="#611FF3"/>
<path d="M389.778 64.3986C392.599 64.3986 394.886 66.6841 394.886 69.5034C394.886 72.3227 392.599 74.6082 389.778 74.6082C386.956 74.6082 384.669 72.3227 384.669 69.5034C384.669 66.6841 386.956 64.3986 389.778 64.3986Z" fill="#611FF3"/>
<path d="M389.778 32.1993C392.599 32.1993 394.886 34.4848 394.886 37.3041C394.886 40.1234 392.599 42.4088 389.778 42.4088C386.956 42.4088 384.669 40.1234 384.669 37.3041C384.669 34.4848 386.956 32.1993 389.778 32.1993Z" fill="#611FF3"/>
<path d="M389.778 0C392.599 0 394.886 2.28546 394.886 5.10477C394.886 7.92404 392.599 10.2095 389.778 10.2095C386.956 10.2095 384.669 7.92404 384.669 5.10477C384.669 2.28546 386.956 0 389.778 0Z" fill="#611FF3"/>
<path d="M422 450.79C424.821 450.79 427.108 453.076 427.108 455.895C427.108 458.715 424.821 461 422 461C419.179 461 416.892 458.715 416.892 455.895C416.892 453.076 419.179 450.79 422 450.79Z" fill="#611FF3"/>
<path d="M422 418.591C424.821 418.591 427.108 420.877 427.108 423.696C427.108 426.515 424.821 428.801 422 428.801C419.179 428.801 416.892 426.515 416.892 423.696C416.892 420.877 419.179 418.591 422 418.591Z" fill="#611FF3"/>
<path d="M422 386.392C424.821 386.392 427.108 388.677 427.108 391.497C427.108 394.316 424.821 396.601 422 396.601C419.179 396.601 416.892 394.316 416.892 391.497C416.892 388.677 419.179 386.392 422 386.392Z" fill="#611FF3"/>
<path d="M422 354.193C424.821 354.193 427.108 356.478 427.108 359.297C427.108 362.117 424.821 364.402 422 364.402C419.179 364.402 416.892 362.117 416.892 359.297C416.892 356.478 419.179 354.193 422 354.193Z" fill="#611FF3"/>
<path d="M422 321.993C424.821 321.993 427.108 324.279 427.108 327.098C427.108 329.917 424.821 332.203 422 332.203C419.179 332.203 416.892 329.917 416.892 327.098C416.892 324.279 419.179 321.993 422 321.993Z" fill="#611FF3"/>
<path d="M422 289.794C424.821 289.794 427.108 292.079 427.108 294.899C427.108 297.718 424.821 300.003 422 300.003C419.179 300.003 416.892 297.718 416.892 294.899C416.892 292.079 419.179 289.794 422 289.794Z" fill="#611FF3"/>
<path d="M422 257.595C424.821 257.595 427.108 259.88 427.108 262.699C427.108 265.519 424.821 267.804 422 267.804C419.179 267.804 416.892 265.519 416.892 262.699C416.892 259.88 419.179 257.595 422 257.595Z" fill="#611FF3"/>
<path d="M422 225.395C424.821 225.395 427.108 227.681 427.108 230.5C427.108 233.319 424.821 235.605 422 235.605C419.179 235.605 416.892 233.319 416.892 230.5C416.892 227.681 419.179 225.395 422 225.395Z" fill="#611FF3"/>
<path d="M422 193.196C424.821 193.196 427.108 195.481 427.108 198.301C427.108 201.12 424.821 203.405 422 203.405C419.179 203.405 416.892 201.12 416.892 198.301C416.892 195.481 419.179 193.196 422 193.196Z" fill="#611FF3"/>
<path d="M422 160.997C424.821 160.997 427.108 163.282 427.108 166.101C427.108 168.921 424.821 171.206 422 171.206C419.179 171.206 416.892 168.921 416.892 166.101C416.892 163.282 419.179 160.997 422 160.997Z" fill="#611FF3"/>
<path d="M422 128.797C424.821 128.797 427.108 131.083 427.108 133.902C427.108 136.721 424.821 139.007 422 139.007C419.179 139.007 416.892 136.721 416.892 133.902C416.892 131.083 419.179 128.797 422 128.797Z" fill="#611FF3"/>
<path d="M422 96.598C424.821 96.598 427.108 98.8834 427.108 101.703C427.108 104.522 424.821 106.807 422 106.807C419.179 106.807 416.892 104.522 416.892 101.703C416.892 98.8834 419.179 96.598 422 96.598Z" fill="#611FF3"/>
<path d="M422 64.3986C424.821 64.3986 427.108 66.6841 427.108 69.5034C427.108 72.3227 424.821 74.6082 422 74.6082C419.179 74.6082 416.892 72.3227 416.892 69.5034C416.892 66.6841 419.179 64.3986 422 64.3986Z" fill="#611FF3"/>
<path d="M422 32.1993C424.821 32.1993 427.108 34.4848 427.108 37.3041C427.108 40.1234 424.821 42.4088 422 42.4088C419.179 42.4088 416.892 40.1234 416.892 37.3041C416.892 34.4848 419.179 32.1993 422 32.1993Z" fill="#611FF3"/>
<path d="M422 0C424.821 0 427.108 2.28546 427.108 5.10477C427.108 7.92404 424.821 10.2095 422 10.2095C419.179 10.2095 416.892 7.92404 416.892 5.10477C416.892 2.28546 419.179 0 422 0Z" fill="#611FF3"/>
<path d="M454.222 450.79C457.044 450.79 459.331 453.076 459.331 455.895C459.331 458.715 457.044 461 454.222 461C451.401 461 449.114 458.715 449.114 455.895C449.114 453.076 451.401 450.79 454.222 450.79Z" fill="#611FF3"/>
<path d="M454.222 418.591C457.044 418.591 459.331 420.877 459.331 423.696C459.331 426.515 457.044 428.801 454.222 428.801C451.401 428.801 449.114 426.515 449.114 423.696C449.114 420.877 451.401 418.591 454.222 418.591Z" fill="#611FF3"/>
<path d="M454.222 386.392C457.044 386.392 459.331 388.677 459.331 391.497C459.331 394.316 457.044 396.601 454.222 396.601C451.401 396.601 449.114 394.316 449.114 391.497C449.114 388.677 451.401 386.392 454.222 386.392Z" fill="#611FF3"/>
<path d="M454.222 354.193C457.044 354.193 459.331 356.478 459.331 359.297C459.331 362.117 457.044 364.402 454.222 364.402C451.401 364.402 449.114 362.117 449.114 359.297C449.114 356.478 451.401 354.193 454.222 354.193Z" fill="#611FF3"/>
<path d="M454.222 321.993C457.044 321.993 459.331 324.279 459.331 327.098C459.331 329.917 457.044 332.203 454.222 332.203C451.401 332.203 449.114 329.917 449.114 327.098C449.114 324.279 451.401 321.993 454.222 321.993Z" fill="#611FF3"/>
<path d="M454.222 289.794C457.044 289.794 459.331 292.079 459.331 294.899C459.331 297.718 457.044 300.003 454.222 300.003C451.401 300.003 449.114 297.718 449.114 294.899C449.114 292.079 451.401 289.794 454.222 289.794Z" fill="#611FF3"/>
<path d="M454.222 257.595C457.044 257.595 459.331 259.88 459.331 262.699C459.331 265.519 457.044 267.804 454.222 267.804C451.401 267.804 449.114 265.519 449.114 262.699C449.114 259.88 451.401 257.595 454.222 257.595Z" fill="#611FF3"/>
<path d="M454.222 225.395C457.044 225.395 459.331 227.681 459.331 230.5C459.331 233.319 457.044 235.605 454.222 235.605C451.401 235.605 449.114 233.319 449.114 230.5C449.114 227.681 451.401 225.395 454.222 225.395Z" fill="#611FF3"/>
<path d="M454.222 193.196C457.044 193.196 459.331 195.481 459.331 198.301C459.331 201.12 457.044 203.405 454.222 203.405C451.401 203.405 449.114 201.12 449.114 198.301C449.114 195.481 451.401 193.196 454.222 193.196Z" fill="#611FF3"/>
<path d="M454.222 160.997C457.044 160.997 459.331 163.282 459.331 166.101C459.331 168.921 457.044 171.206 454.222 171.206C451.401 171.206 449.114 168.921 449.114 166.101C449.114 163.282 451.401 160.997 454.222 160.997Z" fill="#611FF3"/>
<path d="M454.222 128.797C457.044 128.797 459.331 131.083 459.331 133.902C459.331 136.721 457.044 139.007 454.222 139.007C451.401 139.007 449.114 136.721 449.114 133.902C449.114 131.083 451.401 128.797 454.222 128.797Z" fill="#611FF3"/>
<path d="M454.222 96.598C457.044 96.598 459.331 98.8834 459.331 101.703C459.331 104.522 457.044 106.807 454.222 106.807C451.401 106.807 449.114 104.522 449.114 101.703C449.114 98.8834 451.401 96.598 454.222 96.598Z" fill="#611FF3"/>
<path d="M454.222 64.3986C457.044 64.3986 459.331 66.6841 459.331 69.5034C459.331 72.3227 457.044 74.6082 454.222 74.6082C451.401 74.6082 449.114 72.3227 449.114 69.5034C449.114 66.6841 451.401 64.3986 454.222 64.3986Z" fill="#611FF3"/>
<path d="M454.222 32.1993C457.044 32.1993 459.331 34.4848 459.331 37.3041C459.331 40.1234 457.044 42.4088 454.222 42.4088C451.401 42.4088 449.114 40.1234 449.114 37.3041C449.114 34.4848 451.401 32.1993 454.222 32.1993Z" fill="#611FF3"/>
<path d="M454.222 0C457.044 0 459.331 2.28546 459.331 5.10477C459.331 7.92404 457.044 10.2095 454.222 10.2095C451.401 10.2095 449.114 7.92404 449.114 5.10477C449.114 2.28546 451.401 0 454.222 0Z" fill="#611FF3"/>
<path d="M486.445 450.79C489.266 450.79 491.553 453.076 491.553 455.895C491.553 458.715 489.266 461 486.445 461C483.624 461 481.336 458.715 481.336 455.895C481.336 453.076 483.624 450.79 486.445 450.79Z" fill="#611FF3"/>
<path d="M486.445 418.591C489.266 418.591 491.553 420.877 491.553 423.696C491.553 426.515 489.266 428.801 486.445 428.801C483.624 428.801 481.336 426.515 481.336 423.696C481.336 420.877 483.624 418.591 486.445 418.591Z" fill="#611FF3"/>
<path d="M486.445 386.392C489.266 386.392 491.553 388.677 491.553 391.497C491.553 394.316 489.266 396.601 486.445 396.601C483.624 396.601 481.336 394.316 481.336 391.497C481.336 388.677 483.624 386.392 486.445 386.392Z" fill="#611FF3"/>
<path d="M486.445 354.193C489.266 354.193 491.553 356.478 491.553 359.297C491.553 362.117 489.266 364.402 486.445 364.402C483.624 364.402 481.336 362.117 481.336 359.297C481.336 356.478 483.624 354.193 486.445 354.193Z" fill="#611FF3"/>
<path d="M486.445 321.993C489.266 321.993 491.553 324.279 491.553 327.098C491.553 329.917 489.266 332.203 486.445 332.203C483.624 332.203 481.336 329.917 481.336 327.098C481.336 324.279 483.624 321.993 486.445 321.993Z" fill="#611FF3"/>
<path d="M486.445 289.794C489.266 289.794 491.553 292.079 491.553 294.899C491.553 297.718 489.266 300.003 486.445 300.003C483.624 300.003 481.336 297.718 481.336 294.899C481.336 292.079 483.624 289.794 486.445 289.794Z" fill="#611FF3"/>
<path d="M486.445 257.595C489.266 257.595 491.553 259.88 491.553 262.699C491.553 265.519 489.266 267.804 486.445 267.804C483.624 267.804 481.336 265.519 481.336 262.699C481.336 259.88 483.624 257.595 486.445 257.595Z" fill="#611FF3"/>
<path d="M486.445 225.395C489.266 225.395 491.553 227.681 491.553 230.5C491.553 233.319 489.266 235.605 486.445 235.605C483.624 235.605 481.336 233.319 481.336 230.5C481.336 227.681 483.624 225.395 486.445 225.395Z" fill="#611FF3"/>
<path d="M486.445 193.196C489.266 193.196 491.553 195.481 491.553 198.301C491.553 201.12 489.266 203.405 486.445 203.405C483.624 203.405 481.336 201.12 481.336 198.301C481.336 195.481 483.624 193.196 486.445 193.196Z" fill="#611FF3"/>
<path d="M486.445 160.997C489.266 160.997 491.553 163.282 491.553 166.101C491.553 168.921 489.266 171.206 486.445 171.206C483.624 171.206 481.336 168.921 481.336 166.101C481.336 163.282 483.624 160.997 486.445 160.997Z" fill="#611FF3"/>
<path d="M486.445 128.797C489.266 128.797 491.553 131.083 491.553 133.902C491.553 136.721 489.266 139.007 486.445 139.007C483.624 139.007 481.336 136.721 481.336 133.902C481.336 131.083 483.624 128.797 486.445 128.797Z" fill="#611FF3"/>
<path d="M486.445 96.598C489.266 96.598 491.553 98.8834 491.553 101.703C491.553 104.522 489.266 106.807 486.445 106.807C483.624 106.807 481.336 104.522 481.336 101.703C481.336 98.8834 483.624 96.598 486.445 96.598Z" fill="#611FF3"/>
<path d="M486.445 64.3986C489.266 64.3986 491.553 66.6841 491.553 69.5034C491.553 72.3227 489.266 74.6082 486.445 74.6082C483.624 74.6082 481.336 72.3227 481.336 69.5034C481.336 66.6841 483.624 64.3986 486.445 64.3986Z" fill="#611FF3"/>
<path d="M486.445 32.1993C489.266 32.1993 491.553 34.4848 491.553 37.3041C491.553 40.1234 489.266 42.4088 486.445 42.4088C483.624 42.4088 481.336 40.1234 481.336 37.3041C481.336 34.4848 483.624 32.1993 486.445 32.1993Z" fill="#611FF3"/>
<path d="M486.445 0C489.266 0 491.553 2.28546 491.553 5.10477C491.553 7.92404 489.266 10.2095 486.445 10.2095C483.624 10.2095 481.336 7.92404 481.336 5.10477C481.336 2.28546 483.624 0 486.445 0Z" fill="#611FF3"/>
<path d="M518.667 450.79C521.489 450.79 523.776 453.076 523.776 455.895C523.776 458.715 521.489 461 518.667 461C515.846 461 513.559 458.715 513.559 455.895C513.559 453.076 515.846 450.79 518.667 450.79Z" fill="#611FF3"/>
<path d="M518.667 418.591C521.489 418.591 523.776 420.877 523.776 423.696C523.776 426.515 521.489 428.801 518.667 428.801C515.846 428.801 513.559 426.515 513.559 423.696C513.559 420.877 515.846 418.591 518.667 418.591Z" fill="#611FF3"/>
<path d="M518.667 386.392C521.489 386.392 523.776 388.677 523.776 391.497C523.776 394.316 521.489 396.601 518.667 396.601C515.846 396.601 513.559 394.316 513.559 391.497C513.559 388.677 515.846 386.392 518.667 386.392Z" fill="#611FF3"/>
<path d="M518.667 354.193C521.489 354.193 523.776 356.478 523.776 359.297C523.776 362.117 521.489 364.402 518.667 364.402C515.846 364.402 513.559 362.117 513.559 359.297C513.559 356.478 515.846 354.193 518.667 354.193Z" fill="#611FF3"/>
<path d="M518.667 321.993C521.489 321.993 523.776 324.279 523.776 327.098C523.776 329.917 521.489 332.203 518.667 332.203C515.846 332.203 513.559 329.917 513.559 327.098C513.559 324.279 515.846 321.993 518.667 321.993Z" fill="#611FF3"/>
<path d="M518.667 289.794C521.489 289.794 523.776 292.079 523.776 294.899C523.776 297.718 521.489 300.003 518.667 300.003C515.846 300.003 513.559 297.718 513.559 294.899C513.559 292.079 515.846 289.794 518.667 289.794Z" fill="#611FF3"/>
<path d="M518.667 257.595C521.489 257.595 523.776 259.88 523.776 262.699C523.776 265.519 521.489 267.804 518.667 267.804C515.846 267.804 513.559 265.519 513.559 262.699C513.559 259.88 515.846 257.595 518.667 257.595Z" fill="#611FF3"/>
<path d="M518.667 225.395C521.489 225.395 523.776 227.681 523.776 230.5C523.776 233.319 521.489 235.605 518.667 235.605C515.846 235.605 513.559 233.319 513.559 230.5C513.559 227.681 515.846 225.395 518.667 225.395Z" fill="#611FF3"/>
<path d="M518.667 193.196C521.489 193.196 523.776 195.481 523.776 198.301C523.776 201.12 521.489 203.405 518.667 203.405C515.846 203.405 513.559 201.12 513.559 198.301C513.559 195.481 515.846 193.196 518.667 193.196Z" fill="#611FF3"/>
<path d="M518.667 160.997C521.489 160.997 523.776 163.282 523.776 166.101C523.776 168.921 521.489 171.206 518.667 171.206C515.846 171.206 513.559 168.921 513.559 166.101C513.559 163.282 515.846 160.997 518.667 160.997Z" fill="#611FF3"/>
<path d="M518.667 128.797C521.489 128.797 523.776 131.083 523.776 133.902C523.776 136.721 521.489 139.007 518.667 139.007C515.846 139.007 513.559 136.721 513.559 133.902C513.559 131.083 515.846 128.797 518.667 128.797Z" fill="#611FF3"/>
<path d="M518.667 96.598C521.489 96.598 523.776 98.8834 523.776 101.703C523.776 104.522 521.489 106.807 518.667 106.807C515.846 106.807 513.559 104.522 513.559 101.703C513.559 98.8834 515.846 96.598 518.667 96.598Z" fill="#611FF3"/>
<path d="M518.667 64.3986C521.489 64.3986 523.776 66.6841 523.776 69.5034C523.776 72.3227 521.489 74.6082 518.667 74.6082C515.846 74.6082 513.559 72.3227 513.559 69.5034C513.559 66.6841 515.846 64.3986 518.667 64.3986Z" fill="#611FF3"/>
<path d="M518.667 32.1993C521.489 32.1993 523.776 34.4848 523.776 37.3041C523.776 40.1234 521.489 42.4088 518.667 42.4088C515.846 42.4088 513.559 40.1234 513.559 37.3041C513.559 34.4848 515.846 32.1993 518.667 32.1993Z" fill="#611FF3"/>
<path d="M518.667 0C521.489 0 523.776 2.28546 523.776 5.10477C523.776 7.92404 521.489 10.2095 518.667 10.2095C515.846 10.2095 513.559 7.92404 513.559 5.10477C513.559 2.28546 515.846 0 518.667 0Z" fill="#611FF3"/>
<path d="M550.89 450.79C553.711 450.79 555.998 453.076 555.998 455.895C555.998 458.715 553.711 461 550.89 461C548.068 461 545.781 458.715 545.781 455.895C545.781 453.076 548.068 450.79 550.89 450.79Z" fill="#611FF3"/>
<path d="M550.89 418.591C553.711 418.591 555.998 420.877 555.998 423.696C555.998 426.515 553.711 428.801 550.89 428.801C548.068 428.801 545.781 426.515 545.781 423.696C545.781 420.877 548.068 418.591 550.89 418.591Z" fill="#611FF3"/>
<path d="M550.89 386.392C553.711 386.392 555.998 388.677 555.998 391.497C555.998 394.316 553.711 396.601 550.89 396.601C548.068 396.601 545.781 394.316 545.781 391.497C545.781 388.677 548.068 386.392 550.89 386.392Z" fill="#611FF3"/>
<path d="M550.89 354.193C553.711 354.193 555.998 356.478 555.998 359.297C555.998 362.117 553.711 364.402 550.89 364.402C548.068 364.402 545.781 362.117 545.781 359.297C545.781 356.478 548.068 354.193 550.89 354.193Z" fill="#611FF3"/>
<path d="M550.89 321.993C553.711 321.993 555.998 324.279 555.998 327.098C555.998 329.917 553.711 332.203 550.89 332.203C548.068 332.203 545.781 329.917 545.781 327.098C545.781 324.279 548.068 321.993 550.89 321.993Z" fill="#611FF3"/>
<path d="M550.89 289.794C553.711 289.794 555.998 292.079 555.998 294.899C555.998 297.718 553.711 300.003 550.89 300.003C548.068 300.003 545.781 297.718 545.781 294.899C545.781 292.079 548.068 289.794 550.89 289.794Z" fill="#611FF3"/>
<path d="M550.89 257.595C553.711 257.595 555.998 259.88 555.998 262.699C555.998 265.519 553.711 267.804 550.89 267.804C548.068 267.804 545.781 265.519 545.781 262.699C545.781 259.88 548.068 257.595 550.89 257.595Z" fill="#611FF3"/>
<path d="M550.89 225.395C553.711 225.395 555.998 227.681 555.998 230.5C555.998 233.319 553.711 235.605 550.89 235.605C548.068 235.605 545.781 233.319 545.781 230.5C545.781 227.681 548.068 225.395 550.89 225.395Z" fill="#611FF3"/>
<path d="M550.89 193.196C553.711 193.196 555.998 195.481 555.998 198.301C555.998 201.12 553.711 203.405 550.89 203.405C548.068 203.405 545.781 201.12 545.781 198.301C545.781 195.481 548.068 193.196 550.89 193.196Z" fill="#611FF3"/>
<path d="M550.89 160.997C553.711 160.997 555.998 163.282 555.998 166.101C555.998 168.921 553.711 171.206 550.89 171.206C548.068 171.206 545.781 168.921 545.781 166.101C545.781 163.282 548.068 160.997 550.89 160.997Z" fill="#611FF3"/>
<path d="M550.89 128.797C553.711 128.797 555.998 131.083 555.998 133.902C555.998 136.721 553.711 139.007 550.89 139.007C548.068 139.007 545.781 136.721 545.781 133.902C545.781 131.083 548.068 128.797 550.89 128.797Z" fill="#611FF3"/>
<path d="M550.89 96.598C553.711 96.598 555.998 98.8834 555.998 101.703C555.998 104.522 553.711 106.807 550.89 106.807C548.068 106.807 545.781 104.522 545.781 101.703C545.781 98.8834 548.068 96.598 550.89 96.598Z" fill="#611FF3"/>
<path d="M550.89 64.3986C553.711 64.3986 555.998 66.6841 555.998 69.5034C555.998 72.3227 553.711 74.6082 550.89 74.6082C548.068 74.6082 545.781 72.3227 545.781 69.5034C545.781 66.6841 548.068 64.3986 550.89 64.3986Z" fill="#611FF3"/>
<path d="M550.89 32.1993C553.711 32.1993 555.998 34.4848 555.998 37.3041C555.998 40.1234 553.711 42.4088 550.89 42.4088C548.068 42.4088 545.781 40.1234 545.781 37.3041C545.781 34.4848 548.068 32.1993 550.89 32.1993Z" fill="#611FF3"/>
<path d="M550.89 0C553.711 0 555.998 2.28546 555.998 5.10477C555.998 7.92404 553.711 10.2095 550.89 10.2095C548.068 10.2095 545.781 7.92404 545.781 5.10477C545.781 2.28546 548.068 0 550.89 0Z" fill="#611FF3"/>
<path d="M583.112 450.79C585.933 450.79 588.221 453.076 588.221 455.895C588.221 458.715 585.933 461 583.112 461C580.291 461 578.004 458.715 578.004 455.895C578.004 453.076 580.291 450.79 583.112 450.79Z" fill="#611FF3"/>
<path d="M583.112 418.591C585.933 418.591 588.221 420.877 588.221 423.696C588.221 426.515 585.933 428.801 583.112 428.801C580.291 428.801 578.004 426.515 578.004 423.696C578.004 420.877 580.291 418.591 583.112 418.591Z" fill="#611FF3"/>
<path d="M583.112 386.392C585.933 386.392 588.221 388.677 588.221 391.497C588.221 394.316 585.933 396.601 583.112 396.601C580.291 396.601 578.004 394.316 578.004 391.497C578.004 388.677 580.291 386.392 583.112 386.392Z" fill="#611FF3"/>
<path d="M583.112 354.193C585.933 354.193 588.221 356.478 588.221 359.297C588.221 362.117 585.933 364.402 583.112 364.402C580.291 364.402 578.004 362.117 578.004 359.297C578.004 356.478 580.291 354.193 583.112 354.193Z" fill="#611FF3"/>
<path d="M583.112 321.993C585.933 321.993 588.221 324.279 588.221 327.098C588.221 329.917 585.933 332.203 583.112 332.203C580.291 332.203 578.004 329.917 578.004 327.098C578.004 324.279 580.291 321.993 583.112 321.993Z" fill="#611FF3"/>
<path d="M583.112 289.794C585.933 289.794 588.221 292.079 588.221 294.899C588.221 297.718 585.933 300.003 583.112 300.003C580.291 300.003 578.004 297.718 578.004 294.899C578.004 292.079 580.291 289.794 583.112 289.794Z" fill="#611FF3"/>
<path d="M583.112 257.595C585.933 257.595 588.221 259.88 588.221 262.699C588.221 265.519 585.933 267.804 583.112 267.804C580.291 267.804 578.004 265.519 578.004 262.699C578.004 259.88 580.291 257.595 583.112 257.595Z" fill="#611FF3"/>
<path d="M583.112 225.395C585.933 225.395 588.221 227.681 588.221 230.5C588.221 233.319 585.933 235.605 583.112 235.605C580.291 235.605 578.004 233.319 578.004 230.5C578.004 227.681 580.291 225.395 583.112 225.395Z" fill="#611FF3"/>
<path d="M583.112 193.196C585.933 193.196 588.221 195.481 588.221 198.301C588.221 201.12 585.933 203.405 583.112 203.405C580.291 203.405 578.004 201.12 578.004 198.301C578.004 195.481 580.291 193.196 583.112 193.196Z" fill="#611FF3"/>
<path d="M583.112 160.997C585.933 160.997 588.221 163.282 588.221 166.101C588.221 168.921 585.933 171.206 583.112 171.206C580.291 171.206 578.004 168.921 578.004 166.101C578.004 163.282 580.291 160.997 583.112 160.997Z" fill="#611FF3"/>
<path d="M583.112 128.797C585.933 128.797 588.221 131.083 588.221 133.902C588.221 136.721 585.933 139.007 583.112 139.007C580.291 139.007 578.004 136.721 578.004 133.902C578.004 131.083 580.291 128.797 583.112 128.797Z" fill="#611FF3"/>
<path d="M583.112 96.598C585.933 96.598 588.221 98.8834 588.221 101.703C588.221 104.522 585.933 106.807 583.112 106.807C580.291 106.807 578.004 104.522 578.004 101.703C578.004 98.8834 580.291 96.598 583.112 96.598Z" fill="#611FF3"/>
<path d="M583.112 64.3986C585.933 64.3986 588.221 66.6841 588.221 69.5034C588.221 72.3227 585.933 74.6082 583.112 74.6082C580.291 74.6082 578.004 72.3227 578.004 69.5034C578.004 66.6841 580.291 64.3986 583.112 64.3986Z" fill="#611FF3"/>
<path d="M583.112 32.1993C585.933 32.1993 588.221 34.4848 588.221 37.3041C588.221 40.1234 585.933 42.4088 583.112 42.4088C580.291 42.4088 578.004 40.1234 578.004 37.3041C578.004 34.4848 580.291 32.1993 583.112 32.1993Z" fill="#611FF3"/>
<path d="M583.112 0C585.933 0 588.221 2.28546 588.221 5.10477C588.221 7.92404 585.933 10.2095 583.112 10.2095C580.291 10.2095 578.004 7.92404 578.004 5.10477C578.004 2.28546 580.291 0 583.112 0Z" fill="#611FF3"/>
<path d="M615.335 450.79C618.156 450.79 620.443 453.076 620.443 455.895C620.443 458.715 618.156 461 615.335 461C612.513 461 610.226 458.715 610.226 455.895C610.226 453.076 612.513 450.79 615.335 450.79Z" fill="#611FF3"/>
<path d="M615.335 418.591C618.156 418.591 620.443 420.877 620.443 423.696C620.443 426.515 618.156 428.801 615.335 428.801C612.513 428.801 610.226 426.515 610.226 423.696C610.226 420.877 612.513 418.591 615.335 418.591Z" fill="#611FF3"/>
<path d="M615.335 386.392C618.156 386.392 620.443 388.677 620.443 391.497C620.443 394.316 618.156 396.601 615.335 396.601C612.513 396.601 610.226 394.316 610.226 391.497C610.226 388.677 612.513 386.392 615.335 386.392Z" fill="#611FF3"/>
<path d="M615.335 354.193C618.156 354.193 620.443 356.478 620.443 359.297C620.443 362.117 618.156 364.402 615.335 364.402C612.513 364.402 610.226 362.117 610.226 359.297C610.226 356.478 612.513 354.193 615.335 354.193Z" fill="#611FF3"/>
<path d="M615.335 321.993C618.156 321.993 620.443 324.279 620.443 327.098C620.443 329.917 618.156 332.203 615.335 332.203C612.513 332.203 610.226 329.917 610.226 327.098C610.226 324.279 612.513 321.993 615.335 321.993Z" fill="#611FF3"/>
<path d="M615.335 289.794C618.156 289.794 620.443 292.079 620.443 294.899C620.443 297.718 618.156 300.003 615.335 300.003C612.513 300.003 610.226 297.718 610.226 294.899C610.226 292.079 612.513 289.794 615.335 289.794Z" fill="#611FF3"/>
<path d="M615.335 257.595C618.156 257.595 620.443 259.88 620.443 262.699C620.443 265.519 618.156 267.804 615.335 267.804C612.513 267.804 610.226 265.519 610.226 262.699C610.226 259.88 612.513 257.595 615.335 257.595Z" fill="#611FF3"/>
<path d="M615.335 225.395C618.156 225.395 620.443 227.681 620.443 230.5C620.443 233.319 618.156 235.605 615.335 235.605C612.513 235.605 610.226 233.319 610.226 230.5C610.226 227.681 612.513 225.395 615.335 225.395Z" fill="#611FF3"/>
<path d="M615.335 193.196C618.156 193.196 620.443 195.481 620.443 198.301C620.443 201.12 618.156 203.405 615.335 203.405C612.513 203.405 610.226 201.12 610.226 198.301C610.226 195.481 612.513 193.196 615.335 193.196Z" fill="#611FF3"/>
<path d="M615.335 160.997C618.156 160.997 620.443 163.282 620.443 166.101C620.443 168.921 618.156 171.206 615.335 171.206C612.513 171.206 610.226 168.921 610.226 166.101C610.226 163.282 612.513 160.997 615.335 160.997Z" fill="#611FF3"/>
<path d="M615.335 128.797C618.156 128.797 620.443 131.083 620.443 133.902C620.443 136.721 618.156 139.007 615.335 139.007C612.513 139.007 610.226 136.721 610.226 133.902C610.226 131.083 612.513 128.797 615.335 128.797Z" fill="#611FF3"/>
<path d="M615.335 96.598C618.156 96.598 620.443 98.8834 620.443 101.703C620.443 104.522 618.156 106.807 615.335 106.807C612.513 106.807 610.226 104.522 610.226 101.703C610.226 98.8834 612.513 96.598 615.335 96.598Z" fill="#611FF3"/>
<path d="M615.335 64.3986C618.156 64.3986 620.443 66.6841 620.443 69.5034C620.443 72.3227 618.156 74.6082 615.335 74.6082C612.513 74.6082 610.226 72.3227 610.226 69.5034C610.226 66.6841 612.513 64.3986 615.335 64.3986Z" fill="#611FF3"/>
<path d="M615.335 32.1993C618.156 32.1993 620.443 34.4848 620.443 37.3041C620.443 40.1234 618.156 42.4088 615.335 42.4088C612.513 42.4088 610.226 40.1234 610.226 37.3041C610.226 34.4848 612.513 32.1993 615.335 32.1993Z" fill="#611FF3"/>
<path d="M615.335 0C618.156 0 620.443 2.28546 620.443 5.10477C620.443 7.92404 618.156 10.2095 615.335 10.2095C612.513 10.2095 610.226 7.92404 610.226 5.10477C610.226 2.28546 612.513 0 615.335 0Z" fill="#611FF3"/>
<path d="M647.557 450.79C650.378 450.79 652.665 453.076 652.665 455.895C652.665 458.715 650.378 461 647.557 461C644.736 461 642.449 458.715 642.449 455.895C642.449 453.076 644.736 450.79 647.557 450.79Z" fill="#611FF3"/>
<path d="M647.557 418.591C650.378 418.591 652.665 420.877 652.665 423.696C652.665 426.515 650.378 428.801 647.557 428.801C644.736 428.801 642.449 426.515 642.449 423.696C642.449 420.877 644.736 418.591 647.557 418.591Z" fill="#611FF3"/>
<path d="M647.557 386.392C650.378 386.392 652.665 388.677 652.665 391.497C652.665 394.316 650.378 396.601 647.557 396.601C644.736 396.601 642.449 394.316 642.449 391.497C642.449 388.677 644.736 386.392 647.557 386.392Z" fill="#611FF3"/>
<path d="M647.557 354.193C650.378 354.193 652.665 356.478 652.665 359.297C652.665 362.117 650.378 364.402 647.557 364.402C644.736 364.402 642.449 362.117 642.449 359.297C642.449 356.478 644.736 354.193 647.557 354.193Z" fill="#611FF3"/>
<path d="M647.557 321.993C650.378 321.993 652.665 324.279 652.665 327.098C652.665 329.917 650.378 332.203 647.557 332.203C644.736 332.203 642.449 329.917 642.449 327.098C642.449 324.279 644.736 321.993 647.557 321.993Z" fill="#611FF3"/>
<path d="M647.557 289.794C650.378 289.794 652.665 292.079 652.665 294.899C652.665 297.718 650.378 300.003 647.557 300.003C644.736 300.003 642.449 297.718 642.449 294.899C642.449 292.079 644.736 289.794 647.557 289.794Z" fill="#611FF3"/>
<path d="M647.557 257.595C650.378 257.595 652.665 259.88 652.665 262.699C652.665 265.519 650.378 267.804 647.557 267.804C644.736 267.804 642.449 265.519 642.449 262.699C642.449 259.88 644.736 257.595 647.557 257.595Z" fill="#611FF3"/>
<path d="M647.557 225.395C650.378 225.395 652.665 227.681 652.665 230.5C652.665 233.319 650.378 235.605 647.557 235.605C644.736 235.605 642.449 233.319 642.449 230.5C642.449 227.681 644.736 225.395 647.557 225.395Z" fill="#611FF3"/>
<path d="M647.557 193.196C650.378 193.196 652.665 195.481 652.665 198.301C652.665 201.12 650.378 203.405 647.557 203.405C644.736 203.405 642.449 201.12 642.449 198.301C642.449 195.481 644.736 193.196 647.557 193.196Z" fill="#611FF3"/>
<path d="M647.557 160.997C650.378 160.997 652.665 163.282 652.665 166.101C652.665 168.921 650.378 171.206 647.557 171.206C644.736 171.206 642.449 168.921 642.449 166.101C642.449 163.282 644.736 160.997 647.557 160.997Z" fill="#611FF3"/>
<path d="M647.557 128.797C650.378 128.797 652.665 131.083 652.665 133.902C652.665 136.721 650.378 139.007 647.557 139.007C644.736 139.007 642.449 136.721 642.449 133.902C642.449 131.083 644.736 128.797 647.557 128.797Z" fill="#611FF3"/>
<path d="M647.557 96.598C650.378 96.598 652.665 98.8834 652.665 101.703C652.665 104.522 650.378 106.807 647.557 106.807C644.736 106.807 642.449 104.522 642.449 101.703C642.449 98.8834 644.736 96.598 647.557 96.598Z" fill="#611FF3"/>
<path d="M647.557 64.3986C650.378 64.3986 652.665 66.6841 652.665 69.5034C652.665 72.3227 650.378 74.6082 647.557 74.6082C644.736 74.6082 642.449 72.3227 642.449 69.5034C642.449 66.6841 644.736 64.3986 647.557 64.3986Z" fill="#611FF3"/>
<path d="M647.557 32.1993C650.378 32.1993 652.665 34.4848 652.665 37.3041C652.665 40.1234 650.378 42.4088 647.557 42.4088C644.736 42.4088 642.449 40.1234 642.449 37.3041C642.449 34.4848 644.736 32.1993 647.557 32.1993Z" fill="#611FF3"/>
<path d="M647.557 0C650.378 0 652.665 2.28546 652.665 5.10477C652.665 7.92404 650.378 10.2095 647.557 10.2095C644.736 10.2095 642.449 7.92404 642.449 5.10477C642.449 2.28546 644.736 0 647.557 0Z" fill="#611FF3"/>
<path d="M679.779 450.79C682.601 450.79 684.888 453.076 684.888 455.895C684.888 458.715 682.601 461 679.779 461C676.958 461 674.671 458.715 674.671 455.895C674.671 453.076 676.958 450.79 679.779 450.79Z" fill="#611FF3"/>
<path d="M679.779 418.591C682.601 418.591 684.888 420.877 684.888 423.696C684.888 426.515 682.601 428.801 679.779 428.801C676.958 428.801 674.671 426.515 674.671 423.696C674.671 420.877 676.958 418.591 679.779 418.591Z" fill="#611FF3"/>
<path d="M679.779 386.392C682.601 386.392 684.888 388.677 684.888 391.497C684.888 394.316 682.601 396.601 679.779 396.601C676.958 396.601 674.671 394.316 674.671 391.497C674.671 388.677 676.958 386.392 679.779 386.392Z" fill="#611FF3"/>
<path d="M679.779 354.193C682.601 354.193 684.888 356.478 684.888 359.297C684.888 362.117 682.601 364.402 679.779 364.402C676.958 364.402 674.671 362.117 674.671 359.297C674.671 356.478 676.958 354.193 679.779 354.193Z" fill="#611FF3"/>
<path d="M679.779 321.993C682.601 321.993 684.888 324.279 684.888 327.098C684.888 329.917 682.601 332.203 679.779 332.203C676.958 332.203 674.671 329.917 674.671 327.098C674.671 324.279 676.958 321.993 679.779 321.993Z" fill="#611FF3"/>
<path d="M679.779 289.794C682.601 289.794 684.888 292.079 684.888 294.899C684.888 297.718 682.601 300.003 679.779 300.003C676.958 300.003 674.671 297.718 674.671 294.899C674.671 292.079 676.958 289.794 679.779 289.794Z" fill="#611FF3"/>
<path d="M679.779 257.595C682.601 257.595 684.888 259.88 684.888 262.699C684.888 265.519 682.601 267.804 679.779 267.804C676.958 267.804 674.671 265.519 674.671 262.699C674.671 259.88 676.958 257.595 679.779 257.595Z" fill="#611FF3"/>
<path d="M679.779 225.395C682.601 225.395 684.888 227.681 684.888 230.5C684.888 233.319 682.601 235.605 679.779 235.605C676.958 235.605 674.671 233.319 674.671 230.5C674.671 227.681 676.958 225.395 679.779 225.395Z" fill="#611FF3"/>
<path d="M679.779 193.196C682.601 193.196 684.888 195.481 684.888 198.301C684.888 201.12 682.601 203.405 679.779 203.405C676.958 203.405 674.671 201.12 674.671 198.301C674.671 195.481 676.958 193.196 679.779 193.196Z" fill="#611FF3"/>
<path d="M679.779 160.997C682.601 160.997 684.888 163.282 684.888 166.101C684.888 168.921 682.601 171.206 679.779 171.206C676.958 171.206 674.671 168.921 674.671 166.101C674.671 163.282 676.958 160.997 679.779 160.997Z" fill="#611FF3"/>
<path d="M679.779 128.797C682.601 128.797 684.888 131.083 684.888 133.902C684.888 136.721 682.601 139.007 679.779 139.007C676.958 139.007 674.671 136.721 674.671 133.902C674.671 131.083 676.958 128.797 679.779 128.797Z" fill="#611FF3"/>
<path d="M679.779 96.598C682.601 96.598 684.888 98.8834 684.888 101.703C684.888 104.522 682.601 106.807 679.779 106.807C676.958 106.807 674.671 104.522 674.671 101.703C674.671 98.8834 676.958 96.598 679.779 96.598Z" fill="#611FF3"/>
<path d="M679.779 64.3986C682.601 64.3986 684.888 66.6841 684.888 69.5034C684.888 72.3227 682.601 74.6082 679.779 74.6082C676.958 74.6082 674.671 72.3227 674.671 69.5034C674.671 66.6841 676.958 64.3986 679.779 64.3986Z" fill="#611FF3"/>
<path d="M679.779 32.1993C682.601 32.1993 684.888 34.4848 684.888 37.3041C684.888 40.1234 682.601 42.4088 679.779 42.4088C676.958 42.4088 674.671 40.1234 674.671 37.3041C674.671 34.4848 676.958 32.1993 679.779 32.1993Z" fill="#611FF3"/>
<path d="M679.779 0C682.601 0 684.888 2.28546 684.888 5.10477C684.888 7.92404 682.601 10.2095 679.779 10.2095C676.958 10.2095 674.671 7.92404 674.671 5.10477C674.671 2.28546 676.958 0 679.779 0Z" fill="#611FF3"/>
<path d="M712.002 450.79C714.823 450.79 717.11 453.076 717.11 455.895C717.11 458.715 714.823 461 712.002 461C709.181 461 706.893 458.715 706.893 455.895C706.893 453.076 709.181 450.79 712.002 450.79Z" fill="#611FF3"/>
<path d="M712.002 418.591C714.823 418.591 717.11 420.877 717.11 423.696C717.11 426.515 714.823 428.801 712.002 428.801C709.181 428.801 706.893 426.515 706.893 423.696C706.893 420.877 709.181 418.591 712.002 418.591Z" fill="#611FF3"/>
<path d="M712.002 386.392C714.823 386.392 717.11 388.677 717.11 391.497C717.11 394.316 714.823 396.601 712.002 396.601C709.181 396.601 706.893 394.316 706.893 391.497C706.893 388.677 709.181 386.392 712.002 386.392Z" fill="#611FF3"/>
<path d="M712.002 354.193C714.823 354.193 717.11 356.478 717.11 359.297C717.11 362.117 714.823 364.402 712.002 364.402C709.181 364.402 706.893 362.117 706.893 359.297C706.893 356.478 709.181 354.193 712.002 354.193Z" fill="#611FF3"/>
<path d="M712.002 321.993C714.823 321.993 717.11 324.279 717.11 327.098C717.11 329.917 714.823 332.203 712.002 332.203C709.181 332.203 706.893 329.917 706.893 327.098C706.893 324.279 709.181 321.993 712.002 321.993Z" fill="#611FF3"/>
<path d="M712.002 289.794C714.823 289.794 717.11 292.079 717.11 294.899C717.11 297.718 714.823 300.003 712.002 300.003C709.181 300.003 706.893 297.718 706.893 294.899C706.893 292.079 709.181 289.794 712.002 289.794Z" fill="#611FF3"/>
<path d="M712.002 257.595C714.823 257.595 717.11 259.88 717.11 262.699C717.11 265.519 714.823 267.804 712.002 267.804C709.181 267.804 706.893 265.519 706.893 262.699C706.893 259.88 709.181 257.595 712.002 257.595Z" fill="#611FF3"/>
<path d="M712.002 225.395C714.823 225.395 717.11 227.681 717.11 230.5C717.11 233.319 714.823 235.605 712.002 235.605C709.181 235.605 706.893 233.319 706.893 230.5C706.893 227.681 709.181 225.395 712.002 225.395Z" fill="#611FF3"/>
<path d="M712.002 193.196C714.823 193.196 717.11 195.481 717.11 198.301C717.11 201.12 714.823 203.405 712.002 203.405C709.181 203.405 706.893 201.12 706.893 198.301C706.893 195.481 709.181 193.196 712.002 193.196Z" fill="#611FF3"/>
<path d="M712.002 160.997C714.823 160.997 717.11 163.282 717.11 166.101C717.11 168.921 714.823 171.206 712.002 171.206C709.181 171.206 706.893 168.921 706.893 166.101C706.893 163.282 709.181 160.997 712.002 160.997Z" fill="#611FF3"/>
<path d="M712.002 128.797C714.823 128.797 717.11 131.083 717.11 133.902C717.11 136.721 714.823 139.007 712.002 139.007C709.181 139.007 706.893 136.721 706.893 133.902C706.893 131.083 709.181 128.797 712.002 128.797Z" fill="#611FF3"/>
<path d="M712.002 96.598C714.823 96.598 717.11 98.8834 717.11 101.703C717.11 104.522 714.823 106.807 712.002 106.807C709.181 106.807 706.893 104.522 706.893 101.703C706.893 98.8834 709.181 96.598 712.002 96.598Z" fill="#611FF3"/>
<path d="M712.002 64.3986C714.823 64.3986 717.11 66.6841 717.11 69.5034C717.11 72.3227 714.823 74.6082 712.002 74.6082C709.181 74.6082 706.893 72.3227 706.893 69.5034C706.893 66.6841 709.181 64.3986 712.002 64.3986Z" fill="#611FF3"/>
<path d="M712.002 32.1993C714.823 32.1993 717.11 34.4848 717.11 37.3041C717.11 40.1234 714.823 42.4088 712.002 42.4088C709.181 42.4088 706.893 40.1234 706.893 37.3041C706.893 34.4848 709.181 32.1993 712.002 32.1993Z" fill="#611FF3"/>
<path d="M712.002 0C714.823 0 717.11 2.28546 717.11 5.10477C717.11 7.92404 714.823 10.2095 712.002 10.2095C709.181 10.2095 706.893 7.92404 706.893 5.10477C706.893 2.28546 709.181 0 712.002 0Z" fill="#611FF3"/>
<path d="M744.224 450.79C747.046 450.79 749.333 453.076 749.333 455.895C749.333 458.715 747.046 461 744.224 461C741.403 461 739.116 458.715 739.116 455.895C739.116 453.076 741.403 450.79 744.224 450.79Z" fill="#611FF3"/>
<path d="M744.224 418.591C747.046 418.591 749.333 420.877 749.333 423.696C749.333 426.515 747.046 428.801 744.224 428.801C741.403 428.801 739.116 426.515 739.116 423.696C739.116 420.877 741.403 418.591 744.224 418.591Z" fill="#611FF3"/>
<path d="M744.224 386.392C747.046 386.392 749.333 388.677 749.333 391.497C749.333 394.316 747.046 396.601 744.224 396.601C741.403 396.601 739.116 394.316 739.116 391.497C739.116 388.677 741.403 386.392 744.224 386.392Z" fill="#611FF3"/>
<path d="M744.224 354.193C747.046 354.193 749.333 356.478 749.333 359.297C749.333 362.117 747.046 364.402 744.224 364.402C741.403 364.402 739.116 362.117 739.116 359.297C739.116 356.478 741.403 354.193 744.224 354.193Z" fill="#611FF3"/>
<path d="M744.224 321.993C747.046 321.993 749.333 324.279 749.333 327.098C749.333 329.917 747.046 332.203 744.224 332.203C741.403 332.203 739.116 329.917 739.116 327.098C739.116 324.279 741.403 321.993 744.224 321.993Z" fill="#611FF3"/>
<path d="M744.224 289.794C747.046 289.794 749.333 292.079 749.333 294.899C749.333 297.718 747.046 300.003 744.224 300.003C741.403 300.003 739.116 297.718 739.116 294.899C739.116 292.079 741.403 289.794 744.224 289.794Z" fill="#611FF3"/>
<path d="M744.224 257.595C747.046 257.595 749.333 259.88 749.333 262.699C749.333 265.519 747.046 267.804 744.224 267.804C741.403 267.804 739.116 265.519 739.116 262.699C739.116 259.88 741.403 257.595 744.224 257.595Z" fill="#611FF3"/>
<path d="M744.224 225.395C747.046 225.395 749.333 227.681 749.333 230.5C749.333 233.319 747.046 235.605 744.224 235.605C741.403 235.605 739.116 233.319 739.116 230.5C739.116 227.681 741.403 225.395 744.224 225.395Z" fill="#611FF3"/>
<path d="M744.224 193.196C747.046 193.196 749.333 195.481 749.333 198.301C749.333 201.12 747.046 203.405 744.224 203.405C741.403 203.405 739.116 201.12 739.116 198.301C739.116 195.481 741.403 193.196 744.224 193.196Z" fill="#611FF3"/>
<path d="M744.224 160.997C747.046 160.997 749.333 163.282 749.333 166.101C749.333 168.921 747.046 171.206 744.224 171.206C741.403 171.206 739.116 168.921 739.116 166.101C739.116 163.282 741.403 160.997 744.224 160.997Z" fill="#611FF3"/>
<path d="M744.224 128.797C747.046 128.797 749.333 131.083 749.333 133.902C749.333 136.721 747.046 139.007 744.224 139.007C741.403 139.007 739.116 136.721 739.116 133.902C739.116 131.083 741.403 128.797 744.224 128.797Z" fill="#611FF3"/>
<path d="M744.224 96.598C747.046 96.598 749.333 98.8834 749.333 101.703C749.333 104.522 747.046 106.807 744.224 106.807C741.403 106.807 739.116 104.522 739.116 101.703C739.116 98.8834 741.403 96.598 744.224 96.598Z" fill="#611FF3"/>
<path d="M744.224 64.3986C747.046 64.3986 749.333 66.6841 749.333 69.5034C749.333 72.3227 747.046 74.6082 744.224 74.6082C741.403 74.6082 739.116 72.3227 739.116 69.5034C739.116 66.6841 741.403 64.3986 744.224 64.3986Z" fill="#611FF3"/>
<path d="M744.224 32.1993C747.046 32.1993 749.333 34.4848 749.333 37.3041C749.333 40.1234 747.046 42.4088 744.224 42.4088C741.403 42.4088 739.116 40.1234 739.116 37.3041C739.116 34.4848 741.403 32.1993 744.224 32.1993Z" fill="#611FF3"/>
<path d="M744.224 0C747.046 0 749.333 2.28546 749.333 5.10477C749.333 7.92404 747.046 10.2095 744.224 10.2095C741.403 10.2095 739.116 7.92404 739.116 5.10477C739.116 2.28546 741.403 0 744.224 0Z" fill="#611FF3"/>
<path d="M776.447 450.79C779.268 450.79 781.555 453.076 781.555 455.895C781.555 458.715 779.268 461 776.447 461C773.625 461 771.338 458.715 771.338 455.895C771.338 453.076 773.625 450.79 776.447 450.79Z" fill="#611FF3"/>
<path d="M776.447 418.591C779.268 418.591 781.555 420.877 781.555 423.696C781.555 426.515 779.268 428.801 776.447 428.801C773.625 428.801 771.338 426.515 771.338 423.696C771.338 420.877 773.625 418.591 776.447 418.591Z" fill="#611FF3"/>
<path d="M776.447 386.392C779.268 386.392 781.555 388.677 781.555 391.497C781.555 394.316 779.268 396.601 776.447 396.601C773.625 396.601 771.338 394.316 771.338 391.497C771.338 388.677 773.625 386.392 776.447 386.392Z" fill="#611FF3"/>
<path d="M776.447 354.193C779.268 354.193 781.555 356.478 781.555 359.297C781.555 362.117 779.268 364.402 776.447 364.402C773.625 364.402 771.338 362.117 771.338 359.297C771.338 356.478 773.625 354.193 776.447 354.193Z" fill="#611FF3"/>
<path d="M776.447 321.993C779.268 321.993 781.555 324.279 781.555 327.098C781.555 329.917 779.268 332.203 776.447 332.203C773.625 332.203 771.338 329.917 771.338 327.098C771.338 324.279 773.625 321.993 776.447 321.993Z" fill="#611FF3"/>
<path d="M776.447 289.794C779.268 289.794 781.555 292.079 781.555 294.899C781.555 297.718 779.268 300.003 776.447 300.003C773.625 300.003 771.338 297.718 771.338 294.899C771.338 292.079 773.625 289.794 776.447 289.794Z" fill="#611FF3"/>
<path d="M776.447 257.595C779.268 257.595 781.555 259.88 781.555 262.699C781.555 265.519 779.268 267.804 776.447 267.804C773.625 267.804 771.338 265.519 771.338 262.699C771.338 259.88 773.625 257.595 776.447 257.595Z" fill="#611FF3"/>
<path d="M776.447 225.395C779.268 225.395 781.555 227.681 781.555 230.5C781.555 233.319 779.268 235.605 776.447 235.605C773.625 235.605 771.338 233.319 771.338 230.5C771.338 227.681 773.625 225.395 776.447 225.395Z" fill="#611FF3"/>
<path d="M776.447 193.196C779.268 193.196 781.555 195.481 781.555 198.301C781.555 201.12 779.268 203.405 776.447 203.405C773.625 203.405 771.338 201.12 771.338 198.301C771.338 195.481 773.625 193.196 776.447 193.196Z" fill="#611FF3"/>
<path d="M776.447 160.997C779.268 160.997 781.555 163.282 781.555 166.101C781.555 168.921 779.268 171.206 776.447 171.206C773.625 171.206 771.338 168.921 771.338 166.101C771.338 163.282 773.625 160.997 776.447 160.997Z" fill="#611FF3"/>
<path d="M776.447 128.797C779.268 128.797 781.555 131.083 781.555 133.902C781.555 136.721 779.268 139.007 776.447 139.007C773.625 139.007 771.338 136.721 771.338 133.902C771.338 131.083 773.625 128.797 776.447 128.797Z" fill="#611FF3"/>
<path d="M776.447 96.598C779.268 96.598 781.555 98.8834 781.555 101.703C781.555 104.522 779.268 106.807 776.447 106.807C773.625 106.807 771.338 104.522 771.338 101.703C771.338 98.8834 773.625 96.598 776.447 96.598Z" fill="#611FF3"/>
<path d="M776.447 64.3986C779.268 64.3986 781.555 66.6841 781.555 69.5034C781.555 72.3227 779.268 74.6082 776.447 74.6082C773.625 74.6082 771.338 72.3227 771.338 69.5034C771.338 66.6841 773.625 64.3986 776.447 64.3986Z" fill="#611FF3"/>
<path d="M776.447 32.1993C779.268 32.1993 781.555 34.4848 781.555 37.3041C781.555 40.1234 779.268 42.4088 776.447 42.4088C773.625 42.4088 771.338 40.1234 771.338 37.3041C771.338 34.4848 773.625 32.1993 776.447 32.1993Z" fill="#611FF3"/>
<path d="M776.447 0C779.268 0 781.555 2.28546 781.555 5.10477C781.555 7.92404 779.268 10.2095 776.447 10.2095C773.625 10.2095 771.338 7.92404 771.338 5.10477C771.338 2.28546 773.625 0 776.447 0Z" fill="#611FF3"/>
<path d="M808.669 450.79C811.49 450.79 813.778 453.076 813.778 455.895C813.778 458.715 811.49 461 808.669 461C805.848 461 803.561 458.715 803.561 455.895C803.561 453.076 805.848 450.79 808.669 450.79Z" fill="#611FF3"/>
<path d="M808.669 418.591C811.49 418.591 813.778 420.877 813.778 423.696C813.778 426.515 811.49 428.801 808.669 428.801C805.848 428.801 803.561 426.515 803.561 423.696C803.561 420.877 805.848 418.591 808.669 418.591Z" fill="#611FF3"/>
<path d="M808.669 386.392C811.49 386.392 813.778 388.677 813.778 391.497C813.778 394.316 811.49 396.601 808.669 396.601C805.848 396.601 803.561 394.316 803.561 391.497C803.561 388.677 805.848 386.392 808.669 386.392Z" fill="#611FF3"/>
<path d="M808.669 354.193C811.49 354.193 813.778 356.478 813.778 359.297C813.778 362.117 811.49 364.402 808.669 364.402C805.848 364.402 803.561 362.117 803.561 359.297C803.561 356.478 805.848 354.193 808.669 354.193Z" fill="#611FF3"/>
<path d="M808.669 321.993C811.49 321.993 813.778 324.279 813.778 327.098C813.778 329.917 811.49 332.203 808.669 332.203C805.848 332.203 803.561 329.917 803.561 327.098C803.561 324.279 805.848 321.993 808.669 321.993Z" fill="#611FF3"/>
<path d="M808.669 289.794C811.49 289.794 813.778 292.079 813.778 294.899C813.778 297.718 811.49 300.003 808.669 300.003C805.848 300.003 803.561 297.718 803.561 294.899C803.561 292.079 805.848 289.794 808.669 289.794Z" fill="#611FF3"/>
<path d="M808.669 257.595C811.49 257.595 813.778 259.88 813.778 262.699C813.778 265.519 811.49 267.804 808.669 267.804C805.848 267.804 803.561 265.519 803.561 262.699C803.561 259.88 805.848 257.595 808.669 257.595Z" fill="#611FF3"/>
<path d="M808.669 225.395C811.49 225.395 813.778 227.681 813.778 230.5C813.778 233.319 811.49 235.605 808.669 235.605C805.848 235.605 803.561 233.319 803.561 230.5C803.561 227.681 805.848 225.395 808.669 225.395Z" fill="#611FF3"/>
<path d="M808.669 193.196C811.49 193.196 813.778 195.481 813.778 198.301C813.778 201.12 811.49 203.405 808.669 203.405C805.848 203.405 803.561 201.12 803.561 198.301C803.561 195.481 805.848 193.196 808.669 193.196Z" fill="#611FF3"/>
<path d="M808.669 160.997C811.49 160.997 813.778 163.282 813.778 166.101C813.778 168.921 811.49 171.206 808.669 171.206C805.848 171.206 803.561 168.921 803.561 166.101C803.561 163.282 805.848 160.997 808.669 160.997Z" fill="#611FF3"/>
<path d="M808.669 128.797C811.49 128.797 813.778 131.083 813.778 133.902C813.778 136.721 811.49 139.007 808.669 139.007C805.848 139.007 803.561 136.721 803.561 133.902C803.561 131.083 805.848 128.797 808.669 128.797Z" fill="#611FF3"/>
<path d="M808.669 96.598C811.49 96.598 813.778 98.8834 813.778 101.703C813.778 104.522 811.49 106.807 808.669 106.807C805.848 106.807 803.561 104.522 803.561 101.703C803.561 98.8834 805.848 96.598 808.669 96.598Z" fill="#611FF3"/>
<path d="M808.669 64.3986C811.49 64.3986 813.778 66.6841 813.778 69.5034C813.778 72.3227 811.49 74.6082 808.669 74.6082C805.848 74.6082 803.561 72.3227 803.561 69.5034C803.561 66.6841 805.848 64.3986 808.669 64.3986Z" fill="#611FF3"/>
<path d="M808.669 32.1993C811.49 32.1993 813.778 34.4848 813.778 37.3041C813.778 40.1234 811.49 42.4088 808.669 42.4088C805.848 42.4088 803.561 40.1234 803.561 37.3041C803.561 34.4848 805.848 32.1993 808.669 32.1993Z" fill="#611FF3"/>
<path d="M808.669 0C811.49 0 813.778 2.28546 813.778 5.10477C813.778 7.92404 811.49 10.2095 808.669 10.2095C805.848 10.2095 803.561 7.92404 803.561 5.10477C803.561 2.28546 805.848 0 808.669 0Z" fill="#611FF3"/>
<path d="M840.892 450.79C843.713 450.79 846 453.076 846 455.895C846 458.715 843.713 461 840.892 461C838.07 461 835.783 458.715 835.783 455.895C835.783 453.076 838.07 450.79 840.892 450.79Z" fill="#611FF3"/>
<path d="M840.892 418.591C843.713 418.591 846 420.877 846 423.696C846 426.515 843.713 428.801 840.892 428.801C838.07 428.801 835.783 426.515 835.783 423.696C835.783 420.877 838.07 418.591 840.892 418.591Z" fill="#611FF3"/>
<path d="M840.892 386.392C843.713 386.392 846 388.677 846 391.497C846 394.316 843.713 396.601 840.892 396.601C838.07 396.601 835.783 394.316 835.783 391.497C835.783 388.677 838.07 386.392 840.892 386.392Z" fill="#611FF3"/>
<path d="M840.892 354.193C843.713 354.193 846 356.478 846 359.297C846 362.117 843.713 364.402 840.892 364.402C838.07 364.402 835.783 362.117 835.783 359.297C835.783 356.478 838.07 354.193 840.892 354.193Z" fill="#611FF3"/>
<path d="M840.892 321.993C843.713 321.993 846 324.279 846 327.098C846 329.917 843.713 332.203 840.892 332.203C838.07 332.203 835.783 329.917 835.783 327.098C835.783 324.279 838.07 321.993 840.892 321.993Z" fill="#611FF3"/>
<path d="M840.892 289.794C843.713 289.794 846 292.079 846 294.899C846 297.718 843.713 300.003 840.892 300.003C838.07 300.003 835.783 297.718 835.783 294.899C835.783 292.079 838.07 289.794 840.892 289.794Z" fill="#611FF3"/>
<path d="M840.892 257.595C843.713 257.595 846 259.88 846 262.699C846 265.519 843.713 267.804 840.892 267.804C838.07 267.804 835.783 265.519 835.783 262.699C835.783 259.88 838.07 257.595 840.892 257.595Z" fill="#611FF3"/>
<path d="M840.892 225.395C843.713 225.395 846 227.681 846 230.5C846 233.319 843.713 235.605 840.892 235.605C838.07 235.605 835.783 233.319 835.783 230.5C835.783 227.681 838.07 225.395 840.892 225.395Z" fill="#611FF3"/>
<path d="M840.892 193.196C843.713 193.196 846 195.481 846 198.301C846 201.12 843.713 203.405 840.892 203.405C838.07 203.405 835.783 201.12 835.783 198.301C835.783 195.481 838.07 193.196 840.892 193.196Z" fill="#611FF3"/>
<path d="M840.892 160.997C843.713 160.997 846 163.282 846 166.101C846 168.921 843.713 171.206 840.892 171.206C838.07 171.206 835.783 168.921 835.783 166.101C835.783 163.282 838.07 160.997 840.892 160.997Z" fill="#611FF3"/>
<path d="M840.892 128.797C843.713 128.797 846 131.083 846 133.902C846 136.721 843.713 139.007 840.892 139.007C838.07 139.007 835.783 136.721 835.783 133.902C835.783 131.083 838.07 128.797 840.892 128.797Z" fill="#611FF3"/>
<path d="M840.892 96.598C843.713 96.598 846 98.8834 846 101.703C846 104.522 843.713 106.807 840.892 106.807C838.07 106.807 835.783 104.522 835.783 101.703C835.783 98.8834 838.07 96.598 840.892 96.598Z" fill="#611FF3"/>
<path d="M840.892 64.3986C843.713 64.3986 846 66.6841 846 69.5034C846 72.3227 843.713 74.6082 840.892 74.6082C838.07 74.6082 835.783 72.3227 835.783 69.5034C835.783 66.6841 838.07 64.3986 840.892 64.3986Z" fill="#611FF3"/>
<path d="M840.892 32.1993C843.713 32.1993 846 34.4848 846 37.3041C846 40.1234 843.713 42.4088 840.892 42.4088C838.07 42.4088 835.783 40.1234 835.783 37.3041C835.783 34.4848 838.07 32.1993 840.892 32.1993Z" fill="#611FF3"/>
<path d="M840.892 0C843.713 0 846 2.28546 846 5.10477C846 7.92404 843.713 10.2095 840.892 10.2095C838.07 10.2095 835.783 7.92404 835.783 5.10477C835.783 2.28546 838.07 0 840.892 0Z" fill="#611FF3"/>
</svg>
