<svg width="461" height="848" viewBox="0 0 461 848" fill="none" xmlns="http://www.w3.org/2000/svg">
<path d="M10.2095 5.10843C10.2095 7.92974 7.92406 10.2169 5.10477 10.2169C2.28548 10.2169 0 7.92974 0 5.10843C0 2.28712 2.28548 0 5.10477 0C7.92406 0 10.2095 2.28712 10.2095 5.10843Z" fill="#F4D2AD"/>
<path d="M42.4089 5.10843C42.4089 7.92974 40.1234 10.2169 37.3041 10.2169C34.4848 10.2169 32.1993 7.92974 32.1993 5.10843C32.1993 2.28712 34.4848 0 37.3041 0C40.1234 0 42.4089 2.28712 42.4089 5.10843Z" fill="#F4D2AD"/>
<path d="M74.6082 5.10843C74.6082 7.92974 72.3227 10.2169 69.5034 10.2169C66.6841 10.2169 64.3986 7.92974 64.3986 5.10843C64.3986 2.28712 66.6841 0 69.5034 0C72.3227 0 74.6082 2.28712 74.6082 5.10843Z" fill="#F4D2AD"/>
<path d="M106.807 5.10843C106.807 7.92974 104.522 10.2169 101.703 10.2169C98.8834 10.2169 96.598 7.92974 96.598 5.10843C96.598 2.28712 98.8834 0 101.703 0C104.522 0 106.807 2.28712 106.807 5.10843Z" fill="#F4D2AD"/>
<path d="M139.007 5.10843C139.007 7.92974 136.721 10.2169 133.902 10.2169C131.083 10.2169 128.797 7.92974 128.797 5.10843C128.797 2.28712 131.083 0 133.902 0C136.721 0 139.007 2.28712 139.007 5.10843Z" fill="#F4D2AD"/>
<path d="M171.206 5.10843C171.206 7.92974 168.921 10.2169 166.101 10.2169C163.282 10.2169 160.997 7.92974 160.997 5.10843C160.997 2.28712 163.282 0 166.101 0C168.921 0 171.206 2.28712 171.206 5.10843Z" fill="#F4D2AD"/>
<path d="M203.405 5.10843C203.405 7.92974 201.12 10.2169 198.301 10.2169C195.481 10.2169 193.196 7.92974 193.196 5.10843C193.196 2.28712 195.481 0 198.301 0C201.12 0 203.405 2.28712 203.405 5.10843Z" fill="#F4D2AD"/>
<path d="M235.605 5.10843C235.605 7.92974 233.319 10.2169 230.5 10.2169C227.681 10.2169 225.395 7.92974 225.395 5.10843C225.395 2.28712 227.681 0 230.5 0C233.319 0 235.605 2.28712 235.605 5.10843Z" fill="#F4D2AD"/>
<path d="M267.804 5.10843C267.804 7.92974 265.519 10.2169 262.699 10.2169C259.88 10.2169 257.595 7.92974 257.595 5.10843C257.595 2.28712 259.88 0 262.699 0C265.519 0 267.804 2.28712 267.804 5.10843Z" fill="#F4D2AD"/>
<path d="M300.003 5.10843C300.003 7.92974 297.718 10.2169 294.899 10.2169C292.079 10.2169 289.794 7.92974 289.794 5.10843C289.794 2.28712 292.079 0 294.899 0C297.718 0 300.003 2.28712 300.003 5.10843Z" fill="#F4D2AD"/>
<path d="M332.203 5.10843C332.203 7.92974 329.917 10.2169 327.098 10.2169C324.279 10.2169 321.993 7.92974 321.993 5.10843C321.993 2.28712 324.279 0 327.098 0C329.917 0 332.203 2.28712 332.203 5.10843Z" fill="#F4D2AD"/>
<path d="M364.402 5.10843C364.402 7.92974 362.117 10.2169 359.297 10.2169C356.478 10.2169 354.193 7.92974 354.193 5.10843C354.193 2.28712 356.478 0 359.297 0C362.117 0 364.402 2.28712 364.402 5.10843Z" fill="#F4D2AD"/>
<path d="M396.601 5.10843C396.601 7.92974 394.316 10.2169 391.497 10.2169C388.677 10.2169 386.392 7.92974 386.392 5.10843C386.392 2.28712 388.677 0 391.497 0C394.316 0 396.601 2.28712 396.601 5.10843Z" fill="#F4D2AD"/>
<path d="M428.801 5.10843C428.801 7.92974 426.515 10.2169 423.696 10.2169C420.877 10.2169 418.591 7.92974 418.591 5.10843C418.591 2.28712 420.877 0 423.696 0C426.515 0 428.801 2.28712 428.801 5.10843Z" fill="#F4D2AD"/>
<path d="M461 5.10843C461 7.92974 458.715 10.2169 455.895 10.2169C453.076 10.2169 450.79 7.92974 450.79 5.10843C450.79 2.28712 453.076 0 455.895 0C458.715 0 461 2.28712 461 5.10843Z" fill="#F4D2AD"/>
<path d="M10.2095 37.3309C10.2095 40.1522 7.92406 42.4393 5.10477 42.4393C2.28548 42.4393 0 40.1522 0 37.3309C0 34.5096 2.28548 32.2224 5.10477 32.2224C7.92406 32.2224 10.2095 34.5096 10.2095 37.3309Z" fill="#F4D2AD"/>
<path d="M42.4089 37.3309C42.4089 40.1522 40.1234 42.4393 37.3041 42.4393C34.4848 42.4393 32.1993 40.1522 32.1993 37.3309C32.1993 34.5096 34.4848 32.2224 37.3041 32.2224C40.1234 32.2224 42.4089 34.5096 42.4089 37.3309Z" fill="#F4D2AD"/>
<path d="M74.6082 37.3309C74.6082 40.1522 72.3227 42.4393 69.5034 42.4393C66.6841 42.4393 64.3986 40.1522 64.3986 37.3309C64.3986 34.5096 66.6841 32.2224 69.5034 32.2224C72.3227 32.2224 74.6082 34.5096 74.6082 37.3309Z" fill="#F4D2AD"/>
<path d="M106.807 37.3309C106.807 40.1522 104.522 42.4393 101.703 42.4393C98.8834 42.4393 96.598 40.1522 96.598 37.3309C96.598 34.5096 98.8834 32.2224 101.703 32.2224C104.522 32.2224 106.807 34.5096 106.807 37.3309Z" fill="#F4D2AD"/>
<path d="M139.007 37.3309C139.007 40.1522 136.721 42.4393 133.902 42.4393C131.083 42.4393 128.797 40.1522 128.797 37.3309C128.797 34.5096 131.083 32.2224 133.902 32.2224C136.721 32.2224 139.007 34.5096 139.007 37.3309Z" fill="#F4D2AD"/>
<path d="M171.206 37.3309C171.206 40.1522 168.921 42.4393 166.101 42.4393C163.282 42.4393 160.997 40.1522 160.997 37.3309C160.997 34.5096 163.282 32.2224 166.101 32.2224C168.921 32.2224 171.206 34.5096 171.206 37.3309Z" fill="#F4D2AD"/>
<path d="M203.405 37.3309C203.405 40.1522 201.12 42.4393 198.301 42.4393C195.481 42.4393 193.196 40.1522 193.196 37.3309C193.196 34.5096 195.481 32.2224 198.301 32.2224C201.12 32.2224 203.405 34.5096 203.405 37.3309Z" fill="#F4D2AD"/>
<path d="M235.605 37.3309C235.605 40.1522 233.319 42.4393 230.5 42.4393C227.681 42.4393 225.395 40.1522 225.395 37.3309C225.395 34.5096 227.681 32.2224 230.5 32.2224C233.319 32.2224 235.605 34.5096 235.605 37.3309Z" fill="#F4D2AD"/>
<path d="M267.804 37.3309C267.804 40.1522 265.519 42.4393 262.699 42.4393C259.88 42.4393 257.595 40.1522 257.595 37.3309C257.595 34.5096 259.88 32.2224 262.699 32.2224C265.519 32.2224 267.804 34.5096 267.804 37.3309Z" fill="#F4D2AD"/>
<path d="M300.003 37.3309C300.003 40.1522 297.718 42.4393 294.899 42.4393C292.079 42.4393 289.794 40.1522 289.794 37.3309C289.794 34.5096 292.079 32.2224 294.899 32.2224C297.718 32.2224 300.003 34.5096 300.003 37.3309Z" fill="#F4D2AD"/>
<path d="M332.203 37.3309C332.203 40.1522 329.917 42.4393 327.098 42.4393C324.279 42.4393 321.993 40.1522 321.993 37.3309C321.993 34.5096 324.279 32.2224 327.098 32.2224C329.917 32.2224 332.203 34.5096 332.203 37.3309Z" fill="#F4D2AD"/>
<path d="M364.402 37.3309C364.402 40.1522 362.117 42.4393 359.297 42.4393C356.478 42.4393 354.193 40.1522 354.193 37.3309C354.193 34.5096 356.478 32.2224 359.297 32.2224C362.117 32.2224 364.402 34.5096 364.402 37.3309Z" fill="#F4D2AD"/>
<path d="M396.601 37.3309C396.601 40.1522 394.316 42.4393 391.497 42.4393C388.677 42.4393 386.392 40.1522 386.392 37.3309C386.392 34.5096 388.677 32.2224 391.497 32.2224C394.316 32.2224 396.601 34.5096 396.601 37.3309Z" fill="#F4D2AD"/>
<path d="M428.801 37.3309C428.801 40.1522 426.515 42.4393 423.696 42.4393C420.877 42.4393 418.591 40.1522 418.591 37.3309C418.591 34.5096 420.877 32.2224 423.696 32.2224C426.515 32.2224 428.801 34.5096 428.801 37.3309Z" fill="#F4D2AD"/>
<path d="M461 37.3309C461 40.1522 458.715 42.4393 455.895 42.4393C453.076 42.4393 450.79 40.1522 450.79 37.3309C450.79 34.5096 453.076 32.2224 455.895 32.2224C458.715 32.2224 461 34.5096 461 37.3309Z" fill="#F4D2AD"/>
<path d="M10.2095 69.5533C10.2095 72.3746 7.92406 74.6617 5.10477 74.6617C2.28548 74.6617 0 72.3746 0 69.5533C0 66.732 2.28548 64.4449 5.10477 64.4449C7.92406 64.4449 10.2095 66.732 10.2095 69.5533Z" fill="#F4D2AD"/>
<path d="M42.4089 69.5533C42.4089 72.3746 40.1234 74.6617 37.3041 74.6617C34.4848 74.6617 32.1993 72.3746 32.1993 69.5533C32.1993 66.732 34.4848 64.4449 37.3041 64.4449C40.1234 64.4449 42.4089 66.732 42.4089 69.5533Z" fill="#F4D2AD"/>
<path d="M74.6082 69.5533C74.6082 72.3746 72.3227 74.6617 69.5034 74.6617C66.6841 74.6617 64.3986 72.3746 64.3986 69.5533C64.3986 66.732 66.6841 64.4449 69.5034 64.4449C72.3227 64.4449 74.6082 66.732 74.6082 69.5533Z" fill="#F4D2AD"/>
<path d="M106.807 69.5533C106.807 72.3746 104.522 74.6617 101.703 74.6617C98.8834 74.6617 96.598 72.3746 96.598 69.5533C96.598 66.732 98.8834 64.4449 101.703 64.4449C104.522 64.4449 106.807 66.732 106.807 69.5533Z" fill="#F4D2AD"/>
<path d="M139.007 69.5533C139.007 72.3746 136.721 74.6617 133.902 74.6617C131.083 74.6617 128.797 72.3746 128.797 69.5533C128.797 66.732 131.083 64.4449 133.902 64.4449C136.721 64.4449 139.007 66.732 139.007 69.5533Z" fill="#F4D2AD"/>
<path d="M171.206 69.5533C171.206 72.3746 168.921 74.6617 166.101 74.6617C163.282 74.6617 160.997 72.3746 160.997 69.5533C160.997 66.732 163.282 64.4449 166.101 64.4449C168.921 64.4449 171.206 66.732 171.206 69.5533Z" fill="#F4D2AD"/>
<path d="M203.405 69.5533C203.405 72.3746 201.12 74.6617 198.301 74.6617C195.481 74.6617 193.196 72.3746 193.196 69.5533C193.196 66.732 195.481 64.4449 198.301 64.4449C201.12 64.4449 203.405 66.732 203.405 69.5533Z" fill="#F4D2AD"/>
<path d="M235.605 69.5533C235.605 72.3746 233.319 74.6617 230.5 74.6617C227.681 74.6617 225.395 72.3746 225.395 69.5533C225.395 66.732 227.681 64.4449 230.5 64.4449C233.319 64.4449 235.605 66.732 235.605 69.5533Z" fill="#F4D2AD"/>
<path d="M267.804 69.5533C267.804 72.3746 265.519 74.6617 262.699 74.6617C259.88 74.6617 257.595 72.3746 257.595 69.5533C257.595 66.732 259.88 64.4449 262.699 64.4449C265.519 64.4449 267.804 66.732 267.804 69.5533Z" fill="#F4D2AD"/>
<path d="M300.003 69.5533C300.003 72.3746 297.718 74.6617 294.899 74.6617C292.079 74.6617 289.794 72.3746 289.794 69.5533C289.794 66.732 292.079 64.4449 294.899 64.4449C297.718 64.4449 300.003 66.732 300.003 69.5533Z" fill="#F4D2AD"/>
<path d="M332.203 69.5533C332.203 72.3746 329.917 74.6617 327.098 74.6617C324.279 74.6617 321.993 72.3746 321.993 69.5533C321.993 66.732 324.279 64.4449 327.098 64.4449C329.917 64.4449 332.203 66.732 332.203 69.5533Z" fill="#F4D2AD"/>
<path d="M364.402 69.5533C364.402 72.3746 362.117 74.6617 359.297 74.6617C356.478 74.6617 354.193 72.3746 354.193 69.5533C354.193 66.732 356.478 64.4449 359.297 64.4449C362.117 64.4449 364.402 66.732 364.402 69.5533Z" fill="#F4D2AD"/>
<path d="M396.601 69.5533C396.601 72.3746 394.316 74.6617 391.497 74.6617C388.677 74.6617 386.392 72.3746 386.392 69.5533C386.392 66.732 388.677 64.4449 391.497 64.4449C394.316 64.4449 396.601 66.732 396.601 69.5533Z" fill="#F4D2AD"/>
<path d="M428.801 69.5533C428.801 72.3746 426.515 74.6617 423.696 74.6617C420.877 74.6617 418.591 72.3746 418.591 69.5533C418.591 66.732 420.877 64.4449 423.696 64.4449C426.515 64.4449 428.801 66.732 428.801 69.5533Z" fill="#F4D2AD"/>
<path d="M461 69.5533C461 72.3746 458.715 74.6617 455.895 74.6617C453.076 74.6617 450.79 72.3746 450.79 69.5533C450.79 66.732 453.076 64.4449 455.895 64.4449C458.715 64.4449 461 66.732 461 69.5533Z" fill="#F4D2AD"/>
<path d="M10.2095 101.776C10.2095 104.597 7.92406 106.884 5.10477 106.884C2.28548 106.884 0 104.597 0 101.776C0 98.9544 2.28548 96.6673 5.10477 96.6673C7.92406 96.6673 10.2095 98.9544 10.2095 101.776Z" fill="#F4D2AD"/>
<path d="M42.4089 101.776C42.4089 104.597 40.1234 106.884 37.3041 106.884C34.4848 106.884 32.1993 104.597 32.1993 101.776C32.1993 98.9544 34.4848 96.6673 37.3041 96.6673C40.1234 96.6673 42.4089 98.9544 42.4089 101.776Z" fill="#F4D2AD"/>
<path d="M74.6082 101.776C74.6082 104.597 72.3227 106.884 69.5034 106.884C66.6841 106.884 64.3986 104.597 64.3986 101.776C64.3986 98.9544 66.6841 96.6673 69.5034 96.6673C72.3227 96.6673 74.6082 98.9544 74.6082 101.776Z" fill="#F4D2AD"/>
<path d="M106.807 101.776C106.807 104.597 104.522 106.884 101.703 106.884C98.8834 106.884 96.598 104.597 96.598 101.776C96.598 98.9544 98.8834 96.6673 101.703 96.6673C104.522 96.6673 106.807 98.9544 106.807 101.776Z" fill="#F4D2AD"/>
<path d="M139.007 101.776C139.007 104.597 136.721 106.884 133.902 106.884C131.083 106.884 128.797 104.597 128.797 101.776C128.797 98.9544 131.083 96.6673 133.902 96.6673C136.721 96.6673 139.007 98.9544 139.007 101.776Z" fill="#F4D2AD"/>
<path d="M171.206 101.776C171.206 104.597 168.921 106.884 166.101 106.884C163.282 106.884 160.997 104.597 160.997 101.776C160.997 98.9544 163.282 96.6673 166.101 96.6673C168.921 96.6673 171.206 98.9544 171.206 101.776Z" fill="#F4D2AD"/>
<path d="M203.405 101.776C203.405 104.597 201.12 106.884 198.301 106.884C195.481 106.884 193.196 104.597 193.196 101.776C193.196 98.9544 195.481 96.6673 198.301 96.6673C201.12 96.6673 203.405 98.9544 203.405 101.776Z" fill="#F4D2AD"/>
<path d="M235.605 101.776C235.605 104.597 233.319 106.884 230.5 106.884C227.681 106.884 225.395 104.597 225.395 101.776C225.395 98.9544 227.681 96.6673 230.5 96.6673C233.319 96.6673 235.605 98.9544 235.605 101.776Z" fill="#F4D2AD"/>
<path d="M267.804 101.776C267.804 104.597 265.519 106.884 262.699 106.884C259.88 106.884 257.595 104.597 257.595 101.776C257.595 98.9544 259.88 96.6673 262.699 96.6673C265.519 96.6673 267.804 98.9544 267.804 101.776Z" fill="#F4D2AD"/>
<path d="M300.003 101.776C300.003 104.597 297.718 106.884 294.899 106.884C292.079 106.884 289.794 104.597 289.794 101.776C289.794 98.9544 292.079 96.6673 294.899 96.6673C297.718 96.6673 300.003 98.9544 300.003 101.776Z" fill="#F4D2AD"/>
<path d="M332.203 101.776C332.203 104.597 329.917 106.884 327.098 106.884C324.279 106.884 321.993 104.597 321.993 101.776C321.993 98.9544 324.279 96.6673 327.098 96.6673C329.917 96.6673 332.203 98.9544 332.203 101.776Z" fill="#F4D2AD"/>
<path d="M364.402 101.776C364.402 104.597 362.117 106.884 359.297 106.884C356.478 106.884 354.193 104.597 354.193 101.776C354.193 98.9544 356.478 96.6673 359.297 96.6673C362.117 96.6673 364.402 98.9544 364.402 101.776Z" fill="#F4D2AD"/>
<path d="M396.601 101.776C396.601 104.597 394.316 106.884 391.497 106.884C388.677 106.884 386.392 104.597 386.392 101.776C386.392 98.9544 388.677 96.6673 391.497 96.6673C394.316 96.6673 396.601 98.9544 396.601 101.776Z" fill="#F4D2AD"/>
<path d="M428.801 101.776C428.801 104.597 426.515 106.884 423.696 106.884C420.877 106.884 418.591 104.597 418.591 101.776C418.591 98.9544 420.877 96.6673 423.696 96.6673C426.515 96.6673 428.801 98.9544 428.801 101.776Z" fill="#F4D2AD"/>
<path d="M461 101.776C461 104.597 458.715 106.884 455.895 106.884C453.076 106.884 450.79 104.597 450.79 101.776C450.79 98.9544 453.076 96.6673 455.895 96.6673C458.715 96.6673 461 98.9544 461 101.776Z" fill="#F4D2AD"/>
<path d="M10.2095 133.998C10.2095 136.819 7.92406 139.107 5.10477 139.107C2.28548 139.107 0 136.819 0 133.998C0 131.177 2.28548 128.89 5.10477 128.89C7.92406 128.89 10.2095 131.177 10.2095 133.998Z" fill="#F4D2AD"/>
<path d="M42.4089 133.998C42.4089 136.819 40.1234 139.107 37.3041 139.107C34.4848 139.107 32.1993 136.819 32.1993 133.998C32.1993 131.177 34.4848 128.89 37.3041 128.89C40.1234 128.89 42.4089 131.177 42.4089 133.998Z" fill="#F4D2AD"/>
<path d="M74.6082 133.998C74.6082 136.819 72.3227 139.107 69.5034 139.107C66.6841 139.107 64.3986 136.819 64.3986 133.998C64.3986 131.177 66.6841 128.89 69.5034 128.89C72.3227 128.89 74.6082 131.177 74.6082 133.998Z" fill="#F4D2AD"/>
<path d="M106.807 133.998C106.807 136.819 104.522 139.107 101.703 139.107C98.8834 139.107 96.598 136.819 96.598 133.998C96.598 131.177 98.8834 128.89 101.703 128.89C104.522 128.89 106.807 131.177 106.807 133.998Z" fill="#F4D2AD"/>
<path d="M139.007 133.998C139.007 136.819 136.721 139.107 133.902 139.107C131.083 139.107 128.797 136.819 128.797 133.998C128.797 131.177 131.083 128.89 133.902 128.89C136.721 128.89 139.007 131.177 139.007 133.998Z" fill="#F4D2AD"/>
<path d="M171.206 133.998C171.206 136.819 168.921 139.107 166.101 139.107C163.282 139.107 160.997 136.819 160.997 133.998C160.997 131.177 163.282 128.89 166.101 128.89C168.921 128.89 171.206 131.177 171.206 133.998Z" fill="#F4D2AD"/>
<path d="M203.405 133.998C203.405 136.819 201.12 139.107 198.301 139.107C195.481 139.107 193.196 136.819 193.196 133.998C193.196 131.177 195.481 128.89 198.301 128.89C201.12 128.89 203.405 131.177 203.405 133.998Z" fill="#F4D2AD"/>
<path d="M235.605 133.998C235.605 136.819 233.319 139.107 230.5 139.107C227.681 139.107 225.395 136.819 225.395 133.998C225.395 131.177 227.681 128.89 230.5 128.89C233.319 128.89 235.605 131.177 235.605 133.998Z" fill="#F4D2AD"/>
<path d="M267.804 133.998C267.804 136.819 265.519 139.107 262.699 139.107C259.88 139.107 257.595 136.819 257.595 133.998C257.595 131.177 259.88 128.89 262.699 128.89C265.519 128.89 267.804 131.177 267.804 133.998Z" fill="#F4D2AD"/>
<path d="M300.003 133.998C300.003 136.819 297.718 139.107 294.899 139.107C292.079 139.107 289.794 136.819 289.794 133.998C289.794 131.177 292.079 128.89 294.899 128.89C297.718 128.89 300.003 131.177 300.003 133.998Z" fill="#F4D2AD"/>
<path d="M332.203 133.998C332.203 136.819 329.917 139.107 327.098 139.107C324.279 139.107 321.993 136.819 321.993 133.998C321.993 131.177 324.279 128.89 327.098 128.89C329.917 128.89 332.203 131.177 332.203 133.998Z" fill="#F4D2AD"/>
<path d="M364.402 133.998C364.402 136.819 362.117 139.107 359.297 139.107C356.478 139.107 354.193 136.819 354.193 133.998C354.193 131.177 356.478 128.89 359.297 128.89C362.117 128.89 364.402 131.177 364.402 133.998Z" fill="#F4D2AD"/>
<path d="M396.601 133.998C396.601 136.819 394.316 139.107 391.497 139.107C388.677 139.107 386.392 136.819 386.392 133.998C386.392 131.177 388.677 128.89 391.497 128.89C394.316 128.89 396.601 131.177 396.601 133.998Z" fill="#F4D2AD"/>
<path d="M428.801 133.998C428.801 136.819 426.515 139.107 423.696 139.107C420.877 139.107 418.591 136.819 418.591 133.998C418.591 131.177 420.877 128.89 423.696 128.89C426.515 128.89 428.801 131.177 428.801 133.998Z" fill="#F4D2AD"/>
<path d="M461 133.998C461 136.819 458.715 139.107 455.895 139.107C453.076 139.107 450.79 136.819 450.79 133.998C450.79 131.177 453.076 128.89 455.895 128.89C458.715 128.89 461 131.177 461 133.998Z" fill="#F4D2AD"/>
<path d="M10.2095 166.221C10.2095 169.042 7.92406 171.329 5.10477 171.329C2.28548 171.329 0 169.042 0 166.221C0 163.399 2.28548 161.112 5.10477 161.112C7.92406 161.112 10.2095 163.399 10.2095 166.221Z" fill="#F4D2AD"/>
<path d="M42.4089 166.221C42.4089 169.042 40.1234 171.329 37.3041 171.329C34.4848 171.329 32.1993 169.042 32.1993 166.221C32.1993 163.399 34.4848 161.112 37.3041 161.112C40.1234 161.112 42.4089 163.399 42.4089 166.221Z" fill="#F4D2AD"/>
<path d="M74.6082 166.221C74.6082 169.042 72.3227 171.329 69.5034 171.329C66.6841 171.329 64.3986 169.042 64.3986 166.221C64.3986 163.399 66.6841 161.112 69.5034 161.112C72.3227 161.112 74.6082 163.399 74.6082 166.221Z" fill="#F4D2AD"/>
<path d="M106.807 166.221C106.807 169.042 104.522 171.329 101.703 171.329C98.8834 171.329 96.598 169.042 96.598 166.221C96.598 163.399 98.8834 161.112 101.703 161.112C104.522 161.112 106.807 163.399 106.807 166.221Z" fill="#F4D2AD"/>
<path d="M139.007 166.221C139.007 169.042 136.721 171.329 133.902 171.329C131.083 171.329 128.797 169.042 128.797 166.221C128.797 163.399 131.083 161.112 133.902 161.112C136.721 161.112 139.007 163.399 139.007 166.221Z" fill="#F4D2AD"/>
<path d="M171.206 166.221C171.206 169.042 168.921 171.329 166.101 171.329C163.282 171.329 160.997 169.042 160.997 166.221C160.997 163.399 163.282 161.112 166.101 161.112C168.921 161.112 171.206 163.399 171.206 166.221Z" fill="#F4D2AD"/>
<path d="M203.405 166.221C203.405 169.042 201.12 171.329 198.301 171.329C195.481 171.329 193.196 169.042 193.196 166.221C193.196 163.399 195.481 161.112 198.301 161.112C201.12 161.112 203.405 163.399 203.405 166.221Z" fill="#F4D2AD"/>
<path d="M235.605 166.221C235.605 169.042 233.319 171.329 230.5 171.329C227.681 171.329 225.395 169.042 225.395 166.221C225.395 163.399 227.681 161.112 230.5 161.112C233.319 161.112 235.605 163.399 235.605 166.221Z" fill="#F4D2AD"/>
<path d="M267.804 166.221C267.804 169.042 265.519 171.329 262.699 171.329C259.88 171.329 257.595 169.042 257.595 166.221C257.595 163.399 259.88 161.112 262.699 161.112C265.519 161.112 267.804 163.399 267.804 166.221Z" fill="#F4D2AD"/>
<path d="M300.003 166.221C300.003 169.042 297.718 171.329 294.899 171.329C292.079 171.329 289.794 169.042 289.794 166.221C289.794 163.399 292.079 161.112 294.899 161.112C297.718 161.112 300.003 163.399 300.003 166.221Z" fill="#F4D2AD"/>
<path d="M332.203 166.221C332.203 169.042 329.917 171.329 327.098 171.329C324.279 171.329 321.993 169.042 321.993 166.221C321.993 163.399 324.279 161.112 327.098 161.112C329.917 161.112 332.203 163.399 332.203 166.221Z" fill="#F4D2AD"/>
<path d="M364.402 166.221C364.402 169.042 362.117 171.329 359.297 171.329C356.478 171.329 354.193 169.042 354.193 166.221C354.193 163.399 356.478 161.112 359.297 161.112C362.117 161.112 364.402 163.399 364.402 166.221Z" fill="#F4D2AD"/>
<path d="M396.601 166.221C396.601 169.042 394.316 171.329 391.497 171.329C388.677 171.329 386.392 169.042 386.392 166.221C386.392 163.399 388.677 161.112 391.497 161.112C394.316 161.112 396.601 163.399 396.601 166.221Z" fill="#F4D2AD"/>
<path d="M428.801 166.221C428.801 169.042 426.515 171.329 423.696 171.329C420.877 171.329 418.591 169.042 418.591 166.221C418.591 163.399 420.877 161.112 423.696 161.112C426.515 161.112 428.801 163.399 428.801 166.221Z" fill="#F4D2AD"/>
<path d="M461 166.221C461 169.042 458.715 171.329 455.895 171.329C453.076 171.329 450.79 169.042 450.79 166.221C450.79 163.399 453.076 161.112 455.895 161.112C458.715 161.112 461 163.399 461 166.221Z" fill="#F4D2AD"/>
<path d="M10.2095 198.443C10.2095 201.264 7.92406 203.551 5.10477 203.551C2.28548 203.551 0 201.264 0 198.443C0 195.622 2.28548 193.335 5.10477 193.335C7.92406 193.335 10.2095 195.622 10.2095 198.443Z" fill="#F4D2AD"/>
<path d="M42.4089 198.443C42.4089 201.264 40.1234 203.551 37.3041 203.551C34.4848 203.551 32.1993 201.264 32.1993 198.443C32.1993 195.622 34.4848 193.335 37.3041 193.335C40.1234 193.335 42.4089 195.622 42.4089 198.443Z" fill="#F4D2AD"/>
<path d="M74.6082 198.443C74.6082 201.264 72.3227 203.551 69.5034 203.551C66.6841 203.551 64.3986 201.264 64.3986 198.443C64.3986 195.622 66.6841 193.335 69.5034 193.335C72.3227 193.335 74.6082 195.622 74.6082 198.443Z" fill="#F4D2AD"/>
<path d="M106.807 198.443C106.807 201.264 104.522 203.551 101.703 203.551C98.8834 203.551 96.598 201.264 96.598 198.443C96.598 195.622 98.8834 193.335 101.703 193.335C104.522 193.335 106.807 195.622 106.807 198.443Z" fill="#F4D2AD"/>
<path d="M139.007 198.443C139.007 201.264 136.721 203.551 133.902 203.551C131.083 203.551 128.797 201.264 128.797 198.443C128.797 195.622 131.083 193.335 133.902 193.335C136.721 193.335 139.007 195.622 139.007 198.443Z" fill="#F4D2AD"/>
<path d="M171.206 198.443C171.206 201.264 168.921 203.551 166.101 203.551C163.282 203.551 160.997 201.264 160.997 198.443C160.997 195.622 163.282 193.335 166.101 193.335C168.921 193.335 171.206 195.622 171.206 198.443Z" fill="#F4D2AD"/>
<path d="M203.405 198.443C203.405 201.264 201.12 203.551 198.301 203.551C195.481 203.551 193.196 201.264 193.196 198.443C193.196 195.622 195.481 193.335 198.301 193.335C201.12 193.335 203.405 195.622 203.405 198.443Z" fill="#F4D2AD"/>
<path d="M235.605 198.443C235.605 201.264 233.319 203.551 230.5 203.551C227.681 203.551 225.395 201.264 225.395 198.443C225.395 195.622 227.681 193.335 230.5 193.335C233.319 193.335 235.605 195.622 235.605 198.443Z" fill="#F4D2AD"/>
<path d="M267.804 198.443C267.804 201.264 265.519 203.551 262.699 203.551C259.88 203.551 257.595 201.264 257.595 198.443C257.595 195.622 259.88 193.335 262.699 193.335C265.519 193.335 267.804 195.622 267.804 198.443Z" fill="#F4D2AD"/>
<path d="M300.003 198.443C300.003 201.264 297.718 203.551 294.899 203.551C292.079 203.551 289.794 201.264 289.794 198.443C289.794 195.622 292.079 193.335 294.899 193.335C297.718 193.335 300.003 195.622 300.003 198.443Z" fill="#F4D2AD"/>
<path d="M332.203 198.443C332.203 201.264 329.917 203.551 327.098 203.551C324.279 203.551 321.993 201.264 321.993 198.443C321.993 195.622 324.279 193.335 327.098 193.335C329.917 193.335 332.203 195.622 332.203 198.443Z" fill="#F4D2AD"/>
<path d="M364.402 198.443C364.402 201.264 362.117 203.551 359.297 203.551C356.478 203.551 354.193 201.264 354.193 198.443C354.193 195.622 356.478 193.335 359.297 193.335C362.117 193.335 364.402 195.622 364.402 198.443Z" fill="#F4D2AD"/>
<path d="M396.601 198.443C396.601 201.264 394.316 203.551 391.497 203.551C388.677 203.551 386.392 201.264 386.392 198.443C386.392 195.622 388.677 193.335 391.497 193.335C394.316 193.335 396.601 195.622 396.601 198.443Z" fill="#F4D2AD"/>
<path d="M428.801 198.443C428.801 201.264 426.515 203.551 423.696 203.551C420.877 203.551 418.591 201.264 418.591 198.443C418.591 195.622 420.877 193.335 423.696 193.335C426.515 193.335 428.801 195.622 428.801 198.443Z" fill="#F4D2AD"/>
<path d="M461 198.443C461 201.264 458.715 203.551 455.895 203.551C453.076 203.551 450.79 201.264 450.79 198.443C450.79 195.622 453.076 193.335 455.895 193.335C458.715 193.335 461 195.622 461 198.443Z" fill="#F4D2AD"/>
<path d="M10.2095 230.665C10.2095 233.487 7.92406 235.774 5.10477 235.774C2.28548 235.774 0 233.487 0 230.665C0 227.844 2.28548 225.557 5.10477 225.557C7.92406 225.557 10.2095 227.844 10.2095 230.665Z" fill="#F4D2AD"/>
<path d="M42.4089 230.665C42.4089 233.487 40.1234 235.774 37.3041 235.774C34.4848 235.774 32.1993 233.487 32.1993 230.665C32.1993 227.844 34.4848 225.557 37.3041 225.557C40.1234 225.557 42.4089 227.844 42.4089 230.665Z" fill="#F4D2AD"/>
<path d="M74.6082 230.665C74.6082 233.487 72.3227 235.774 69.5034 235.774C66.6841 235.774 64.3986 233.487 64.3986 230.665C64.3986 227.844 66.6841 225.557 69.5034 225.557C72.3227 225.557 74.6082 227.844 74.6082 230.665Z" fill="#F4D2AD"/>
<path d="M106.807 230.665C106.807 233.487 104.522 235.774 101.703 235.774C98.8834 235.774 96.598 233.487 96.598 230.665C96.598 227.844 98.8834 225.557 101.703 225.557C104.522 225.557 106.807 227.844 106.807 230.665Z" fill="#F4D2AD"/>
<path d="M139.007 230.665C139.007 233.487 136.721 235.774 133.902 235.774C131.083 235.774 128.797 233.487 128.797 230.665C128.797 227.844 131.083 225.557 133.902 225.557C136.721 225.557 139.007 227.844 139.007 230.665Z" fill="#F4D2AD"/>
<path d="M171.206 230.665C171.206 233.487 168.921 235.774 166.101 235.774C163.282 235.774 160.997 233.487 160.997 230.665C160.997 227.844 163.282 225.557 166.101 225.557C168.921 225.557 171.206 227.844 171.206 230.665Z" fill="#F4D2AD"/>
<path d="M203.405 230.665C203.405 233.487 201.12 235.774 198.301 235.774C195.481 235.774 193.196 233.487 193.196 230.665C193.196 227.844 195.481 225.557 198.301 225.557C201.12 225.557 203.405 227.844 203.405 230.665Z" fill="#F4D2AD"/>
<path d="M235.605 230.665C235.605 233.487 233.319 235.774 230.5 235.774C227.681 235.774 225.395 233.487 225.395 230.665C225.395 227.844 227.681 225.557 230.5 225.557C233.319 225.557 235.605 227.844 235.605 230.665Z" fill="#F4D2AD"/>
<path d="M267.804 230.665C267.804 233.487 265.519 235.774 262.699 235.774C259.88 235.774 257.595 233.487 257.595 230.665C257.595 227.844 259.88 225.557 262.699 225.557C265.519 225.557 267.804 227.844 267.804 230.665Z" fill="#F4D2AD"/>
<path d="M300.003 230.665C300.003 233.487 297.718 235.774 294.899 235.774C292.079 235.774 289.794 233.487 289.794 230.665C289.794 227.844 292.079 225.557 294.899 225.557C297.718 225.557 300.003 227.844 300.003 230.665Z" fill="#F4D2AD"/>
<path d="M332.203 230.665C332.203 233.487 329.917 235.774 327.098 235.774C324.279 235.774 321.993 233.487 321.993 230.665C321.993 227.844 324.279 225.557 327.098 225.557C329.917 225.557 332.203 227.844 332.203 230.665Z" fill="#F4D2AD"/>
<path d="M364.402 230.665C364.402 233.487 362.117 235.774 359.297 235.774C356.478 235.774 354.193 233.487 354.193 230.665C354.193 227.844 356.478 225.557 359.297 225.557C362.117 225.557 364.402 227.844 364.402 230.665Z" fill="#F4D2AD"/>
<path d="M396.601 230.665C396.601 233.487 394.316 235.774 391.497 235.774C388.677 235.774 386.392 233.487 386.392 230.665C386.392 227.844 388.677 225.557 391.497 225.557C394.316 225.557 396.601 227.844 396.601 230.665Z" fill="#F4D2AD"/>
<path d="M428.801 230.665C428.801 233.487 426.515 235.774 423.696 235.774C420.877 235.774 418.591 233.487 418.591 230.665C418.591 227.844 420.877 225.557 423.696 225.557C426.515 225.557 428.801 227.844 428.801 230.665Z" fill="#F4D2AD"/>
<path d="M461 230.665C461 233.487 458.715 235.774 455.895 235.774C453.076 235.774 450.79 233.487 450.79 230.665C450.79 227.844 453.076 225.557 455.895 225.557C458.715 225.557 461 227.844 461 230.665Z" fill="#F4D2AD"/>
<path d="M10.2095 262.888C10.2095 265.709 7.92406 267.996 5.10477 267.996C2.28548 267.996 0 265.709 0 262.888C0 260.067 2.28548 257.779 5.10477 257.779C7.92406 257.779 10.2095 260.067 10.2095 262.888Z" fill="#F4D2AD"/>
<path d="M42.4089 262.888C42.4089 265.709 40.1234 267.996 37.3041 267.996C34.4848 267.996 32.1993 265.709 32.1993 262.888C32.1993 260.067 34.4848 257.779 37.3041 257.779C40.1234 257.779 42.4089 260.067 42.4089 262.888Z" fill="#F4D2AD"/>
<path d="M74.6082 262.888C74.6082 265.709 72.3227 267.996 69.5034 267.996C66.6841 267.996 64.3986 265.709 64.3986 262.888C64.3986 260.067 66.6841 257.779 69.5034 257.779C72.3227 257.779 74.6082 260.067 74.6082 262.888Z" fill="#F4D2AD"/>
<path d="M106.807 262.888C106.807 265.709 104.522 267.996 101.703 267.996C98.8834 267.996 96.598 265.709 96.598 262.888C96.598 260.067 98.8834 257.779 101.703 257.779C104.522 257.779 106.807 260.067 106.807 262.888Z" fill="#F4D2AD"/>
<path d="M139.007 262.888C139.007 265.709 136.721 267.996 133.902 267.996C131.083 267.996 128.797 265.709 128.797 262.888C128.797 260.067 131.083 257.779 133.902 257.779C136.721 257.779 139.007 260.067 139.007 262.888Z" fill="#F4D2AD"/>
<path d="M171.206 262.888C171.206 265.709 168.921 267.996 166.101 267.996C163.282 267.996 160.997 265.709 160.997 262.888C160.997 260.067 163.282 257.779 166.101 257.779C168.921 257.779 171.206 260.067 171.206 262.888Z" fill="#F4D2AD"/>
<path d="M203.405 262.888C203.405 265.709 201.12 267.996 198.301 267.996C195.481 267.996 193.196 265.709 193.196 262.888C193.196 260.067 195.481 257.779 198.301 257.779C201.12 257.779 203.405 260.067 203.405 262.888Z" fill="#F4D2AD"/>
<path d="M235.605 262.888C235.605 265.709 233.319 267.996 230.5 267.996C227.681 267.996 225.395 265.709 225.395 262.888C225.395 260.067 227.681 257.779 230.5 257.779C233.319 257.779 235.605 260.067 235.605 262.888Z" fill="#F4D2AD"/>
<path d="M267.804 262.888C267.804 265.709 265.519 267.996 262.699 267.996C259.88 267.996 257.595 265.709 257.595 262.888C257.595 260.067 259.88 257.779 262.699 257.779C265.519 257.779 267.804 260.067 267.804 262.888Z" fill="#F4D2AD"/>
<path d="M300.003 262.888C300.003 265.709 297.718 267.996 294.899 267.996C292.079 267.996 289.794 265.709 289.794 262.888C289.794 260.067 292.079 257.779 294.899 257.779C297.718 257.779 300.003 260.067 300.003 262.888Z" fill="#F4D2AD"/>
<path d="M332.203 262.888C332.203 265.709 329.917 267.996 327.098 267.996C324.279 267.996 321.993 265.709 321.993 262.888C321.993 260.067 324.279 257.779 327.098 257.779C329.917 257.779 332.203 260.067 332.203 262.888Z" fill="#F4D2AD"/>
<path d="M364.402 262.888C364.402 265.709 362.117 267.996 359.297 267.996C356.478 267.996 354.193 265.709 354.193 262.888C354.193 260.067 356.478 257.779 359.297 257.779C362.117 257.779 364.402 260.067 364.402 262.888Z" fill="#F4D2AD"/>
<path d="M396.601 262.888C396.601 265.709 394.316 267.996 391.497 267.996C388.677 267.996 386.392 265.709 386.392 262.888C386.392 260.067 388.677 257.779 391.497 257.779C394.316 257.779 396.601 260.067 396.601 262.888Z" fill="#F4D2AD"/>
<path d="M428.801 262.888C428.801 265.709 426.515 267.996 423.696 267.996C420.877 267.996 418.591 265.709 418.591 262.888C418.591 260.067 420.877 257.779 423.696 257.779C426.515 257.779 428.801 260.067 428.801 262.888Z" fill="#F4D2AD"/>
<path d="M461 262.888C461 265.709 458.715 267.996 455.895 267.996C453.076 267.996 450.79 265.709 450.79 262.888C450.79 260.067 453.076 257.779 455.895 257.779C458.715 257.779 461 260.067 461 262.888Z" fill="#F4D2AD"/>
<path d="M10.2095 295.11C10.2095 297.932 7.92406 300.219 5.10477 300.219C2.28548 300.219 0 297.932 0 295.11C0 292.289 2.28548 290.002 5.10477 290.002C7.92406 290.002 10.2095 292.289 10.2095 295.11Z" fill="#F4D2AD"/>
<path d="M42.4089 295.11C42.4089 297.932 40.1234 300.219 37.3041 300.219C34.4848 300.219 32.1993 297.932 32.1993 295.11C32.1993 292.289 34.4848 290.002 37.3041 290.002C40.1234 290.002 42.4089 292.289 42.4089 295.11Z" fill="#F4D2AD"/>
<path d="M74.6082 295.11C74.6082 297.932 72.3227 300.219 69.5034 300.219C66.6841 300.219 64.3986 297.932 64.3986 295.11C64.3986 292.289 66.6841 290.002 69.5034 290.002C72.3227 290.002 74.6082 292.289 74.6082 295.11Z" fill="#F4D2AD"/>
<path d="M106.807 295.11C106.807 297.932 104.522 300.219 101.703 300.219C98.8834 300.219 96.598 297.932 96.598 295.11C96.598 292.289 98.8834 290.002 101.703 290.002C104.522 290.002 106.807 292.289 106.807 295.11Z" fill="#F4D2AD"/>
<path d="M139.007 295.11C139.007 297.932 136.721 300.219 133.902 300.219C131.083 300.219 128.797 297.932 128.797 295.11C128.797 292.289 131.083 290.002 133.902 290.002C136.721 290.002 139.007 292.289 139.007 295.11Z" fill="#F4D2AD"/>
<path d="M171.206 295.11C171.206 297.932 168.921 300.219 166.101 300.219C163.282 300.219 160.997 297.932 160.997 295.11C160.997 292.289 163.282 290.002 166.101 290.002C168.921 290.002 171.206 292.289 171.206 295.11Z" fill="#F4D2AD"/>
<path d="M203.405 295.11C203.405 297.932 201.12 300.219 198.301 300.219C195.481 300.219 193.196 297.932 193.196 295.11C193.196 292.289 195.481 290.002 198.301 290.002C201.12 290.002 203.405 292.289 203.405 295.11Z" fill="#F4D2AD"/>
<path d="M235.605 295.11C235.605 297.932 233.319 300.219 230.5 300.219C227.681 300.219 225.395 297.932 225.395 295.11C225.395 292.289 227.681 290.002 230.5 290.002C233.319 290.002 235.605 292.289 235.605 295.11Z" fill="#F4D2AD"/>
<path d="M267.804 295.11C267.804 297.932 265.519 300.219 262.699 300.219C259.88 300.219 257.595 297.932 257.595 295.11C257.595 292.289 259.88 290.002 262.699 290.002C265.519 290.002 267.804 292.289 267.804 295.11Z" fill="#F4D2AD"/>
<path d="M300.003 295.11C300.003 297.932 297.718 300.219 294.899 300.219C292.079 300.219 289.794 297.932 289.794 295.11C289.794 292.289 292.079 290.002 294.899 290.002C297.718 290.002 300.003 292.289 300.003 295.11Z" fill="#F4D2AD"/>
<path d="M332.203 295.11C332.203 297.932 329.917 300.219 327.098 300.219C324.279 300.219 321.993 297.932 321.993 295.11C321.993 292.289 324.279 290.002 327.098 290.002C329.917 290.002 332.203 292.289 332.203 295.11Z" fill="#F4D2AD"/>
<path d="M364.402 295.11C364.402 297.932 362.117 300.219 359.297 300.219C356.478 300.219 354.193 297.932 354.193 295.11C354.193 292.289 356.478 290.002 359.297 290.002C362.117 290.002 364.402 292.289 364.402 295.11Z" fill="#F4D2AD"/>
<path d="M396.601 295.11C396.601 297.932 394.316 300.219 391.497 300.219C388.677 300.219 386.392 297.932 386.392 295.11C386.392 292.289 388.677 290.002 391.497 290.002C394.316 290.002 396.601 292.289 396.601 295.11Z" fill="#F4D2AD"/>
<path d="M428.801 295.11C428.801 297.932 426.515 300.219 423.696 300.219C420.877 300.219 418.591 297.932 418.591 295.11C418.591 292.289 420.877 290.002 423.696 290.002C426.515 290.002 428.801 292.289 428.801 295.11Z" fill="#F4D2AD"/>
<path d="M461 295.11C461 297.932 458.715 300.219 455.895 300.219C453.076 300.219 450.79 297.932 450.79 295.11C450.79 292.289 453.076 290.002 455.895 290.002C458.715 290.002 461 292.289 461 295.11Z" fill="#F4D2AD"/>
<path d="M10.2095 327.333C10.2095 330.154 7.92406 332.441 5.10477 332.441C2.28548 332.441 0 330.154 0 327.333C0 324.511 2.28548 322.224 5.10477 322.224C7.92406 322.224 10.2095 324.511 10.2095 327.333Z" fill="#F4D2AD"/>
<path d="M42.4089 327.333C42.4089 330.154 40.1234 332.441 37.3041 332.441C34.4848 332.441 32.1993 330.154 32.1993 327.333C32.1993 324.511 34.4848 322.224 37.3041 322.224C40.1234 322.224 42.4089 324.511 42.4089 327.333Z" fill="#F4D2AD"/>
<path d="M74.6082 327.333C74.6082 330.154 72.3227 332.441 69.5034 332.441C66.6841 332.441 64.3986 330.154 64.3986 327.333C64.3986 324.511 66.6841 322.224 69.5034 322.224C72.3227 322.224 74.6082 324.511 74.6082 327.333Z" fill="#F4D2AD"/>
<path d="M106.807 327.333C106.807 330.154 104.522 332.441 101.703 332.441C98.8834 332.441 96.598 330.154 96.598 327.333C96.598 324.511 98.8834 322.224 101.703 322.224C104.522 322.224 106.807 324.511 106.807 327.333Z" fill="#F4D2AD"/>
<path d="M139.007 327.333C139.007 330.154 136.721 332.441 133.902 332.441C131.083 332.441 128.797 330.154 128.797 327.333C128.797 324.511 131.083 322.224 133.902 322.224C136.721 322.224 139.007 324.511 139.007 327.333Z" fill="#F4D2AD"/>
<path d="M171.206 327.333C171.206 330.154 168.921 332.441 166.101 332.441C163.282 332.441 160.997 330.154 160.997 327.333C160.997 324.511 163.282 322.224 166.101 322.224C168.921 322.224 171.206 324.511 171.206 327.333Z" fill="#F4D2AD"/>
<path d="M203.405 327.333C203.405 330.154 201.12 332.441 198.301 332.441C195.481 332.441 193.196 330.154 193.196 327.333C193.196 324.511 195.481 322.224 198.301 322.224C201.12 322.224 203.405 324.511 203.405 327.333Z" fill="#F4D2AD"/>
<path d="M235.605 327.333C235.605 330.154 233.319 332.441 230.5 332.441C227.681 332.441 225.395 330.154 225.395 327.333C225.395 324.511 227.681 322.224 230.5 322.224C233.319 322.224 235.605 324.511 235.605 327.333Z" fill="#F4D2AD"/>
<path d="M267.804 327.333C267.804 330.154 265.519 332.441 262.699 332.441C259.88 332.441 257.595 330.154 257.595 327.333C257.595 324.511 259.88 322.224 262.699 322.224C265.519 322.224 267.804 324.511 267.804 327.333Z" fill="#F4D2AD"/>
<path d="M300.003 327.333C300.003 330.154 297.718 332.441 294.899 332.441C292.079 332.441 289.794 330.154 289.794 327.333C289.794 324.511 292.079 322.224 294.899 322.224C297.718 322.224 300.003 324.511 300.003 327.333Z" fill="#F4D2AD"/>
<path d="M332.203 327.333C332.203 330.154 329.917 332.441 327.098 332.441C324.279 332.441 321.993 330.154 321.993 327.333C321.993 324.511 324.279 322.224 327.098 322.224C329.917 322.224 332.203 324.511 332.203 327.333Z" fill="#F4D2AD"/>
<path d="M364.402 327.333C364.402 330.154 362.117 332.441 359.297 332.441C356.478 332.441 354.193 330.154 354.193 327.333C354.193 324.511 356.478 322.224 359.297 322.224C362.117 322.224 364.402 324.511 364.402 327.333Z" fill="#F4D2AD"/>
<path d="M396.601 327.333C396.601 330.154 394.316 332.441 391.497 332.441C388.677 332.441 386.392 330.154 386.392 327.333C386.392 324.511 388.677 322.224 391.497 322.224C394.316 322.224 396.601 324.511 396.601 327.333Z" fill="#F4D2AD"/>
<path d="M428.801 327.333C428.801 330.154 426.515 332.441 423.696 332.441C420.877 332.441 418.591 330.154 418.591 327.333C418.591 324.511 420.877 322.224 423.696 322.224C426.515 322.224 428.801 324.511 428.801 327.333Z" fill="#F4D2AD"/>
<path d="M461 327.333C461 330.154 458.715 332.441 455.895 332.441C453.076 332.441 450.79 330.154 450.79 327.333C450.79 324.511 453.076 322.224 455.895 322.224C458.715 322.224 461 324.511 461 327.333Z" fill="#F4D2AD"/>
<path d="M10.2095 359.555C10.2095 362.376 7.92406 364.664 5.10477 364.664C2.28548 364.664 0 362.376 0 359.555C0 356.734 2.28548 354.447 5.10477 354.447C7.92406 354.447 10.2095 356.734 10.2095 359.555Z" fill="#F4D2AD"/>
<path d="M42.4089 359.555C42.4089 362.376 40.1234 364.664 37.3041 364.664C34.4848 364.664 32.1993 362.376 32.1993 359.555C32.1993 356.734 34.4848 354.447 37.3041 354.447C40.1234 354.447 42.4089 356.734 42.4089 359.555Z" fill="#F4D2AD"/>
<path d="M74.6082 359.555C74.6082 362.376 72.3227 364.664 69.5034 364.664C66.6841 364.664 64.3986 362.376 64.3986 359.555C64.3986 356.734 66.6841 354.447 69.5034 354.447C72.3227 354.447 74.6082 356.734 74.6082 359.555Z" fill="#F4D2AD"/>
<path d="M106.807 359.555C106.807 362.376 104.522 364.664 101.703 364.664C98.8834 364.664 96.598 362.376 96.598 359.555C96.598 356.734 98.8834 354.447 101.703 354.447C104.522 354.447 106.807 356.734 106.807 359.555Z" fill="#F4D2AD"/>
<path d="M139.007 359.555C139.007 362.376 136.721 364.664 133.902 364.664C131.083 364.664 128.797 362.376 128.797 359.555C128.797 356.734 131.083 354.447 133.902 354.447C136.721 354.447 139.007 356.734 139.007 359.555Z" fill="#F4D2AD"/>
<path d="M171.206 359.555C171.206 362.376 168.921 364.664 166.101 364.664C163.282 364.664 160.997 362.376 160.997 359.555C160.997 356.734 163.282 354.447 166.101 354.447C168.921 354.447 171.206 356.734 171.206 359.555Z" fill="#F4D2AD"/>
<path d="M203.405 359.555C203.405 362.376 201.12 364.664 198.301 364.664C195.481 364.664 193.196 362.376 193.196 359.555C193.196 356.734 195.481 354.447 198.301 354.447C201.12 354.447 203.405 356.734 203.405 359.555Z" fill="#F4D2AD"/>
<path d="M235.605 359.555C235.605 362.376 233.319 364.664 230.5 364.664C227.681 364.664 225.395 362.376 225.395 359.555C225.395 356.734 227.681 354.447 230.5 354.447C233.319 354.447 235.605 356.734 235.605 359.555Z" fill="#F4D2AD"/>
<path d="M267.804 359.555C267.804 362.376 265.519 364.664 262.699 364.664C259.88 364.664 257.595 362.376 257.595 359.555C257.595 356.734 259.88 354.447 262.699 354.447C265.519 354.447 267.804 356.734 267.804 359.555Z" fill="#F4D2AD"/>
<path d="M300.003 359.555C300.003 362.376 297.718 364.664 294.899 364.664C292.079 364.664 289.794 362.376 289.794 359.555C289.794 356.734 292.079 354.447 294.899 354.447C297.718 354.447 300.003 356.734 300.003 359.555Z" fill="#F4D2AD"/>
<path d="M332.203 359.555C332.203 362.376 329.917 364.664 327.098 364.664C324.279 364.664 321.993 362.376 321.993 359.555C321.993 356.734 324.279 354.447 327.098 354.447C329.917 354.447 332.203 356.734 332.203 359.555Z" fill="#F4D2AD"/>
<path d="M364.402 359.555C364.402 362.376 362.117 364.664 359.297 364.664C356.478 364.664 354.193 362.376 354.193 359.555C354.193 356.734 356.478 354.447 359.297 354.447C362.117 354.447 364.402 356.734 364.402 359.555Z" fill="#F4D2AD"/>
<path d="M396.601 359.555C396.601 362.376 394.316 364.664 391.497 364.664C388.677 364.664 386.392 362.376 386.392 359.555C386.392 356.734 388.677 354.447 391.497 354.447C394.316 354.447 396.601 356.734 396.601 359.555Z" fill="#F4D2AD"/>
<path d="M428.801 359.555C428.801 362.376 426.515 364.664 423.696 364.664C420.877 364.664 418.591 362.376 418.591 359.555C418.591 356.734 420.877 354.447 423.696 354.447C426.515 354.447 428.801 356.734 428.801 359.555Z" fill="#F4D2AD"/>
<path d="M461 359.555C461 362.376 458.715 364.664 455.895 364.664C453.076 364.664 450.79 362.376 450.79 359.555C450.79 356.734 453.076 354.447 455.895 354.447C458.715 354.447 461 356.734 461 359.555Z" fill="#F4D2AD"/>
<path d="M10.2095 391.778C10.2095 394.599 7.92406 396.886 5.10477 396.886C2.28548 396.886 0 394.599 0 391.778C0 388.956 2.28548 386.669 5.10477 386.669C7.92406 386.669 10.2095 388.956 10.2095 391.778Z" fill="#F4D2AD"/>
<path d="M42.4089 391.778C42.4089 394.599 40.1234 396.886 37.3041 396.886C34.4848 396.886 32.1993 394.599 32.1993 391.778C32.1993 388.956 34.4848 386.669 37.3041 386.669C40.1234 386.669 42.4089 388.956 42.4089 391.778Z" fill="#F4D2AD"/>
<path d="M74.6082 391.778C74.6082 394.599 72.3227 396.886 69.5034 396.886C66.6841 396.886 64.3986 394.599 64.3986 391.778C64.3986 388.956 66.6841 386.669 69.5034 386.669C72.3227 386.669 74.6082 388.956 74.6082 391.778Z" fill="#F4D2AD"/>
<path d="M106.807 391.778C106.807 394.599 104.522 396.886 101.703 396.886C98.8834 396.886 96.598 394.599 96.598 391.778C96.598 388.956 98.8834 386.669 101.703 386.669C104.522 386.669 106.807 388.956 106.807 391.778Z" fill="#F4D2AD"/>
<path d="M139.007 391.778C139.007 394.599 136.721 396.886 133.902 396.886C131.083 396.886 128.797 394.599 128.797 391.778C128.797 388.956 131.083 386.669 133.902 386.669C136.721 386.669 139.007 388.956 139.007 391.778Z" fill="#F4D2AD"/>
<path d="M171.206 391.778C171.206 394.599 168.921 396.886 166.101 396.886C163.282 396.886 160.997 394.599 160.997 391.778C160.997 388.956 163.282 386.669 166.101 386.669C168.921 386.669 171.206 388.956 171.206 391.778Z" fill="#F4D2AD"/>
<path d="M203.405 391.778C203.405 394.599 201.12 396.886 198.301 396.886C195.481 396.886 193.196 394.599 193.196 391.778C193.196 388.956 195.481 386.669 198.301 386.669C201.12 386.669 203.405 388.956 203.405 391.778Z" fill="#F4D2AD"/>
<path d="M235.605 391.778C235.605 394.599 233.319 396.886 230.5 396.886C227.681 396.886 225.395 394.599 225.395 391.778C225.395 388.956 227.681 386.669 230.5 386.669C233.319 386.669 235.605 388.956 235.605 391.778Z" fill="#F4D2AD"/>
<path d="M267.804 391.778C267.804 394.599 265.519 396.886 262.699 396.886C259.88 396.886 257.595 394.599 257.595 391.778C257.595 388.956 259.88 386.669 262.699 386.669C265.519 386.669 267.804 388.956 267.804 391.778Z" fill="#F4D2AD"/>
<path d="M300.003 391.778C300.003 394.599 297.718 396.886 294.899 396.886C292.079 396.886 289.794 394.599 289.794 391.778C289.794 388.956 292.079 386.669 294.899 386.669C297.718 386.669 300.003 388.956 300.003 391.778Z" fill="#F4D2AD"/>
<path d="M332.203 391.778C332.203 394.599 329.917 396.886 327.098 396.886C324.279 396.886 321.993 394.599 321.993 391.778C321.993 388.956 324.279 386.669 327.098 386.669C329.917 386.669 332.203 388.956 332.203 391.778Z" fill="#F4D2AD"/>
<path d="M364.402 391.778C364.402 394.599 362.117 396.886 359.297 396.886C356.478 396.886 354.193 394.599 354.193 391.778C354.193 388.956 356.478 386.669 359.297 386.669C362.117 386.669 364.402 388.956 364.402 391.778Z" fill="#F4D2AD"/>
<path d="M396.601 391.778C396.601 394.599 394.316 396.886 391.497 396.886C388.677 396.886 386.392 394.599 386.392 391.778C386.392 388.956 388.677 386.669 391.497 386.669C394.316 386.669 396.601 388.956 396.601 391.778Z" fill="#F4D2AD"/>
<path d="M428.801 391.778C428.801 394.599 426.515 396.886 423.696 396.886C420.877 396.886 418.591 394.599 418.591 391.778C418.591 388.956 420.877 386.669 423.696 386.669C426.515 386.669 428.801 388.956 428.801 391.778Z" fill="#F4D2AD"/>
<path d="M461 391.778C461 394.599 458.715 396.886 455.895 396.886C453.076 396.886 450.79 394.599 450.79 391.778C450.79 388.956 453.076 386.669 455.895 386.669C458.715 386.669 461 388.956 461 391.778Z" fill="#F4D2AD"/>
<path d="M10.2095 424C10.2095 426.821 7.92406 429.108 5.10477 429.108C2.28548 429.108 0 426.821 0 424C0 421.179 2.28548 418.892 5.10477 418.892C7.92406 418.892 10.2095 421.179 10.2095 424Z" fill="#F4D2AD"/>
<path d="M42.4089 424C42.4089 426.821 40.1234 429.108 37.3041 429.108C34.4848 429.108 32.1993 426.821 32.1993 424C32.1993 421.179 34.4848 418.892 37.3041 418.892C40.1234 418.892 42.4089 421.179 42.4089 424Z" fill="#F4D2AD"/>
<path d="M74.6082 424C74.6082 426.821 72.3227 429.108 69.5034 429.108C66.6841 429.108 64.3986 426.821 64.3986 424C64.3986 421.179 66.6841 418.892 69.5034 418.892C72.3227 418.892 74.6082 421.179 74.6082 424Z" fill="#F4D2AD"/>
<path d="M106.807 424C106.807 426.821 104.522 429.108 101.703 429.108C98.8834 429.108 96.598 426.821 96.598 424C96.598 421.179 98.8834 418.892 101.703 418.892C104.522 418.892 106.807 421.179 106.807 424Z" fill="#F4D2AD"/>
<path d="M139.007 424C139.007 426.821 136.721 429.108 133.902 429.108C131.083 429.108 128.797 426.821 128.797 424C128.797 421.179 131.083 418.892 133.902 418.892C136.721 418.892 139.007 421.179 139.007 424Z" fill="#F4D2AD"/>
<path d="M171.206 424C171.206 426.821 168.921 429.108 166.101 429.108C163.282 429.108 160.997 426.821 160.997 424C160.997 421.179 163.282 418.892 166.101 418.892C168.921 418.892 171.206 421.179 171.206 424Z" fill="#F4D2AD"/>
<path d="M203.405 424C203.405 426.821 201.12 429.108 198.301 429.108C195.481 429.108 193.196 426.821 193.196 424C193.196 421.179 195.481 418.892 198.301 418.892C201.12 418.892 203.405 421.179 203.405 424Z" fill="#F4D2AD"/>
<path d="M235.605 424C235.605 426.821 233.319 429.108 230.5 429.108C227.681 429.108 225.395 426.821 225.395 424C225.395 421.179 227.681 418.892 230.5 418.892C233.319 418.892 235.605 421.179 235.605 424Z" fill="#F4D2AD"/>
<path d="M267.804 424C267.804 426.821 265.519 429.108 262.699 429.108C259.88 429.108 257.595 426.821 257.595 424C257.595 421.179 259.88 418.892 262.699 418.892C265.519 418.892 267.804 421.179 267.804 424Z" fill="#F4D2AD"/>
<path d="M300.003 424C300.003 426.821 297.718 429.108 294.899 429.108C292.079 429.108 289.794 426.821 289.794 424C289.794 421.179 292.079 418.892 294.899 418.892C297.718 418.892 300.003 421.179 300.003 424Z" fill="#F4D2AD"/>
<path d="M332.203 424C332.203 426.821 329.917 429.108 327.098 429.108C324.279 429.108 321.993 426.821 321.993 424C321.993 421.179 324.279 418.892 327.098 418.892C329.917 418.892 332.203 421.179 332.203 424Z" fill="#F4D2AD"/>
<path d="M364.402 424C364.402 426.821 362.117 429.108 359.297 429.108C356.478 429.108 354.193 426.821 354.193 424C354.193 421.179 356.478 418.892 359.297 418.892C362.117 418.892 364.402 421.179 364.402 424Z" fill="#F4D2AD"/>
<path d="M396.601 424C396.601 426.821 394.316 429.108 391.497 429.108C388.677 429.108 386.392 426.821 386.392 424C386.392 421.179 388.677 418.892 391.497 418.892C394.316 418.892 396.601 421.179 396.601 424Z" fill="#F4D2AD"/>
<path d="M428.801 424C428.801 426.821 426.515 429.108 423.696 429.108C420.877 429.108 418.591 426.821 418.591 424C418.591 421.179 420.877 418.892 423.696 418.892C426.515 418.892 428.801 421.179 428.801 424Z" fill="#F4D2AD"/>
<path d="M461 424C461 426.821 458.715 429.108 455.895 429.108C453.076 429.108 450.79 426.821 450.79 424C450.79 421.179 453.076 418.892 455.895 418.892C458.715 418.892 461 421.179 461 424Z" fill="#F4D2AD"/>
<path d="M10.2095 456.222C10.2095 459.044 7.92406 461.331 5.10477 461.331C2.28548 461.331 0 459.044 0 456.222C0 453.401 2.28548 451.114 5.10477 451.114C7.92406 451.114 10.2095 453.401 10.2095 456.222Z" fill="#F4D2AD"/>
<path d="M42.4089 456.222C42.4089 459.044 40.1234 461.331 37.3041 461.331C34.4848 461.331 32.1993 459.044 32.1993 456.222C32.1993 453.401 34.4848 451.114 37.3041 451.114C40.1234 451.114 42.4089 453.401 42.4089 456.222Z" fill="#F4D2AD"/>
<path d="M74.6082 456.222C74.6082 459.044 72.3227 461.331 69.5034 461.331C66.6841 461.331 64.3986 459.044 64.3986 456.222C64.3986 453.401 66.6841 451.114 69.5034 451.114C72.3227 451.114 74.6082 453.401 74.6082 456.222Z" fill="#F4D2AD"/>
<path d="M106.807 456.222C106.807 459.044 104.522 461.331 101.703 461.331C98.8834 461.331 96.598 459.044 96.598 456.222C96.598 453.401 98.8834 451.114 101.703 451.114C104.522 451.114 106.807 453.401 106.807 456.222Z" fill="#F4D2AD"/>
<path d="M139.007 456.222C139.007 459.044 136.721 461.331 133.902 461.331C131.083 461.331 128.797 459.044 128.797 456.222C128.797 453.401 131.083 451.114 133.902 451.114C136.721 451.114 139.007 453.401 139.007 456.222Z" fill="#F4D2AD"/>
<path d="M171.206 456.222C171.206 459.044 168.921 461.331 166.101 461.331C163.282 461.331 160.997 459.044 160.997 456.222C160.997 453.401 163.282 451.114 166.101 451.114C168.921 451.114 171.206 453.401 171.206 456.222Z" fill="#F4D2AD"/>
<path d="M203.405 456.222C203.405 459.044 201.12 461.331 198.301 461.331C195.481 461.331 193.196 459.044 193.196 456.222C193.196 453.401 195.481 451.114 198.301 451.114C201.12 451.114 203.405 453.401 203.405 456.222Z" fill="#F4D2AD"/>
<path d="M235.605 456.222C235.605 459.044 233.319 461.331 230.5 461.331C227.681 461.331 225.395 459.044 225.395 456.222C225.395 453.401 227.681 451.114 230.5 451.114C233.319 451.114 235.605 453.401 235.605 456.222Z" fill="#F4D2AD"/>
<path d="M267.804 456.222C267.804 459.044 265.519 461.331 262.699 461.331C259.88 461.331 257.595 459.044 257.595 456.222C257.595 453.401 259.88 451.114 262.699 451.114C265.519 451.114 267.804 453.401 267.804 456.222Z" fill="#F4D2AD"/>
<path d="M300.003 456.222C300.003 459.044 297.718 461.331 294.899 461.331C292.079 461.331 289.794 459.044 289.794 456.222C289.794 453.401 292.079 451.114 294.899 451.114C297.718 451.114 300.003 453.401 300.003 456.222Z" fill="#F4D2AD"/>
<path d="M332.203 456.222C332.203 459.044 329.917 461.331 327.098 461.331C324.279 461.331 321.993 459.044 321.993 456.222C321.993 453.401 324.279 451.114 327.098 451.114C329.917 451.114 332.203 453.401 332.203 456.222Z" fill="#F4D2AD"/>
<path d="M364.402 456.222C364.402 459.044 362.117 461.331 359.297 461.331C356.478 461.331 354.193 459.044 354.193 456.222C354.193 453.401 356.478 451.114 359.297 451.114C362.117 451.114 364.402 453.401 364.402 456.222Z" fill="#F4D2AD"/>
<path d="M396.601 456.222C396.601 459.044 394.316 461.331 391.497 461.331C388.677 461.331 386.392 459.044 386.392 456.222C386.392 453.401 388.677 451.114 391.497 451.114C394.316 451.114 396.601 453.401 396.601 456.222Z" fill="#F4D2AD"/>
<path d="M428.801 456.222C428.801 459.044 426.515 461.331 423.696 461.331C420.877 461.331 418.591 459.044 418.591 456.222C418.591 453.401 420.877 451.114 423.696 451.114C426.515 451.114 428.801 453.401 428.801 456.222Z" fill="#F4D2AD"/>
<path d="M461 456.222C461 459.044 458.715 461.331 455.895 461.331C453.076 461.331 450.79 459.044 450.79 456.222C450.79 453.401 453.076 451.114 455.895 451.114C458.715 451.114 461 453.401 461 456.222Z" fill="#F4D2AD"/>
<path d="M10.2095 488.445C10.2095 491.266 7.92406 493.553 5.10477 493.553C2.28548 493.553 0 491.266 0 488.445C0 485.624 2.28548 483.336 5.10477 483.336C7.92406 483.336 10.2095 485.624 10.2095 488.445Z" fill="#F4D2AD"/>
<path d="M42.4089 488.445C42.4089 491.266 40.1234 493.553 37.3041 493.553C34.4848 493.553 32.1993 491.266 32.1993 488.445C32.1993 485.624 34.4848 483.336 37.3041 483.336C40.1234 483.336 42.4089 485.624 42.4089 488.445Z" fill="#F4D2AD"/>
<path d="M74.6082 488.445C74.6082 491.266 72.3227 493.553 69.5034 493.553C66.6841 493.553 64.3986 491.266 64.3986 488.445C64.3986 485.624 66.6841 483.336 69.5034 483.336C72.3227 483.336 74.6082 485.624 74.6082 488.445Z" fill="#F4D2AD"/>
<path d="M106.807 488.445C106.807 491.266 104.522 493.553 101.703 493.553C98.8834 493.553 96.598 491.266 96.598 488.445C96.598 485.624 98.8834 483.336 101.703 483.336C104.522 483.336 106.807 485.624 106.807 488.445Z" fill="#F4D2AD"/>
<path d="M139.007 488.445C139.007 491.266 136.721 493.553 133.902 493.553C131.083 493.553 128.797 491.266 128.797 488.445C128.797 485.624 131.083 483.336 133.902 483.336C136.721 483.336 139.007 485.624 139.007 488.445Z" fill="#F4D2AD"/>
<path d="M171.206 488.445C171.206 491.266 168.921 493.553 166.101 493.553C163.282 493.553 160.997 491.266 160.997 488.445C160.997 485.624 163.282 483.336 166.101 483.336C168.921 483.336 171.206 485.624 171.206 488.445Z" fill="#F4D2AD"/>
<path d="M203.405 488.445C203.405 491.266 201.12 493.553 198.301 493.553C195.481 493.553 193.196 491.266 193.196 488.445C193.196 485.624 195.481 483.336 198.301 483.336C201.12 483.336 203.405 485.624 203.405 488.445Z" fill="#F4D2AD"/>
<path d="M235.605 488.445C235.605 491.266 233.319 493.553 230.5 493.553C227.681 493.553 225.395 491.266 225.395 488.445C225.395 485.624 227.681 483.336 230.5 483.336C233.319 483.336 235.605 485.624 235.605 488.445Z" fill="#F4D2AD"/>
<path d="M267.804 488.445C267.804 491.266 265.519 493.553 262.699 493.553C259.88 493.553 257.595 491.266 257.595 488.445C257.595 485.624 259.88 483.336 262.699 483.336C265.519 483.336 267.804 485.624 267.804 488.445Z" fill="#F4D2AD"/>
<path d="M300.003 488.445C300.003 491.266 297.718 493.553 294.899 493.553C292.079 493.553 289.794 491.266 289.794 488.445C289.794 485.624 292.079 483.336 294.899 483.336C297.718 483.336 300.003 485.624 300.003 488.445Z" fill="#F4D2AD"/>
<path d="M332.203 488.445C332.203 491.266 329.917 493.553 327.098 493.553C324.279 493.553 321.993 491.266 321.993 488.445C321.993 485.624 324.279 483.336 327.098 483.336C329.917 483.336 332.203 485.624 332.203 488.445Z" fill="#F4D2AD"/>
<path d="M364.402 488.445C364.402 491.266 362.117 493.553 359.297 493.553C356.478 493.553 354.193 491.266 354.193 488.445C354.193 485.624 356.478 483.336 359.297 483.336C362.117 483.336 364.402 485.624 364.402 488.445Z" fill="#F4D2AD"/>
<path d="M396.601 488.445C396.601 491.266 394.316 493.553 391.497 493.553C388.677 493.553 386.392 491.266 386.392 488.445C386.392 485.624 388.677 483.336 391.497 483.336C394.316 483.336 396.601 485.624 396.601 488.445Z" fill="#F4D2AD"/>
<path d="M428.801 488.445C428.801 491.266 426.515 493.553 423.696 493.553C420.877 493.553 418.591 491.266 418.591 488.445C418.591 485.624 420.877 483.336 423.696 483.336C426.515 483.336 428.801 485.624 428.801 488.445Z" fill="#F4D2AD"/>
<path d="M461 488.445C461 491.266 458.715 493.553 455.895 493.553C453.076 493.553 450.79 491.266 450.79 488.445C450.79 485.624 453.076 483.336 455.895 483.336C458.715 483.336 461 485.624 461 488.445Z" fill="#F4D2AD"/>
<path d="M10.2095 520.667C10.2095 523.489 7.92406 525.776 5.10477 525.776C2.28548 525.776 0 523.489 0 520.667C0 517.846 2.28548 515.559 5.10477 515.559C7.92406 515.559 10.2095 517.846 10.2095 520.667Z" fill="#F4D2AD"/>
<path d="M42.4089 520.667C42.4089 523.489 40.1234 525.776 37.3041 525.776C34.4848 525.776 32.1993 523.489 32.1993 520.667C32.1993 517.846 34.4848 515.559 37.3041 515.559C40.1234 515.559 42.4089 517.846 42.4089 520.667Z" fill="#F4D2AD"/>
<path d="M74.6082 520.667C74.6082 523.489 72.3227 525.776 69.5034 525.776C66.6841 525.776 64.3986 523.489 64.3986 520.667C64.3986 517.846 66.6841 515.559 69.5034 515.559C72.3227 515.559 74.6082 517.846 74.6082 520.667Z" fill="#F4D2AD"/>
<path d="M106.807 520.667C106.807 523.489 104.522 525.776 101.703 525.776C98.8834 525.776 96.598 523.489 96.598 520.667C96.598 517.846 98.8834 515.559 101.703 515.559C104.522 515.559 106.807 517.846 106.807 520.667Z" fill="#F4D2AD"/>
<path d="M139.007 520.667C139.007 523.489 136.721 525.776 133.902 525.776C131.083 525.776 128.797 523.489 128.797 520.667C128.797 517.846 131.083 515.559 133.902 515.559C136.721 515.559 139.007 517.846 139.007 520.667Z" fill="#F4D2AD"/>
<path d="M171.206 520.667C171.206 523.489 168.921 525.776 166.101 525.776C163.282 525.776 160.997 523.489 160.997 520.667C160.997 517.846 163.282 515.559 166.101 515.559C168.921 515.559 171.206 517.846 171.206 520.667Z" fill="#F4D2AD"/>
<path d="M203.405 520.667C203.405 523.489 201.12 525.776 198.301 525.776C195.481 525.776 193.196 523.489 193.196 520.667C193.196 517.846 195.481 515.559 198.301 515.559C201.12 515.559 203.405 517.846 203.405 520.667Z" fill="#F4D2AD"/>
<path d="M235.605 520.667C235.605 523.489 233.319 525.776 230.5 525.776C227.681 525.776 225.395 523.489 225.395 520.667C225.395 517.846 227.681 515.559 230.5 515.559C233.319 515.559 235.605 517.846 235.605 520.667Z" fill="#F4D2AD"/>
<path d="M267.804 520.667C267.804 523.489 265.519 525.776 262.699 525.776C259.88 525.776 257.595 523.489 257.595 520.667C257.595 517.846 259.88 515.559 262.699 515.559C265.519 515.559 267.804 517.846 267.804 520.667Z" fill="#F4D2AD"/>
<path d="M300.003 520.667C300.003 523.489 297.718 525.776 294.899 525.776C292.079 525.776 289.794 523.489 289.794 520.667C289.794 517.846 292.079 515.559 294.899 515.559C297.718 515.559 300.003 517.846 300.003 520.667Z" fill="#F4D2AD"/>
<path d="M332.203 520.667C332.203 523.489 329.917 525.776 327.098 525.776C324.279 525.776 321.993 523.489 321.993 520.667C321.993 517.846 324.279 515.559 327.098 515.559C329.917 515.559 332.203 517.846 332.203 520.667Z" fill="#F4D2AD"/>
<path d="M364.402 520.667C364.402 523.489 362.117 525.776 359.297 525.776C356.478 525.776 354.193 523.489 354.193 520.667C354.193 517.846 356.478 515.559 359.297 515.559C362.117 515.559 364.402 517.846 364.402 520.667Z" fill="#F4D2AD"/>
<path d="M396.601 520.667C396.601 523.489 394.316 525.776 391.497 525.776C388.677 525.776 386.392 523.489 386.392 520.667C386.392 517.846 388.677 515.559 391.497 515.559C394.316 515.559 396.601 517.846 396.601 520.667Z" fill="#F4D2AD"/>
<path d="M428.801 520.667C428.801 523.489 426.515 525.776 423.696 525.776C420.877 525.776 418.591 523.489 418.591 520.667C418.591 517.846 420.877 515.559 423.696 515.559C426.515 515.559 428.801 517.846 428.801 520.667Z" fill="#F4D2AD"/>
<path d="M461 520.667C461 523.489 458.715 525.776 455.895 525.776C453.076 525.776 450.79 523.489 450.79 520.667C450.79 517.846 453.076 515.559 455.895 515.559C458.715 515.559 461 517.846 461 520.667Z" fill="#F4D2AD"/>
<path d="M10.2095 552.89C10.2095 555.711 7.92406 557.998 5.10477 557.998C2.28548 557.998 0 555.711 0 552.89C0 550.068 2.28548 547.781 5.10477 547.781C7.92406 547.781 10.2095 550.068 10.2095 552.89Z" fill="#F4D2AD"/>
<path d="M42.4089 552.89C42.4089 555.711 40.1234 557.998 37.3041 557.998C34.4848 557.998 32.1993 555.711 32.1993 552.89C32.1993 550.068 34.4848 547.781 37.3041 547.781C40.1234 547.781 42.4089 550.068 42.4089 552.89Z" fill="#F4D2AD"/>
<path d="M74.6082 552.89C74.6082 555.711 72.3227 557.998 69.5034 557.998C66.6841 557.998 64.3986 555.711 64.3986 552.89C64.3986 550.068 66.6841 547.781 69.5034 547.781C72.3227 547.781 74.6082 550.068 74.6082 552.89Z" fill="#F4D2AD"/>
<path d="M106.807 552.89C106.807 555.711 104.522 557.998 101.703 557.998C98.8834 557.998 96.598 555.711 96.598 552.89C96.598 550.068 98.8834 547.781 101.703 547.781C104.522 547.781 106.807 550.068 106.807 552.89Z" fill="#F4D2AD"/>
<path d="M139.007 552.89C139.007 555.711 136.721 557.998 133.902 557.998C131.083 557.998 128.797 555.711 128.797 552.89C128.797 550.068 131.083 547.781 133.902 547.781C136.721 547.781 139.007 550.068 139.007 552.89Z" fill="#F4D2AD"/>
<path d="M171.206 552.89C171.206 555.711 168.921 557.998 166.101 557.998C163.282 557.998 160.997 555.711 160.997 552.89C160.997 550.068 163.282 547.781 166.101 547.781C168.921 547.781 171.206 550.068 171.206 552.89Z" fill="#F4D2AD"/>
<path d="M203.405 552.89C203.405 555.711 201.12 557.998 198.301 557.998C195.481 557.998 193.196 555.711 193.196 552.89C193.196 550.068 195.481 547.781 198.301 547.781C201.12 547.781 203.405 550.068 203.405 552.89Z" fill="#F4D2AD"/>
<path d="M235.605 552.89C235.605 555.711 233.319 557.998 230.5 557.998C227.681 557.998 225.395 555.711 225.395 552.89C225.395 550.068 227.681 547.781 230.5 547.781C233.319 547.781 235.605 550.068 235.605 552.89Z" fill="#F4D2AD"/>
<path d="M267.804 552.89C267.804 555.711 265.519 557.998 262.699 557.998C259.88 557.998 257.595 555.711 257.595 552.89C257.595 550.068 259.88 547.781 262.699 547.781C265.519 547.781 267.804 550.068 267.804 552.89Z" fill="#F4D2AD"/>
<path d="M300.003 552.89C300.003 555.711 297.718 557.998 294.899 557.998C292.079 557.998 289.794 555.711 289.794 552.89C289.794 550.068 292.079 547.781 294.899 547.781C297.718 547.781 300.003 550.068 300.003 552.89Z" fill="#F4D2AD"/>
<path d="M332.203 552.89C332.203 555.711 329.917 557.998 327.098 557.998C324.279 557.998 321.993 555.711 321.993 552.89C321.993 550.068 324.279 547.781 327.098 547.781C329.917 547.781 332.203 550.068 332.203 552.89Z" fill="#F4D2AD"/>
<path d="M364.402 552.89C364.402 555.711 362.117 557.998 359.297 557.998C356.478 557.998 354.193 555.711 354.193 552.89C354.193 550.068 356.478 547.781 359.297 547.781C362.117 547.781 364.402 550.068 364.402 552.89Z" fill="#F4D2AD"/>
<path d="M396.601 552.89C396.601 555.711 394.316 557.998 391.497 557.998C388.677 557.998 386.392 555.711 386.392 552.89C386.392 550.068 388.677 547.781 391.497 547.781C394.316 547.781 396.601 550.068 396.601 552.89Z" fill="#F4D2AD"/>
<path d="M428.801 552.89C428.801 555.711 426.515 557.998 423.696 557.998C420.877 557.998 418.591 555.711 418.591 552.89C418.591 550.068 420.877 547.781 423.696 547.781C426.515 547.781 428.801 550.068 428.801 552.89Z" fill="#F4D2AD"/>
<path d="M461 552.89C461 555.711 458.715 557.998 455.895 557.998C453.076 557.998 450.79 555.711 450.79 552.89C450.79 550.068 453.076 547.781 455.895 547.781C458.715 547.781 461 550.068 461 552.89Z" fill="#F4D2AD"/>
<path d="M10.2095 585.112C10.2095 587.933 7.92406 590.221 5.10477 590.221C2.28548 590.221 0 587.933 0 585.112C0 582.291 2.28548 580.004 5.10477 580.004C7.92406 580.004 10.2095 582.291 10.2095 585.112Z" fill="#F4D2AD"/>
<path d="M42.4089 585.112C42.4089 587.933 40.1234 590.221 37.3041 590.221C34.4848 590.221 32.1993 587.933 32.1993 585.112C32.1993 582.291 34.4848 580.004 37.3041 580.004C40.1234 580.004 42.4089 582.291 42.4089 585.112Z" fill="#F4D2AD"/>
<path d="M74.6082 585.112C74.6082 587.933 72.3227 590.221 69.5034 590.221C66.6841 590.221 64.3986 587.933 64.3986 585.112C64.3986 582.291 66.6841 580.004 69.5034 580.004C72.3227 580.004 74.6082 582.291 74.6082 585.112Z" fill="#F4D2AD"/>
<path d="M106.807 585.112C106.807 587.933 104.522 590.221 101.703 590.221C98.8834 590.221 96.598 587.933 96.598 585.112C96.598 582.291 98.8834 580.004 101.703 580.004C104.522 580.004 106.807 582.291 106.807 585.112Z" fill="#F4D2AD"/>
<path d="M139.007 585.112C139.007 587.933 136.721 590.221 133.902 590.221C131.083 590.221 128.797 587.933 128.797 585.112C128.797 582.291 131.083 580.004 133.902 580.004C136.721 580.004 139.007 582.291 139.007 585.112Z" fill="#F4D2AD"/>
<path d="M171.206 585.112C171.206 587.933 168.921 590.221 166.101 590.221C163.282 590.221 160.997 587.933 160.997 585.112C160.997 582.291 163.282 580.004 166.101 580.004C168.921 580.004 171.206 582.291 171.206 585.112Z" fill="#F4D2AD"/>
<path d="M203.405 585.112C203.405 587.933 201.12 590.221 198.301 590.221C195.481 590.221 193.196 587.933 193.196 585.112C193.196 582.291 195.481 580.004 198.301 580.004C201.12 580.004 203.405 582.291 203.405 585.112Z" fill="#F4D2AD"/>
<path d="M235.605 585.112C235.605 587.933 233.319 590.221 230.5 590.221C227.681 590.221 225.395 587.933 225.395 585.112C225.395 582.291 227.681 580.004 230.5 580.004C233.319 580.004 235.605 582.291 235.605 585.112Z" fill="#F4D2AD"/>
<path d="M267.804 585.112C267.804 587.933 265.519 590.221 262.699 590.221C259.88 590.221 257.595 587.933 257.595 585.112C257.595 582.291 259.88 580.004 262.699 580.004C265.519 580.004 267.804 582.291 267.804 585.112Z" fill="#F4D2AD"/>
<path d="M300.003 585.112C300.003 587.933 297.718 590.221 294.899 590.221C292.079 590.221 289.794 587.933 289.794 585.112C289.794 582.291 292.079 580.004 294.899 580.004C297.718 580.004 300.003 582.291 300.003 585.112Z" fill="#F4D2AD"/>
<path d="M332.203 585.112C332.203 587.933 329.917 590.221 327.098 590.221C324.279 590.221 321.993 587.933 321.993 585.112C321.993 582.291 324.279 580.004 327.098 580.004C329.917 580.004 332.203 582.291 332.203 585.112Z" fill="#F4D2AD"/>
<path d="M364.402 585.112C364.402 587.933 362.117 590.221 359.297 590.221C356.478 590.221 354.193 587.933 354.193 585.112C354.193 582.291 356.478 580.004 359.297 580.004C362.117 580.004 364.402 582.291 364.402 585.112Z" fill="#F4D2AD"/>
<path d="M396.601 585.112C396.601 587.933 394.316 590.221 391.497 590.221C388.677 590.221 386.392 587.933 386.392 585.112C386.392 582.291 388.677 580.004 391.497 580.004C394.316 580.004 396.601 582.291 396.601 585.112Z" fill="#F4D2AD"/>
<path d="M428.801 585.112C428.801 587.933 426.515 590.221 423.696 590.221C420.877 590.221 418.591 587.933 418.591 585.112C418.591 582.291 420.877 580.004 423.696 580.004C426.515 580.004 428.801 582.291 428.801 585.112Z" fill="#F4D2AD"/>
<path d="M461 585.112C461 587.933 458.715 590.221 455.895 590.221C453.076 590.221 450.79 587.933 450.79 585.112C450.79 582.291 453.076 580.004 455.895 580.004C458.715 580.004 461 582.291 461 585.112Z" fill="#F4D2AD"/>
<path d="M10.2095 617.335C10.2095 620.156 7.92406 622.443 5.10477 622.443C2.28548 622.443 0 620.156 0 617.335C0 614.513 2.28548 612.226 5.10477 612.226C7.92406 612.226 10.2095 614.513 10.2095 617.335Z" fill="#F4D2AD"/>
<path d="M42.4089 617.335C42.4089 620.156 40.1234 622.443 37.3041 622.443C34.4848 622.443 32.1993 620.156 32.1993 617.335C32.1993 614.513 34.4848 612.226 37.3041 612.226C40.1234 612.226 42.4089 614.513 42.4089 617.335Z" fill="#F4D2AD"/>
<path d="M74.6082 617.335C74.6082 620.156 72.3227 622.443 69.5034 622.443C66.6841 622.443 64.3986 620.156 64.3986 617.335C64.3986 614.513 66.6841 612.226 69.5034 612.226C72.3227 612.226 74.6082 614.513 74.6082 617.335Z" fill="#F4D2AD"/>
<path d="M106.807 617.335C106.807 620.156 104.522 622.443 101.703 622.443C98.8834 622.443 96.598 620.156 96.598 617.335C96.598 614.513 98.8834 612.226 101.703 612.226C104.522 612.226 106.807 614.513 106.807 617.335Z" fill="#F4D2AD"/>
<path d="M139.007 617.335C139.007 620.156 136.721 622.443 133.902 622.443C131.083 622.443 128.797 620.156 128.797 617.335C128.797 614.513 131.083 612.226 133.902 612.226C136.721 612.226 139.007 614.513 139.007 617.335Z" fill="#F4D2AD"/>
<path d="M171.206 617.335C171.206 620.156 168.921 622.443 166.101 622.443C163.282 622.443 160.997 620.156 160.997 617.335C160.997 614.513 163.282 612.226 166.101 612.226C168.921 612.226 171.206 614.513 171.206 617.335Z" fill="#F4D2AD"/>
<path d="M203.405 617.335C203.405 620.156 201.12 622.443 198.301 622.443C195.481 622.443 193.196 620.156 193.196 617.335C193.196 614.513 195.481 612.226 198.301 612.226C201.12 612.226 203.405 614.513 203.405 617.335Z" fill="#F4D2AD"/>
<path d="M235.605 617.335C235.605 620.156 233.319 622.443 230.5 622.443C227.681 622.443 225.395 620.156 225.395 617.335C225.395 614.513 227.681 612.226 230.5 612.226C233.319 612.226 235.605 614.513 235.605 617.335Z" fill="#F4D2AD"/>
<path d="M267.804 617.335C267.804 620.156 265.519 622.443 262.699 622.443C259.88 622.443 257.595 620.156 257.595 617.335C257.595 614.513 259.88 612.226 262.699 612.226C265.519 612.226 267.804 614.513 267.804 617.335Z" fill="#F4D2AD"/>
<path d="M300.003 617.335C300.003 620.156 297.718 622.443 294.899 622.443C292.079 622.443 289.794 620.156 289.794 617.335C289.794 614.513 292.079 612.226 294.899 612.226C297.718 612.226 300.003 614.513 300.003 617.335Z" fill="#F4D2AD"/>
<path d="M332.203 617.335C332.203 620.156 329.917 622.443 327.098 622.443C324.279 622.443 321.993 620.156 321.993 617.335C321.993 614.513 324.279 612.226 327.098 612.226C329.917 612.226 332.203 614.513 332.203 617.335Z" fill="#F4D2AD"/>
<path d="M364.402 617.335C364.402 620.156 362.117 622.443 359.297 622.443C356.478 622.443 354.193 620.156 354.193 617.335C354.193 614.513 356.478 612.226 359.297 612.226C362.117 612.226 364.402 614.513 364.402 617.335Z" fill="#F4D2AD"/>
<path d="M396.601 617.335C396.601 620.156 394.316 622.443 391.497 622.443C388.677 622.443 386.392 620.156 386.392 617.335C386.392 614.513 388.677 612.226 391.497 612.226C394.316 612.226 396.601 614.513 396.601 617.335Z" fill="#F4D2AD"/>
<path d="M428.801 617.335C428.801 620.156 426.515 622.443 423.696 622.443C420.877 622.443 418.591 620.156 418.591 617.335C418.591 614.513 420.877 612.226 423.696 612.226C426.515 612.226 428.801 614.513 428.801 617.335Z" fill="#F4D2AD"/>
<path d="M461 617.335C461 620.156 458.715 622.443 455.895 622.443C453.076 622.443 450.79 620.156 450.79 617.335C450.79 614.513 453.076 612.226 455.895 612.226C458.715 612.226 461 614.513 461 617.335Z" fill="#F4D2AD"/>
<path d="M10.2095 649.557C10.2095 652.378 7.92406 654.665 5.10477 654.665C2.28548 654.665 0 652.378 0 649.557C0 646.736 2.28548 644.449 5.10477 644.449C7.92406 644.449 10.2095 646.736 10.2095 649.557Z" fill="#F4D2AD"/>
<path d="M42.4089 649.557C42.4089 652.378 40.1234 654.665 37.3041 654.665C34.4848 654.665 32.1993 652.378 32.1993 649.557C32.1993 646.736 34.4848 644.449 37.3041 644.449C40.1234 644.449 42.4089 646.736 42.4089 649.557Z" fill="#F4D2AD"/>
<path d="M74.6082 649.557C74.6082 652.378 72.3227 654.665 69.5034 654.665C66.6841 654.665 64.3986 652.378 64.3986 649.557C64.3986 646.736 66.6841 644.449 69.5034 644.449C72.3227 644.449 74.6082 646.736 74.6082 649.557Z" fill="#F4D2AD"/>
<path d="M106.807 649.557C106.807 652.378 104.522 654.665 101.703 654.665C98.8834 654.665 96.598 652.378 96.598 649.557C96.598 646.736 98.8834 644.449 101.703 644.449C104.522 644.449 106.807 646.736 106.807 649.557Z" fill="#F4D2AD"/>
<path d="M139.007 649.557C139.007 652.378 136.721 654.665 133.902 654.665C131.083 654.665 128.797 652.378 128.797 649.557C128.797 646.736 131.083 644.449 133.902 644.449C136.721 644.449 139.007 646.736 139.007 649.557Z" fill="#F4D2AD"/>
<path d="M171.206 649.557C171.206 652.378 168.921 654.665 166.101 654.665C163.282 654.665 160.997 652.378 160.997 649.557C160.997 646.736 163.282 644.449 166.101 644.449C168.921 644.449 171.206 646.736 171.206 649.557Z" fill="#F4D2AD"/>
<path d="M203.405 649.557C203.405 652.378 201.12 654.665 198.301 654.665C195.481 654.665 193.196 652.378 193.196 649.557C193.196 646.736 195.481 644.449 198.301 644.449C201.12 644.449 203.405 646.736 203.405 649.557Z" fill="#F4D2AD"/>
<path d="M235.605 649.557C235.605 652.378 233.319 654.665 230.5 654.665C227.681 654.665 225.395 652.378 225.395 649.557C225.395 646.736 227.681 644.449 230.5 644.449C233.319 644.449 235.605 646.736 235.605 649.557Z" fill="#F4D2AD"/>
<path d="M267.804 649.557C267.804 652.378 265.519 654.665 262.699 654.665C259.88 654.665 257.595 652.378 257.595 649.557C257.595 646.736 259.88 644.449 262.699 644.449C265.519 644.449 267.804 646.736 267.804 649.557Z" fill="#F4D2AD"/>
<path d="M300.003 649.557C300.003 652.378 297.718 654.665 294.899 654.665C292.079 654.665 289.794 652.378 289.794 649.557C289.794 646.736 292.079 644.449 294.899 644.449C297.718 644.449 300.003 646.736 300.003 649.557Z" fill="#F4D2AD"/>
<path d="M332.203 649.557C332.203 652.378 329.917 654.665 327.098 654.665C324.279 654.665 321.993 652.378 321.993 649.557C321.993 646.736 324.279 644.449 327.098 644.449C329.917 644.449 332.203 646.736 332.203 649.557Z" fill="#F4D2AD"/>
<path d="M364.402 649.557C364.402 652.378 362.117 654.665 359.297 654.665C356.478 654.665 354.193 652.378 354.193 649.557C354.193 646.736 356.478 644.449 359.297 644.449C362.117 644.449 364.402 646.736 364.402 649.557Z" fill="#F4D2AD"/>
<path d="M396.601 649.557C396.601 652.378 394.316 654.665 391.497 654.665C388.677 654.665 386.392 652.378 386.392 649.557C386.392 646.736 388.677 644.449 391.497 644.449C394.316 644.449 396.601 646.736 396.601 649.557Z" fill="#F4D2AD"/>
<path d="M428.801 649.557C428.801 652.378 426.515 654.665 423.696 654.665C420.877 654.665 418.591 652.378 418.591 649.557C418.591 646.736 420.877 644.449 423.696 644.449C426.515 644.449 428.801 646.736 428.801 649.557Z" fill="#F4D2AD"/>
<path d="M461 649.557C461 652.378 458.715 654.665 455.895 654.665C453.076 654.665 450.79 652.378 450.79 649.557C450.79 646.736 453.076 644.449 455.895 644.449C458.715 644.449 461 646.736 461 649.557Z" fill="#F4D2AD"/>
<path d="M10.2095 681.779C10.2095 684.601 7.92406 686.888 5.10477 686.888C2.28548 686.888 0 684.601 0 681.779C0 678.958 2.28548 676.671 5.10477 676.671C7.92406 676.671 10.2095 678.958 10.2095 681.779Z" fill="#F4D2AD"/>
<path d="M42.4089 681.779C42.4089 684.601 40.1234 686.888 37.3041 686.888C34.4848 686.888 32.1993 684.601 32.1993 681.779C32.1993 678.958 34.4848 676.671 37.3041 676.671C40.1234 676.671 42.4089 678.958 42.4089 681.779Z" fill="#F4D2AD"/>
<path d="M74.6082 681.779C74.6082 684.601 72.3227 686.888 69.5034 686.888C66.6841 686.888 64.3986 684.601 64.3986 681.779C64.3986 678.958 66.6841 676.671 69.5034 676.671C72.3227 676.671 74.6082 678.958 74.6082 681.779Z" fill="#F4D2AD"/>
<path d="M106.807 681.779C106.807 684.601 104.522 686.888 101.703 686.888C98.8834 686.888 96.598 684.601 96.598 681.779C96.598 678.958 98.8834 676.671 101.703 676.671C104.522 676.671 106.807 678.958 106.807 681.779Z" fill="#F4D2AD"/>
<path d="M139.007 681.779C139.007 684.601 136.721 686.888 133.902 686.888C131.083 686.888 128.797 684.601 128.797 681.779C128.797 678.958 131.083 676.671 133.902 676.671C136.721 676.671 139.007 678.958 139.007 681.779Z" fill="#F4D2AD"/>
<path d="M171.206 681.779C171.206 684.601 168.921 686.888 166.101 686.888C163.282 686.888 160.997 684.601 160.997 681.779C160.997 678.958 163.282 676.671 166.101 676.671C168.921 676.671 171.206 678.958 171.206 681.779Z" fill="#F4D2AD"/>
<path d="M203.405 681.779C203.405 684.601 201.12 686.888 198.301 686.888C195.481 686.888 193.196 684.601 193.196 681.779C193.196 678.958 195.481 676.671 198.301 676.671C201.12 676.671 203.405 678.958 203.405 681.779Z" fill="#F4D2AD"/>
<path d="M235.605 681.779C235.605 684.601 233.319 686.888 230.5 686.888C227.681 686.888 225.395 684.601 225.395 681.779C225.395 678.958 227.681 676.671 230.5 676.671C233.319 676.671 235.605 678.958 235.605 681.779Z" fill="#F4D2AD"/>
<path d="M267.804 681.779C267.804 684.601 265.519 686.888 262.699 686.888C259.88 686.888 257.595 684.601 257.595 681.779C257.595 678.958 259.88 676.671 262.699 676.671C265.519 676.671 267.804 678.958 267.804 681.779Z" fill="#F4D2AD"/>
<path d="M300.003 681.779C300.003 684.601 297.718 686.888 294.899 686.888C292.079 686.888 289.794 684.601 289.794 681.779C289.794 678.958 292.079 676.671 294.899 676.671C297.718 676.671 300.003 678.958 300.003 681.779Z" fill="#F4D2AD"/>
<path d="M332.203 681.779C332.203 684.601 329.917 686.888 327.098 686.888C324.279 686.888 321.993 684.601 321.993 681.779C321.993 678.958 324.279 676.671 327.098 676.671C329.917 676.671 332.203 678.958 332.203 681.779Z" fill="#F4D2AD"/>
<path d="M364.402 681.779C364.402 684.601 362.117 686.888 359.297 686.888C356.478 686.888 354.193 684.601 354.193 681.779C354.193 678.958 356.478 676.671 359.297 676.671C362.117 676.671 364.402 678.958 364.402 681.779Z" fill="#F4D2AD"/>
<path d="M396.601 681.779C396.601 684.601 394.316 686.888 391.497 686.888C388.677 686.888 386.392 684.601 386.392 681.779C386.392 678.958 388.677 676.671 391.497 676.671C394.316 676.671 396.601 678.958 396.601 681.779Z" fill="#F4D2AD"/>
<path d="M428.801 681.779C428.801 684.601 426.515 686.888 423.696 686.888C420.877 686.888 418.591 684.601 418.591 681.779C418.591 678.958 420.877 676.671 423.696 676.671C426.515 676.671 428.801 678.958 428.801 681.779Z" fill="#F4D2AD"/>
<path d="M461 681.779C461 684.601 458.715 686.888 455.895 686.888C453.076 686.888 450.79 684.601 450.79 681.779C450.79 678.958 453.076 676.671 455.895 676.671C458.715 676.671 461 678.958 461 681.779Z" fill="#F4D2AD"/>
<path d="M10.2095 714.002C10.2095 716.823 7.92406 719.11 5.10477 719.11C2.28548 719.11 0 716.823 0 714.002C0 711.181 2.28548 708.893 5.10477 708.893C7.92406 708.893 10.2095 711.181 10.2095 714.002Z" fill="#F4D2AD"/>
<path d="M42.4089 714.002C42.4089 716.823 40.1234 719.11 37.3041 719.11C34.4848 719.11 32.1993 716.823 32.1993 714.002C32.1993 711.181 34.4848 708.893 37.3041 708.893C40.1234 708.893 42.4089 711.181 42.4089 714.002Z" fill="#F4D2AD"/>
<path d="M74.6082 714.002C74.6082 716.823 72.3227 719.11 69.5034 719.11C66.6841 719.11 64.3986 716.823 64.3986 714.002C64.3986 711.181 66.6841 708.893 69.5034 708.893C72.3227 708.893 74.6082 711.181 74.6082 714.002Z" fill="#F4D2AD"/>
<path d="M106.807 714.002C106.807 716.823 104.522 719.11 101.703 719.11C98.8834 719.11 96.598 716.823 96.598 714.002C96.598 711.181 98.8834 708.893 101.703 708.893C104.522 708.893 106.807 711.181 106.807 714.002Z" fill="#F4D2AD"/>
<path d="M139.007 714.002C139.007 716.823 136.721 719.11 133.902 719.11C131.083 719.11 128.797 716.823 128.797 714.002C128.797 711.181 131.083 708.893 133.902 708.893C136.721 708.893 139.007 711.181 139.007 714.002Z" fill="#F4D2AD"/>
<path d="M171.206 714.002C171.206 716.823 168.921 719.11 166.101 719.11C163.282 719.11 160.997 716.823 160.997 714.002C160.997 711.181 163.282 708.893 166.101 708.893C168.921 708.893 171.206 711.181 171.206 714.002Z" fill="#F4D2AD"/>
<path d="M203.405 714.002C203.405 716.823 201.12 719.11 198.301 719.11C195.481 719.11 193.196 716.823 193.196 714.002C193.196 711.181 195.481 708.893 198.301 708.893C201.12 708.893 203.405 711.181 203.405 714.002Z" fill="#F4D2AD"/>
<path d="M235.605 714.002C235.605 716.823 233.319 719.11 230.5 719.11C227.681 719.11 225.395 716.823 225.395 714.002C225.395 711.181 227.681 708.893 230.5 708.893C233.319 708.893 235.605 711.181 235.605 714.002Z" fill="#F4D2AD"/>
<path d="M267.804 714.002C267.804 716.823 265.519 719.11 262.699 719.11C259.88 719.11 257.595 716.823 257.595 714.002C257.595 711.181 259.88 708.893 262.699 708.893C265.519 708.893 267.804 711.181 267.804 714.002Z" fill="#F4D2AD"/>
<path d="M300.003 714.002C300.003 716.823 297.718 719.11 294.899 719.11C292.079 719.11 289.794 716.823 289.794 714.002C289.794 711.181 292.079 708.893 294.899 708.893C297.718 708.893 300.003 711.181 300.003 714.002Z" fill="#F4D2AD"/>
<path d="M332.203 714.002C332.203 716.823 329.917 719.11 327.098 719.11C324.279 719.11 321.993 716.823 321.993 714.002C321.993 711.181 324.279 708.893 327.098 708.893C329.917 708.893 332.203 711.181 332.203 714.002Z" fill="#F4D2AD"/>
<path d="M364.402 714.002C364.402 716.823 362.117 719.11 359.297 719.11C356.478 719.11 354.193 716.823 354.193 714.002C354.193 711.181 356.478 708.893 359.297 708.893C362.117 708.893 364.402 711.181 364.402 714.002Z" fill="#F4D2AD"/>
<path d="M396.601 714.002C396.601 716.823 394.316 719.11 391.497 719.11C388.677 719.11 386.392 716.823 386.392 714.002C386.392 711.181 388.677 708.893 391.497 708.893C394.316 708.893 396.601 711.181 396.601 714.002Z" fill="#F4D2AD"/>
<path d="M428.801 714.002C428.801 716.823 426.515 719.11 423.696 719.11C420.877 719.11 418.591 716.823 418.591 714.002C418.591 711.181 420.877 708.893 423.696 708.893C426.515 708.893 428.801 711.181 428.801 714.002Z" fill="#F4D2AD"/>
<path d="M461 714.002C461 716.823 458.715 719.11 455.895 719.11C453.076 719.11 450.79 716.823 450.79 714.002C450.79 711.181 453.076 708.893 455.895 708.893C458.715 708.893 461 711.181 461 714.002Z" fill="#F4D2AD"/>
<path d="M10.2095 746.224C10.2095 749.046 7.92406 751.333 5.10477 751.333C2.28548 751.333 0 749.046 0 746.224C0 743.403 2.28548 741.116 5.10477 741.116C7.92406 741.116 10.2095 743.403 10.2095 746.224Z" fill="#F4D2AD"/>
<path d="M42.4089 746.224C42.4089 749.046 40.1234 751.333 37.3041 751.333C34.4848 751.333 32.1993 749.046 32.1993 746.224C32.1993 743.403 34.4848 741.116 37.3041 741.116C40.1234 741.116 42.4089 743.403 42.4089 746.224Z" fill="#F4D2AD"/>
<path d="M74.6082 746.224C74.6082 749.046 72.3227 751.333 69.5034 751.333C66.6841 751.333 64.3986 749.046 64.3986 746.224C64.3986 743.403 66.6841 741.116 69.5034 741.116C72.3227 741.116 74.6082 743.403 74.6082 746.224Z" fill="#F4D2AD"/>
<path d="M106.807 746.224C106.807 749.046 104.522 751.333 101.703 751.333C98.8834 751.333 96.598 749.046 96.598 746.224C96.598 743.403 98.8834 741.116 101.703 741.116C104.522 741.116 106.807 743.403 106.807 746.224Z" fill="#F4D2AD"/>
<path d="M139.007 746.224C139.007 749.046 136.721 751.333 133.902 751.333C131.083 751.333 128.797 749.046 128.797 746.224C128.797 743.403 131.083 741.116 133.902 741.116C136.721 741.116 139.007 743.403 139.007 746.224Z" fill="#F4D2AD"/>
<path d="M171.206 746.224C171.206 749.046 168.921 751.333 166.101 751.333C163.282 751.333 160.997 749.046 160.997 746.224C160.997 743.403 163.282 741.116 166.101 741.116C168.921 741.116 171.206 743.403 171.206 746.224Z" fill="#F4D2AD"/>
<path d="M203.405 746.224C203.405 749.046 201.12 751.333 198.301 751.333C195.481 751.333 193.196 749.046 193.196 746.224C193.196 743.403 195.481 741.116 198.301 741.116C201.12 741.116 203.405 743.403 203.405 746.224Z" fill="#F4D2AD"/>
<path d="M235.605 746.224C235.605 749.046 233.319 751.333 230.5 751.333C227.681 751.333 225.395 749.046 225.395 746.224C225.395 743.403 227.681 741.116 230.5 741.116C233.319 741.116 235.605 743.403 235.605 746.224Z" fill="#F4D2AD"/>
<path d="M267.804 746.224C267.804 749.046 265.519 751.333 262.699 751.333C259.88 751.333 257.595 749.046 257.595 746.224C257.595 743.403 259.88 741.116 262.699 741.116C265.519 741.116 267.804 743.403 267.804 746.224Z" fill="#F4D2AD"/>
<path d="M300.003 746.224C300.003 749.046 297.718 751.333 294.899 751.333C292.079 751.333 289.794 749.046 289.794 746.224C289.794 743.403 292.079 741.116 294.899 741.116C297.718 741.116 300.003 743.403 300.003 746.224Z" fill="#F4D2AD"/>
<path d="M332.203 746.224C332.203 749.046 329.917 751.333 327.098 751.333C324.279 751.333 321.993 749.046 321.993 746.224C321.993 743.403 324.279 741.116 327.098 741.116C329.917 741.116 332.203 743.403 332.203 746.224Z" fill="#F4D2AD"/>
<path d="M364.402 746.224C364.402 749.046 362.117 751.333 359.297 751.333C356.478 751.333 354.193 749.046 354.193 746.224C354.193 743.403 356.478 741.116 359.297 741.116C362.117 741.116 364.402 743.403 364.402 746.224Z" fill="#F4D2AD"/>
<path d="M396.601 746.224C396.601 749.046 394.316 751.333 391.497 751.333C388.677 751.333 386.392 749.046 386.392 746.224C386.392 743.403 388.677 741.116 391.497 741.116C394.316 741.116 396.601 743.403 396.601 746.224Z" fill="#F4D2AD"/>
<path d="M428.801 746.224C428.801 749.046 426.515 751.333 423.696 751.333C420.877 751.333 418.591 749.046 418.591 746.224C418.591 743.403 420.877 741.116 423.696 741.116C426.515 741.116 428.801 743.403 428.801 746.224Z" fill="#F4D2AD"/>
<path d="M461 746.224C461 749.046 458.715 751.333 455.895 751.333C453.076 751.333 450.79 749.046 450.79 746.224C450.79 743.403 453.076 741.116 455.895 741.116C458.715 741.116 461 743.403 461 746.224Z" fill="#F4D2AD"/>
<path d="M10.2095 778.447C10.2095 781.268 7.92406 783.555 5.10477 783.555C2.28548 783.555 0 781.268 0 778.447C0 775.625 2.28548 773.338 5.10477 773.338C7.92406 773.338 10.2095 775.625 10.2095 778.447Z" fill="#F4D2AD"/>
<path d="M42.4089 778.447C42.4089 781.268 40.1234 783.555 37.3041 783.555C34.4848 783.555 32.1993 781.268 32.1993 778.447C32.1993 775.625 34.4848 773.338 37.3041 773.338C40.1234 773.338 42.4089 775.625 42.4089 778.447Z" fill="#F4D2AD"/>
<path d="M74.6082 778.447C74.6082 781.268 72.3227 783.555 69.5034 783.555C66.6841 783.555 64.3986 781.268 64.3986 778.447C64.3986 775.625 66.6841 773.338 69.5034 773.338C72.3227 773.338 74.6082 775.625 74.6082 778.447Z" fill="#F4D2AD"/>
<path d="M106.807 778.447C106.807 781.268 104.522 783.555 101.703 783.555C98.8834 783.555 96.598 781.268 96.598 778.447C96.598 775.625 98.8834 773.338 101.703 773.338C104.522 773.338 106.807 775.625 106.807 778.447Z" fill="#F4D2AD"/>
<path d="M139.007 778.447C139.007 781.268 136.721 783.555 133.902 783.555C131.083 783.555 128.797 781.268 128.797 778.447C128.797 775.625 131.083 773.338 133.902 773.338C136.721 773.338 139.007 775.625 139.007 778.447Z" fill="#F4D2AD"/>
<path d="M171.206 778.447C171.206 781.268 168.921 783.555 166.101 783.555C163.282 783.555 160.997 781.268 160.997 778.447C160.997 775.625 163.282 773.338 166.101 773.338C168.921 773.338 171.206 775.625 171.206 778.447Z" fill="#F4D2AD"/>
<path d="M203.405 778.447C203.405 781.268 201.12 783.555 198.301 783.555C195.481 783.555 193.196 781.268 193.196 778.447C193.196 775.625 195.481 773.338 198.301 773.338C201.12 773.338 203.405 775.625 203.405 778.447Z" fill="#F4D2AD"/>
<path d="M235.605 778.447C235.605 781.268 233.319 783.555 230.5 783.555C227.681 783.555 225.395 781.268 225.395 778.447C225.395 775.625 227.681 773.338 230.5 773.338C233.319 773.338 235.605 775.625 235.605 778.447Z" fill="#F4D2AD"/>
<path d="M267.804 778.447C267.804 781.268 265.519 783.555 262.699 783.555C259.88 783.555 257.595 781.268 257.595 778.447C257.595 775.625 259.88 773.338 262.699 773.338C265.519 773.338 267.804 775.625 267.804 778.447Z" fill="#F4D2AD"/>
<path d="M300.003 778.447C300.003 781.268 297.718 783.555 294.899 783.555C292.079 783.555 289.794 781.268 289.794 778.447C289.794 775.625 292.079 773.338 294.899 773.338C297.718 773.338 300.003 775.625 300.003 778.447Z" fill="#F4D2AD"/>
<path d="M332.203 778.447C332.203 781.268 329.917 783.555 327.098 783.555C324.279 783.555 321.993 781.268 321.993 778.447C321.993 775.625 324.279 773.338 327.098 773.338C329.917 773.338 332.203 775.625 332.203 778.447Z" fill="#F4D2AD"/>
<path d="M364.402 778.447C364.402 781.268 362.117 783.555 359.297 783.555C356.478 783.555 354.193 781.268 354.193 778.447C354.193 775.625 356.478 773.338 359.297 773.338C362.117 773.338 364.402 775.625 364.402 778.447Z" fill="#F4D2AD"/>
<path d="M396.601 778.447C396.601 781.268 394.316 783.555 391.497 783.555C388.677 783.555 386.392 781.268 386.392 778.447C386.392 775.625 388.677 773.338 391.497 773.338C394.316 773.338 396.601 775.625 396.601 778.447Z" fill="#F4D2AD"/>
<path d="M428.801 778.447C428.801 781.268 426.515 783.555 423.696 783.555C420.877 783.555 418.591 781.268 418.591 778.447C418.591 775.625 420.877 773.338 423.696 773.338C426.515 773.338 428.801 775.625 428.801 778.447Z" fill="#F4D2AD"/>
<path d="M461 778.447C461 781.268 458.715 783.555 455.895 783.555C453.076 783.555 450.79 781.268 450.79 778.447C450.79 775.625 453.076 773.338 455.895 773.338C458.715 773.338 461 775.625 461 778.447Z" fill="#F4D2AD"/>
<path d="M10.2095 810.669C10.2095 813.49 7.92406 815.778 5.10477 815.778C2.28548 815.778 0 813.49 0 810.669C0 807.848 2.28548 805.561 5.10477 805.561C7.92406 805.561 10.2095 807.848 10.2095 810.669Z" fill="#F4D2AD"/>
<path d="M42.4089 810.669C42.4089 813.49 40.1234 815.778 37.3041 815.778C34.4848 815.778 32.1993 813.49 32.1993 810.669C32.1993 807.848 34.4848 805.561 37.3041 805.561C40.1234 805.561 42.4089 807.848 42.4089 810.669Z" fill="#F4D2AD"/>
<path d="M74.6082 810.669C74.6082 813.49 72.3227 815.778 69.5034 815.778C66.6841 815.778 64.3986 813.49 64.3986 810.669C64.3986 807.848 66.6841 805.561 69.5034 805.561C72.3227 805.561 74.6082 807.848 74.6082 810.669Z" fill="#F4D2AD"/>
<path d="M106.807 810.669C106.807 813.49 104.522 815.778 101.703 815.778C98.8834 815.778 96.598 813.49 96.598 810.669C96.598 807.848 98.8834 805.561 101.703 805.561C104.522 805.561 106.807 807.848 106.807 810.669Z" fill="#F4D2AD"/>
<path d="M139.007 810.669C139.007 813.49 136.721 815.778 133.902 815.778C131.083 815.778 128.797 813.49 128.797 810.669C128.797 807.848 131.083 805.561 133.902 805.561C136.721 805.561 139.007 807.848 139.007 810.669Z" fill="#F4D2AD"/>
<path d="M171.206 810.669C171.206 813.49 168.921 815.778 166.101 815.778C163.282 815.778 160.997 813.49 160.997 810.669C160.997 807.848 163.282 805.561 166.101 805.561C168.921 805.561 171.206 807.848 171.206 810.669Z" fill="#F4D2AD"/>
<path d="M203.405 810.669C203.405 813.49 201.12 815.778 198.301 815.778C195.481 815.778 193.196 813.49 193.196 810.669C193.196 807.848 195.481 805.561 198.301 805.561C201.12 805.561 203.405 807.848 203.405 810.669Z" fill="#F4D2AD"/>
<path d="M235.605 810.669C235.605 813.49 233.319 815.778 230.5 815.778C227.681 815.778 225.395 813.49 225.395 810.669C225.395 807.848 227.681 805.561 230.5 805.561C233.319 805.561 235.605 807.848 235.605 810.669Z" fill="#F4D2AD"/>
<path d="M267.804 810.669C267.804 813.49 265.519 815.778 262.699 815.778C259.88 815.778 257.595 813.49 257.595 810.669C257.595 807.848 259.88 805.561 262.699 805.561C265.519 805.561 267.804 807.848 267.804 810.669Z" fill="#F4D2AD"/>
<path d="M300.003 810.669C300.003 813.49 297.718 815.778 294.899 815.778C292.079 815.778 289.794 813.49 289.794 810.669C289.794 807.848 292.079 805.561 294.899 805.561C297.718 805.561 300.003 807.848 300.003 810.669Z" fill="#F4D2AD"/>
<path d="M332.203 810.669C332.203 813.49 329.917 815.778 327.098 815.778C324.279 815.778 321.993 813.49 321.993 810.669C321.993 807.848 324.279 805.561 327.098 805.561C329.917 805.561 332.203 807.848 332.203 810.669Z" fill="#F4D2AD"/>
<path d="M364.402 810.669C364.402 813.49 362.117 815.778 359.297 815.778C356.478 815.778 354.193 813.49 354.193 810.669C354.193 807.848 356.478 805.561 359.297 805.561C362.117 805.561 364.402 807.848 364.402 810.669Z" fill="#F4D2AD"/>
<path d="M396.601 810.669C396.601 813.49 394.316 815.778 391.497 815.778C388.677 815.778 386.392 813.49 386.392 810.669C386.392 807.848 388.677 805.561 391.497 805.561C394.316 805.561 396.601 807.848 396.601 810.669Z" fill="#F4D2AD"/>
<path d="M428.801 810.669C428.801 813.49 426.515 815.778 423.696 815.778C420.877 815.778 418.591 813.49 418.591 810.669C418.591 807.848 420.877 805.561 423.696 805.561C426.515 805.561 428.801 807.848 428.801 810.669Z" fill="#F4D2AD"/>
<path d="M461 810.669C461 813.49 458.715 815.778 455.895 815.778C453.076 815.778 450.79 813.49 450.79 810.669C450.79 807.848 453.076 805.561 455.895 805.561C458.715 805.561 461 807.848 461 810.669Z" fill="#F4D2AD"/>
<path d="M10.2095 842.892C10.2095 845.713 7.92406 848 5.10477 848C2.28548 848 0 845.713 0 842.892C0 840.07 2.28548 837.783 5.10477 837.783C7.92406 837.783 10.2095 840.07 10.2095 842.892Z" fill="#F4D2AD"/>
<path d="M42.4089 842.892C42.4089 845.713 40.1234 848 37.3041 848C34.4848 848 32.1993 845.713 32.1993 842.892C32.1993 840.07 34.4848 837.783 37.3041 837.783C40.1234 837.783 42.4089 840.07 42.4089 842.892Z" fill="#F4D2AD"/>
<path d="M74.6082 842.892C74.6082 845.713 72.3227 848 69.5034 848C66.6841 848 64.3986 845.713 64.3986 842.892C64.3986 840.07 66.6841 837.783 69.5034 837.783C72.3227 837.783 74.6082 840.07 74.6082 842.892Z" fill="#F4D2AD"/>
<path d="M106.807 842.892C106.807 845.713 104.522 848 101.703 848C98.8834 848 96.598 845.713 96.598 842.892C96.598 840.07 98.8834 837.783 101.703 837.783C104.522 837.783 106.807 840.07 106.807 842.892Z" fill="#F4D2AD"/>
<path d="M139.007 842.892C139.007 845.713 136.721 848 133.902 848C131.083 848 128.797 845.713 128.797 842.892C128.797 840.07 131.083 837.783 133.902 837.783C136.721 837.783 139.007 840.07 139.007 842.892Z" fill="#F4D2AD"/>
<path d="M171.206 842.892C171.206 845.713 168.921 848 166.101 848C163.282 848 160.997 845.713 160.997 842.892C160.997 840.07 163.282 837.783 166.101 837.783C168.921 837.783 171.206 840.07 171.206 842.892Z" fill="#F4D2AD"/>
<path d="M203.405 842.892C203.405 845.713 201.12 848 198.301 848C195.481 848 193.196 845.713 193.196 842.892C193.196 840.07 195.481 837.783 198.301 837.783C201.12 837.783 203.405 840.07 203.405 842.892Z" fill="#F4D2AD"/>
<path d="M235.605 842.892C235.605 845.713 233.319 848 230.5 848C227.681 848 225.395 845.713 225.395 842.892C225.395 840.07 227.681 837.783 230.5 837.783C233.319 837.783 235.605 840.07 235.605 842.892Z" fill="#F4D2AD"/>
<path d="M267.804 842.892C267.804 845.713 265.519 848 262.699 848C259.88 848 257.595 845.713 257.595 842.892C257.595 840.07 259.88 837.783 262.699 837.783C265.519 837.783 267.804 840.07 267.804 842.892Z" fill="#F4D2AD"/>
<path d="M300.003 842.892C300.003 845.713 297.718 848 294.899 848C292.079 848 289.794 845.713 289.794 842.892C289.794 840.07 292.079 837.783 294.899 837.783C297.718 837.783 300.003 840.07 300.003 842.892Z" fill="#F4D2AD"/>
<path d="M332.203 842.892C332.203 845.713 329.917 848 327.098 848C324.279 848 321.993 845.713 321.993 842.892C321.993 840.07 324.279 837.783 327.098 837.783C329.917 837.783 332.203 840.07 332.203 842.892Z" fill="#F4D2AD"/>
<path d="M364.402 842.892C364.402 845.713 362.117 848 359.297 848C356.478 848 354.193 845.713 354.193 842.892C354.193 840.07 356.478 837.783 359.297 837.783C362.117 837.783 364.402 840.07 364.402 842.892Z" fill="#F4D2AD"/>
<path d="M396.601 842.892C396.601 845.713 394.316 848 391.497 848C388.677 848 386.392 845.713 386.392 842.892C386.392 840.07 388.677 837.783 391.497 837.783C394.316 837.783 396.601 840.07 396.601 842.892Z" fill="#F4D2AD"/>
<path d="M428.801 842.892C428.801 845.713 426.515 848 423.696 848C420.877 848 418.591 845.713 418.591 842.892C418.591 840.07 420.877 837.783 423.696 837.783C426.515 837.783 428.801 840.07 428.801 842.892Z" fill="#F4D2AD"/>
<path d="M461 842.892C461 845.713 458.715 848 455.895 848C453.076 848 450.79 845.713 450.79 842.892C450.79 840.07 453.076 837.783 455.895 837.783C458.715 837.783 461 840.07 461 842.892Z" fill="#F4D2AD"/>
</svg>
