<svg width="87" height="91" viewBox="0 0 87 91" fill="none" xmlns="http://www.w3.org/2000/svg">
<path d="M42.0256 23.983L23.5933 5.55078L14.7459 7.02536L4.42383 15.8728L6.63569 46.839L25.8052 66.0085L36.8645 77.8051L43.5001 85.9153L52.3476 75.5932L62.6697 63.0593L72.9917 57.161L81.1019 43.1525V15.8728L72.9917 5.55078L62.6697 7.02536L50.873 18.0847L45.712 25.4576L42.0256 23.983Z" fill="#EF81A4"/>
<path d="M10.322 50.5254H20.6441V60.8474H10.322V50.5254Z" fill="#211F22"/>
<path d="M20.6443 60.8472H30.9663V71.1692H20.6443V60.8472Z" fill="#211F22"/>
<path d="M30.9663 71.1694H41.2884V81.4915H30.9663V71.1694Z" fill="#211F22"/>
<path d="M45.7119 71.1694H56.034V81.4915H45.7119V71.1694Z" fill="#211F22"/>
<path d="M56.0342 60.8472H66.3562V71.1692H56.0342V60.8472Z" fill="#211F22"/>
<path d="M66.3562 50.5254H76.6782V60.8474H66.3562V50.5254Z" fill="#211F22"/>
<path d="M10.322 0.389648H28.017V10.7117H10.322V0.389648Z" fill="#211F22"/>
<path d="M58.9829 0.389648H76.6778V10.7117H58.9829V0.389648Z" fill="#211F22"/>
<path d="M28.0168 10.7119H38.3389V21.034H28.0168V10.7119Z" fill="#211F22"/>
<path d="M38.3391 21.0337H48.6612V31.3557H38.3391V21.0337Z" fill="#211F22"/>
<path d="M38.3391 80.0166H48.6612V90.3386H38.3391V80.0166Z" fill="#211F22"/>
<path d="M48.6611 10.7119H58.9832V21.034H48.6611V10.7119Z" fill="#211F22"/>
<path d="M0 10.7119H10.322V50.5255H0V10.7119Z" fill="#211F22"/>
<path d="M76.678 10.7119H87V50.5255H76.678V10.7119Z" fill="#211F22"/>
</svg>
