<svg width="228" height="235" viewBox="0 0 228 235" fill="none" xmlns="http://www.w3.org/2000/svg">
<path d="M109.795 61.6391L61.6393 13.4834L38.5246 17.3359L11.5574 40.4506L17.3361 121.352L67.418 171.434L96.3115 202.254L113.648 223.442L136.762 196.475L163.73 163.729L190.697 148.319L211.885 111.721V40.4506L190.697 13.4834L163.73 17.3359L132.91 46.2293L119.426 65.4916L109.795 61.6391Z" fill="#4E79D7"/>
<path d="M26.9673 130.983H53.9345V157.951H26.9673V130.983Z" fill="#211F22"/>
<path d="M53.9343 157.951H80.9015V184.918H53.9343V157.951Z" fill="#211F22"/>
<path d="M80.9016 184.918H107.869V211.885H80.9016V184.918Z" fill="#211F22"/>
<path d="M119.426 184.918H146.393V211.885H119.426V184.918Z" fill="#211F22"/>
<path d="M146.394 157.951H173.361V184.918H146.394V157.951Z" fill="#211F22"/>
<path d="M173.361 130.983H200.328V157.951H173.361V130.983Z" fill="#211F22"/>
<path d="M26.9673 0H73.1968V26.9672H26.9673V0Z" fill="#211F22"/>
<path d="M154.098 0H200.328V26.9672H154.098V0Z" fill="#211F22"/>
<path d="M73.1968 26.9673H100.164V53.9345H73.1968V26.9673Z" fill="#211F22"/>
<path d="M100.164 53.9346H127.131V80.9018H100.164V53.9346Z" fill="#211F22"/>
<path d="M100.164 208.033H127.131V235H100.164V208.033Z" fill="#211F22"/>
<path d="M127.131 26.9673H154.098V53.9345H127.131V26.9673Z" fill="#211F22"/>
<path d="M0 26.9673H26.9672V130.984H0V26.9673Z" fill="#211F22"/>
<path d="M200.328 26.9673H227.295V130.984H200.328V26.9673Z" fill="#211F22"/>
</svg>
