<svg width="126" height="126" viewBox="0 0 126 126" fill="none" xmlns="http://www.w3.org/2000/svg">
<path d="M36.8369 17.6847L24.6495 28.3953L11.7086 76.6916L25.4971 100.574L75.7253 114.033L88.1969 108.057L99.6078 100.244L112.394 46.73L105.582 33.5166L99.1484 26.6164L48.9203 13.1578L36.8369 17.6847Z" fill="#F1C851"/>
<path fill-rule="evenodd" clip-rule="evenodd" d="M103.555 31.4204L43.6679 15.3736L46.2561 5.71436L106.144 21.7611L103.555 31.4204Z" fill="#211F22"/>
<path fill-rule="evenodd" clip-rule="evenodd" d="M79.7438 120.286L19.8564 104.239L22.4446 94.5796L82.332 110.626L79.7438 120.286Z" fill="#211F22"/>
<path fill-rule="evenodd" clip-rule="evenodd" d="M110.626 43.6679L100.967 41.0797L103.555 31.4204L113.214 34.0086L110.626 43.6679Z" fill="#211F22"/>
<path fill-rule="evenodd" clip-rule="evenodd" d="M41.0796 25.0331L31.4204 22.4449L34.0085 12.7856L43.6678 15.3738L41.0796 25.0331Z" fill="#211F22"/>
<path fill-rule="evenodd" clip-rule="evenodd" d="M50.1333 49.1996L40.4741 46.6114L43.0623 36.9521L52.7215 39.5403L50.1333 49.1996Z" fill="#211F22"/>
<path fill-rule="evenodd" clip-rule="evenodd" d="M44.1804 71.4159L34.5212 68.8277L37.1094 59.1685L46.7686 61.7566L44.1804 71.4159Z" fill="#211F22"/>
<path fill-rule="evenodd" clip-rule="evenodd" d="M72.9848 89.4869L41.5922 81.0753L44.1804 71.416L75.573 79.8276L72.9848 89.4869Z" fill="#211F22"/>
<path fill-rule="evenodd" clip-rule="evenodd" d="M90.7022 60.0702L81.0429 57.482L83.6311 47.8228L93.2904 50.4109L90.7022 60.0702Z" fill="#211F22"/>
<path fill-rule="evenodd" clip-rule="evenodd" d="M84.7493 82.2865L75.09 79.6983L77.6782 70.0391L87.3375 72.6273L84.7493 82.2865Z" fill="#211F22"/>
<path fill-rule="evenodd" clip-rule="evenodd" d="M22.4446 94.5795L12.7853 91.9913L15.3735 82.332L25.0328 84.9202L22.4446 94.5795Z" fill="#211F22"/>
<path fill-rule="evenodd" clip-rule="evenodd" d="M91.9912 113.215L82.332 110.627L84.9202 100.967L94.5794 103.555L91.9912 113.215Z" fill="#211F22"/>
<path fill-rule="evenodd" clip-rule="evenodd" d="M120.286 46.256L104.239 106.143L94.5796 103.555L110.626 43.6678L120.286 46.256Z" fill="#211F22"/>
<path fill-rule="evenodd" clip-rule="evenodd" d="M31.4204 22.4449L15.3736 82.3323L5.71436 79.7441L21.7611 19.8567L31.4204 22.4449Z" fill="#211F22"/>
</svg>
