<svg width="128" height="154" viewBox="0 0 128 154" fill="none" xmlns="http://www.w3.org/2000/svg">
<path d="M24 30H96V34H24V30Z" fill="black"/>
<path d="M20 38V34H24V38H20Z" fill="black"/>
<path d="M16 42V38H20V42H16Z" fill="black"/>
<path d="M12 46V42H16V46H12Z" fill="black"/>
<path d="M8 50V46H12V50H8Z" fill="black"/>
<path d="M4 54V50H8V54H4Z" fill="black"/>
<path d="M16 70H24V82H16V70Z" fill="black"/>
<path fill-rule="evenodd" clip-rule="evenodd" d="M116 54H120V66H124V74H128V98H4V94H0V54H4V62H116V54ZM4 90H116V66H4V90Z" fill="black"/>
<path d="M112 50H116V54H112V50Z" fill="black"/>
<path d="M108 46H112V50H108V46Z" fill="black"/>
<path d="M104 42H108V46H104V42Z" fill="black"/>
<path d="M100 38H104V42H100V38Z" fill="black"/>
<path d="M100 38V34H96V38H100Z" fill="black"/>
<path d="M24 34V38H20V42H16V46H12V50H8V54H4V62H116V54H112V50H108V46H104V42H100V38H96V34H24Z" fill="#FF90FF"/>
<path fill-rule="evenodd" clip-rule="evenodd" d="M4 66H116V90H4V66ZM24 82H16V70H24V82Z" fill="#FF90FF"/>
<path d="M25.0113 149L24.0313 145.46H19.8913L18.9313 149H16.2913L20.2113 135.04H23.8513L27.7912 149H25.0113ZM22.0513 137.62H21.8913L20.3513 143.32H23.5913L22.0513 137.62ZM36.7834 142.54L36.9034 138.5H36.7234L34.0234 145.68L31.3234 138.5H31.1434L31.2634 142.54V149H28.9834V135.04H32.1034L34.0434 140.18H34.1834L36.1434 135.04H39.0634V149H36.7834V142.54ZM41.6156 135.04H46.4756C47.7956 135.04 48.809 135.373 49.5156 136.04C50.2356 136.693 50.5956 137.587 50.5956 138.72C50.5956 139.52 50.3956 140.16 49.9956 140.64C49.609 141.12 49.0556 141.467 48.3356 141.68V141.78C49.1756 141.98 49.8356 142.347 50.3156 142.88C50.809 143.4 51.0556 144.14 51.0556 145.1C51.0556 145.687 50.9556 146.22 50.7556 146.7C50.569 147.167 50.2956 147.573 49.9356 147.92C49.589 148.267 49.1623 148.533 48.6556 148.72C48.1623 148.907 47.6023 149 46.9756 149H41.6156V135.04ZM46.1756 147.1C46.909 147.1 47.4556 146.967 47.8156 146.7C48.189 146.42 48.3756 145.947 48.3756 145.28V144.62C48.3756 143.967 48.189 143.507 47.8156 143.24C47.4556 142.96 46.909 142.82 46.1756 142.82H44.1756V147.1H46.1756ZM45.8356 141C46.5423 141 47.0623 140.873 47.3956 140.62C47.7423 140.367 47.9156 139.927 47.9156 139.3V138.64C47.9156 138.013 47.7423 137.573 47.3956 137.32C47.0623 137.067 46.5423 136.94 45.8356 136.94H44.1756V141H45.8356ZM53.5678 149V147.04H56.7078V137H53.5678V135.04H62.4478V137H59.3078V147.04H62.4478V149H53.5678ZM68.16 149L64.34 135.04H67.22L68.96 142.1L69.98 146.5H70.12L71.16 142.1L72.92 135.04H75.66L71.84 149H68.16ZM77.6522 149V135.04H86.4722V137.2H80.2722V140.84H86.2522V143H80.2722V146.84H86.4722V149H77.6522ZM92.2044 149H89.5844V135.04H94.8844C96.2444 135.04 97.2844 135.427 98.0044 136.2C98.7244 136.973 99.0844 138.027 99.0844 139.36C99.0844 140.387 98.8444 141.253 98.3644 141.96C97.8977 142.653 97.2244 143.093 96.3444 143.28L99.3244 149H96.4444L93.7844 143.58H92.2044V149ZM94.3444 141.54C95.051 141.54 95.5577 141.4 95.8644 141.12C96.171 140.827 96.3244 140.367 96.3244 139.74V138.98C96.3244 138.353 96.171 137.9 95.8644 137.62C95.5577 137.327 95.051 137.18 94.3444 137.18H92.2044V141.54H94.3444ZM107.277 137.2V149H104.677V137.2H100.477V135.04H111.477V137.2H107.277Z" fill="black"/>
</svg>
