<svg width="128" height="188" viewBox="0 0 128 188" fill="none" xmlns="http://www.w3.org/2000/svg">
<path d="M56 0H72V4H56V0Z" fill="black"/>
<path d="M48 8V4H56V8H48Z" fill="black"/>
<path d="M40 12V8H48V12H40Z" fill="black"/>
<path d="M36 16V12H40V16H36Z" fill="black"/>
<path d="M28 20V16H36V20H28Z" fill="black"/>
<path d="M24 24V20H28V24H24Z" fill="black"/>
<path d="M16 28V24H24V28H16Z" fill="black"/>
<path d="M12 32V28H16V32H12Z" fill="black"/>
<path d="M12 96H8V32H12V96Z" fill="black"/>
<path d="M16 100H12V96H16V100Z" fill="black"/>
<path d="M24 104H16V100H24V104Z" fill="black"/>
<path d="M28 108H24V104H28V108Z" fill="black"/>
<path d="M36 112H28V108H36V112Z" fill="black"/>
<path d="M40 116H36V112H40V116Z" fill="black"/>
<path d="M48 120H40V116H48V120Z" fill="black"/>
<path d="M56 124H48V120H56V124Z" fill="black"/>
<path d="M72 124H56V128H72V124Z" fill="black"/>
<path d="M80 120V124H72V120H80Z" fill="black"/>
<path d="M88 116V120H80V116H88Z" fill="black"/>
<path d="M92 112V116H88V112H92Z" fill="black"/>
<path d="M100 108V112H92V108H100Z" fill="black"/>
<path d="M104 104V108H100V104H104Z" fill="black"/>
<path d="M112 100V104H104V100H112Z" fill="black"/>
<path d="M116 96V100H112V96H116Z" fill="black"/>
<path d="M116 32H120V96H116V32Z" fill="black"/>
<path d="M112 28H116V32H112V28Z" fill="black"/>
<path d="M104 24H112V28H104V24Z" fill="black"/>
<path d="M100 20H104V24H100V20Z" fill="black"/>
<path d="M92 16H100V20H92V16Z" fill="black"/>
<path d="M88 12H92V16H88V12Z" fill="black"/>
<path d="M80 8H88V12H80V8Z" fill="black"/>
<path d="M80 8V4H72V8H80Z" fill="black"/>
<path d="M72 4H56V8H48V12H40V16H36V20H28V24H24V28H16V32H12V96H16V100H24V104H28V108H36V112H40V116H48V120H56V124H72V120H80V116H88V112H92V108H100V104H104V100H112V96H116V32H112V28H104V24H100V20H92V16H88V12H80V8H72V4Z" fill="#FF5C5C"/>
<path d="M16.3952 157.24C14.5685 157.24 13.2152 156.613 12.3352 155.36C11.4685 154.107 11.0352 152.327 11.0352 150.02C11.0352 147.727 11.4685 145.953 12.3352 144.7C13.2152 143.433 14.5685 142.8 16.3952 142.8C17.0885 142.8 17.6952 142.893 18.2152 143.08C18.7485 143.267 19.2085 143.527 19.5952 143.86C19.9818 144.18 20.3018 144.573 20.5552 145.04C20.8085 145.493 21.0085 145.993 21.1552 146.54L18.7552 147.22C18.6618 146.9 18.5552 146.6 18.4352 146.32C18.3152 146.04 18.1618 145.8 17.9752 145.6C17.8018 145.387 17.5818 145.227 17.3152 145.12C17.0485 145 16.7285 144.94 16.3552 144.94C15.4485 144.94 14.7952 145.287 14.3952 145.98C14.0085 146.673 13.8152 147.62 13.8152 148.82V151.22C13.8152 152.42 14.0085 153.367 14.3952 154.06C14.7952 154.753 15.4485 155.1 16.3552 155.1C16.7285 155.1 17.0485 155.047 17.3152 154.94C17.5818 154.82 17.8018 154.66 17.9752 154.46C18.1618 154.247 18.3152 154 18.4352 153.72C18.5552 153.44 18.6618 153.14 18.7552 152.82L21.1552 153.5C21.0085 154.047 20.8085 154.553 20.5552 155.02C20.3018 155.473 19.9818 155.867 19.5952 156.2C19.2085 156.52 18.7485 156.773 18.2152 156.96C17.6952 157.147 17.0885 157.24 16.3952 157.24ZM28.0273 157.24C27.1207 157.24 26.334 157.08 25.6673 156.76C25.0007 156.427 24.4473 155.953 24.0073 155.34C23.5807 154.727 23.2607 153.973 23.0473 153.08C22.8473 152.187 22.7473 151.167 22.7473 150.02C22.7473 148.887 22.8473 147.873 23.0473 146.98C23.2607 146.073 23.5807 145.313 24.0073 144.7C24.4473 144.087 25.0007 143.62 25.6673 143.3C26.334 142.967 27.1207 142.8 28.0273 142.8C29.8407 142.8 31.174 143.433 32.0273 144.7C32.8807 145.967 33.3073 147.74 33.3073 150.02C33.3073 152.3 32.8807 154.073 32.0273 155.34C31.174 156.607 29.8407 157.24 28.0273 157.24ZM28.0273 155.1C28.494 155.1 28.8873 155.013 29.2073 154.84C29.5273 154.653 29.7807 154.393 29.9673 154.06C30.1673 153.727 30.3073 153.32 30.3873 152.84C30.4807 152.347 30.5273 151.8 30.5273 151.2V148.82C30.5273 147.62 30.3407 146.673 29.9673 145.98C29.6073 145.287 28.9607 144.94 28.0273 144.94C27.094 144.94 26.4407 145.287 26.0673 145.98C25.7073 146.673 25.5273 147.62 25.5273 148.82V151.22C25.5273 152.42 25.7073 153.367 26.0673 154.06C26.4407 154.753 27.094 155.1 28.0273 155.1ZM42.7795 150.54L42.8995 146.5H42.7195L40.0195 153.68L37.3195 146.5H37.1395L37.2595 150.54V157H34.9795V143.04H38.0995L40.0395 148.18H40.1795L42.1395 143.04H45.0595V157H42.7795V150.54ZM54.7717 150.54L54.8917 146.5H54.7117L52.0117 153.68L49.3117 146.5H49.1317L49.2517 150.54V157H46.9717V143.04H50.0917L52.0317 148.18H52.1717L54.1317 143.04H57.0517V157H54.7717V150.54ZM61.8639 143.04V151.74C61.8639 152.26 61.8772 152.727 61.9039 153.14C61.9439 153.553 62.0306 153.907 62.1639 154.2C62.3106 154.48 62.5239 154.7 62.8039 154.86C63.0972 155.02 63.4972 155.1 64.0039 155.1C64.5106 155.1 64.9039 155.02 65.1839 154.86C65.4772 154.7 65.6906 154.48 65.8239 154.2C65.9706 153.907 66.0572 153.553 66.0839 153.14C66.1239 152.727 66.1439 152.26 66.1439 151.74V143.04H68.7639V151.34C68.7639 152.327 68.7039 153.187 68.5839 153.92C68.4639 154.653 68.2306 155.267 67.8839 155.76C67.5372 156.253 67.0506 156.627 66.4239 156.88C65.8106 157.12 65.0039 157.24 64.0039 157.24C63.0039 157.24 62.1906 157.12 61.5639 156.88C60.9506 156.627 60.4706 156.253 60.1239 155.76C59.7772 155.267 59.5439 154.653 59.4239 153.92C59.3039 153.187 59.2439 152.327 59.2439 151.34V143.04H61.8639ZM73.7761 146.98H73.5761V157H71.3361V143.04H74.5561L78.2161 153.06H78.4161V143.04H80.6561V157H77.4361L73.7761 146.98ZM83.5483 157V155.04H86.6883V145H83.5483V143.04H92.4283V145H89.2883V155.04H92.4283V157H83.5483ZM101.28 145.2V157H98.6805V145.2H94.4805V143.04H105.48V145.2H101.28ZM110.673 157V151.9L106.133 143.04H109.053L110.673 146.4L111.933 149.26H112.073L113.353 146.4L114.993 143.04H117.813L113.273 151.9V157H110.673ZM10.3991 183.24C8.5724 183.24 7.21906 182.613 6.33906 181.36C5.4724 180.107 5.03906 178.327 5.03906 176.02C5.03906 173.727 5.4724 171.953 6.33906 170.7C7.21906 169.433 8.5724 168.8 10.3991 168.8C11.0924 168.8 11.6991 168.893 12.2191 169.08C12.7524 169.267 13.2124 169.527 13.5991 169.86C13.9857 170.18 14.3057 170.573 14.5591 171.04C14.8124 171.493 15.0124 171.993 15.1591 172.54L12.7591 173.22C12.6657 172.9 12.5591 172.6 12.4391 172.32C12.3191 172.04 12.1657 171.8 11.9791 171.6C11.8057 171.387 11.5857 171.227 11.3191 171.12C11.0524 171 10.7324 170.94 10.3591 170.94C9.4524 170.94 8.79906 171.287 8.39906 171.98C8.0124 172.673 7.81906 173.62 7.81906 174.82V177.22C7.81906 178.42 8.0124 179.367 8.39906 180.06C8.79906 180.753 9.4524 181.1 10.3591 181.1C10.7324 181.1 11.0524 181.047 11.3191 180.94C11.5857 180.82 11.8057 180.66 11.9791 180.46C12.1657 180.247 12.3191 180 12.4391 179.72C12.5591 179.44 12.6657 179.14 12.7591 178.82L15.1591 179.5C15.0124 180.047 14.8124 180.553 14.5591 181.02C14.3057 181.473 13.9857 181.867 13.5991 182.2C13.2124 182.52 12.7524 182.773 12.2191 182.96C11.6991 183.147 11.0924 183.24 10.3991 183.24ZM22.0313 183.24C21.1246 183.24 20.3379 183.08 19.6713 182.76C19.0046 182.427 18.4513 181.953 18.0113 181.34C17.5846 180.727 17.2646 179.973 17.0513 179.08C16.8513 178.187 16.7513 177.167 16.7513 176.02C16.7513 174.887 16.8513 173.873 17.0513 172.98C17.2646 172.073 17.5846 171.313 18.0113 170.7C18.4513 170.087 19.0046 169.62 19.6713 169.3C20.3379 168.967 21.1246 168.8 22.0313 168.8C23.8446 168.8 25.1779 169.433 26.0312 170.7C26.8846 171.967 27.3113 173.74 27.3113 176.02C27.3113 178.3 26.8846 180.073 26.0312 181.34C25.1779 182.607 23.8446 183.24 22.0313 183.24ZM22.0313 181.1C22.4979 181.1 22.8913 181.013 23.2113 180.84C23.5313 180.653 23.7846 180.393 23.9713 180.06C24.1713 179.727 24.3113 179.32 24.3913 178.84C24.4846 178.347 24.5313 177.8 24.5313 177.2V174.82C24.5313 173.62 24.3446 172.673 23.9713 171.98C23.6113 171.287 22.9646 170.94 22.0313 170.94C21.0979 170.94 20.4446 171.287 20.0713 171.98C19.7113 172.673 19.5313 173.62 19.5313 174.82V177.22C19.5313 178.42 19.7113 179.367 20.0713 180.06C20.4446 180.753 21.0979 181.1 22.0313 181.1ZM31.8034 172.98H31.6034V183H29.3634V169.04H32.5834L36.2434 179.06H36.4434V169.04H38.6834V183H35.4634L31.8034 172.98ZM47.3156 171.2V183H44.7156V171.2H40.5156V169.04H51.5156V171.2H47.3156ZM56.2278 183H53.6078V169.04H58.9078C60.2678 169.04 61.3078 169.427 62.0278 170.2C62.7478 170.973 63.1078 172.027 63.1078 173.36C63.1078 174.387 62.8678 175.253 62.3878 175.96C61.9211 176.653 61.2478 177.093 60.3678 177.28L63.3478 183H60.4678L57.8078 177.58H56.2278V183ZM58.3678 175.54C59.0745 175.54 59.5811 175.4 59.8878 175.12C60.1945 174.827 60.3478 174.367 60.3478 173.74V172.98C60.3478 172.353 60.1945 171.9 59.8878 171.62C59.5811 171.327 59.0745 171.18 58.3678 171.18H56.2278V175.54H58.3678ZM65.56 183V181.04H68.7V171H65.56V169.04H74.44V171H71.3V181.04H74.44V183H65.56ZM77.5922 169.04H82.4522C83.7722 169.04 84.7855 169.373 85.4922 170.04C86.2122 170.693 86.5722 171.587 86.5722 172.72C86.5722 173.52 86.3722 174.16 85.9722 174.64C85.5855 175.12 85.0322 175.467 84.3122 175.68V175.78C85.1522 175.98 85.8122 176.347 86.2922 176.88C86.7855 177.4 87.0322 178.14 87.0322 179.1C87.0322 179.687 86.9322 180.22 86.7322 180.7C86.5455 181.167 86.2722 181.573 85.9122 181.92C85.5655 182.267 85.1389 182.533 84.6322 182.72C84.1389 182.907 83.5789 183 82.9522 183H77.5922V169.04ZM82.1522 181.1C82.8855 181.1 83.4322 180.967 83.7922 180.7C84.1655 180.42 84.3522 179.947 84.3522 179.28V178.62C84.3522 177.967 84.1655 177.507 83.7922 177.24C83.4322 176.96 82.8855 176.82 82.1522 176.82H80.1522V181.1H82.1522ZM81.8122 175C82.5189 175 83.0389 174.873 83.3722 174.62C83.7189 174.367 83.8922 173.927 83.8922 173.3V172.64C83.8922 172.013 83.7189 171.573 83.3722 171.32C83.0389 171.067 82.5189 170.94 81.8122 170.94H80.1522V175H81.8122ZM93.9844 183.22C93.291 183.22 92.7977 183.073 92.5044 182.78C92.211 182.487 92.0644 182.127 92.0644 181.7V181.1C92.0644 180.673 92.211 180.313 92.5044 180.02C92.7977 179.727 93.291 179.58 93.9844 179.58C94.6777 179.58 95.171 179.727 95.4644 180.02C95.7577 180.313 95.9044 180.673 95.9044 181.1V181.7C95.9044 182.127 95.7577 182.487 95.4644 182.78C95.171 183.073 94.6777 183.22 93.9844 183.22ZM105.977 183.22C105.283 183.22 104.79 183.073 104.497 182.78C104.203 182.487 104.057 182.127 104.057 181.7V181.1C104.057 180.673 104.203 180.313 104.497 180.02C104.79 179.727 105.283 179.58 105.977 179.58C106.67 179.58 107.163 179.727 107.457 180.02C107.75 180.313 107.897 180.673 107.897 181.1V181.7C107.897 182.127 107.75 182.487 107.457 182.78C107.163 183.073 106.67 183.22 105.977 183.22ZM117.969 183.22C117.275 183.22 116.782 183.073 116.489 182.78C116.195 182.487 116.049 182.127 116.049 181.7V181.1C116.049 180.673 116.195 180.313 116.489 180.02C116.782 179.727 117.275 179.58 117.969 179.58C118.662 179.58 119.155 179.727 119.449 180.02C119.742 180.313 119.889 180.673 119.889 181.1V181.7C119.889 182.127 119.742 182.487 119.449 182.78C119.155 183.073 118.662 183.22 117.969 183.22Z" fill="black"/>
</svg>
