<svg width="128" height="162" viewBox="0 0 128 162" fill="none" xmlns="http://www.w3.org/2000/svg">
<path d="M72 4H4V124H96V28H72V4Z" fill="#FFFF50"/>
<path d="M80 4H76V24H96V20H92V16H88V12H84V8H80V4Z" fill="#FFFF50"/>
<path fill-rule="evenodd" clip-rule="evenodd" d="M48 48V46H52V82H48V80H46V78H44V76H42V74H40V72H38V70H36V68H34V66H32V62H34V60H36V58H38V56H40V54H42V52H44V50H46V48H48ZM46 72H48V56H46V58H44V60H42V62H40V66H42V68H44V70H46V72ZM64 62V60H68V64H66V66H68V70H64V68H62V70H58V66H60V64H58V60H62V62H64Z" fill="black"/>
<path fill-rule="evenodd" clip-rule="evenodd" d="M0 0H80V4H76V24H96V20H100V104H112V108H120V112H128V128H0V0ZM96 28H72V4H4V124H96V28Z" fill="black"/>
<path d="M92 16H96V20H92V16Z" fill="black"/>
<path d="M88 12H92V16H88V12Z" fill="black"/>
<path d="M84 8H88V12H84V8Z" fill="black"/>
<path d="M84 8V4H80V8H84Z" fill="black"/>
<path d="M17.4913 157H21.8313C25.4513 157 27.2113 154.54 27.2113 150.02C27.2113 145.5 25.4513 143.04 21.8313 143.04H17.4913V157ZM20.0713 154.9V145.14H21.6513C23.5713 145.14 24.4713 146.44 24.4713 148.8V151.22C24.4713 153.6 23.5713 154.9 21.6513 154.9H20.0713ZM38.5034 157V154.84H32.3034V151H38.2834V148.84H32.3034V145.2H38.5034V143.04H29.6834V157H38.5034ZM51.7756 157L47.8356 143.04H44.1956L40.2756 157H42.9156L43.8756 153.46H48.0156L48.9956 157H51.7756ZM47.5756 151.32H44.3356L45.8756 145.62H46.0356L47.5756 151.32ZM56.2878 157V151H62.1478V148.84H56.2878V145.2H62.7878V143.04H53.6678V157H56.2878ZM67.86 159.76L74.44 141.8H72.14L65.56 159.76H67.86ZM84.0322 157H86.6522V143.04H84.0322V148.84H79.9522V143.04H77.3322V157H79.9522V151H84.0322V157ZM93.9844 157.24C97.6244 157.24 99.2644 154.58 99.2644 150.02C99.2644 145.46 97.6244 142.8 93.9844 142.8C90.3444 142.8 88.7044 145.46 88.7044 150.02C88.7044 154.58 90.3444 157.24 93.9844 157.24ZM93.9844 155.1C92.1244 155.1 91.4844 153.62 91.4844 151.22V148.82C91.4844 146.42 92.1244 144.94 93.9844 144.94C95.8444 144.94 96.4844 146.42 96.4844 148.82V151.2C96.4844 153.62 95.8444 155.1 93.9844 155.1ZM108.017 157H110.637V143.04H108.017V148.84H103.937V143.04H101.317V157H103.937V151H108.017V157Z" fill="black"/>
</svg>
