<svg width="128" height="154" viewBox="0 0 128 154" fill="none" xmlns="http://www.w3.org/2000/svg">
<path d="M24 30H96V34H24V30Z" fill="black"/>
<path d="M20 38V34H24V38H20Z" fill="black"/>
<path d="M16 42V38H20V42H16Z" fill="black"/>
<path d="M12 46V42H16V46H12Z" fill="black"/>
<path d="M8 50V46H12V50H8Z" fill="black"/>
<path d="M4 54V50H8V54H4Z" fill="black"/>
<path d="M16 70H24V82H16V70Z" fill="black"/>
<path fill-rule="evenodd" clip-rule="evenodd" d="M116 54H120V66H124V74H128V98H4V94H0V54H4V62H116V54ZM4 90H116V66H4V90Z" fill="black"/>
<path d="M112 50H116V54H112V50Z" fill="black"/>
<path d="M108 46H112V50H108V46Z" fill="black"/>
<path d="M104 42H108V46H104V42Z" fill="black"/>
<path d="M100 38H104V42H100V38Z" fill="black"/>
<path d="M100 38V34H96V38H100Z" fill="black"/>
<path d="M24 34V38H20V42H16V46H12V50H8V54H4V62H116V54H112V50H108V46H104V42H100V38H96V34H24Z" fill="#4D7BFF"/>
<path fill-rule="evenodd" clip-rule="evenodd" d="M4 66H116V90H4V66ZM24 82H16V70H24V82Z" fill="#4D7BFF"/>
<path d="M11.5952 149V147.04H14.7352V137H11.5952V135.04H20.4752V137H17.3352V147.04H20.4752V149H11.5952ZM25.8073 138.98H25.6073V149H23.3673V135.04H26.5873L30.2473 145.06H30.4473V135.04H32.6873V149H29.4673L25.8073 138.98ZM41.3195 137.2V149H38.7195V137.2H34.5195V135.04H45.5195V137.2H41.3195ZM50.2317 149H47.6117V135.04H52.9117C54.2717 135.04 55.3117 135.427 56.0317 136.2C56.7517 136.973 57.1117 138.027 57.1117 139.36C57.1117 140.387 56.8717 141.253 56.3917 141.96C55.9251 142.653 55.2517 143.093 54.3717 143.28L57.3517 149H54.4717L51.8117 143.58H50.2317V149ZM52.3717 141.54C53.0784 141.54 53.5851 141.4 53.8917 141.12C54.1984 140.827 54.3517 140.367 54.3517 139.74V138.98C54.3517 138.353 54.1984 137.9 53.8917 137.62C53.5851 137.327 53.0784 137.18 52.3717 137.18H50.2317V141.54H52.3717ZM64.0039 149.24C63.0972 149.24 62.3106 149.08 61.6439 148.76C60.9772 148.427 60.4239 147.953 59.9839 147.34C59.5572 146.727 59.2372 145.973 59.0239 145.08C58.8239 144.187 58.7239 143.167 58.7239 142.02C58.7239 140.887 58.8239 139.873 59.0239 138.98C59.2372 138.073 59.5572 137.313 59.9839 136.7C60.4239 136.087 60.9772 135.62 61.6439 135.3C62.3106 134.967 63.0972 134.8 64.0039 134.8C65.8172 134.8 67.1506 135.433 68.0039 136.7C68.8572 137.967 69.2839 139.74 69.2839 142.02C69.2839 144.3 68.8572 146.073 68.0039 147.34C67.1506 148.607 65.8172 149.24 64.0039 149.24ZM64.0039 147.1C64.4706 147.1 64.8639 147.013 65.1839 146.84C65.5039 146.653 65.7572 146.393 65.9439 146.06C66.1439 145.727 66.2839 145.32 66.3639 144.84C66.4572 144.347 66.5039 143.8 66.5039 143.2V140.82C66.5039 139.62 66.3172 138.673 65.9439 137.98C65.5839 137.287 64.9372 136.94 64.0039 136.94C63.0706 136.94 62.4172 137.287 62.0439 137.98C61.6839 138.673 61.5039 139.62 61.5039 140.82V143.22C61.5039 144.42 61.6839 145.367 62.0439 146.06C62.4172 146.753 63.0706 147.1 64.0039 147.1ZM74.1561 149L70.3361 135.04H73.2161L74.9561 142.1L75.9761 146.5H76.1161L77.1561 142.1L78.9161 135.04H81.6561L77.8361 149H74.1561ZM83.6483 149V135.04H92.4683V137.2H86.2683V140.84H92.2483V143H86.2683V146.84H92.4683V149H83.6483ZM98.2005 149H95.5805V135.04H100.88C102.24 135.04 103.28 135.427 104 136.2C104.72 136.973 105.08 138.027 105.08 139.36C105.08 140.387 104.84 141.253 104.36 141.96C103.894 142.653 103.22 143.093 102.34 143.28L105.32 149H102.44L99.7805 143.58H98.2005V149ZM100.34 141.54C101.047 141.54 101.554 141.4 101.86 141.12C102.167 140.827 102.32 140.367 102.32 139.74V138.98C102.32 138.353 102.167 137.9 101.86 137.62C101.554 137.327 101.047 137.18 100.34 137.18H98.2005V141.54H100.34ZM113.273 137.2V149H110.673V137.2H106.473V135.04H117.473V137.2H113.273Z" fill="black"/>
</svg>
