<svg width="128" height="188" viewBox="0 0 128 188" fill="none" xmlns="http://www.w3.org/2000/svg">
<path d="M72 4H4V124H96V28H72V4Z" fill="#FFFF50"/>
<path d="M80 4H76V24H96V20H92V16H88V12H84V8H80V4Z" fill="#FFFF50"/>
<path fill-rule="evenodd" clip-rule="evenodd" d="M56 68H60V72H64V76H68V80H72V86H68V84H64V80H60V76H56V72H52V68H48V64H44V60H40V56H36V52H32V48H28V42H32V44H36V48H40V52H44V56H48V60H52V64H56V68ZM68 54H66V52H64V50H60V46H44V50H56V54H60V56H62V58H64V62H68V66H64V70H72V58H68V54ZM44 74H40V72H38V70H36V66H32V62H36V58H28V70H32V74H34V76H36V78H40V82H56V78H44V74Z" fill="black"/>
<path fill-rule="evenodd" clip-rule="evenodd" d="M0 0H80V4H76V24H96V20H100V104H112V108H120V112H128V128H0V0ZM96 28H72V4H4V124H96V28Z" fill="black"/>
<path d="M92 16H96V20H92V16Z" fill="black"/>
<path d="M88 12H92V16H88V12Z" fill="black"/>
<path d="M84 8H88V12H84V8Z" fill="black"/>
<path d="M84 8V4H80V8H84Z" fill="black"/>
<path d="M14.8391 157V154.84H8.65906V143.04H6.03906V157H14.8391ZM22.0313 157.24C25.6713 157.24 27.3113 154.58 27.3113 150.02C27.3113 145.46 25.6713 142.8 22.0313 142.8C18.3913 142.8 16.7513 145.46 16.7513 150.02C16.7513 154.58 18.3913 157.24 22.0313 157.24ZM22.0313 155.1C20.1713 155.1 19.5313 153.62 19.5313 151.22V148.82C19.5313 146.42 20.1713 144.94 22.0313 144.94C23.8913 144.94 24.5313 146.42 24.5313 148.82V151.2C24.5313 153.62 23.8913 155.1 22.0313 155.1ZM32.7034 157L33.9434 149.1H34.1034L35.3434 157H38.7234L39.6634 143.04H37.4834L37.0434 151.08L36.8634 154.4H36.6834L35.2834 146.26H32.8434L31.4434 154.4H31.2634L31.0834 151.08L30.6434 143.04H28.3834L29.3234 157H32.7034ZM59.8478 157L63.6678 143.04H60.9278L59.1678 150.1L58.1278 154.5H57.9878L56.9678 150.1L55.2278 143.04H52.3478L56.1678 157H59.8478ZM74.44 157V155.04H71.3V145H74.44V143.04H65.56V145H68.7V155.04H65.56V157H74.44ZM81.8322 157.24C85.2122 157.24 87.0322 155.42 87.0322 152.82C87.0322 150.74 85.8522 149.36 83.4522 148.92L81.9922 148.66C80.4522 148.4 79.8722 147.88 79.8722 146.82C79.8722 145.58 80.6522 144.94 82.1522 144.94C83.5522 144.94 84.5922 145.5 85.3322 146.38L86.8722 144.74C85.9122 143.54 84.3122 142.8 82.1322 142.8C79.0922 142.8 77.2322 144.28 77.2322 146.94C77.2322 148.88 78.2322 150.44 80.8122 150.88L82.2922 151.12C83.8122 151.36 84.3922 151.9 84.3922 153C84.3922 154.34 83.5122 155.1 81.9122 155.1C80.5322 155.1 79.3122 154.54 78.2722 153.34L76.6922 154.98C77.7522 156.34 79.4522 157.24 81.8322 157.24ZM98.4244 157V155.04H95.2844V145H98.4244V143.04H89.5444V145H92.6844V155.04H89.5444V157H98.4244ZM105.977 157.24C109.617 157.24 111.257 154.58 111.257 150.02C111.257 145.46 109.617 142.8 105.977 142.8C102.337 142.8 100.697 145.46 100.697 150.02C100.697 154.58 102.337 157.24 105.977 157.24ZM105.977 155.1C104.117 155.1 103.477 153.62 103.477 151.22V148.82C103.477 146.42 104.117 144.94 105.977 144.94C107.837 144.94 108.477 146.42 108.477 148.82V151.2C108.477 153.62 107.837 155.1 105.977 155.1ZM119.409 157H122.629V143.04H120.389V153.06H120.189L116.529 143.04H113.309V157H115.549V146.98H115.749L119.409 157ZM31.8834 185.76L38.4634 167.8H36.1634L29.5834 185.76H31.8834ZM41.6156 183H46.9756C49.4756 183 51.0556 181.42 51.0556 179.1C51.0556 177.2 50.0156 176.18 48.3356 175.78V175.68C49.7556 175.26 50.5956 174.32 50.5956 172.72C50.5956 170.46 49.0956 169.04 46.4756 169.04H41.6156V183ZM44.1756 181.1V176.82H46.1756C47.6356 176.82 48.3756 177.32 48.3756 178.62V179.28C48.3756 180.6 47.6356 181.1 46.1756 181.1H44.1756ZM44.1756 175V170.94H45.8356C47.2356 170.94 47.9156 171.4 47.9156 172.64V173.3C47.9156 174.54 47.2356 175 45.8356 175H44.1756ZM62.8078 183V180.84H56.6278V169.04H54.0078V183H62.8078ZM74.44 183V181.04H71.3V171H74.44V169.04H65.56V171H68.7V181.04H65.56V183H74.44ZM83.4322 183H86.6522V169.04H84.4122V179.06H84.2122L80.5522 169.04H77.3322V183H79.5722V172.98H79.7722L83.4322 183ZM89.4444 183H93.7844C97.4044 183 99.1644 180.54 99.1644 176.02C99.1644 171.5 97.4044 169.04 93.7844 169.04H89.4444V183ZM92.0244 180.9V171.14H93.6044C95.5244 171.14 96.4244 172.44 96.4244 174.8V177.22C96.4244 179.6 95.5244 180.9 93.6044 180.9H92.0244Z" fill="black"/>
</svg>
