<svg width="128" height="162" viewBox="0 0 128 162" fill="none" xmlns="http://www.w3.org/2000/svg">
<path d="M72 4H4V124H96V28H72V4Z" fill="#FF90FF"/>
<path d="M80 4H76V24H96V20H92V16H88V12H84V8H80V4Z" fill="#FF90FF"/>
<path fill-rule="evenodd" clip-rule="evenodd" d="M40 64H38V62H36V50H38V48H40V46H52V48H54V50H56V62H54V64H52V66H40V64ZM42 54H40V58H42V60H44V62H48V60H50V58H52V54H50V52H48V50H44V52H42V54ZM56 70H58V72H60V82H56V76H54V74H52V72H38V74H36V76H34V82H30V72H32V70H34V68H56V70ZM62 64H64V62H66V50H64V48H62V46H60H58V52H60V54H62V56V58H60V60H58V66H62V64ZM68 70V72H70V82H66V76H64V74H62V68H66V70H68Z" fill="black"/>
<path fill-rule="evenodd" clip-rule="evenodd" d="M0 0H80V4H76V24H96V20H100V104H112V108H120V112H128V128H0V0ZM96 28H72V4H4V124H96V28Z" fill="black"/>
<path d="M92 16H96V20H92V16Z" fill="black"/>
<path d="M88 12H92V16H88V12Z" fill="black"/>
<path d="M84 8H88V12H84V8Z" fill="black"/>
<path d="M84 8V4H80V8H84Z" fill="black"/>
<path d="M36.7834 150.54L36.9034 146.5H36.7234L34.0234 153.68L31.3234 146.5H31.1434L31.2634 150.54V157H28.9834V143.04H32.1034L34.0434 148.18H34.1834L36.1434 143.04H39.0634V157H36.7834V150.54ZM41.6756 157V143.04H50.4956V145.2H44.2956V148.84H50.2756V151H44.2956V154.84H50.4956V157H41.6756ZM55.7878 146.98H55.5878V157H53.3478V143.04H56.5678L60.2278 153.06H60.4278V143.04H62.6678V157H59.4478L55.7878 146.98ZM71.3 145.2V157H68.7V145.2H64.5V143.04H75.5V145.2H71.3ZM81.9922 157.24C81.0855 157.24 80.2989 157.08 79.6322 156.76C78.9655 156.427 78.4122 155.953 77.9722 155.34C77.5455 154.727 77.2255 153.973 77.0122 153.08C76.8122 152.187 76.7122 151.167 76.7122 150.02C76.7122 148.887 76.8122 147.873 77.0122 146.98C77.2255 146.073 77.5455 145.313 77.9722 144.7C78.4122 144.087 78.9655 143.62 79.6322 143.3C80.2989 142.967 81.0855 142.8 81.9922 142.8C83.8055 142.8 85.1389 143.433 85.9922 144.7C86.8455 145.967 87.2722 147.74 87.2722 150.02C87.2722 152.3 86.8455 154.073 85.9922 155.34C85.1389 156.607 83.8055 157.24 81.9922 157.24ZM81.9922 155.1C82.4589 155.1 82.8522 155.013 83.1722 154.84C83.4922 154.653 83.7455 154.393 83.9322 154.06C84.1322 153.727 84.2722 153.32 84.3522 152.84C84.4455 152.347 84.4922 151.8 84.4922 151.2V148.82C84.4922 147.62 84.3055 146.673 83.9322 145.98C83.5722 145.287 82.9255 144.94 81.9922 144.94C81.0589 144.94 80.4055 145.287 80.0322 145.98C79.6722 146.673 79.4922 147.62 79.4922 148.82V151.22C79.4922 152.42 79.6722 153.367 80.0322 154.06C80.4055 154.753 81.0589 155.1 81.9922 155.1ZM92.2044 157H89.5844V143.04H94.8844C96.2444 143.04 97.2844 143.427 98.0044 144.2C98.7244 144.973 99.0844 146.027 99.0844 147.36C99.0844 148.387 98.8444 149.253 98.3644 149.96C97.8977 150.653 97.2244 151.093 96.3444 151.28L99.3244 157H96.4444L93.7844 151.58H92.2044V157ZM94.3444 149.54C95.051 149.54 95.5577 149.4 95.8644 149.12C96.171 148.827 96.3244 148.367 96.3244 147.74V146.98C96.3244 146.353 96.171 145.9 95.8644 145.62C95.5577 145.327 95.051 145.18 94.3444 145.18H92.2044V149.54H94.3444Z" fill="black"/>
</svg>
