<svg width="128" height="162" viewBox="0 0 128 162" fill="none" xmlns="http://www.w3.org/2000/svg">
<path d="M72 4H4V124H96V28H72V4Z" fill="#FF5C5C"/>
<path d="M80 4H76V24H96V20H92V16H88V12H84V8H80V4Z" fill="#FF5C5C"/>
<path fill-rule="evenodd" clip-rule="evenodd" d="M0 0H80V4H76V24H96V20H100V104H112V108H120V112H128V128H0V0ZM96 28H72V4H4V124H96V28Z" fill="black"/>
<path d="M92 16H96V20H92V16Z" fill="black"/>
<path d="M88 12H92V16H88V12Z" fill="black"/>
<path d="M84 8H88V12H84V8Z" fill="black"/>
<path d="M84 8V4H80V8H84Z" fill="black"/>
<path fill-rule="evenodd" clip-rule="evenodd" d="M52 46H64V48H66V50H68V54V58V62H66V64H64V66H52V64H50V62H48V58V54V50H50V48H52V46ZM62 54H64V58H62V60H60V62H56V60H54V58H52V54H54V52H56V50H60V52H62V54ZM64 68H50H48V70H46V72H48V74H50V72H64V74H66V76H68V82H72V72H70V70H68V68H64ZM34 78H36V76H42V78H44V82H48V76H46V74H44V72H34V74H32V76H30V82H34V78ZM42 66H36V60H42V66ZM44 68V70H34V68H32V58H34V56H44V58H46V68H44Z" fill="black"/>
<path d="M29.6234 157V143.04H34.9234C36.2834 143.04 37.3234 143.427 38.0434 144.2C38.7634 144.973 39.1234 146.027 39.1234 147.36C39.1234 148.693 38.7634 149.747 38.0434 150.52C37.3234 151.293 36.2834 151.68 34.9234 151.68H32.2434V157H29.6234ZM32.2434 149.54H34.3834C35.0901 149.54 35.5968 149.4 35.9034 149.12C36.2101 148.827 36.3634 148.367 36.3634 147.74V146.98C36.3634 146.353 36.2101 145.9 35.9034 145.62C35.5968 145.327 35.0901 145.18 34.3834 145.18H32.2434V149.54ZM48.9956 157L48.0156 153.46H43.8756L42.9156 157H40.2756L44.1956 143.04H47.8356L51.7756 157H48.9956ZM46.0356 145.62H45.8756L44.3356 151.32H47.5756L46.0356 145.62ZM56.2278 157H53.6078V143.04H58.9078C60.2678 143.04 61.3078 143.427 62.0278 144.2C62.7478 144.973 63.1078 146.027 63.1078 147.36C63.1078 148.387 62.8678 149.253 62.3878 149.96C61.9211 150.653 61.2478 151.093 60.3678 151.28L63.3478 157H60.4678L57.8078 151.58H56.2278V157ZM58.3678 149.54C59.0745 149.54 59.5811 149.4 59.8878 149.12C60.1945 148.827 60.3478 148.367 60.3478 147.74V146.98C60.3478 146.353 60.1945 145.9 59.8878 145.62C59.5811 145.327 59.0745 145.18 58.3678 145.18H56.2278V149.54H58.3678ZM65.66 157V143.04H74.48V145.2H68.28V148.84H74.26V151H68.28V154.84H74.48V157H65.66ZM79.7722 146.98H79.5722V157H77.3322V143.04H80.5522L84.2122 153.06H84.4122V143.04H86.6522V157H83.4322L79.7722 146.98ZM95.2844 145.2V157H92.6844V145.2H88.4844V143.04H99.4844V145.2H95.2844Z" fill="black"/>
</svg>
