<svg width="128" height="162" viewBox="0 0 128 162" fill="none" xmlns="http://www.w3.org/2000/svg">
<path d="M72 4H4V124H96V28H72V4Z" fill="#7FFF5B"/>
<path d="M80 4H76V24H96V20H92V16H88V12H84V8H80V4Z" fill="#7FFF5B"/>
<path d="M68 54V52H60V46H40V52H32V54H30V80H32V82H68V80H70V54H68ZM66 76H64V78H60V56H64V58H66V76ZM34 76V58H36V56H40V78H36V76H34ZM44 50H56V52H44V50ZM44 56H56V78H44V56Z" fill="black"/>
<path fill-rule="evenodd" clip-rule="evenodd" d="M0 0H80V4H76V24H96V20H100V104H112V108H120V112H128V128H0V0ZM96 28H72V4H4V124H96V28Z" fill="black"/>
<path d="M92 16H96V20H92V16Z" fill="black"/>
<path d="M88 12H92V16H88V12Z" fill="black"/>
<path d="M84 8H88V12H84V8Z" fill="black"/>
<path d="M84 8V4H80V8H84Z" fill="black"/>
<path d="M26.1873 157L22.3673 143.04H25.2473L26.9873 150.1L28.0073 154.5H28.1473L29.1873 150.1L30.9473 143.04H33.6873L29.8673 157H26.1873ZM35.6795 157V143.04H44.4995V145.2H38.2995V148.84H44.2795V151H38.2995V154.84H44.4995V157H35.6795ZM53.3117 145.2V157H50.7117V145.2H46.5117V143.04H57.5117V145.2H53.3117ZM59.6639 157V143.04H68.4839V145.2H62.2839V148.84H68.2639V151H62.2839V154.84H68.4839V157H59.6639ZM74.2161 157H71.5961V143.04H76.8961C78.2561 143.04 79.2961 143.427 80.0161 144.2C80.7361 144.973 81.0961 146.027 81.0961 147.36C81.0961 148.387 80.8561 149.253 80.3761 149.96C79.9094 150.653 79.2361 151.093 78.3561 151.28L81.3361 157H78.4561L75.7961 151.58H74.2161V157ZM76.3561 149.54C77.0628 149.54 77.5694 149.4 77.8761 149.12C78.1828 148.827 78.3361 148.367 78.3361 147.74V146.98C78.3361 146.353 78.1828 145.9 77.8761 145.62C77.5694 145.327 77.0628 145.18 76.3561 145.18H74.2161V149.54H76.3561ZM90.9683 157L89.9883 153.46H85.8483L84.8883 157H82.2483L86.1683 143.04H89.8083L93.7483 157H90.9683ZM88.0083 145.62H87.8483L86.3083 151.32H89.5483L88.0083 145.62ZM97.7605 146.98H97.5605V157H95.3205V143.04H98.5405L102.2 153.06H102.4V143.04H104.64V157H101.42L97.7605 146.98Z" fill="black"/>
</svg>
