<svg width="1920" height="1080" viewBox="0 0 1920 1080" fill="none" xmlns="http://www.w3.org/2000/svg">
<g clip-path="url(#clip0_18_72607)">
<rect width="1920" height="1080" fill="white"/>
<rect width="1920" height="1080" fill="#FF5C5C"/>
<path d="M2343 539.945C2343 969.588 1723.81 1317.88 960 1317.88M2343 539.945C2343 110.302 1723.81 -237.992 960 -237.992M2343 539.945H-423M960 1317.88C196.19 1317.88 -423 969.588 -423 539.945M960 1317.88V-237.992M-423 539.945C-423 110.302 196.19 -237.992 960 -237.992M960 -238C441.772 -172.672 48.0838 150.769 48.0837 539.938C48.0836 929.106 441.771 1252.55 960 1317.88M960 -238C294.409 -172.672 -211.229 150.769 -211.229 539.938C-211.229 929.106 294.408 1252.55 960 1317.88M960 -238C701.987 -134.058 514.846 174.929 514.846 539.938C514.846 904.947 701.987 1213.93 960 1317.88M960 -238C824.343 -68.7264 735.262 216.546 735.262 539.938C735.262 863.33 824.343 1148.6 960 1317.88M960 -238C564.213 -134.058 277.143 174.928 277.143 539.938C277.143 904.947 564.213 1213.93 960 1317.88M960.001 1317.89C1478.23 1252.56 1871.92 929.117 1871.92 539.949C1871.92 150.781 1478.23 -172.661 960.002 -237.989M960.001 1317.89C1625.59 1252.56 2131.23 929.117 2131.23 539.949C2131.23 150.781 1625.59 -172.661 960.002 -237.989M960.001 1317.89C1218.01 1213.94 1405.15 904.958 1405.15 539.949C1405.16 174.94 1218.01 -134.047 960.002 -237.989M960.001 1317.89C1095.66 1148.61 1184.74 863.341 1184.74 539.949C1184.74 216.557 1095.66 -68.715 960.002 -237.989M960.001 1317.89C1355.79 1213.94 1642.86 904.958 1642.86 539.949C1642.86 174.94 1355.79 -134.047 960.002 -237.989M-258.771 170.425C58.9382 272.892 487.921 335.737 959.998 335.737C1432.08 335.737 1861.06 272.892 2178.77 170.425M2278.17 301.702C1912.63 390.155 1455.71 442.703 960 442.703C464.288 442.703 7.36447 390.155 -358.172 301.702M-120.47 53.7343C168.32 164.244 546.298 231.201 959.998 231.201C1373.7 231.201 1751.68 164.244 2040.47 53.7343M220.958 -118.87C432.685 -29.7746 686.774 22.1309 959.998 22.1309C1233.22 22.1309 1487.31 -29.7745 1699.04 -118.87M1247.4 -221.252C1156.89 -194.432 1060.3 -179.938 959.998 -179.938C859.698 -179.938 763.105 -194.432 672.593 -221.252M1871.91 -45.939C1663.44 58.9716 1330.2 126.666 959.999 126.666C589.802 126.666 256.559 58.9716 48.083 -45.939M1487.27 -179.647C1344.08 -114.351 1160.35 -75.1118 959.998 -75.1118C759.645 -75.1118 575.918 -114.351 432.729 -179.647M2178.77 909.46C1861.06 806.993 1432.08 744.148 960 744.148C487.923 744.148 58.9398 806.993 -258.769 909.46M-358.174 778.183C7.3633 689.73 464.287 637.182 959.999 637.182C1455.71 637.182 1912.63 689.731 2278.17 778.183M2040.47 1026.15C1751.68 915.641 1373.7 848.684 959.999 848.684C546.298 848.684 168.32 915.641 -120.47 1026.15M1699.04 1198.76C1487.31 1109.66 1233.22 1057.75 959.997 1057.75C686.773 1057.75 432.684 1109.66 220.957 1198.76M672.594 1301.14C763.107 1274.32 859.7 1259.82 959.999 1259.82C1060.3 1259.82 1156.89 1274.32 1247.4 1301.14M48.0837 1125.82C256.56 1020.91 589.803 953.22 960 953.22C1330.2 953.22 1663.44 1020.91 1871.92 1125.82M432.729 1259.53C575.917 1194.24 759.644 1155 959.998 1155C1160.35 1155 1344.08 1194.24 1487.27 1259.53" stroke="white"/>
</g>
<defs>
<clipPath id="clip0_18_72607">
<rect width="1920" height="1080" fill="white"/>
</clipPath>
</defs>
</svg>
