<svg width="512" height="308" viewBox="0 0 512 308" fill="none" xmlns="http://www.w3.org/2000/svg">
<g filter="url(#filter0_d_18_72558)">
<rect x="8" y="8" width="480" height="280" fill="#FF5C5C" shape-rendering="crispEdges"/>
<rect x="4" y="4" width="488" height="288" stroke="black" stroke-width="8" shape-rendering="crispEdges"/>
<rect width="480" height="46" transform="translate(8 8)" fill="black"/>
<path d="M24 31C24 27.134 27.134 24 31 24C34.866 24 38 27.134 38 31C38 34.866 34.866 38 31 38C27.134 38 24 34.866 24 31Z" stroke="white" stroke-width="2"/>
<path d="M46 31C46 27.134 49.134 24 53 24C56.866 24 60 27.134 60 31C60 34.866 56.866 38 53 38C49.134 38 46 34.866 46 31Z" stroke="white" stroke-width="2"/>
<path d="M68 31C68 27.134 71.134 24 75 24C78.866 24 82 27.134 82 31C82 34.866 78.866 38 75 38C71.134 38 68 34.866 68 31Z" stroke="white" stroke-width="2"/>
<path d="M128.84 40V23.248H139.4V25H130.856V30.64H138.68V32.392H130.856V40H128.84ZM152.614 40L151.198 35.224H145.318L143.902 40H141.814L146.95 23.248H149.614L154.75 40H152.614ZM148.366 25.384H148.15L145.798 33.472H150.718L148.366 25.384ZM161.293 40L156.325 23.248H158.461L160.837 31.624L162.637 37.96H162.757L164.557 31.624L166.933 23.248H168.997L164.029 40H161.293ZM186.402 40V23.248H196.962V25H188.418V30.64H196.242V32.392H188.418V40H186.402ZM200.649 40V38.392H204.825V24.856H200.649V23.248H211.017V24.856H206.841V38.392H211.017V40H200.649ZM223.679 37.768H223.559C223.415 38.088 223.247 38.4 223.055 38.704C222.863 39.008 222.615 39.28 222.311 39.52C222.023 39.744 221.671 39.928 221.255 40.072C220.839 40.216 220.343 40.288 219.767 40.288C217.943 40.288 216.583 39.552 215.687 38.08C214.807 36.608 214.367 34.496 214.367 31.744C214.367 28.864 214.855 26.68 215.831 25.192C216.807 23.704 218.311 22.96 220.343 22.96C221.127 22.96 221.807 23.064 222.383 23.272C222.959 23.48 223.447 23.76 223.847 24.112C224.263 24.464 224.607 24.864 224.879 25.312C225.151 25.744 225.375 26.184 225.551 26.632L223.823 27.424C223.679 27.056 223.511 26.712 223.319 26.392C223.143 26.056 222.919 25.768 222.647 25.528C222.391 25.272 222.079 25.072 221.711 24.928C221.343 24.784 220.911 24.712 220.415 24.712C219.071 24.712 218.079 25.216 217.439 26.224C216.815 27.232 216.503 28.576 216.503 30.256V32.848C216.503 33.696 216.567 34.472 216.695 35.176C216.823 35.864 217.031 36.464 217.319 36.976C217.623 37.488 218.007 37.888 218.471 38.176C218.951 38.448 219.535 38.584 220.223 38.584C221.311 38.584 222.159 38.256 222.767 37.6C223.375 36.944 223.679 36.096 223.679 35.056V33.328H220.151V31.72H225.551V40H223.679V37.768ZM238.334 31.6V26.296H238.142L234.614 34.912L231.086 26.296H230.894V31.6V40H229.046V23.248H231.638L234.59 30.64H234.734L237.686 23.248H240.182V40H238.334V31.6ZM253.349 40L251.933 35.224H246.053L244.637 40H242.549L247.685 23.248H250.349L255.485 40H253.349ZM249.101 25.384H248.885L246.533 33.472H251.453L249.101 25.384ZM272.746 40V23.248H283.306V25H274.762V30.64H282.586V32.392H274.762V40H272.746ZM287.137 40V23.248H297.457V25H289.153V30.64H297.169V32.392H289.153V38.248H297.457V40H287.137ZM310.911 40L309.495 35.224H303.615L302.199 40H300.111L305.247 23.248H307.911L313.047 40H310.911ZM306.663 25.384H306.447L304.095 33.472H309.015L306.663 25.384ZM321.966 25V40H319.95V25H314.358V23.248H327.558V25H321.966ZM332.084 23.248V33.304C332.084 34.12 332.108 34.848 332.156 35.488C332.204 36.128 332.332 36.68 332.54 37.144C332.748 37.592 333.068 37.936 333.5 38.176C333.948 38.416 334.564 38.536 335.348 38.536C336.132 38.536 336.74 38.416 337.172 38.176C337.62 37.936 337.948 37.592 338.156 37.144C338.364 36.68 338.492 36.128 338.54 35.488C338.588 34.848 338.612 34.12 338.612 33.304V23.248H340.628V32.824C340.628 34.072 340.564 35.16 340.436 36.088C340.324 37.016 340.076 37.792 339.692 38.416C339.324 39.04 338.788 39.512 338.084 39.832C337.396 40.136 336.484 40.288 335.348 40.288C334.212 40.288 333.292 40.136 332.588 39.832C331.9 39.512 331.364 39.04 330.98 38.416C330.612 37.792 330.364 37.016 330.236 36.088C330.124 35.16 330.068 34.072 330.068 32.824V23.248H332.084ZM346.715 40H344.699V23.248H350.795C352.347 23.248 353.531 23.672 354.347 24.52C355.163 25.368 355.571 26.552 355.571 28.072C355.571 29.432 355.219 30.52 354.515 31.336C353.811 32.152 352.787 32.624 351.443 32.752L355.715 40H353.459L349.379 32.848H346.715V40ZM350.747 31.144C351.595 31.144 352.251 30.936 352.715 30.52C353.195 30.088 353.435 29.48 353.435 28.696V27.448C353.435 26.664 353.195 26.064 352.715 25.648C352.251 25.216 351.595 25 350.747 25H346.715V31.144H350.747ZM359.09 40V23.248H369.41V25H361.106V30.64H369.122V32.392H361.106V38.248H369.41V40H359.09Z" fill="white"/>
<path fill-rule="evenodd" clip-rule="evenodd" d="M467 25V26H468V40H467V41H453V40H452V22H453V21H463V22H464V23H465V24H466V25H467ZM465 38H466V29H460V23H455V24H454V38H455V39H465V38ZM464 27V26H463V25H462V27H464ZM463 33V31H457V33H463ZM463 36V34H457V36H463Z" fill="white"/>
<path d="M56.7713 159L47.2259 124.091H51.5213L58.8168 152.523H59.1577L66.5895 124.091H71.3622L78.794 152.523H79.1349L86.4304 124.091H90.7259L81.1804 159H76.8168L69.1122 131.182H68.8395L61.1349 159H56.7713ZM93.8068 159V132.818H97.6932V136.773H97.9659C98.4432 135.477 99.3068 134.426 100.557 133.619C101.807 132.812 103.216 132.409 104.784 132.409C105.08 132.409 105.449 132.415 105.892 132.426C106.335 132.437 106.67 132.455 106.898 132.477V136.568C106.761 136.534 106.449 136.483 105.96 136.415C105.483 136.335 104.977 136.295 104.443 136.295C103.17 136.295 102.034 136.562 101.034 137.097C100.045 137.619 99.2614 138.347 98.6818 139.278C98.1136 140.199 97.8295 141.25 97.8295 142.432V159H93.8068ZM111.666 159V132.818H115.689V159H111.666ZM113.712 128.455C112.928 128.455 112.251 128.188 111.683 127.653C111.126 127.119 110.848 126.477 110.848 125.727C110.848 124.977 111.126 124.335 111.683 123.801C112.251 123.267 112.928 123 113.712 123C114.496 123 115.166 123.267 115.723 123.801C116.291 124.335 116.575 124.977 116.575 125.727C116.575 126.477 116.291 127.119 115.723 127.653C115.166 128.188 114.496 128.455 113.712 128.455ZM134.443 132.818V136.227H120.875V132.818H134.443ZM124.83 126.545H128.852V151.5C128.852 152.636 129.017 153.489 129.347 154.057C129.688 154.614 130.119 154.989 130.642 155.182C131.176 155.364 131.739 155.455 132.33 155.455C132.773 155.455 133.136 155.432 133.42 155.386C133.705 155.33 133.932 155.284 134.102 155.25L134.92 158.864C134.648 158.966 134.267 159.068 133.778 159.17C133.29 159.284 132.67 159.341 131.92 159.341C130.784 159.341 129.67 159.097 128.58 158.608C127.5 158.119 126.602 157.375 125.886 156.375C125.182 155.375 124.83 154.114 124.83 152.591V126.545ZM151.19 159.545C148.668 159.545 146.491 158.989 144.662 157.875C142.844 156.75 141.44 155.182 140.452 153.17C139.474 151.148 138.986 148.795 138.986 146.114C138.986 143.432 139.474 141.068 140.452 139.023C141.44 136.966 142.815 135.364 144.577 134.216C146.349 133.057 148.418 132.477 150.781 132.477C152.145 132.477 153.491 132.705 154.821 133.159C156.151 133.614 157.361 134.352 158.452 135.375C159.543 136.386 160.412 137.727 161.06 139.398C161.707 141.068 162.031 143.125 162.031 145.568V147.273H141.849V143.795H157.94C157.94 142.318 157.645 141 157.054 139.841C156.474 138.682 155.645 137.767 154.565 137.097C153.497 136.426 152.236 136.091 150.781 136.091C149.179 136.091 147.793 136.489 146.622 137.284C145.463 138.068 144.571 139.091 143.946 140.352C143.321 141.614 143.009 142.966 143.009 144.409V146.727C143.009 148.705 143.349 150.381 144.031 151.756C144.724 153.119 145.685 154.159 146.912 154.875C148.139 155.58 149.565 155.932 151.19 155.932C152.247 155.932 153.202 155.784 154.054 155.489C154.918 155.182 155.662 154.727 156.287 154.125C156.912 153.511 157.395 152.75 157.736 151.841L161.622 152.932C161.213 154.25 160.526 155.409 159.56 156.409C158.594 157.398 157.401 158.17 155.98 158.727C154.56 159.273 152.963 159.545 151.19 159.545ZM200.196 138.682L196.582 139.705C196.355 139.102 196.02 138.517 195.577 137.949C195.145 137.369 194.554 136.892 193.804 136.517C193.054 136.142 192.094 135.955 190.923 135.955C189.321 135.955 187.986 136.324 186.918 137.062C185.861 137.79 185.332 138.716 185.332 139.841C185.332 140.841 185.696 141.631 186.423 142.21C187.151 142.79 188.287 143.273 189.832 143.659L193.719 144.614C196.06 145.182 197.804 146.051 198.952 147.222C200.099 148.381 200.673 149.875 200.673 151.705C200.673 153.205 200.241 154.545 199.378 155.727C198.526 156.909 197.332 157.841 195.798 158.523C194.264 159.205 192.48 159.545 190.446 159.545C187.776 159.545 185.565 158.966 183.815 157.807C182.065 156.648 180.957 154.955 180.491 152.727L184.31 151.773C184.673 153.182 185.361 154.239 186.372 154.943C187.395 155.648 188.73 156 190.378 156C192.253 156 193.741 155.602 194.844 154.807C195.957 154 196.514 153.034 196.514 151.909C196.514 151 196.196 150.239 195.56 149.625C194.923 149 193.946 148.534 192.628 148.227L188.264 147.205C185.866 146.636 184.105 145.756 182.98 144.562C181.866 143.358 181.31 141.852 181.31 140.045C181.31 138.568 181.724 137.261 182.554 136.125C183.395 134.989 184.537 134.097 185.98 133.449C187.435 132.801 189.082 132.477 190.923 132.477C193.514 132.477 195.548 133.045 197.026 134.182C198.514 135.318 199.571 136.818 200.196 138.682ZM217.365 159.545C215.001 159.545 212.928 158.983 211.143 157.858C209.371 156.733 207.984 155.159 206.984 153.136C205.996 151.114 205.501 148.75 205.501 146.045C205.501 143.318 205.996 140.937 206.984 138.903C207.984 136.869 209.371 135.29 211.143 134.165C212.928 133.04 215.001 132.477 217.365 132.477C219.729 132.477 221.797 133.04 223.57 134.165C225.354 135.29 226.74 136.869 227.729 138.903C228.729 140.937 229.229 143.318 229.229 146.045C229.229 148.75 228.729 151.114 227.729 153.136C226.74 155.159 225.354 156.733 223.57 157.858C221.797 158.983 219.729 159.545 217.365 159.545ZM217.365 155.932C219.161 155.932 220.638 155.472 221.797 154.551C222.956 153.631 223.814 152.42 224.371 150.92C224.928 149.42 225.206 147.795 225.206 146.045C225.206 144.295 224.928 142.665 224.371 141.153C223.814 139.642 222.956 138.42 221.797 137.489C220.638 136.557 219.161 136.091 217.365 136.091C215.57 136.091 214.092 136.557 212.933 137.489C211.774 138.42 210.916 139.642 210.359 141.153C209.803 142.665 209.524 144.295 209.524 146.045C209.524 147.795 209.803 149.42 210.359 150.92C210.916 152.42 211.774 153.631 212.933 154.551C214.092 155.472 215.57 155.932 217.365 155.932ZM235.369 159V132.818H239.256V136.909H239.597C240.142 135.511 241.023 134.426 242.239 133.653C243.455 132.869 244.915 132.477 246.619 132.477C248.347 132.477 249.784 132.869 250.932 133.653C252.091 134.426 252.994 135.511 253.642 136.909H253.915C254.585 135.557 255.591 134.483 256.932 133.688C258.273 132.881 259.881 132.477 261.756 132.477C264.097 132.477 266.011 133.21 267.5 134.676C268.989 136.131 269.733 138.398 269.733 141.477V159H265.71V141.477C265.71 139.545 265.182 138.165 264.125 137.335C263.068 136.506 261.824 136.091 260.392 136.091C258.551 136.091 257.125 136.648 256.114 137.761C255.102 138.864 254.597 140.261 254.597 141.955V159H250.506V141.068C250.506 139.58 250.023 138.381 249.057 137.472C248.091 136.551 246.847 136.091 245.324 136.091C244.278 136.091 243.301 136.369 242.392 136.926C241.494 137.483 240.767 138.256 240.21 139.244C239.665 140.222 239.392 141.352 239.392 142.636V159H235.369ZM288.065 159.545C285.543 159.545 283.366 158.989 281.537 157.875C279.719 156.75 278.315 155.182 277.327 153.17C276.349 151.148 275.861 148.795 275.861 146.114C275.861 143.432 276.349 141.068 277.327 139.023C278.315 136.966 279.69 135.364 281.452 134.216C283.224 133.057 285.293 132.477 287.656 132.477C289.02 132.477 290.366 132.705 291.696 133.159C293.026 133.614 294.236 134.352 295.327 135.375C296.418 136.386 297.287 137.727 297.935 139.398C298.582 141.068 298.906 143.125 298.906 145.568V147.273H278.724V143.795H294.815C294.815 142.318 294.52 141 293.929 139.841C293.349 138.682 292.52 137.767 291.44 137.097C290.372 136.426 289.111 136.091 287.656 136.091C286.054 136.091 284.668 136.489 283.497 137.284C282.338 138.068 281.446 139.091 280.821 140.352C280.196 141.614 279.884 142.966 279.884 144.409V146.727C279.884 148.705 280.224 150.381 280.906 151.756C281.599 153.119 282.56 154.159 283.787 154.875C285.014 155.58 286.44 155.932 288.065 155.932C289.122 155.932 290.077 155.784 290.929 155.489C291.793 155.182 292.537 154.727 293.162 154.125C293.787 153.511 294.27 152.75 294.611 151.841L298.497 152.932C298.088 154.25 297.401 155.409 296.435 156.409C295.469 157.398 294.276 158.17 292.855 158.727C291.435 159.273 289.838 159.545 288.065 159.545ZM346.753 124.091V159H342.662L323.639 131.591H323.298V159H319.071V124.091H323.162L342.253 151.568H342.594V124.091H346.753ZM365.303 159.545C362.939 159.545 360.865 158.983 359.081 157.858C357.308 156.733 355.922 155.159 354.922 153.136C353.933 151.114 353.439 148.75 353.439 146.045C353.439 143.318 353.933 140.937 354.922 138.903C355.922 136.869 357.308 135.29 359.081 134.165C360.865 133.04 362.939 132.477 365.303 132.477C367.666 132.477 369.734 133.04 371.507 134.165C373.291 135.29 374.678 136.869 375.666 138.903C376.666 140.937 377.166 143.318 377.166 146.045C377.166 148.75 376.666 151.114 375.666 153.136C374.678 155.159 373.291 156.733 371.507 157.858C369.734 158.983 367.666 159.545 365.303 159.545ZM365.303 155.932C367.098 155.932 368.575 155.472 369.734 154.551C370.893 153.631 371.751 152.42 372.308 150.92C372.865 149.42 373.143 147.795 373.143 146.045C373.143 144.295 372.865 142.665 372.308 141.153C371.751 139.642 370.893 138.42 369.734 137.489C368.575 136.557 367.098 136.091 365.303 136.091C363.507 136.091 362.03 136.557 360.871 137.489C359.712 138.42 358.854 139.642 358.297 141.153C357.74 142.665 357.462 144.295 357.462 146.045C357.462 147.795 357.74 149.42 358.297 150.92C358.854 152.42 359.712 153.631 360.871 154.551C362.03 155.472 363.507 155.932 365.303 155.932ZM394.693 132.818V136.227H381.125V132.818H394.693ZM385.08 126.545H389.102V151.5C389.102 152.636 389.267 153.489 389.597 154.057C389.938 154.614 390.369 154.989 390.892 155.182C391.426 155.364 391.989 155.455 392.58 155.455C393.023 155.455 393.386 155.432 393.67 155.386C393.955 155.33 394.182 155.284 394.352 155.25L395.17 158.864C394.898 158.966 394.517 159.068 394.028 159.17C393.54 159.284 392.92 159.341 392.17 159.341C391.034 159.341 389.92 159.097 388.83 158.608C387.75 158.119 386.852 157.375 386.136 156.375C385.432 155.375 385.08 154.114 385.08 152.591V126.545ZM411.44 159.545C408.918 159.545 406.741 158.989 404.912 157.875C403.094 156.75 401.69 155.182 400.702 153.17C399.724 151.148 399.236 148.795 399.236 146.114C399.236 143.432 399.724 141.068 400.702 139.023C401.69 136.966 403.065 135.364 404.827 134.216C406.599 133.057 408.668 132.477 411.031 132.477C412.395 132.477 413.741 132.705 415.071 133.159C416.401 133.614 417.611 134.352 418.702 135.375C419.793 136.386 420.662 137.727 421.31 139.398C421.957 141.068 422.281 143.125 422.281 145.568V147.273H402.099V143.795H418.19C418.19 142.318 417.895 141 417.304 139.841C416.724 138.682 415.895 137.767 414.815 137.097C413.747 136.426 412.486 136.091 411.031 136.091C409.429 136.091 408.043 136.489 406.872 137.284C405.713 138.068 404.821 139.091 404.196 140.352C403.571 141.614 403.259 142.966 403.259 144.409V146.727C403.259 148.705 403.599 150.381 404.281 151.756C404.974 153.119 405.935 154.159 407.162 154.875C408.389 155.58 409.815 155.932 411.44 155.932C412.497 155.932 413.452 155.784 414.304 155.489C415.168 155.182 415.912 154.727 416.537 154.125C417.162 153.511 417.645 152.75 417.986 151.841L421.872 152.932C421.463 154.25 420.776 155.409 419.81 156.409C418.844 157.398 417.651 158.17 416.23 158.727C414.81 159.273 413.213 159.545 411.44 159.545ZM446.946 138.682L443.332 139.705C443.105 139.102 442.77 138.517 442.327 137.949C441.895 137.369 441.304 136.892 440.554 136.517C439.804 136.142 438.844 135.955 437.673 135.955C436.071 135.955 434.736 136.324 433.668 137.062C432.611 137.79 432.082 138.716 432.082 139.841C432.082 140.841 432.446 141.631 433.173 142.21C433.901 142.79 435.037 143.273 436.582 143.659L440.469 144.614C442.81 145.182 444.554 146.051 445.702 147.222C446.849 148.381 447.423 149.875 447.423 151.705C447.423 153.205 446.991 154.545 446.128 155.727C445.276 156.909 444.082 157.841 442.548 158.523C441.014 159.205 439.23 159.545 437.196 159.545C434.526 159.545 432.315 158.966 430.565 157.807C428.815 156.648 427.707 154.955 427.241 152.727L431.06 151.773C431.423 153.182 432.111 154.239 433.122 154.943C434.145 155.648 435.48 156 437.128 156C439.003 156 440.491 155.602 441.594 154.807C442.707 154 443.264 153.034 443.264 151.909C443.264 151 442.946 150.239 442.31 149.625C441.673 149 440.696 148.534 439.378 148.227L435.014 147.205C432.616 146.636 430.855 145.756 429.73 144.562C428.616 143.358 428.06 141.852 428.06 140.045C428.06 138.568 428.474 137.261 429.304 136.125C430.145 134.989 431.287 134.097 432.73 133.449C434.185 132.801 435.832 132.477 437.673 132.477C440.264 132.477 442.298 133.045 443.776 134.182C445.264 135.318 446.321 136.818 446.946 138.682ZM142.135 217V190.818H146.021V194.773H146.294C146.771 193.477 147.635 192.426 148.885 191.619C150.135 190.812 151.544 190.409 153.112 190.409C153.408 190.409 153.777 190.415 154.22 190.426C154.663 190.437 154.999 190.455 155.226 190.477V194.568C155.089 194.534 154.777 194.483 154.288 194.415C153.811 194.335 153.305 194.295 152.771 194.295C151.499 194.295 150.362 194.562 149.362 195.097C148.374 195.619 147.589 196.347 147.01 197.278C146.442 198.199 146.158 199.25 146.158 200.432V217H142.135ZM159.994 217V190.818H164.017V217H159.994ZM162.04 186.455C161.256 186.455 160.58 186.188 160.011 185.653C159.455 185.119 159.176 184.477 159.176 183.727C159.176 182.977 159.455 182.335 160.011 181.801C160.58 181.267 161.256 181 162.04 181C162.824 181 163.494 181.267 164.051 181.801C164.619 182.335 164.903 182.977 164.903 183.727C164.903 184.477 164.619 185.119 164.051 185.653C163.494 186.188 162.824 186.455 162.04 186.455ZM181.953 227.364C180.01 227.364 178.339 227.114 176.942 226.614C175.544 226.125 174.379 225.477 173.447 224.67C172.527 223.875 171.794 223.023 171.249 222.114L174.453 219.864C174.817 220.341 175.277 220.886 175.834 221.5C176.391 222.125 177.152 222.665 178.118 223.119C179.095 223.585 180.374 223.818 181.953 223.818C184.067 223.818 185.811 223.307 187.186 222.284C188.561 221.261 189.249 219.659 189.249 217.477V212.159H188.908C188.612 212.636 188.192 213.227 187.646 213.932C187.112 214.625 186.339 215.244 185.328 215.79C184.328 216.324 182.976 216.591 181.271 216.591C179.158 216.591 177.26 216.091 175.578 215.091C173.908 214.091 172.584 212.636 171.607 210.727C170.641 208.818 170.158 206.5 170.158 203.773C170.158 201.091 170.629 198.756 171.572 196.767C172.516 194.767 173.828 193.222 175.51 192.131C177.192 191.028 179.135 190.477 181.339 190.477C183.044 190.477 184.396 190.761 185.396 191.33C186.408 191.886 187.18 192.523 187.714 193.239C188.26 193.943 188.68 194.523 188.976 194.977H189.385V190.818H193.271V217.75C193.271 220 192.76 221.83 191.737 223.239C190.726 224.659 189.362 225.699 187.646 226.358C185.942 227.028 184.044 227.364 181.953 227.364ZM181.817 212.977C183.43 212.977 184.794 212.608 185.908 211.869C187.021 211.131 187.868 210.068 188.447 208.682C189.027 207.295 189.317 205.636 189.317 203.705C189.317 201.818 189.033 200.153 188.464 198.71C187.896 197.267 187.055 196.136 185.942 195.318C184.828 194.5 183.453 194.091 181.817 194.091C180.112 194.091 178.692 194.523 177.555 195.386C176.43 196.25 175.584 197.409 175.016 198.864C174.459 200.318 174.18 201.932 174.18 203.705C174.18 205.523 174.464 207.131 175.033 208.528C175.612 209.915 176.464 211.006 177.589 211.801C178.726 212.585 180.135 212.977 181.817 212.977ZM204.658 201.25V217H200.635V182.091H204.658V194.909H204.999C205.612 193.557 206.533 192.483 207.76 191.688C208.999 190.881 210.646 190.477 212.703 190.477C214.487 190.477 216.05 190.835 217.391 191.551C218.732 192.256 219.771 193.341 220.51 194.807C221.26 196.261 221.635 198.114 221.635 200.364V217H217.612V200.636C217.612 198.557 217.072 196.949 215.993 195.812C214.925 194.665 213.442 194.091 211.544 194.091C210.226 194.091 209.044 194.369 207.999 194.926C206.964 195.483 206.146 196.295 205.544 197.364C204.953 198.432 204.658 199.727 204.658 201.25ZM240.381 190.818V194.227H226.812V190.818H240.381ZM230.767 184.545H234.79V209.5C234.79 210.636 234.955 211.489 235.284 212.057C235.625 212.614 236.057 212.989 236.58 213.182C237.114 213.364 237.676 213.455 238.267 213.455C238.71 213.455 239.074 213.432 239.358 213.386C239.642 213.33 239.869 213.284 240.04 213.25L240.858 216.864C240.585 216.966 240.205 217.068 239.716 217.17C239.227 217.284 238.608 217.341 237.858 217.341C236.722 217.341 235.608 217.097 234.517 216.608C233.438 216.119 232.54 215.375 231.824 214.375C231.119 213.375 230.767 212.114 230.767 210.591V184.545ZM263.955 201.25V217H259.932V182.091H263.955V194.909H264.295C264.909 193.557 265.83 192.483 267.057 191.688C268.295 190.881 269.943 190.477 272 190.477C273.784 190.477 275.347 190.835 276.688 191.551C278.028 192.256 279.068 193.341 279.807 194.807C280.557 196.261 280.932 198.114 280.932 200.364V217H276.909V200.636C276.909 198.557 276.369 196.949 275.29 195.812C274.222 194.665 272.739 194.091 270.841 194.091C269.523 194.091 268.341 194.369 267.295 194.926C266.261 195.483 265.443 196.295 264.841 197.364C264.25 198.432 263.955 199.727 263.955 201.25ZM299.268 217.545C296.746 217.545 294.57 216.989 292.74 215.875C290.922 214.75 289.518 213.182 288.53 211.17C287.553 209.148 287.064 206.795 287.064 204.114C287.064 201.432 287.553 199.068 288.53 197.023C289.518 194.966 290.893 193.364 292.655 192.216C294.428 191.057 296.496 190.477 298.859 190.477C300.223 190.477 301.57 190.705 302.899 191.159C304.229 191.614 305.439 192.352 306.53 193.375C307.621 194.386 308.49 195.727 309.138 197.398C309.786 199.068 310.109 201.125 310.109 203.568V205.273H289.928V201.795H306.018C306.018 200.318 305.723 199 305.132 197.841C304.553 196.682 303.723 195.767 302.643 195.097C301.575 194.426 300.314 194.091 298.859 194.091C297.257 194.091 295.871 194.489 294.7 195.284C293.541 196.068 292.649 197.091 292.024 198.352C291.399 199.614 291.087 200.966 291.087 202.409V204.727C291.087 206.705 291.428 208.381 292.109 209.756C292.803 211.119 293.763 212.159 294.99 212.875C296.217 213.58 297.643 213.932 299.268 213.932C300.325 213.932 301.28 213.784 302.132 213.489C302.996 213.182 303.74 212.727 304.365 212.125C304.99 211.511 305.473 210.75 305.814 209.841L309.7 210.932C309.291 212.25 308.604 213.409 307.638 214.409C306.672 215.398 305.479 216.17 304.058 216.727C302.638 217.273 301.041 217.545 299.268 217.545ZM316.229 217V190.818H320.115V194.773H320.388C320.865 193.477 321.729 192.426 322.979 191.619C324.229 190.812 325.638 190.409 327.206 190.409C327.501 190.409 327.871 190.415 328.314 190.426C328.757 190.437 329.092 190.455 329.32 190.477V194.568C329.183 194.534 328.871 194.483 328.382 194.415C327.905 194.335 327.399 194.295 326.865 194.295C325.592 194.295 324.456 194.562 323.456 195.097C322.467 195.619 321.683 196.347 321.104 197.278C320.536 198.199 320.251 199.25 320.251 200.432V217H316.229ZM344.268 217.545C341.746 217.545 339.57 216.989 337.74 215.875C335.922 214.75 334.518 213.182 333.53 211.17C332.553 209.148 332.064 206.795 332.064 204.114C332.064 201.432 332.553 199.068 333.53 197.023C334.518 194.966 335.893 193.364 337.655 192.216C339.428 191.057 341.496 190.477 343.859 190.477C345.223 190.477 346.57 190.705 347.899 191.159C349.229 191.614 350.439 192.352 351.53 193.375C352.621 194.386 353.49 195.727 354.138 197.398C354.786 199.068 355.109 201.125 355.109 203.568V205.273H334.928V201.795H351.018C351.018 200.318 350.723 199 350.132 197.841C349.553 196.682 348.723 195.767 347.643 195.097C346.575 194.426 345.314 194.091 343.859 194.091C342.257 194.091 340.871 194.489 339.7 195.284C338.541 196.068 337.649 197.091 337.024 198.352C336.399 199.614 336.087 200.966 336.087 202.409V204.727C336.087 206.705 336.428 208.381 337.109 209.756C337.803 211.119 338.763 212.159 339.99 212.875C341.217 213.58 342.643 213.932 344.268 213.932C345.325 213.932 346.28 213.784 347.132 213.489C347.996 213.182 348.74 212.727 349.365 212.125C349.99 211.511 350.473 210.75 350.814 209.841L354.7 210.932C354.291 212.25 353.604 213.409 352.638 214.409C351.672 215.398 350.479 216.17 349.058 216.727C347.638 217.273 346.041 217.545 344.268 217.545Z" fill="black"/>
</g>
<defs>
<filter id="filter0_d_18_72558" x="0" y="0" width="512" height="308" filterUnits="userSpaceOnUse" color-interpolation-filters="sRGB">
<feFlood flood-opacity="0" result="BackgroundImageFix"/>
<feColorMatrix in="SourceAlpha" type="matrix" values="0 0 0 0 0 0 0 0 0 0 0 0 0 0 0 0 0 0 127 0" result="hardAlpha"/>
<feOffset dx="16" dy="12"/>
<feComposite in2="hardAlpha" operator="out"/>
<feColorMatrix type="matrix" values="0 0 0 0 0 0 0 0 0 0 0 0 0 0 0 0 0 0 1 0"/>
<feBlend mode="normal" in2="BackgroundImageFix" result="effect1_dropShadow_18_72558"/>
<feBlend mode="normal" in="SourceGraphic" in2="effect1_dropShadow_18_72558" result="shape"/>
</filter>
</defs>
</svg>
