<svg width="512" height="308" viewBox="0 0 512 308" fill="none" xmlns="http://www.w3.org/2000/svg">
<g filter="url(#filter0_d_18_72557)">
<rect x="8" y="8" width="480" height="280" fill="white" shape-rendering="crispEdges"/>
<rect x="4" y="4" width="488" height="288" stroke="black" stroke-width="8" shape-rendering="crispEdges"/>
<rect width="480" height="46" transform="translate(8 8)" fill="black"/>
<path d="M24 31C24 27.134 27.134 24 31 24C34.866 24 38 27.134 38 31C38 34.866 34.866 38 31 38C27.134 38 24 34.866 24 31Z" stroke="white" stroke-width="2"/>
<path d="M46 31C46 27.134 49.134 24 53 24C56.866 24 60 27.134 60 31C60 34.866 56.866 38 53 38C49.134 38 46 34.866 46 31Z" stroke="white" stroke-width="2"/>
<path d="M68 31C68 27.134 71.134 24 75 24C78.866 24 82 27.134 82 31C82 34.866 78.866 38 75 38C71.134 38 68 34.866 68 31Z" stroke="white" stroke-width="2"/>
<path d="M178.06 25V40H176.044V25H170.452V23.248H183.652V25H178.06ZM191.442 40.288C190.418 40.288 189.538 40.096 188.802 39.712C188.066 39.312 187.458 38.744 186.978 38.008C186.498 37.272 186.146 36.368 185.922 35.296C185.698 34.224 185.586 33 185.586 31.624C185.586 30.264 185.698 29.048 185.922 27.976C186.146 26.888 186.498 25.976 186.978 25.24C187.458 24.504 188.066 23.944 188.802 23.56C189.538 23.16 190.418 22.96 191.442 22.96C192.466 22.96 193.346 23.16 194.082 23.56C194.818 23.944 195.426 24.504 195.906 25.24C196.386 25.976 196.738 26.888 196.962 27.976C197.186 29.048 197.298 30.264 197.298 31.624C197.298 33 197.186 34.224 196.962 35.296C196.738 36.368 196.386 37.272 195.906 38.008C195.426 38.744 194.818 39.312 194.082 39.712C193.346 40.096 192.466 40.288 191.442 40.288ZM191.442 38.536C192.114 38.536 192.682 38.408 193.146 38.152C193.61 37.88 193.994 37.504 194.298 37.024C194.602 36.544 194.818 35.968 194.946 35.296C195.09 34.608 195.162 33.84 195.162 32.992V30.256C195.162 29.424 195.09 28.664 194.946 27.976C194.818 27.288 194.602 26.704 194.298 26.224C193.994 25.744 193.61 25.376 193.146 25.12C192.682 24.848 192.114 24.712 191.442 24.712C190.77 24.712 190.202 24.848 189.738 25.12C189.274 25.376 188.89 25.744 188.586 26.224C188.282 26.704 188.058 27.288 187.914 27.976C187.786 28.664 187.722 29.424 187.722 30.256V32.992C187.722 33.84 187.786 34.608 187.914 35.296C188.058 35.968 188.282 36.544 188.586 37.024C188.89 37.504 189.274 37.88 189.738 38.152C190.202 38.408 190.77 38.536 191.442 38.536ZM200.793 40V23.248H206.889C208.441 23.248 209.625 23.672 210.441 24.52C211.257 25.368 211.665 26.552 211.665 28.072C211.665 29.592 211.257 30.776 210.441 31.624C209.625 32.472 208.441 32.896 206.889 32.896H202.809V40H200.793ZM202.809 31.144H206.841C207.689 31.144 208.345 30.936 208.809 30.52C209.289 30.088 209.529 29.48 209.529 28.696V27.448C209.529 26.664 209.289 26.064 208.809 25.648C208.345 25.216 207.689 25 206.841 25H202.809V31.144ZM240.302 40H229.118V37.936L234.71 32.896C235.526 32.16 236.198 31.408 236.726 30.64C237.254 29.856 237.518 29.032 237.518 28.168V27.88C237.518 26.872 237.254 26.096 236.726 25.552C236.198 24.992 235.414 24.712 234.374 24.712C233.35 24.712 232.558 24.976 231.998 25.504C231.454 26.016 231.046 26.704 230.774 27.568L228.974 26.896C229.134 26.4 229.35 25.92 229.622 25.456C229.91 24.976 230.27 24.552 230.702 24.184C231.134 23.816 231.654 23.52 232.262 23.296C232.886 23.072 233.606 22.96 234.422 22.96C235.254 22.96 235.99 23.08 236.63 23.32C237.286 23.56 237.83 23.896 238.262 24.328C238.71 24.76 239.046 25.272 239.27 25.864C239.51 26.456 239.63 27.104 239.63 27.808C239.63 28.448 239.534 29.048 239.342 29.608C239.166 30.168 238.91 30.704 238.574 31.216C238.254 31.728 237.862 32.232 237.398 32.728C236.95 33.208 236.446 33.688 235.886 34.168L231.206 38.248H240.302V40ZM264.403 25V40H262.387V25H256.795V23.248H269.995V25H264.403ZM282.13 40L280.714 35.224H274.834L273.418 40H271.33L276.466 23.248H279.13L284.266 40H282.13ZM277.882 25.384H277.666L275.314 33.472H280.234L277.882 25.384ZM287.857 40V23.248H289.873V38.248H297.817V40H287.857ZM305.823 31.792L303.423 34.624V40H301.407V23.248H303.423V31.984H303.495L305.703 29.2L310.647 23.248H313.071L307.191 30.304L313.239 40H310.887L305.823 31.792ZM320.91 40.288C319.406 40.288 318.174 40.016 317.214 39.472C316.254 38.912 315.462 38.2 314.838 37.336L316.302 36.136C316.958 36.952 317.646 37.56 318.366 37.96C319.102 38.36 319.974 38.56 320.982 38.56C322.198 38.56 323.126 38.28 323.766 37.72C324.406 37.16 324.726 36.376 324.726 35.368C324.726 34.552 324.494 33.92 324.03 33.472C323.566 33.008 322.758 32.68 321.606 32.488L319.734 32.176C318.918 32.032 318.23 31.816 317.67 31.528C317.126 31.24 316.686 30.896 316.35 30.496C316.014 30.08 315.774 29.632 315.63 29.152C315.486 28.656 315.414 28.144 315.414 27.616C315.414 26.08 315.918 24.92 316.926 24.136C317.934 23.352 319.294 22.96 321.006 22.96C322.35 22.96 323.478 23.184 324.39 23.632C325.318 24.08 326.062 24.712 326.622 25.528L325.206 26.752C324.742 26.144 324.182 25.648 323.526 25.264C322.87 24.88 322.022 24.688 320.982 24.688C319.846 24.688 318.974 24.928 318.366 25.408C317.758 25.888 317.454 26.608 317.454 27.568C317.454 28.32 317.678 28.936 318.126 29.416C318.59 29.88 319.414 30.216 320.598 30.424L322.398 30.736C323.214 30.88 323.902 31.096 324.462 31.384C325.022 31.672 325.47 32.016 325.806 32.416C326.158 32.816 326.406 33.264 326.55 33.76C326.694 34.256 326.766 34.776 326.766 35.32C326.766 36.872 326.254 38.088 325.23 38.968C324.222 39.848 322.782 40.288 320.91 40.288Z" fill="white"/>
<path fill-rule="evenodd" clip-rule="evenodd" d="M469 23V24H470V40H469V41H451V40H450V24H451V23H455V22H457V23H463V22H465V23H469ZM467 38H468V26H467V25H465V26V27H463V25H457V27H455V25H453V26H452V38H453V39H467V38ZM457 30H455V32H457V30ZM461 30H459V32H461V30ZM463 30H465V32H463V30ZM457 34H455V36H457V34ZM459 34H461V36H459V34ZM465 34H463V36H465V34Z" fill="white"/>
<path d="M56 95V94H55V92H54V90H53V88H51V90H50V92H49V94H48V95H42V97H43V98H44V99H45V100H46V104H45V106H44V108H47V107H49V106H50V105H54V106H55V107H57V108H60V106H59V104H58V100H59V99H60V98H61V97H62V95H56ZM56 98V99H55V101H56V103H54V102H50V103H48V101H49V99H48V98H47V97H50V96H51V94H53V96H54V97H57V98H56Z" fill="black"/>
<path d="M73.25 91.95V100H71.15V91.95H68.336V90.228H76.064V91.95H73.25ZM82.4845 100L81.8685 97.648H79.1945L78.5925 100H76.4645L79.1105 90.228H82.0785L84.7245 100H82.4845ZM80.5945 92.258H80.4825L79.5305 95.954H81.5465L80.5945 92.258ZM86.0771 100V90.228H88.1911V98.278H92.3911V100H86.0771ZM97.1036 95.926L96.2356 97.144V100H94.1356V90.228H96.2356V94.316H96.3476L97.4116 92.692L99.1336 90.228H101.486L98.5596 94.358L101.626 100H99.2596L97.1036 95.926ZM115.223 91.95V100H113.123V91.95H110.309V90.228H118.037V91.95H115.223ZM119.417 100V98.446H121.517V91.782H119.417V90.228H125.717V91.782H123.617V98.446H125.717V100H119.417ZM132.012 91.95V100H129.912V91.95H127.098V90.228H134.826V91.95H132.012ZM136.444 100V90.228H138.558V98.278H142.758V100H136.444ZM144.671 100V90.228H150.915V91.95H146.771V94.19H150.775V95.912H146.771V98.278H150.915V100H144.671Z" fill="black"/>
<path d="M72.624 121.192C71.6853 121.192 70.8693 121.037 70.176 120.728C69.4827 120.419 68.9227 119.997 68.496 119.464L69.888 117.928C70.2933 118.376 70.736 118.707 71.216 118.92C71.7067 119.133 72.2027 119.24 72.704 119.24C73.28 119.24 73.7173 119.112 74.016 118.856C74.3147 118.6 74.464 118.232 74.464 117.752C74.464 117.357 74.3467 117.059 74.112 116.856C73.888 116.653 73.504 116.509 72.96 116.424L71.792 116.232C70.7893 116.061 70.064 115.693 69.616 115.128C69.168 114.552 68.944 113.853 68.944 113.032C68.944 111.955 69.296 111.123 70 110.536C70.704 109.939 71.6907 109.64 72.96 109.64C73.824 109.64 74.576 109.773 75.216 110.04C75.856 110.307 76.3733 110.669 76.768 111.128L75.408 112.648C75.1093 112.317 74.7573 112.061 74.352 111.88C73.9467 111.688 73.488 111.592 72.976 111.592C71.8987 111.592 71.36 112.035 71.36 112.92C71.36 113.304 71.4773 113.592 71.712 113.784C71.9573 113.976 72.352 114.12 72.896 114.216L74.064 114.424C74.9707 114.584 75.6693 114.925 76.16 115.448C76.6507 115.971 76.896 116.675 76.896 117.56C76.896 118.083 76.8053 118.568 76.624 119.016C76.4427 119.453 76.1707 119.837 75.808 120.168C75.4453 120.488 74.9973 120.739 74.464 120.92C73.9413 121.101 73.328 121.192 72.624 121.192ZM78.5378 112.744H80.9058V114.248H81.0178C81.2204 113.757 81.5138 113.352 81.8978 113.032C82.2818 112.712 82.8044 112.552 83.4658 112.552C83.9244 112.552 84.3404 112.637 84.7138 112.808C85.0978 112.979 85.4231 113.24 85.6898 113.592C85.9671 113.944 86.1804 114.392 86.3298 114.936C86.4898 115.48 86.5698 116.125 86.5698 116.872C86.5698 117.619 86.4898 118.264 86.3298 118.808C86.1804 119.352 85.9671 119.8 85.6898 120.152C85.4231 120.504 85.0978 120.765 84.7138 120.936C84.3404 121.107 83.9244 121.192 83.4658 121.192C82.8044 121.192 82.2818 121.037 81.8978 120.728C81.5138 120.408 81.2204 119.997 81.0178 119.496H80.9058V124.2H78.5378V112.744ZM82.4418 119.352C82.9751 119.352 83.3858 119.192 83.6738 118.872C83.9618 118.541 84.1058 118.088 84.1058 117.512V116.232C84.1058 115.656 83.9618 115.208 83.6738 114.888C83.3858 114.557 82.9751 114.392 82.4418 114.392C82.0258 114.392 81.6631 114.493 81.3538 114.696C81.0551 114.899 80.9058 115.219 80.9058 115.656V118.088C80.9058 118.525 81.0551 118.845 81.3538 119.048C81.6631 119.251 82.0258 119.352 82.4418 119.352ZM92.2115 121.192C90.8248 121.192 89.7742 120.808 89.0595 120.04C88.3448 119.272 87.9875 118.227 87.9875 116.904C87.9875 116.232 88.0782 115.629 88.2595 115.096C88.4515 114.552 88.7182 114.093 89.0595 113.72C89.4115 113.336 89.8328 113.048 90.3235 112.856C90.8248 112.653 91.3848 112.552 92.0035 112.552C92.6222 112.552 93.1768 112.653 93.6675 112.856C94.1582 113.048 94.5742 113.325 94.9155 113.688C95.2568 114.051 95.5182 114.493 95.6995 115.016C95.8915 115.528 95.9875 116.104 95.9875 116.744V117.448H90.3395V117.592C90.3395 118.125 90.5048 118.557 90.8355 118.888C91.1662 119.208 91.6515 119.368 92.2915 119.368C92.7822 119.368 93.2035 119.277 93.5555 119.096C93.9075 118.904 94.2115 118.653 94.4675 118.344L95.7475 119.736C95.4275 120.131 94.9795 120.472 94.4035 120.76C93.8275 121.048 93.0968 121.192 92.2115 121.192ZM92.0195 114.248C91.5075 114.248 91.0968 114.408 90.7875 114.728C90.4888 115.037 90.3395 115.459 90.3395 115.992V116.12H93.6675V115.992C93.6675 115.448 93.5182 115.021 93.2195 114.712C92.9315 114.403 92.5315 114.248 92.0195 114.248ZM104.573 121C104.083 121 103.688 120.877 103.389 120.632C103.091 120.376 102.915 120.013 102.861 119.544H102.781C102.632 120.088 102.333 120.499 101.885 120.776C101.448 121.053 100.909 121.192 100.269 121.192C99.4693 121.192 98.8239 120.979 98.3333 120.552C97.8533 120.115 97.6133 119.507 97.6133 118.728C97.6133 117.864 97.9279 117.224 98.5573 116.808C99.1866 116.392 100.109 116.184 101.325 116.184H102.653V115.768C102.653 115.277 102.536 114.909 102.301 114.664C102.077 114.408 101.693 114.28 101.149 114.28C100.648 114.28 100.243 114.376 99.9333 114.568C99.6239 114.76 99.3573 115.011 99.1332 115.32L97.8372 114.168C98.1146 113.699 98.5466 113.315 99.1332 113.016C99.7306 112.707 100.493 112.552 101.421 112.552C102.552 112.552 103.432 112.813 104.061 113.336C104.701 113.848 105.021 114.627 105.021 115.672V119.288H105.933V121H104.573ZM101.165 119.64C101.581 119.64 101.933 119.539 102.221 119.336C102.509 119.133 102.653 118.84 102.653 118.456V117.464H101.389C100.419 117.464 99.9333 117.789 99.9333 118.44V118.76C99.9333 119.048 100.045 119.267 100.269 119.416C100.493 119.565 100.792 119.64 101.165 119.64ZM107.415 109.16H109.783V115.88H109.895L110.999 114.584L112.727 112.744H115.447L112.247 116.008L115.783 121H112.967L110.567 117.352L109.783 118.136V121H107.415V109.16ZM120.993 121.192C119.606 121.192 118.555 120.808 117.841 120.04C117.126 119.272 116.769 118.227 116.769 116.904C116.769 116.232 116.859 115.629 117.041 115.096C117.233 114.552 117.499 114.093 117.841 113.72C118.193 113.336 118.614 113.048 119.105 112.856C119.606 112.653 120.166 112.552 120.785 112.552C121.403 112.552 121.958 112.653 122.449 112.856C122.939 113.048 123.355 113.325 123.697 113.688C124.038 114.051 124.299 114.493 124.481 115.016C124.673 115.528 124.769 116.104 124.769 116.744V117.448H119.121V117.592C119.121 118.125 119.286 118.557 119.617 118.888C119.947 119.208 120.433 119.368 121.073 119.368C121.563 119.368 121.985 119.277 122.337 119.096C122.689 118.904 122.993 118.653 123.249 118.344L124.529 119.736C124.209 120.131 123.761 120.472 123.185 120.76C122.609 121.048 121.878 121.192 120.993 121.192ZM120.801 114.248C120.289 114.248 119.878 114.408 119.569 114.728C119.27 115.037 119.121 115.459 119.121 115.992V116.12H122.449V115.992C122.449 115.448 122.299 115.021 122.001 114.712C121.713 114.403 121.313 114.248 120.801 114.248ZM126.747 119.16H128.651V114.584H126.747V112.744H131.019V115.08H131.131C131.205 114.781 131.307 114.493 131.435 114.216C131.573 113.928 131.744 113.677 131.947 113.464C132.16 113.24 132.416 113.064 132.715 112.936C133.013 112.808 133.365 112.744 133.771 112.744H134.555V114.92H132.795C132.208 114.92 131.765 115.096 131.467 115.448C131.168 115.789 131.019 116.211 131.019 116.712V119.16H133.739V121H126.747V119.16Z" fill="#4D7BFF"/>
<path d="M56 168V167H55V165H54V163H53V161H51V163H50V165H49V167H48V168H42V170H43V171H44V172H45V173H46V177H45V179H44V181H47V180H49V179H50V178H54V179H55V180H57V181H60V179H59V177H58V173H59V172H60V171H61V170H62V168H56ZM56 171V172H55V174H56V176H54V175H50V176H48V174H49V172H48V171H47V170H50V169H51V167H53V169H54V170H57V171H56Z" fill="black"/>
<path d="M73.25 164.95V173H71.15V164.95H68.336V163.228H76.064V164.95H73.25ZM82.4845 173L81.8685 170.648H79.1945L78.5925 173H76.4645L79.1105 163.228H82.0785L84.7245 173H82.4845ZM80.5945 165.258H80.4825L79.5305 168.954H81.5465L80.5945 165.258ZM86.0771 173V163.228H88.1911V171.278H92.3911V173H86.0771ZM97.1036 168.926L96.2356 170.144V173H94.1356V163.228H96.2356V167.316H96.3476L97.4116 165.692L99.1336 163.228H101.486L98.5596 167.358L101.626 173H99.2596L97.1036 168.926ZM115.223 164.95V173H113.123V164.95H110.309V163.228H118.037V164.95H115.223ZM119.417 173V171.446H121.517V164.782H119.417V163.228H125.717V164.782H123.617V171.446H125.717V173H119.417ZM132.012 164.95V173H129.912V164.95H127.098V163.228H134.826V164.95H132.012ZM136.444 173V163.228H138.558V171.278H142.758V173H136.444ZM144.671 173V163.228H150.915V164.95H146.771V167.19H150.775V168.912H146.771V171.278H150.915V173H144.671Z" fill="black"/>
<path d="M72.624 194.192C71.6853 194.192 70.8693 194.037 70.176 193.728C69.4827 193.419 68.9227 192.997 68.496 192.464L69.888 190.928C70.2933 191.376 70.736 191.707 71.216 191.92C71.7067 192.133 72.2027 192.24 72.704 192.24C73.28 192.24 73.7173 192.112 74.016 191.856C74.3147 191.6 74.464 191.232 74.464 190.752C74.464 190.357 74.3467 190.059 74.112 189.856C73.888 189.653 73.504 189.509 72.96 189.424L71.792 189.232C70.7893 189.061 70.064 188.693 69.616 188.128C69.168 187.552 68.944 186.853 68.944 186.032C68.944 184.955 69.296 184.123 70 183.536C70.704 182.939 71.6907 182.64 72.96 182.64C73.824 182.64 74.576 182.773 75.216 183.04C75.856 183.307 76.3733 183.669 76.768 184.128L75.408 185.648C75.1093 185.317 74.7573 185.061 74.352 184.88C73.9467 184.688 73.488 184.592 72.976 184.592C71.8987 184.592 71.36 185.035 71.36 185.92C71.36 186.304 71.4773 186.592 71.712 186.784C71.9573 186.976 72.352 187.12 72.896 187.216L74.064 187.424C74.9707 187.584 75.6693 187.925 76.16 188.448C76.6507 188.971 76.896 189.675 76.896 190.56C76.896 191.083 76.8053 191.568 76.624 192.016C76.4427 192.453 76.1707 192.837 75.808 193.168C75.4453 193.488 74.9973 193.739 74.464 193.92C73.9413 194.101 73.328 194.192 72.624 194.192ZM78.5378 185.744H80.9058V187.248H81.0178C81.2204 186.757 81.5138 186.352 81.8978 186.032C82.2818 185.712 82.8044 185.552 83.4658 185.552C83.9244 185.552 84.3404 185.637 84.7138 185.808C85.0978 185.979 85.4231 186.24 85.6898 186.592C85.9671 186.944 86.1804 187.392 86.3298 187.936C86.4898 188.48 86.5698 189.125 86.5698 189.872C86.5698 190.619 86.4898 191.264 86.3298 191.808C86.1804 192.352 85.9671 192.8 85.6898 193.152C85.4231 193.504 85.0978 193.765 84.7138 193.936C84.3404 194.107 83.9244 194.192 83.4658 194.192C82.8044 194.192 82.2818 194.037 81.8978 193.728C81.5138 193.408 81.2204 192.997 81.0178 192.496H80.9058V197.2H78.5378V185.744ZM82.4418 192.352C82.9751 192.352 83.3858 192.192 83.6738 191.872C83.9618 191.541 84.1058 191.088 84.1058 190.512V189.232C84.1058 188.656 83.9618 188.208 83.6738 187.888C83.3858 187.557 82.9751 187.392 82.4418 187.392C82.0258 187.392 81.6631 187.493 81.3538 187.696C81.0551 187.899 80.9058 188.219 80.9058 188.656V191.088C80.9058 191.525 81.0551 191.845 81.3538 192.048C81.6631 192.251 82.0258 192.352 82.4418 192.352ZM92.2115 194.192C90.8248 194.192 89.7742 193.808 89.0595 193.04C88.3448 192.272 87.9875 191.227 87.9875 189.904C87.9875 189.232 88.0782 188.629 88.2595 188.096C88.4515 187.552 88.7182 187.093 89.0595 186.72C89.4115 186.336 89.8328 186.048 90.3235 185.856C90.8248 185.653 91.3848 185.552 92.0035 185.552C92.6222 185.552 93.1768 185.653 93.6675 185.856C94.1582 186.048 94.5742 186.325 94.9155 186.688C95.2568 187.051 95.5182 187.493 95.6995 188.016C95.8915 188.528 95.9875 189.104 95.9875 189.744V190.448H90.3395V190.592C90.3395 191.125 90.5048 191.557 90.8355 191.888C91.1662 192.208 91.6515 192.368 92.2915 192.368C92.7822 192.368 93.2035 192.277 93.5555 192.096C93.9075 191.904 94.2115 191.653 94.4675 191.344L95.7475 192.736C95.4275 193.131 94.9795 193.472 94.4035 193.76C93.8275 194.048 93.0968 194.192 92.2115 194.192ZM92.0195 187.248C91.5075 187.248 91.0968 187.408 90.7875 187.728C90.4888 188.037 90.3395 188.459 90.3395 188.992V189.12H93.6675V188.992C93.6675 188.448 93.5182 188.021 93.2195 187.712C92.9315 187.403 92.5315 187.248 92.0195 187.248ZM104.573 194C104.083 194 103.688 193.877 103.389 193.632C103.091 193.376 102.915 193.013 102.861 192.544H102.781C102.632 193.088 102.333 193.499 101.885 193.776C101.448 194.053 100.909 194.192 100.269 194.192C99.4693 194.192 98.8239 193.979 98.3333 193.552C97.8533 193.115 97.6133 192.507 97.6133 191.728C97.6133 190.864 97.9279 190.224 98.5573 189.808C99.1866 189.392 100.109 189.184 101.325 189.184H102.653V188.768C102.653 188.277 102.536 187.909 102.301 187.664C102.077 187.408 101.693 187.28 101.149 187.28C100.648 187.28 100.243 187.376 99.9333 187.568C99.6239 187.76 99.3573 188.011 99.1332 188.32L97.8372 187.168C98.1146 186.699 98.5466 186.315 99.1332 186.016C99.7306 185.707 100.493 185.552 101.421 185.552C102.552 185.552 103.432 185.813 104.061 186.336C104.701 186.848 105.021 187.627 105.021 188.672V192.288H105.933V194H104.573ZM101.165 192.64C101.581 192.64 101.933 192.539 102.221 192.336C102.509 192.133 102.653 191.84 102.653 191.456V190.464H101.389C100.419 190.464 99.9333 190.789 99.9333 191.44V191.76C99.9333 192.048 100.045 192.267 100.269 192.416C100.493 192.565 100.792 192.64 101.165 192.64ZM107.415 182.16H109.783V188.88H109.895L110.999 187.584L112.727 185.744H115.447L112.247 189.008L115.783 194H112.967L110.567 190.352L109.783 191.136V194H107.415V182.16ZM120.993 194.192C119.606 194.192 118.555 193.808 117.841 193.04C117.126 192.272 116.769 191.227 116.769 189.904C116.769 189.232 116.859 188.629 117.041 188.096C117.233 187.552 117.499 187.093 117.841 186.72C118.193 186.336 118.614 186.048 119.105 185.856C119.606 185.653 120.166 185.552 120.785 185.552C121.403 185.552 121.958 185.653 122.449 185.856C122.939 186.048 123.355 186.325 123.697 186.688C124.038 187.051 124.299 187.493 124.481 188.016C124.673 188.528 124.769 189.104 124.769 189.744V190.448H119.121V190.592C119.121 191.125 119.286 191.557 119.617 191.888C119.947 192.208 120.433 192.368 121.073 192.368C121.563 192.368 121.985 192.277 122.337 192.096C122.689 191.904 122.993 191.653 123.249 191.344L124.529 192.736C124.209 193.131 123.761 193.472 123.185 193.76C122.609 194.048 121.878 194.192 120.993 194.192ZM120.801 187.248C120.289 187.248 119.878 187.408 119.569 187.728C119.27 188.037 119.121 188.459 119.121 188.992V189.12H122.449V188.992C122.449 188.448 122.299 188.021 122.001 187.712C121.713 187.403 121.313 187.248 120.801 187.248ZM126.747 192.16H128.651V187.584H126.747V185.744H131.019V188.08H131.131C131.205 187.781 131.307 187.493 131.435 187.216C131.573 186.928 131.744 186.677 131.947 186.464C132.16 186.24 132.416 186.064 132.715 185.936C133.013 185.808 133.365 185.744 133.771 185.744H134.555V187.92H132.795C132.208 187.92 131.765 188.096 131.467 188.448C131.168 188.789 131.019 189.211 131.019 189.712V192.16H133.739V194H126.747V192.16Z" fill="#4D7BFF"/>
<rect width="480" height="56" transform="translate(8 232)" fill="black"/>
<path d="M31.696 266L30.752 262.816H26.832L25.888 266H24.496L27.92 254.832H29.696L33.12 266H31.696ZM28.864 256.256H28.72L27.152 261.648H30.432L28.864 256.256ZM40.6978 264.512H40.6178C40.5218 264.725 40.4098 264.933 40.2818 265.136C40.1538 265.339 39.9884 265.52 39.7858 265.68C39.5938 265.829 39.3591 265.952 39.0818 266.048C38.8044 266.144 38.4738 266.192 38.0898 266.192C36.8738 266.192 35.9671 265.701 35.3698 264.72C34.7831 263.739 34.4898 262.331 34.4898 260.496C34.4898 258.576 34.8151 257.12 35.4658 256.128C36.1164 255.136 37.1191 254.64 38.4738 254.64C38.9964 254.64 39.4498 254.709 39.8338 254.848C40.2178 254.987 40.5431 255.173 40.8098 255.408C41.0871 255.643 41.3164 255.909 41.4978 256.208C41.6791 256.496 41.8284 256.789 41.9458 257.088L40.7938 257.616C40.6978 257.371 40.5858 257.141 40.4578 256.928C40.3404 256.704 40.1911 256.512 40.0098 256.352C39.8391 256.181 39.6311 256.048 39.3858 255.952C39.1404 255.856 38.8524 255.808 38.5218 255.808C37.6258 255.808 36.9644 256.144 36.5378 256.816C36.1218 257.488 35.9138 258.384 35.9138 259.504V261.232C35.9138 261.797 35.9564 262.315 36.0418 262.784C36.1271 263.243 36.2658 263.643 36.4578 263.984C36.6604 264.325 36.9164 264.592 37.2258 264.784C37.5458 264.965 37.9351 265.056 38.3938 265.056C39.1191 265.056 39.6844 264.837 40.0898 264.4C40.4951 263.963 40.6978 263.397 40.6978 262.704V261.552H38.3458V260.48H41.9458V266H40.6978V264.512ZM44.6275 266V254.832H51.5075V256H45.9715V259.76H51.3155V260.928H45.9715V264.832H51.5075V266H44.6275ZM55.3893 256.544H55.2773V266H54.0613V254.832H55.9653L59.7733 264.192H59.8853V254.832H61.1013V266H59.1973L55.3893 256.544ZM63.895 254.832H67.015C68.3803 254.832 69.399 255.301 70.071 256.24C70.743 257.179 71.079 258.571 71.079 260.416C71.079 262.261 70.743 263.653 70.071 264.592C69.399 265.531 68.3803 266 67.015 266H63.895V254.832ZM66.951 264.832C67.847 264.832 68.519 264.523 68.967 263.904C69.4257 263.285 69.655 262.411 69.655 261.28V259.552C69.655 258.421 69.4257 257.547 68.967 256.928C68.519 256.309 67.847 256 66.951 256H65.239V264.832H66.951ZM79.6648 266L78.7208 262.816H74.8008L73.8568 266H72.4648L75.8888 254.832H77.6648L81.0888 266H79.6648ZM76.8328 256.256H76.6888L75.1208 261.648H78.4008L76.8328 256.256ZM99.8123 260.864H98.7243V258.912L98.8203 257.872L98.7723 257.856L97.7483 259.008L92.3723 264.384L91.6043 263.616L96.9803 258.24L98.1323 257.216L98.1163 257.168L97.0763 257.264H95.1243V256.176H99.8123V260.864Z" fill="white"/>
<path d="M24 268.72H100.756V269.68H24V268.72Z" fill="white"/>
<a href="https://config.figma.com/events/figma-config-2022/agenda">
<rect fill="black" fill-opacity="0" y="1.6" width="76.7562" height="20.8"/>
</a>
</g>
<defs>
<filter id="filter0_d_18_72557" x="0" y="0" width="512" height="308" filterUnits="userSpaceOnUse" color-interpolation-filters="sRGB">
<feFlood flood-opacity="0" result="BackgroundImageFix"/>
<feColorMatrix in="SourceAlpha" type="matrix" values="0 0 0 0 0 0 0 0 0 0 0 0 0 0 0 0 0 0 127 0" result="hardAlpha"/>
<feOffset dx="16" dy="12"/>
<feComposite in2="hardAlpha" operator="out"/>
<feColorMatrix type="matrix" values="0 0 0 0 0 0 0 0 0 0 0 0 0 0 0 0 0 0 1 0"/>
<feBlend mode="normal" in2="BackgroundImageFix" result="effect1_dropShadow_18_72557"/>
<feBlend mode="normal" in="SourceGraphic" in2="effect1_dropShadow_18_72557" result="shape"/>
</filter>
</defs>
</svg>
