<svg width="670" height="350" viewBox="0 0 670 350" fill="none" xmlns="http://www.w3.org/2000/svg">
<path d="M0 0H668.252V348.475H0V0Z" fill="#C4C4C4"/>
<path d="M2.04883 2.04883H668.251V348.474H2.04883V2.04883Z" fill="white"/>
<path d="M6.14941 6.14941H666.202V346.425H6.14941V6.14941Z" fill="#C4C4C4"/>
<path d="M8.19922 8.19922H662.102V53.296H8.19922V8.19922Z" fill="#E53DC0"/>
<path fill-rule="evenodd" clip-rule="evenodd" d="M667.226 0H669.276V349.5H2.04883V347.45H667.226V0Z" fill="black"/>
<path fill-rule="evenodd" clip-rule="evenodd" d="M665.177 2.0498H667.227V347.45H6.14941V345.4H665.177V2.0498Z" fill="#636267"/>
<path d="M610.856 14.3491H649.804V47.1468H610.856V14.3491Z" fill="black"/>
<path d="M612.905 16.3979H647.753V45.0959H612.905V16.3979Z" fill="#706B6F"/>
<path d="M612.905 14.3491H645.703V43.0471H612.905V14.3491Z" fill="#FFEFFF"/>
<path d="M614.956 16.3989H645.704V43.047H614.956V16.3989Z" fill="#B0B6AC"/>
<path d="M621.105 22.5474H625.205L640.579 38.9462H636.479L621.105 22.5474Z" fill="white"/>
<path d="M640.579 22.5483H636.479L621.105 38.9472H625.205L640.579 22.5483Z" fill="white"/>
<path d="M619.056 20.4985H623.155L638.529 36.8974H634.43L619.056 20.4985Z" fill="#676767"/>
<path d="M638.529 20.4985H634.43L619.056 36.8974H623.155L638.529 20.4985Z" fill="#676767"/>
<path fill-rule="evenodd" clip-rule="evenodd" d="M593.432 199.86V176.287H595.482V201.91H75.8442V199.86H593.432Z" fill="#D6D6D6"/>
<path fill-rule="evenodd" clip-rule="evenodd" d="M74.8198 175.263H594.458V177.313H76.8697V200.886H74.8198V175.263Z" fill="#919191"/>
<path d="M77.8945 178.337H90.1937V198.836H77.8945V178.337Z" fill="#E53DC0"/>
<path d="M92.2432 178.337H104.542V198.836H92.2432V178.337Z" fill="#E53DC0"/>
<path d="M106.592 178.337H118.891V198.836H106.592V178.337Z" fill="#E53DC0"/>
<path d="M120.941 178.337H133.241V198.836H120.941V178.337Z" fill="#E53DC0"/>
<path d="M135.291 178.337H147.59V198.836H135.291V178.337Z" fill="#E53DC0"/>
<path d="M149.639 178.337H161.938V198.836H149.639V178.337Z" fill="#E53DC0"/>
<path d="M163.988 178.337H176.287V198.836H163.988V178.337Z" fill="#E53DC0"/>
<path d="M178.337 178.337H190.637V198.836H178.337V178.337Z" fill="#E53DC0"/>
<path d="M192.686 178.337H204.985V198.836H192.686V178.337Z" fill="#E53DC0"/>
<path d="M207.035 178.337H219.334V198.836H207.035V178.337Z" fill="#E53DC0"/>
<path d="M221.384 178.337H233.683V198.836H221.384V178.337Z" fill="#E53DC0"/>
<path d="M235.733 178.337H248.032V198.836H235.733V178.337Z" fill="#E53DC0"/>
<path d="M250.082 178.337H262.381V198.836H250.082V178.337Z" fill="#E53DC0"/>
<path d="M264.431 178.337H276.73V198.836H264.431V178.337Z" fill="#E53DC0"/>
<path d="M278.78 178.337H291.079V198.836H278.78V178.337Z" fill="#E53DC0"/>
<path d="M293.129 178.337H305.428V198.836H293.129V178.337Z" fill="#E53DC0"/>
<path d="M307.478 178.337H319.777V198.836H307.478V178.337Z" fill="#E53DC0"/>
<path d="M321.827 178.337H334.126V198.836H321.827V178.337Z" fill="#E53DC0"/>
</svg>
