<svg width="257" height="257" viewBox="0 0 257 257" fill="none" xmlns="http://www.w3.org/2000/svg">
<path d="M128.5 0L128.525 128.374L177.675 9.78144L128.571 128.393L219.363 37.6368L128.607 128.428L247.218 79.3249L128.626 128.475L257 128.5L128.626 128.525L247.218 177.675L128.607 128.571L219.363 219.363L128.571 128.607L177.675 247.218L128.525 128.626L128.5 257L128.475 128.626L79.3249 247.218L128.428 128.607L37.6368 219.363L128.393 128.571L9.78144 177.675L128.374 128.525L0 128.5L128.374 128.475L9.78144 79.3249L128.393 128.428L37.6368 37.6368L128.428 128.393L79.3249 9.78144L128.475 128.374L128.5 0Z" stroke="#4F4F4F" stroke-width="3"/>
</svg>
