<svg width="359" height="299" viewBox="0 0 359 299" fill="none" xmlns="http://www.w3.org/2000/svg">
<path d="M2 2C19.7562 2 19.7562 20 37.5125 20C55.2687 20 55.2687 2 73.025 2C90.7812 2 90.7812 20 108.496 20C126.253 20 126.253 2 143.967 2C161.723 2 161.723 20 179.438 20C197.194 20 197.194 2 214.949 2C232.706 2 232.706 20 250.463 20C268.218 20 268.218 2 285.975 2C303.731 2 303.731 20 321.488 20C339.243 20 339.243 2 357 2" stroke="#4F4F4F" stroke-width="3" stroke-miterlimit="10" stroke-linecap="round"/>
<path d="M2 52C19.7562 52 19.7562 70 37.5125 70C55.2687 70 55.2687 52 73.025 52C90.7812 52 90.7812 70 108.496 70C126.253 70 126.253 52 143.967 52C161.723 52 161.723 70 179.438 70C197.194 70 197.194 52 214.949 52C232.706 52 232.706 70 250.463 70C268.218 70 268.218 52 285.975 52C303.731 52 303.731 70 321.488 70C339.243 70 339.243 52 357 52" stroke="#4F4F4F" stroke-width="3" stroke-miterlimit="10" stroke-linecap="round"/>
<path d="M223.835 145.979C223.025 145.615 222.454 145.463 222.121 145.522C221.777 145.584 221.377 146.006 220.921 146.789L215.541 156.011C215.112 156.746 214.944 157.29 215.037 157.643C215.126 158.002 215.539 158.433 216.277 158.936L216.053 159.321L210.192 155.902L210.416 155.517C211.202 155.921 211.788 156.096 212.173 156.04C212.552 155.98 212.942 155.606 213.343 154.918L219.153 144.958C219.287 144.728 219.356 144.524 219.361 144.346C219.355 144.171 219.23 143.989 218.986 143.802C218.843 143.691 218.689 143.583 218.524 143.478C218.353 143.369 218.031 143.177 217.558 142.901C215.716 141.827 214.382 141.252 213.557 141.178C212.732 141.104 211.652 141.514 210.317 142.408L209.79 142.101L212.899 139.098L224.053 145.605L223.835 145.979Z" fill="#333333"/>
<path d="M206.092 142.256C205.647 143.745 204.8 144.862 203.55 145.606C202.291 146.355 200.917 146.507 199.427 146.062C197.945 145.619 196.863 144.766 196.18 143.502C195.498 142.238 195.398 140.798 195.881 139.181C196.326 137.691 197.184 136.537 198.456 135.718C199.728 134.9 201.113 134.714 202.61 135.161C204.047 135.591 205.106 136.482 205.786 137.835C206.467 139.187 206.569 140.661 206.092 142.256ZM199.943 145.482C200.534 145.659 201.105 145.617 201.655 145.358C202.608 144.9 203.333 143.837 203.832 142.167C204.23 140.835 204.301 139.503 204.047 138.171C203.785 136.837 203.119 136.01 202.048 135.691C201.21 135.44 200.451 135.633 199.771 136.27C199.084 136.905 198.554 137.847 198.181 139.097C197.794 140.392 197.718 141.699 197.952 143.016C198.186 144.334 198.85 145.156 199.943 145.482Z" fill="#333333"/>
<path d="M191.172 133.292C190.451 133.285 189.965 133.363 189.713 133.526C189.461 133.698 189.304 134.095 189.243 134.717L188.729 139.977C188.654 140.747 188.674 141.302 188.79 141.643C188.897 141.991 189.141 142.184 189.522 142.221C189.6 142.229 189.706 142.227 189.84 142.217C189.966 142.213 190.101 142.203 190.244 142.186L190.206 142.57C189.748 142.683 189.277 142.798 188.795 142.915C188.312 143.033 187.978 143.118 187.793 143.17C187.389 143.28 186.973 143.408 186.542 143.554C186.488 143.549 186.459 143.527 186.455 143.487C186.443 143.447 186.443 143.364 186.455 143.24L186.642 141.327C186.077 141.97 185.546 142.464 185.049 142.808C184.545 143.151 184.044 143.298 183.546 143.25C183.149 143.211 182.839 143.059 182.613 142.793C182.387 142.536 182.292 142.228 182.327 141.871C182.358 141.552 182.481 141.293 182.697 141.094C182.905 140.895 183.153 140.809 183.44 140.837C183.736 140.866 184.022 141.032 184.299 141.333C184.567 141.634 184.787 141.793 184.958 141.81C185.231 141.837 185.587 141.648 186.026 141.243C186.466 140.847 186.708 140.415 186.754 139.949L187.268 134.688C187.333 134.02 187.224 133.538 186.938 133.243C186.652 132.956 186.147 132.785 185.423 132.73L185.46 132.345L191.21 132.907L191.172 133.292Z" fill="#333333"/>
<path d="M173.388 143.413C172.291 143.511 171.296 143.215 170.403 142.526C169.511 141.845 169.003 140.808 168.879 139.415L176.291 138.754C176.052 136.956 175.526 135.677 174.714 134.918C173.901 134.159 172.989 133.825 171.977 133.915C171.16 133.988 170.49 134.263 169.968 134.741C169.446 135.219 168.983 135.872 168.578 136.7L168.157 136.597C168.388 135.58 168.906 134.612 169.71 133.693C170.507 132.775 171.539 132.26 172.808 132.147C174.271 132.016 175.452 132.468 176.352 133.501C177.244 134.536 177.755 135.773 177.883 137.212C178.022 138.776 177.68 140.168 176.855 141.386C176.03 142.605 174.875 143.281 173.388 143.413ZM173.989 142.501C174.876 142.421 175.518 141.968 175.915 141.141C176.127 140.698 176.259 140.153 176.311 139.505L171.385 139.944C171.54 140.715 171.739 141.281 171.983 141.644C172.426 142.295 173.094 142.58 173.989 142.501Z" fill="#333333"/>
<path d="M161.009 134.096C160.454 134.354 160.106 134.587 159.966 134.796C159.748 135.115 159.755 135.594 159.986 136.234L162.04 141.933C162.236 142.477 162.438 142.807 162.646 142.923C162.847 143.042 163.112 143.042 163.443 142.922C163.597 142.867 163.712 142.817 163.788 142.773C163.856 142.732 163.935 142.675 164.025 142.601L164.164 142.987L163.465 143.537C163.213 143.736 162.805 144.078 162.241 144.564C161.677 145.05 161.376 145.299 161.34 145.312C161.303 145.326 161.274 145.315 161.254 145.281C161.233 145.247 161.204 145.179 161.167 145.076L160.631 143.587C160.141 144.511 159.677 145.193 159.238 145.634C158.802 146.082 158.304 146.407 157.746 146.608C156.989 146.881 156.293 146.841 155.66 146.488C155.324 146.293 154.992 145.985 154.666 145.563C154.321 146.31 153.994 146.889 153.685 147.299C153.151 148.007 152.52 148.492 151.793 148.754C150.609 149.18 149.646 148.984 148.902 148.164C148.478 147.702 148.054 146.883 147.63 145.707L145.981 141.132C145.793 140.611 145.55 140.295 145.254 140.186C144.952 140.087 144.49 140.117 143.866 140.275L143.762 139.989L148.734 138.197L148.846 138.505C148.228 138.795 147.855 139.074 147.728 139.344C147.594 139.617 147.637 140.058 147.856 140.668L149.569 145.42C149.826 146.132 150.093 146.63 150.369 146.913C150.858 147.417 151.5 147.527 152.293 147.24C152.771 147.068 153.188 146.739 153.545 146.254C153.75 145.972 153.979 145.557 154.23 145.01L152.195 139.366C151.981 138.77 151.715 138.355 151.398 138.121C151.073 137.889 150.569 137.884 149.885 138.106L149.782 137.819L154.842 135.995L154.945 136.282C154.279 136.622 153.895 136.951 153.794 137.27C153.693 137.588 153.819 138.237 154.171 139.214L155.284 142.301C155.692 143.433 156.046 144.185 156.347 144.559C156.849 145.191 157.493 145.366 158.28 145.083C158.728 144.921 159.124 144.637 159.467 144.231C159.814 143.832 160.081 143.375 160.268 142.859L158.095 136.828C157.893 136.27 157.659 135.918 157.391 135.774C157.115 135.632 156.649 135.676 155.993 135.904L155.889 135.618L160.905 133.809L161.009 134.096Z" fill="#333333"/>
<path d="M137.837 162.363C138.058 162.616 138.16 162.91 138.143 163.247C138.126 163.584 137.989 163.865 137.73 164.091C137.477 164.312 137.183 164.409 136.847 164.381C136.51 164.364 136.229 164.226 136.002 163.968C135.781 163.715 135.682 163.417 135.705 163.076C135.727 162.745 135.864 162.469 136.117 162.248C136.376 162.022 136.671 161.919 137.001 161.942C137.337 161.969 137.616 162.11 137.837 162.363ZM129.221 150.235C128.643 150.844 128.339 151.298 128.308 151.594C128.282 151.897 128.57 152.393 129.172 153.081L132.852 157.288C133.187 157.67 133.445 157.911 133.626 158.012C133.925 158.176 134.216 158.135 134.498 157.888C134.563 157.831 134.622 157.769 134.677 157.7C134.725 157.637 134.861 157.436 135.083 157.096L135.322 157.37L135.051 157.825C134.315 159.06 133.819 159.941 133.562 160.466C133.459 160.681 133.384 160.809 133.337 160.85C133.289 160.819 133.245 160.78 133.204 160.733L127.664 154.4C127.077 153.73 126.63 153.379 126.322 153.347C126.008 153.321 125.546 153.533 124.934 153.985L124.718 153.738L129.005 149.988L129.221 150.235Z" fill="#333333"/>
<path d="M119.488 162.441C118.944 162.273 118.445 162.263 117.99 162.413C117.536 162.573 117.141 162.868 116.803 163.298C116.282 163.962 116.167 164.785 116.457 165.769C116.749 166.763 117.485 167.723 118.665 168.65C119.796 169.537 120.833 169.955 121.779 169.903C122.719 169.856 123.442 169.511 123.949 168.865C124.306 168.411 124.491 167.885 124.502 167.288C124.52 166.696 124.394 166.294 124.123 166.082L119.488 162.441ZM116.287 155.19C115.87 155.796 115.706 156.258 115.794 156.576C115.878 156.9 116.144 157.238 116.592 157.59L125.44 164.538C125.907 164.905 126.251 165.08 126.472 165.065C126.694 165.061 126.928 164.902 127.174 164.588C127.227 164.521 127.274 164.454 127.317 164.388C127.354 164.327 127.407 164.235 127.475 164.11L127.779 164.349L127.377 165.449C127.359 165.484 127.086 166.268 126.559 167.8C126.534 167.831 126.502 167.841 126.462 167.829C126.423 167.828 126.385 167.813 126.348 167.784L125.104 166.807C125.191 167.531 125.212 168.124 125.167 168.585C125.077 169.409 124.803 170.112 124.344 170.696C123.679 171.544 122.744 171.987 121.542 172.026C120.34 172.076 119.113 171.609 117.859 170.624C116.63 169.659 115.805 168.415 115.382 166.891C114.955 165.373 115.178 164.059 116.051 162.946C116.321 162.602 116.598 162.338 116.882 162.154C117.32 161.862 117.841 161.685 118.446 161.623L115.432 159.257C114.812 158.769 114.351 158.572 114.051 158.663C113.75 158.755 113.307 159.123 112.723 159.766L112.4 159.513L115.983 154.951L116.287 155.19Z" fill="#333333"/>
<path d="M112.643 175.011L112.471 175.358C111.594 175.123 110.873 175.037 110.311 175.098C109.284 175.2 108.537 175.723 108.069 176.668C107.808 177.193 107.747 177.677 107.885 178.12C108.026 178.574 108.328 178.915 108.79 179.144C109.084 179.29 109.411 179.343 109.771 179.303C110.131 179.264 110.549 179.087 111.027 178.775L112.281 177.932C113.17 177.3 113.95 176.897 114.62 176.723C115.29 176.549 115.944 176.621 116.581 176.936C117.365 177.325 117.87 177.924 118.096 178.734C118.323 179.543 118.226 180.372 117.807 181.219C117.623 181.59 117.352 181.961 116.993 182.333C116.631 182.711 116.436 182.929 116.408 182.985C116.346 183.111 116.318 183.21 116.326 183.284C116.333 183.357 116.365 183.434 116.421 183.514L116.296 183.766L113.33 182.388L113.491 182.062C114.24 182.259 114.862 182.332 115.358 182.281C116.273 182.194 116.933 181.741 117.339 180.922C117.582 180.432 117.622 179.972 117.46 179.543C117.298 179.114 117.014 178.799 116.608 178.597C115.963 178.278 115.15 178.477 114.167 179.193L112.735 180.21C111.184 181.298 109.87 181.576 108.792 181.042C107.966 180.632 107.445 179.986 107.228 179.103C107.008 178.227 107.147 177.288 107.643 176.287C107.851 175.867 108.157 175.426 108.56 174.963C108.964 174.5 109.19 174.22 109.239 174.122C109.28 174.038 109.285 173.949 109.253 173.855C109.229 173.764 109.183 173.68 109.116 173.604L109.251 173.331L112.643 175.011Z" fill="#333333"/>
<path d="M112.986 192.684L105.728 190.796C105.214 190.663 104.783 190.627 104.436 190.691C103.788 190.821 103.367 191.26 103.172 192.009C103.039 192.523 103.078 193.07 103.291 193.65C103.407 193.979 103.594 194.33 103.852 194.704L110.067 196.32C110.649 196.472 111.061 196.457 111.301 196.278C111.542 196.098 111.769 195.673 111.984 195.002L112.358 195.1L111.406 198.763L103.421 196.687C102.907 196.553 102.528 196.551 102.284 196.682C102.046 196.822 101.861 197.193 101.728 197.796L101.411 197.714C101.405 197.269 101.398 196.94 101.389 196.727C101.387 196.517 101.37 196.162 101.339 195.661C101.322 195.447 101.271 194.973 101.187 194.241C101.197 194.203 101.222 194.186 101.262 194.188C101.294 194.188 101.333 194.194 101.378 194.206L103.204 194.681C102.725 194.008 102.394 193.421 102.209 192.921C101.922 192.16 101.872 191.421 102.059 190.702C102.23 190.044 102.626 189.485 103.246 189.025C103.861 188.555 104.712 188.462 105.801 188.745L111.687 190.276C112.292 190.433 112.73 190.41 113.001 190.206C113.173 190.073 113.356 189.741 113.551 189.21L113.868 189.293L112.986 192.684Z" fill="#333333"/>
<path d="M99.5532 203.962C99.6135 204.571 99.7187 204.976 99.869 205.178C100.098 205.488 100.553 205.64 101.233 205.634L107.291 205.579C107.869 205.574 108.247 205.492 108.425 205.334C108.604 205.184 108.691 204.933 108.688 204.582C108.687 204.418 108.678 204.293 108.661 204.207C108.645 204.129 108.617 204.036 108.577 203.927L108.987 203.923L109.276 204.764C109.38 205.068 109.568 205.566 109.84 206.259C110.112 206.952 110.248 207.318 110.249 207.357C110.249 207.396 110.23 207.419 110.191 207.428C110.152 207.436 110.078 207.44 109.968 207.441L108.386 207.456C109.096 208.223 109.587 208.886 109.857 209.446C110.136 210.006 110.278 210.583 110.283 211.177C110.291 211.982 110.023 212.625 109.481 213.106C109.186 213.359 108.786 213.57 108.279 213.738C108.87 214.311 109.309 214.811 109.594 215.238C110.085 215.976 110.334 216.731 110.341 217.505C110.352 218.763 109.848 219.607 108.829 220.038C108.253 220.286 107.34 220.415 106.09 220.426L101.227 220.471C100.672 220.476 100.295 220.6 100.094 220.844C99.9006 221.096 99.7757 221.543 99.7191 222.184L99.4144 222.186L99.3663 216.902L99.6944 216.899C99.7631 217.578 99.9039 218.022 100.117 218.231C100.33 218.448 100.76 218.553 101.409 218.547L106.459 218.501C107.217 218.494 107.775 218.407 108.133 218.24C108.771 217.945 109.086 217.376 109.078 216.532C109.074 216.024 108.901 215.522 108.561 215.025C108.363 214.738 108.047 214.385 107.613 213.967L101.614 214.022C100.981 214.027 100.501 214.141 100.175 214.363C99.8492 214.592 99.6777 215.067 99.6608 215.786L99.3562 215.788L99.3072 210.41L99.6119 210.407C99.7124 211.148 99.8964 211.619 100.164 211.82C100.431 212.021 101.085 212.116 102.124 212.107L105.405 212.077C106.608 212.066 107.435 211.98 107.887 211.82C108.65 211.555 109.028 211.005 109.02 210.169C109.016 209.692 108.879 209.225 108.609 208.766C108.347 208.308 108.004 207.905 107.578 207.557L101.169 207.615C100.575 207.621 100.166 207.726 99.9409 207.931C99.7163 208.144 99.6032 208.598 99.6018 209.294L99.2971 209.296L99.2486 203.965L99.5532 203.962Z" fill="#333333"/>
<path d="M116.115 239.864C116.344 240.386 116.44 240.915 116.403 241.452C116.378 241.804 116.292 242.171 116.144 242.552L119.555 241.053C119.992 240.861 120.27 240.679 120.391 240.507C120.514 240.341 120.496 240.076 120.336 239.712C120.298 239.626 120.261 239.552 120.226 239.491C120.19 239.43 120.113 239.293 119.994 239.081L120.348 238.925L120.96 239.706C121.188 239.99 121.418 240.273 121.653 240.554C121.887 240.835 122.101 241.078 122.293 241.283C122.379 241.382 122.531 241.542 122.747 241.762L122.754 241.836L121.618 242.31C121.207 242.482 120.782 242.66 120.343 242.845C119.91 243.026 119.483 243.209 119.061 243.395L110.286 247.225C109.821 247.429 109.521 247.629 109.385 247.825C109.25 248.021 109.29 248.366 109.507 248.86C109.542 248.938 109.576 249.017 109.611 249.096C109.653 249.171 109.698 249.245 109.747 249.318L109.393 249.473C109.359 249.437 108.953 248.997 108.173 248.153L106.8 246.747L106.863 246.629L108.183 246.05C107.57 245.841 107.107 245.631 106.792 245.419C106.241 245.038 105.814 244.505 105.513 243.818C104.978 242.602 105.013 241.409 105.617 240.239C106.231 239.074 107.157 238.219 108.394 237.675C109.946 236.993 111.475 236.859 112.979 237.273C114.494 237.691 115.539 238.555 116.115 239.864ZM107.105 244.296C107.35 244.854 107.713 245.232 108.193 245.431C108.672 245.63 109.059 245.665 109.352 245.536L113.955 243.514C114.885 243.105 115.429 242.567 115.588 241.9C115.758 241.237 115.739 240.669 115.531 240.197C115.135 239.296 114.427 238.771 113.406 238.622C112.392 238.47 111.302 238.65 110.136 239.163C108.984 239.669 108.074 240.384 107.406 241.31C106.74 242.242 106.64 243.237 107.105 244.296Z" fill="#333333"/>
<path d="M116.042 252.196C117.296 251.277 118.645 250.898 120.09 251.06C121.546 251.223 122.734 251.931 123.653 253.185C124.568 254.433 124.915 255.766 124.697 257.186C124.478 258.605 123.688 259.814 122.327 260.811C121.073 261.73 119.692 262.132 118.184 262.017C116.676 261.902 115.46 261.215 114.536 259.954C113.649 258.745 113.343 257.395 113.617 255.906C113.891 254.417 114.7 253.18 116.042 252.196ZM122.892 253.336C122.527 252.838 122.047 252.527 121.451 252.401C120.416 252.191 119.196 252.601 117.791 253.631C116.669 254.453 115.808 255.472 115.207 256.687C114.611 257.909 114.643 258.97 115.303 259.872C115.821 260.577 116.542 260.881 117.468 260.784C118.399 260.692 119.391 260.261 120.443 259.49C121.533 258.691 122.382 257.695 122.991 256.504C123.599 255.312 123.566 254.256 122.892 253.336Z" fill="#333333"/>
<path d="M122.775 268.629C123.354 269.074 123.812 269.305 124.15 269.321C124.493 269.332 124.886 269.1 125.329 268.627L133.149 260.265C133.501 259.888 133.713 259.599 133.783 259.398C133.893 259.051 133.774 258.715 133.426 258.39C133.346 258.315 133.25 258.241 133.137 258.167C133.03 258.099 132.889 258.015 132.714 257.916L132.978 257.634C133.941 258.149 135.124 258.742 136.528 259.414C136.568 259.451 136.575 259.489 136.549 259.529C136.528 259.574 136.465 259.653 136.358 259.767L126.76 270.03C126.296 270.526 126.08 270.929 126.113 271.237C126.15 271.54 126.419 271.962 126.918 272.504L126.694 272.743L122.551 268.869L122.775 268.629Z" fill="#333333"/>
<path d="M134.913 272.58C135.746 271.268 136.865 270.423 138.27 270.047C139.685 269.669 141.05 269.896 142.362 270.729C143.668 271.558 144.478 272.673 144.791 274.075C145.104 275.477 144.809 276.89 143.904 278.315C143.071 279.627 141.931 280.505 140.485 280.947C139.038 281.389 137.655 281.191 136.336 280.354C135.07 279.55 134.293 278.405 134.006 276.918C133.719 275.431 134.022 273.985 134.913 272.58ZM141.708 271.147C141.187 270.816 140.627 270.701 140.026 270.801C138.986 270.983 137.999 271.809 137.065 273.28C136.32 274.454 135.889 275.716 135.772 277.067C135.661 278.422 136.078 279.399 137.021 279.997C137.76 280.466 138.542 280.487 139.369 280.058C140.203 279.634 140.969 278.872 141.668 277.77C142.393 276.629 142.821 275.393 142.954 274.061C143.087 272.73 142.671 271.758 141.708 271.147Z" fill="#333333"/>
<path d="M146.835 285.262C147.527 285.466 148.016 285.523 148.303 285.433C148.592 285.337 148.851 284.998 149.078 284.415L151.003 279.493C151.285 278.773 151.416 278.233 151.397 277.873C151.389 277.509 151.206 277.257 150.85 277.118C150.777 277.09 150.674 277.062 150.542 277.036C150.42 277.005 150.288 276.978 150.145 276.956L150.286 276.596C150.758 276.612 151.242 276.63 151.738 276.648C152.234 276.666 152.579 276.674 152.772 276.674C153.19 276.678 153.626 276.669 154.08 276.645C154.131 276.665 154.153 276.694 154.146 276.733C154.146 276.775 154.123 276.855 154.078 276.971L153.378 278.761C154.097 278.296 154.742 277.965 155.314 277.769C155.892 277.576 156.415 277.57 156.88 277.752C157.251 277.897 157.509 278.128 157.654 278.445C157.801 278.754 157.81 279.076 157.679 279.411C157.562 279.709 157.373 279.925 157.111 280.057C156.857 280.193 156.595 280.208 156.326 280.103C156.05 279.994 155.819 279.758 155.635 279.392C155.458 279.029 155.29 278.817 155.13 278.754C154.875 278.654 154.481 278.739 153.948 279.009C153.417 279.271 153.067 279.621 152.896 280.057L150.971 284.98C150.727 285.605 150.702 286.099 150.896 286.46C151.093 286.814 151.533 287.116 152.215 287.366L152.074 287.726L146.694 285.622L146.835 285.262Z" fill="#333333"/>
<path d="M171.844 288.562L172.23 288.582C172.363 289.48 172.57 290.176 172.85 290.667C173.351 291.569 174.128 292.047 175.182 292.101C175.767 292.131 176.235 291.995 176.587 291.693C176.948 291.383 177.141 290.97 177.167 290.455C177.184 290.127 177.103 289.806 176.924 289.492C176.744 289.178 176.416 288.864 175.939 288.55L174.667 287.733C173.734 287.169 173.055 286.614 172.629 286.068C172.203 285.522 172.009 284.894 172.045 284.184C172.09 283.31 172.439 282.608 173.092 282.078C173.746 281.549 174.544 281.308 175.488 281.357C175.902 281.378 176.35 281.479 176.834 281.661C177.325 281.842 177.602 281.935 177.664 281.938C177.805 281.945 177.907 281.931 177.972 281.895C178.036 281.86 178.094 281.8 178.145 281.717L178.426 281.731L178.34 285L177.977 284.982C177.86 284.217 177.68 283.617 177.436 283.182C176.992 282.377 176.314 281.951 175.401 281.904C174.855 281.876 174.417 282.021 174.088 282.341C173.759 282.66 173.582 283.046 173.559 283.499C173.522 284.217 174.028 284.884 175.075 285.501L176.578 286.412C178.193 287.402 178.97 288.498 178.908 289.7C178.86 290.62 178.474 291.356 177.75 291.905C177.033 292.455 176.117 292.701 175.001 292.644C174.533 292.62 174.007 292.514 173.422 292.328C172.837 292.141 172.49 292.045 172.38 292.039C172.287 292.035 172.203 292.065 172.129 292.132C172.056 292.191 171.997 292.266 171.953 292.358L171.649 292.342L171.844 288.562Z" fill="#333333"/>
<path d="M185.935 277.121C185.894 276.787 185.975 276.486 186.178 276.217C186.381 275.948 186.653 275.793 186.994 275.751C187.328 275.71 187.626 275.796 187.888 276.008C188.157 276.211 188.312 276.483 188.354 276.824C188.395 277.157 188.31 277.459 188.099 277.729C187.895 277.99 187.626 278.141 187.293 278.182C186.952 278.224 186.65 278.143 186.389 277.939C186.127 277.727 185.975 277.454 185.935 277.121ZM186.249 291.994C187.069 291.815 187.575 291.611 187.767 291.383C187.959 291.147 187.999 290.575 187.888 289.668L187.207 284.12C187.145 283.616 187.067 283.271 186.974 283.086C186.818 282.782 186.554 282.653 186.182 282.699C186.097 282.709 186.013 282.727 185.929 282.753C185.854 282.778 185.629 282.869 185.254 283.025L185.21 282.665L185.69 282.44C186.993 281.832 187.898 281.382 188.405 281.092C188.611 280.972 188.745 280.908 188.807 280.901C188.829 280.953 188.844 281.01 188.852 281.072L189.877 289.424C189.985 290.308 190.158 290.849 190.395 291.049C190.639 291.247 191.142 291.331 191.901 291.3L191.941 291.626L186.289 292.32L186.249 291.994Z" fill="#333333"/>
<path d="M200.968 278.398L201.199 279.21L198.899 279.862L200.718 286.363C200.88 286.934 201.051 287.352 201.232 287.618C201.56 288.085 201.986 288.244 202.513 288.095C202.783 288.018 202.998 287.888 203.157 287.705C203.324 287.52 203.496 287.252 203.672 286.901L204.036 287.066L203.884 287.475C203.642 288.112 203.334 288.601 202.96 288.943C202.586 289.284 202.196 289.513 201.79 289.628C200.903 289.879 200.19 289.655 199.65 288.955C199.356 288.576 199.101 288.007 198.886 287.248L196.948 280.416L195.719 280.764C195.675 280.752 195.639 280.738 195.61 280.722C195.589 280.704 195.573 280.676 195.562 280.638C195.541 280.563 195.54 280.502 195.559 280.456C195.584 280.401 195.665 280.272 195.803 280.07C196.2 279.495 196.474 279.044 196.625 278.717C196.781 278.38 197.122 277.52 197.647 276.137C197.745 276.109 197.803 276.101 197.823 276.111C197.85 276.12 197.877 276.173 197.905 276.271L198.691 279.044L200.968 278.398Z" fill="#333333"/>
<path d="M222.146 272.501C221.57 273.252 221.141 273.941 220.859 274.568C220.32 275.775 220.299 276.744 220.796 277.474C221.196 278.062 221.684 278.362 222.261 278.376C222.636 278.386 222.978 278.285 223.288 278.074C223.715 277.784 224.04 277.387 224.265 276.885C224.496 276.377 224.487 275.94 224.236 275.572L222.146 272.501ZM219.527 279.316C218.889 278.38 218.826 277.28 219.336 276.016C219.666 275.224 220.493 273.891 221.816 272.017L221.255 271.193C220.807 270.534 220.43 270.12 220.125 269.949C219.611 269.666 219.008 269.76 218.317 270.23C217.988 270.454 217.732 270.752 217.549 271.122C217.371 271.498 217.385 271.838 217.592 272.142C217.644 272.219 217.751 272.341 217.91 272.506C218.066 272.665 218.161 272.77 218.196 272.822C218.442 273.184 218.494 273.517 218.352 273.822C218.274 273.998 218.141 274.15 217.954 274.277C217.663 274.475 217.376 274.533 217.094 274.451C216.807 274.363 216.584 274.203 216.426 273.97C216.118 273.518 216.075 272.858 216.296 271.989C216.52 271.109 217.171 270.302 218.249 269.568C219.502 268.715 220.628 268.544 221.628 269.054C222.17 269.337 222.731 269.905 223.312 270.757L225.956 274.642C226.211 275.016 226.413 275.257 226.561 275.364C226.817 275.559 227.077 275.566 227.342 275.386C227.49 275.285 227.597 275.178 227.663 275.067C227.73 274.956 227.823 274.732 227.943 274.395L228.286 274.899C228.251 275.291 228.169 275.65 228.04 275.974C227.845 276.465 227.56 276.839 227.186 277.094C226.747 277.393 226.33 277.468 225.937 277.32C225.549 277.168 225.212 276.901 224.925 276.521C224.724 277.281 224.519 277.883 224.311 278.327C223.961 279.076 223.521 279.631 222.992 279.991C222.436 280.369 221.823 280.503 221.153 280.393C220.478 280.276 219.936 279.917 219.527 279.316Z" fill="#333333"/>
<path d="M233.82 271.666C234.179 271.17 234.369 270.797 234.39 270.546C234.425 270.162 234.185 269.746 233.673 269.3L229.102 265.323C228.666 264.944 228.329 264.754 228.09 264.754C227.857 264.748 227.626 264.878 227.395 265.143C227.287 265.267 227.211 265.366 227.166 265.441C227.127 265.51 227.086 265.599 227.044 265.707L226.734 265.438L227.076 264.617C227.199 264.32 227.389 263.823 227.645 263.124C227.901 262.425 228.042 262.061 228.067 262.031C228.093 262.002 228.123 261.997 228.158 262.017C228.192 262.036 228.251 262.082 228.333 262.154L229.527 263.192C229.504 262.147 229.577 261.325 229.746 260.727C229.909 260.123 230.185 259.597 230.575 259.149C231.103 258.542 231.73 258.238 232.455 258.238C232.844 258.244 233.283 258.352 233.774 258.561C233.711 257.741 233.715 257.076 233.785 256.567C233.906 255.689 234.221 254.959 234.729 254.375C235.555 253.426 236.492 253.129 237.541 253.482C238.136 253.679 238.905 254.187 239.848 255.008L243.517 258.2C243.935 258.564 244.301 258.722 244.613 258.672C244.924 258.612 245.314 258.361 245.782 257.918L246.011 258.118L242.542 262.105L242.295 261.89C242.694 261.336 242.883 260.911 242.862 260.613C242.847 260.31 242.594 259.945 242.105 259.519L238.295 256.204C237.723 255.707 237.248 255.402 236.869 255.29C236.196 255.087 235.583 255.304 235.029 255.941C234.695 256.324 234.491 256.814 234.417 257.412C234.374 257.758 234.377 258.232 234.424 258.832L238.95 262.77C239.428 263.186 239.862 263.419 240.253 263.469C240.649 263.513 241.092 263.272 241.582 262.745L241.812 262.945L238.281 267.003L238.051 266.803C238.467 266.182 238.642 265.707 238.575 265.38C238.508 265.052 238.083 264.547 237.299 263.865L234.823 261.711C233.916 260.922 233.24 260.437 232.795 260.257C232.048 259.949 231.401 260.111 230.852 260.741C230.539 261.101 230.332 261.542 230.229 262.064C230.121 262.581 230.111 263.11 230.199 263.652L235.034 267.86C235.482 268.25 235.858 268.442 236.163 268.438C236.472 268.427 236.858 268.163 237.32 267.643L237.55 267.843L234.05 271.866L233.82 271.666Z" fill="#333333"/>
<path d="M241.572 243.012C242.06 242.024 242.831 241.329 243.884 240.926C244.93 240.519 246.08 240.625 247.334 241.245L244.037 247.916C245.697 248.649 247.062 248.866 248.133 248.568C249.205 248.269 249.965 247.665 250.415 246.754C250.779 246.019 250.892 245.304 250.756 244.609C250.62 243.914 250.304 243.179 249.808 242.402L250.116 242.097C250.863 242.823 251.42 243.769 251.785 244.935C252.154 246.093 252.056 247.243 251.492 248.384C250.841 249.701 249.84 250.474 248.489 250.704C247.142 250.927 245.82 250.719 244.524 250.078C243.116 249.383 242.107 248.365 241.497 247.027C240.886 245.688 240.911 244.349 241.572 243.012ZM242.038 244C241.643 244.798 241.696 245.583 242.196 246.352C242.463 246.763 242.86 247.16 243.386 247.542L245.577 243.108C244.838 242.839 244.25 242.714 243.814 242.734C243.028 242.773 242.436 243.195 242.038 244Z" fill="#333333"/>
<path d="M246.958 228.955L247.769 229.187L247.11 231.486L253.593 233.367C254.164 233.531 254.609 233.606 254.93 233.592C255.5 233.56 255.86 233.281 256.011 232.756C256.088 232.485 256.091 232.234 256.02 232.002C255.95 231.763 255.813 231.476 255.608 231.141L255.94 230.919L256.207 231.264C256.621 231.805 256.874 232.324 256.967 232.822C257.06 233.32 257.048 233.772 256.932 234.178C256.678 235.064 256.112 235.552 255.233 235.641C254.755 235.691 254.137 235.608 253.379 235.39L246.552 233.434L246.2 234.662C246.167 234.694 246.136 234.717 246.107 234.733C246.08 234.742 246.048 234.741 246.01 234.73C245.935 234.708 245.883 234.677 245.854 234.636C245.82 234.586 245.753 234.449 245.655 234.226C245.375 233.585 245.136 233.114 244.938 232.814C244.734 232.503 244.183 231.76 243.285 230.585C243.313 230.487 243.336 230.433 243.356 230.422C243.377 230.404 243.437 230.409 243.534 230.437L246.306 231.231L246.958 228.955Z" fill="#333333"/>
<path d="M259.172 219.95C259.954 220.053 260.645 220.432 261.244 221.086C261.843 221.741 262.247 222.413 262.455 223.102L261.961 223.262C261.641 222.463 261.256 221.892 260.805 221.549C260.354 221.198 259.967 221.001 259.641 220.958C259.533 220.943 259.459 220.969 259.418 221.035C259.378 221.1 259.353 221.172 259.343 221.249L259.321 222.038C259.279 222.364 259.135 222.648 258.89 222.892C258.637 223.134 258.309 223.229 257.907 223.176C257.597 223.135 257.31 222.983 257.045 222.719C256.78 222.456 256.682 222.068 256.749 221.557C256.813 221.069 257.065 220.657 257.503 220.321C257.934 219.984 258.49 219.86 259.172 219.95Z" fill="#333333"/>
<path d="M247.429 199.259C247.251 198.299 247.347 197.427 247.718 196.643C248.08 195.853 248.556 195.403 249.148 195.293C249.401 195.246 249.656 195.29 249.911 195.425C250.159 195.562 250.317 195.814 250.386 196.183C250.436 196.452 250.388 196.707 250.242 196.949C250.095 197.183 249.853 197.379 249.517 197.536L248.99 197.777C248.601 197.953 248.345 198.179 248.222 198.456C248.108 198.74 248.089 199.089 248.166 199.504C248.329 200.379 248.851 201.049 249.731 201.513C250.603 201.971 251.673 202.082 252.94 201.847C254.1 201.631 255.079 201.108 255.878 200.276C256.676 199.436 256.97 198.452 256.76 197.323C256.612 196.524 256.218 195.862 255.58 195.337C255.215 195.039 254.665 194.728 253.929 194.404L254.065 194.045C255.068 194.312 255.883 194.637 256.511 195.021C257.713 195.759 258.427 196.739 258.654 197.96C258.877 199.159 258.602 200.306 257.828 201.404C257.054 202.501 255.857 203.2 254.237 203.501C252.647 203.797 251.186 203.547 249.855 202.754C248.523 201.96 247.715 200.795 247.429 199.259Z" fill="#333333"/>
<path d="M250.589 188.498C249.155 189.098 247.754 189.15 246.387 188.654C245.01 188.154 244.021 187.187 243.422 185.753C242.825 184.325 242.8 182.947 243.346 181.619C243.891 180.29 244.942 179.3 246.499 178.65C247.934 178.05 249.371 177.983 250.81 178.449C252.249 178.914 253.27 179.868 253.872 181.31C254.451 182.694 254.432 184.078 253.816 185.461C253.2 186.844 252.125 187.857 250.589 188.498ZM244.197 185.784C244.435 186.354 244.829 186.769 245.378 187.031C246.335 187.477 247.618 187.365 249.225 186.693C250.508 186.157 251.585 185.369 252.454 184.328C253.32 183.281 253.538 182.241 253.107 181.21C252.77 180.403 252.139 179.938 251.216 179.816C250.29 179.686 249.225 179.873 248.021 180.376C246.774 180.897 245.715 181.666 244.844 182.682C243.973 183.698 243.757 184.732 244.197 185.784Z" fill="#333333"/>
<path d="M248.006 170.859C247.629 170.446 247.294 170.209 247.002 170.148C246.699 170.084 246.254 170.259 245.666 170.674L240.811 174.098C240.403 174.386 240.142 174.627 240.03 174.821C239.873 175.113 239.928 175.448 240.193 175.825C240.234 175.882 240.28 175.94 240.331 176C240.378 176.053 240.44 176.119 240.515 176.2L240.18 176.436C239.919 176.228 239.284 175.749 238.276 174.997L237.344 174.306C237.313 174.262 237.311 174.225 237.338 174.196C237.361 174.161 237.401 174.123 237.459 174.082L238.866 173.089C237.903 172.889 237.202 172.695 236.764 172.507C236.1 172.23 235.579 171.823 235.2 171.287C234.894 170.853 234.739 170.369 234.736 169.836C234.735 168.804 235.357 167.85 236.602 166.971L241.074 163.817C241.534 163.493 241.8 163.166 241.874 162.837C241.948 162.508 241.835 162.124 241.535 161.685L241.803 161.496L244.687 165.585L244.419 165.774C244.027 165.353 243.669 165.118 243.347 165.068C243.019 165.022 242.529 165.229 241.878 165.688L237.789 168.572C237.24 168.96 236.858 169.382 236.645 169.838C236.425 170.299 236.509 170.804 236.896 171.353C237.162 171.73 237.56 172.023 238.09 172.232C238.39 172.345 238.83 172.455 239.412 172.561L244.775 168.779C245.234 168.455 245.472 168.134 245.487 167.817C245.496 167.505 245.352 167.124 245.054 166.674L245.322 166.485L248.274 170.67L248.006 170.859Z" fill="#333333"/>
<path d="M234.474 158.975L234.191 158.711C234.667 157.937 234.956 157.272 235.059 156.716C235.256 155.703 234.969 154.837 234.198 154.117C233.77 153.717 233.323 153.52 232.859 153.525C232.384 153.53 231.97 153.722 231.619 154.099C231.395 154.338 231.25 154.636 231.185 154.992C231.12 155.348 231.169 155.8 231.332 156.347L231.779 157.791C232.13 158.823 232.293 159.686 232.267 160.378C232.241 161.069 231.986 161.675 231.501 162.195C230.904 162.835 230.185 163.147 229.344 163.132C228.503 163.117 227.737 162.787 227.046 162.142C226.744 161.859 226.466 161.493 226.212 161.043C225.953 160.587 225.801 160.338 225.755 160.296C225.653 160.2 225.565 160.145 225.493 160.131C225.42 160.117 225.338 160.125 225.245 160.156L225.039 159.964L227.21 157.518L227.475 157.766C227.073 158.426 226.824 159.001 226.731 159.491C226.552 160.393 226.797 161.155 227.465 161.779C227.865 162.152 228.293 162.322 228.751 162.29C229.209 162.258 229.592 162.076 229.901 161.744C230.392 161.219 230.435 160.383 230.03 159.236L229.467 157.572C228.869 155.774 228.98 154.436 229.801 153.556C230.43 152.882 231.198 152.568 232.106 152.614C233.009 152.655 233.868 153.056 234.685 153.818C235.028 154.138 235.363 154.558 235.69 155.077C236.018 155.596 236.222 155.893 236.302 155.968C236.37 156.032 236.454 156.062 236.553 156.059C236.648 156.061 236.741 156.041 236.833 155.999L237.056 156.207L234.474 158.975Z" fill="#333333"/>
<path d="M139.526 143.173C138.955 143.615 138.623 143.978 138.528 144.263C138.437 144.554 138.56 144.962 138.899 145.488L141.765 149.928C142.184 150.578 142.545 151.001 142.848 151.196C143.148 151.402 143.459 151.401 143.781 151.194C143.847 151.151 143.929 151.084 144.028 150.993C144.124 150.912 144.223 150.82 144.324 150.718L144.534 151.043C144.245 151.415 143.947 151.798 143.643 152.19C143.338 152.582 143.129 152.856 143.016 153.012C142.768 153.349 142.521 153.708 142.275 154.09C142.229 154.12 142.192 154.12 142.164 154.092C142.13 154.068 142.079 154.003 142.011 153.898L140.969 152.283C140.926 153.138 140.817 153.855 140.641 154.433C140.459 155.016 140.158 155.442 139.738 155.713C139.403 155.929 139.065 156.004 138.724 155.936C138.387 155.874 138.121 155.693 137.926 155.391C137.752 155.121 137.688 154.842 137.733 154.552C137.772 154.267 137.913 154.046 138.156 153.889C138.406 153.728 138.733 153.68 139.137 153.744C139.534 153.813 139.806 153.801 139.95 153.708C140.18 153.559 140.341 153.19 140.435 152.6C140.532 152.016 140.454 151.528 140.2 151.134L137.334 146.693C136.97 146.128 136.584 145.819 136.178 145.766C135.775 145.718 135.273 145.898 134.671 146.305L134.461 145.98L139.316 142.848L139.526 143.173Z" fill="#333333"/>
</svg>
