<svg width="359" height="299" viewBox="0 0 359 299" fill="none" xmlns="http://www.w3.org/2000/svg">
<path d="M223.835 19.9792C223.025 19.6154 222.454 19.463 222.121 19.522C221.777 19.5839 221.377 20.0062 220.921 20.789L215.541 30.0105C215.112 30.7461 214.944 31.2902 215.037 31.6428C215.126 32.0021 215.539 32.4332 216.277 32.9359L216.053 33.3206L210.192 29.9017L210.416 29.5171C211.202 29.9214 211.788 30.0957 212.173 30.0401C212.552 29.9805 212.942 29.6065 213.343 28.9182L219.153 18.9577C219.287 18.7283 219.356 18.5244 219.361 18.3461C219.355 18.1707 219.23 17.9893 218.986 17.8021C218.843 17.6913 218.689 17.5833 218.524 17.4782C218.353 17.3691 218.031 17.1767 217.558 16.9012C215.716 15.8265 214.382 15.2521 213.557 15.1778C212.732 15.1036 211.652 15.5136 210.317 16.4077L209.79 16.1007L212.899 13.0977L224.053 19.6047L223.835 19.9792Z" fill="#333333"/>
<path d="M206.092 16.2556C205.647 17.7452 204.8 18.8619 203.55 19.6057C202.291 20.3547 200.917 20.5068 199.427 20.0618C197.945 19.619 196.863 18.7657 196.18 17.5019C195.498 16.2381 195.398 14.7977 195.881 13.1808C196.326 11.6912 197.184 10.537 198.456 9.71838C199.728 8.89974 201.113 8.71404 202.61 9.16126C204.047 9.5906 205.106 10.4817 205.786 11.8346C206.467 13.1875 206.569 14.6611 206.092 16.2556ZM199.943 19.482C200.534 19.6586 201.105 19.6172 201.655 19.3576C202.608 18.9 203.333 17.8366 203.832 16.1673C204.23 14.8349 204.301 13.5028 204.047 12.1711C203.785 10.8372 203.119 10.0104 202.048 9.6906C201.21 9.44015 200.451 9.63335 199.771 10.2702C199.084 10.9048 198.554 11.8472 198.181 13.0973C197.794 14.3923 197.718 15.6986 197.952 17.016C198.186 18.3335 198.85 19.1555 199.943 19.482Z" fill="#333333"/>
<path d="M191.172 7.2923C190.451 7.28455 189.965 7.36257 189.713 7.52637C189.461 7.69794 189.304 8.09475 189.243 8.71678L188.729 13.9768C188.654 14.7466 188.674 15.302 188.79 15.643C188.897 15.991 189.141 16.1837 189.522 16.2209C189.6 16.2285 189.706 16.2271 189.84 16.2167C189.966 16.2134 190.101 16.203 190.244 16.1856L190.206 16.5704C189.748 16.6826 189.277 16.7975 188.795 16.9152C188.312 17.0328 187.978 17.1179 187.793 17.1704C187.389 17.2801 186.973 17.4081 186.542 17.5544C186.488 17.5491 186.459 17.5266 186.455 17.487C186.443 17.4466 186.443 17.3642 186.455 17.2398L186.642 15.327C186.077 15.9704 185.546 16.464 185.049 16.8079C184.545 17.1511 184.044 17.2983 183.546 17.2497C183.149 17.2109 182.839 17.0588 182.613 16.7934C182.387 16.5358 182.292 16.2282 182.327 15.8705C182.358 15.5517 182.481 15.293 182.697 15.0943C182.905 14.8948 183.153 14.8092 183.44 14.8373C183.736 14.8662 184.022 15.0315 184.299 15.3333C184.567 15.6344 184.787 15.7932 184.958 15.81C185.231 15.8366 185.587 15.6477 186.026 15.2433C186.466 14.8466 186.708 14.415 186.754 13.9485L187.268 8.68845C187.333 8.01976 187.224 7.53803 186.938 7.24325C186.652 6.95625 186.147 6.78517 185.423 6.73L185.46 6.34512L191.21 6.90741L191.172 7.2923Z" fill="#333333"/>
<path d="M173.388 17.413C172.291 17.5108 171.296 17.2151 170.403 16.526C169.511 15.8447 169.003 14.8076 168.879 13.4147L176.291 12.7541C176.052 10.9557 175.526 9.677 174.714 8.91803C173.901 8.15906 172.989 7.82466 171.977 7.91483C171.16 7.98765 170.49 8.26303 169.968 8.74095C169.446 9.21888 168.983 9.87197 168.578 10.7002L168.157 10.5966C168.388 9.57986 168.906 8.61212 169.71 7.69332C170.507 6.77523 171.539 6.25965 172.808 6.1466C174.271 6.01621 175.452 6.46779 176.352 7.50135C177.244 8.5356 177.755 9.77253 177.883 11.2121C178.022 12.7762 177.68 14.1676 176.855 15.3863C176.03 16.6049 174.875 17.2805 173.388 17.413ZM173.989 16.5005C174.876 16.4215 175.518 15.9682 175.915 15.1406C176.127 14.6982 176.259 14.1531 176.311 13.5053L171.385 13.9443C171.54 14.7149 171.739 15.2814 171.983 15.644C172.426 16.2948 173.094 16.5803 173.989 16.5005Z" fill="#333333"/>
<path d="M161.009 8.09604C160.454 8.35413 160.106 8.58743 159.966 8.79596C159.748 9.11506 159.755 9.59433 159.986 10.2337L162.04 15.9334C162.236 16.4772 162.438 16.8072 162.646 16.9233C162.847 17.042 163.112 17.0417 163.443 16.9225C163.597 16.8669 163.712 16.8171 163.788 16.7733C163.856 16.7321 163.935 16.6746 164.025 16.6007L164.164 16.9866L163.465 17.5373C163.213 17.7362 162.805 18.0784 162.241 18.5641C161.677 19.0498 161.376 19.2992 161.34 19.3125C161.303 19.3257 161.274 19.3153 161.254 19.2812C161.233 19.2471 161.204 19.1786 161.167 19.0757L160.631 17.5874C160.141 18.5111 159.677 19.1933 159.238 19.634C158.802 20.0819 158.304 20.4066 157.746 20.6079C156.989 20.8808 156.293 20.8408 155.66 20.4879C155.324 20.2934 154.992 19.9851 154.666 19.563C154.321 20.3103 153.994 20.8891 153.685 21.2994C153.151 22.0067 152.52 22.4915 151.793 22.7538C150.609 23.1804 149.646 22.9837 148.902 22.164C148.478 21.7023 148.054 20.8834 147.63 19.7075L145.981 15.1324C145.793 14.6105 145.55 14.2951 145.254 14.1862C144.952 14.0872 144.49 14.117 143.866 14.2754L143.762 13.9888L148.734 12.1965L148.846 12.5052C148.228 12.7945 147.855 13.0741 147.728 13.3441C147.594 13.6167 147.637 14.058 147.856 14.6681L149.569 19.4196C149.826 20.1325 150.093 20.6302 150.369 20.9126C150.858 21.4173 151.5 21.5265 152.293 21.2404C152.771 21.0682 153.188 20.7393 153.545 20.2537C153.75 19.972 153.979 19.5574 154.23 19.0102L152.195 13.3657C151.981 12.7703 151.715 12.3554 151.398 12.1209C151.073 11.8891 150.569 11.884 149.885 12.1057L149.782 11.819L154.842 9.99503L154.945 10.2817C154.279 10.6215 153.895 10.9509 153.794 11.2696C153.693 11.5884 153.819 12.2365 154.171 13.214L155.284 16.3009C155.692 17.4327 156.046 18.1853 156.347 18.5586C156.849 19.1914 157.493 19.3661 158.28 19.0826C158.728 18.921 159.124 18.6371 159.467 18.2309C159.814 17.8321 160.081 17.3746 160.268 16.8585L158.095 10.8282C157.893 10.2696 157.659 9.91817 157.391 9.77391C157.115 9.6323 156.649 9.67571 155.993 9.90415L155.889 9.61751L160.905 7.80941L161.009 8.09604Z" fill="#333333"/>
<path d="M137.837 36.3627C138.058 36.6156 138.16 36.9103 138.143 37.2469C138.126 37.5835 137.989 37.865 137.73 38.0913C137.477 38.3125 137.183 38.4091 136.847 38.3811C136.51 38.3642 136.229 38.2264 136.002 37.9676C135.781 37.7148 135.682 37.4175 135.705 37.0758C135.727 36.745 135.864 36.4691 136.117 36.2479C136.376 36.0216 136.671 35.9194 137.001 35.9415C137.337 35.9695 137.616 36.1099 137.837 36.3627ZM129.221 24.2353C128.643 24.8445 128.339 25.2975 128.308 25.5944C128.282 25.8972 128.57 26.3926 129.172 27.0806L132.852 31.2878C133.187 31.67 133.445 31.9114 133.626 32.0122C133.925 32.1761 134.216 32.1346 134.498 31.8877C134.563 31.8311 134.622 31.7686 134.677 31.7003C134.725 31.6371 134.861 31.4357 135.083 31.0962L135.322 31.3696L135.051 31.8249C134.315 33.0603 133.819 33.9407 133.562 34.4661C133.459 34.6807 133.384 34.8086 133.337 34.8497C133.289 34.8188 133.245 34.7799 133.204 34.7328L127.664 28.4C127.077 27.7296 126.63 27.3787 126.322 27.347C126.008 27.3205 125.546 27.5332 124.934 27.9851L124.718 27.7382L129.005 23.9883L129.221 24.2353Z" fill="#333333"/>
<path d="M119.488 36.4414C118.944 36.273 118.445 36.2635 117.99 36.4128C117.536 36.5731 117.141 36.8683 116.803 37.2984C116.282 37.962 116.167 38.7854 116.457 39.7686C116.749 40.7629 117.485 41.7232 118.665 42.6496C119.796 43.5374 120.833 43.9551 121.779 43.9027C122.719 43.8563 123.442 43.5106 123.949 42.8654C124.306 42.4108 124.491 41.885 124.502 41.2883C124.52 40.6963 124.394 40.2942 124.123 40.0819L119.488 36.4414ZM116.287 29.1896C115.87 29.7961 115.706 30.2582 115.794 30.5759C115.878 30.8997 116.144 31.2377 116.592 31.5899L125.44 38.5381C125.907 38.9048 126.251 39.0805 126.472 39.065C126.694 39.0606 126.928 38.9017 127.174 38.5883C127.227 38.5207 127.274 38.4538 127.317 38.3875C127.354 38.3274 127.407 38.2348 127.475 38.1098L127.779 38.3486L127.377 39.4485C127.359 39.4841 127.086 40.2681 126.559 41.8005C126.534 41.8312 126.502 41.8406 126.462 41.8288C126.423 41.8279 126.385 41.813 126.348 41.7841L125.104 40.807C125.191 41.531 125.212 42.1238 125.167 42.5854C125.077 43.4086 124.803 44.1121 124.344 44.6958C123.679 45.5437 122.744 45.9871 121.542 46.026C120.34 46.0759 119.113 45.6087 117.859 44.6244C116.63 43.6594 115.805 42.415 115.382 40.8911C114.955 39.3735 115.178 38.0586 116.051 36.9464C116.321 36.6023 116.598 36.3381 116.882 36.1537C117.32 35.8618 117.841 35.6851 118.446 35.6235L115.432 33.2568C114.812 32.7694 114.351 32.5717 114.051 32.6634C113.75 32.7552 113.307 33.1228 112.723 33.7663L112.4 33.5129L115.983 28.9507L116.287 29.1896Z" fill="#333333"/>
<path d="M112.643 49.0112L112.471 49.3577C111.594 49.1233 110.873 49.0368 110.311 49.0982C109.284 49.1997 108.537 49.723 108.069 50.668C107.808 51.1931 107.747 51.6772 107.885 52.1204C108.026 52.5741 108.328 52.9154 108.79 53.1444C109.084 53.29 109.411 53.343 109.771 53.3033C110.131 53.2636 110.549 53.0874 111.027 52.7747L112.281 51.9317C113.17 51.2996 113.95 50.8967 114.62 50.7231C115.29 50.5495 115.944 50.6205 116.581 50.9362C117.365 51.3247 117.87 51.9238 118.096 52.7336C118.323 53.5433 118.226 54.3717 117.807 55.2187C117.623 55.5898 117.352 55.9611 116.993 56.3327C116.631 56.7114 116.436 56.9287 116.408 56.9847C116.346 57.1107 116.318 57.2104 116.326 57.2837C116.333 57.3571 116.365 57.4338 116.421 57.514L116.296 57.766L113.33 56.3878L113.491 56.0623C114.24 56.2588 114.862 56.3317 115.358 56.281C116.273 56.1938 116.933 55.7407 117.339 54.9217C117.582 54.4317 117.622 53.9721 117.46 53.5429C117.298 53.1138 117.014 52.7986 116.608 52.5974C115.963 52.2783 115.15 52.4769 114.167 53.1932L112.735 54.2098C111.184 55.2985 109.87 55.5757 108.792 55.0415C107.966 54.6322 107.445 53.986 107.228 53.1028C107.008 52.2266 107.147 51.288 107.643 50.287C107.851 49.867 108.157 49.4257 108.56 48.963C108.964 48.5004 109.19 48.22 109.239 48.122C109.28 48.038 109.285 47.9489 109.253 47.8547C109.229 47.764 109.183 47.6803 109.116 47.6036L109.251 47.3306L112.643 49.0112Z" fill="#333333"/>
<path d="M112.986 66.6839L105.728 64.7965C105.214 64.6628 104.783 64.6275 104.436 64.6905C103.788 64.8208 103.367 65.2603 103.172 66.0088C103.039 66.523 103.078 67.07 103.291 67.65C103.407 67.9789 103.594 68.3303 103.852 68.7041L110.067 70.3202C110.649 70.4716 111.061 70.4575 111.301 70.2778C111.542 70.0982 111.769 69.673 111.984 69.0024L112.358 69.0997L111.406 72.763L103.421 70.6868C102.907 70.5531 102.528 70.5515 102.284 70.6818C102.046 70.8217 101.861 71.1932 101.728 71.7964L101.411 71.7139C101.405 71.2685 101.398 70.9397 101.389 70.7274C101.387 70.517 101.37 70.1616 101.339 69.661C101.322 69.4467 101.271 68.9735 101.187 68.2413C101.197 68.2035 101.222 68.1857 101.262 68.188C101.294 68.1883 101.333 68.1943 101.378 68.2061L103.204 68.6809C102.725 68.0075 102.394 67.4208 102.209 66.9207C101.922 66.16 101.872 65.4205 102.059 64.7022C102.23 64.0444 102.626 63.4854 103.246 63.0251C103.861 62.5552 104.712 62.4619 105.801 62.745L111.687 64.2756C112.292 64.4329 112.73 64.4095 113.001 64.2056C113.173 64.0726 113.356 63.7409 113.551 63.2102L113.868 63.2928L112.986 66.6839Z" fill="#333333"/>
<path d="M99.5532 77.9618C99.6135 78.5707 99.7187 78.976 99.869 79.1777C100.098 79.4882 100.553 79.6403 101.233 79.6341L107.291 79.579C107.869 79.5737 108.247 79.4921 108.425 79.3343C108.604 79.1842 108.691 78.9334 108.688 78.5818C108.687 78.4178 108.678 78.2929 108.661 78.2071C108.645 78.1291 108.617 78.0356 108.577 77.9266L108.987 77.9228L109.276 78.764C109.38 79.0677 109.568 79.5661 109.84 80.2589C110.112 80.9518 110.248 81.3177 110.249 81.3568C110.249 81.3959 110.23 81.4195 110.191 81.4277C110.152 81.4358 110.078 81.4404 109.968 81.4414L108.386 81.4558C109.096 82.2228 109.587 82.8863 109.857 83.4464C110.136 84.0064 110.278 84.5832 110.283 85.177C110.291 85.9816 110.023 86.6247 109.481 87.1062C109.186 87.3589 108.786 87.5696 108.279 87.7383C108.87 88.311 109.309 88.811 109.594 89.2381C110.085 89.9758 110.334 90.7314 110.341 91.5048C110.352 92.7626 109.848 93.6071 108.829 94.0382C108.253 94.2857 107.34 94.4151 106.09 94.4264L101.227 94.4707C100.672 94.4757 100.295 94.6003 100.094 94.8443C99.9006 95.0961 99.7757 95.5425 99.7191 96.1837L99.4144 96.1865L99.3663 90.9015L99.6944 90.8986C99.7631 91.5776 99.9039 92.0217 100.117 92.2307C100.33 92.4475 100.76 92.553 101.409 92.5471L106.459 92.5011C107.217 92.4942 107.775 92.4071 108.133 92.2398C108.771 91.9449 109.086 91.3756 109.078 90.5319C109.074 90.0241 108.901 89.5218 108.561 89.0248C108.363 88.7376 108.047 88.3849 107.613 87.967L101.614 88.0216C100.981 88.0274 100.501 88.1411 100.175 88.3628C99.8492 88.5924 99.6777 89.0666 99.6608 89.7855L99.3562 89.7883L99.3072 84.4096L99.6119 84.4069C99.7124 85.1482 99.8964 85.6192 100.164 85.8199C100.431 86.0206 101.085 86.1162 102.124 86.1067L105.405 86.0769C106.608 86.0659 107.435 85.9803 107.887 85.8199C108.65 85.5551 109.028 85.0048 109.02 84.1689C109.016 83.6923 108.879 83.2248 108.609 82.7663C108.347 82.3077 108.004 81.9046 107.578 81.5569L101.169 81.6152C100.575 81.6206 100.166 81.7259 99.9409 81.9311C99.7163 82.1441 99.6032 82.5983 99.6018 83.2936L99.2971 83.2964L99.2486 77.9646L99.5532 77.9618Z" fill="#333333"/>
<path d="M116.115 113.864C116.344 114.386 116.44 114.915 116.403 115.452C116.378 115.804 116.292 116.171 116.144 116.552L119.555 115.053C119.992 114.861 120.27 114.679 120.391 114.507C120.514 114.341 120.496 114.076 120.336 113.712C120.298 113.626 120.261 113.552 120.226 113.491C120.19 113.43 120.113 113.293 119.994 113.081L120.348 112.925L120.96 113.706C121.188 113.99 121.418 114.273 121.653 114.554C121.887 114.835 122.101 115.078 122.293 115.283C122.379 115.382 122.531 115.542 122.747 115.762L122.754 115.836L121.618 116.31C121.207 116.482 120.782 116.66 120.343 116.845C119.91 117.026 119.483 117.209 119.061 117.395L110.286 121.225C109.821 121.429 109.521 121.629 109.385 121.825C109.25 122.021 109.29 122.366 109.507 122.86C109.542 122.938 109.576 123.017 109.611 123.096C109.653 123.171 109.698 123.245 109.747 123.318L109.393 123.473C109.359 123.437 108.953 122.997 108.173 122.153L106.8 120.747L106.863 120.629L108.183 120.05C107.57 119.841 107.107 119.631 106.792 119.419C106.241 119.038 105.814 118.505 105.513 117.818C104.978 116.602 105.013 115.409 105.617 114.239C106.231 113.074 107.157 112.219 108.394 111.675C109.946 110.993 111.475 110.859 112.979 111.273C114.494 111.691 115.539 112.555 116.115 113.864ZM107.105 118.296C107.35 118.854 107.713 119.232 108.193 119.431C108.672 119.63 109.059 119.665 109.352 119.536L113.955 117.514C114.885 117.105 115.429 116.567 115.588 115.9C115.758 115.237 115.739 114.669 115.531 114.197C115.135 113.296 114.427 112.771 113.406 112.622C112.392 112.47 111.302 112.65 110.136 113.163C108.984 113.669 108.074 114.384 107.406 115.31C106.74 116.242 106.64 117.237 107.105 118.296Z" fill="#333333"/>
<path d="M116.042 126.196C117.296 125.277 118.645 124.898 120.09 125.06C121.546 125.223 122.734 125.931 123.653 127.185C124.568 128.433 124.915 129.766 124.697 131.186C124.478 132.605 123.688 133.814 122.327 134.811C121.073 135.73 119.692 136.132 118.184 136.017C116.676 135.902 115.46 135.215 114.536 133.954C113.649 132.745 113.343 131.395 113.617 129.906C113.891 128.417 114.7 127.18 116.042 126.196ZM122.892 127.336C122.527 126.838 122.047 126.527 121.451 126.401C120.416 126.191 119.196 126.601 117.791 127.631C116.669 128.453 115.808 129.472 115.207 130.687C114.611 131.909 114.643 132.97 115.303 133.872C115.821 134.577 116.542 134.881 117.468 134.784C118.399 134.692 119.391 134.261 120.443 133.49C121.533 132.691 122.382 131.695 122.991 130.504C123.599 129.312 123.566 128.256 122.892 127.336Z" fill="#333333"/>
<path d="M122.775 142.629C123.354 143.074 123.812 143.305 124.15 143.321C124.493 143.332 124.886 143.1 125.329 142.627L133.149 134.265C133.501 133.888 133.713 133.599 133.783 133.398C133.893 133.051 133.774 132.715 133.426 132.39C133.346 132.315 133.25 132.241 133.137 132.167C133.03 132.099 132.889 132.015 132.714 131.916L132.978 131.634C133.941 132.149 135.124 132.742 136.528 133.414C136.568 133.451 136.575 133.489 136.549 133.529C136.528 133.574 136.465 133.653 136.358 133.767L126.76 144.03C126.296 144.526 126.08 144.929 126.113 145.237C126.15 145.54 126.419 145.962 126.918 146.504L126.694 146.743L122.551 142.869L122.775 142.629Z" fill="#333333"/>
<path d="M134.913 146.58C135.746 145.268 136.865 144.423 138.27 144.047C139.685 143.669 141.05 143.896 142.362 144.729C143.668 145.558 144.478 146.673 144.791 148.075C145.104 149.477 144.809 150.89 143.904 152.315C143.071 153.627 141.931 154.505 140.485 154.947C139.038 155.389 137.655 155.191 136.336 154.354C135.07 153.55 134.293 152.405 134.006 150.918C133.719 149.431 134.022 147.985 134.913 146.58ZM141.708 145.147C141.187 144.816 140.627 144.701 140.026 144.801C138.986 144.983 137.999 145.809 137.065 147.28C136.32 148.454 135.889 149.716 135.772 151.067C135.661 152.422 136.078 153.399 137.021 153.997C137.76 154.466 138.542 154.487 139.369 154.058C140.203 153.634 140.969 152.872 141.668 151.77C142.393 150.629 142.821 149.393 142.954 148.061C143.087 146.73 142.671 145.758 141.708 145.147Z" fill="#333333"/>
<path d="M146.835 159.262C147.527 159.466 148.016 159.523 148.303 159.433C148.592 159.337 148.851 158.998 149.078 158.415L151.003 153.493C151.285 152.773 151.416 152.233 151.397 151.873C151.389 151.509 151.206 151.257 150.85 151.118C150.777 151.09 150.674 151.062 150.542 151.036C150.42 151.005 150.288 150.978 150.145 150.956L150.286 150.596C150.758 150.612 151.242 150.63 151.738 150.648C152.234 150.666 152.579 150.674 152.772 150.674C153.19 150.678 153.626 150.669 154.08 150.645C154.131 150.665 154.153 150.694 154.146 150.733C154.146 150.775 154.123 150.855 154.078 150.971L153.378 152.761C154.097 152.296 154.742 151.965 155.314 151.769C155.892 151.576 156.415 151.57 156.88 151.752C157.251 151.897 157.509 152.128 157.654 152.445C157.801 152.754 157.81 153.076 157.679 153.411C157.562 153.709 157.373 153.925 157.111 154.057C156.857 154.193 156.595 154.208 156.326 154.103C156.05 153.994 155.819 153.758 155.635 153.392C155.458 153.029 155.29 152.817 155.13 152.754C154.875 152.654 154.481 152.739 153.948 153.009C153.417 153.271 153.067 153.621 152.896 154.057L150.971 158.98C150.727 159.605 150.702 160.099 150.896 160.46C151.093 160.814 151.533 161.116 152.215 161.366L152.074 161.726L146.694 159.622L146.835 159.262Z" fill="#333333"/>
<path d="M171.844 162.562L172.23 162.582C172.363 163.48 172.57 164.176 172.85 164.667C173.351 165.569 174.128 166.047 175.182 166.101C175.767 166.131 176.235 165.995 176.587 165.693C176.948 165.383 177.141 164.97 177.167 164.455C177.184 164.127 177.103 163.806 176.924 163.492C176.744 163.178 176.416 162.864 175.939 162.55L174.667 161.733C173.734 161.169 173.055 160.614 172.629 160.068C172.203 159.522 172.009 158.894 172.045 158.184C172.09 157.31 172.439 156.608 173.092 156.078C173.746 155.549 174.544 155.308 175.488 155.357C175.902 155.378 176.35 155.479 176.834 155.661C177.325 155.842 177.602 155.935 177.664 155.938C177.805 155.945 177.907 155.931 177.972 155.895C178.036 155.86 178.094 155.8 178.145 155.717L178.426 155.731L178.34 159L177.977 158.982C177.86 158.217 177.68 157.617 177.436 157.182C176.992 156.377 176.314 155.951 175.401 155.904C174.855 155.876 174.417 156.021 174.088 156.341C173.759 156.66 173.582 157.046 173.559 157.499C173.522 158.217 174.028 158.884 175.075 159.501L176.578 160.412C178.193 161.402 178.97 162.498 178.908 163.7C178.86 164.62 178.474 165.356 177.75 165.905C177.033 166.455 176.117 166.701 175.001 166.644C174.533 166.62 174.007 166.514 173.422 166.328C172.837 166.141 172.49 166.045 172.38 166.039C172.287 166.035 172.203 166.065 172.129 166.132C172.056 166.191 171.997 166.266 171.953 166.358L171.649 166.342L171.844 162.562Z" fill="#333333"/>
<path d="M185.935 151.121C185.894 150.787 185.975 150.486 186.178 150.217C186.381 149.948 186.653 149.793 186.994 149.751C187.328 149.71 187.626 149.796 187.888 150.008C188.157 150.211 188.312 150.483 188.354 150.824C188.395 151.157 188.31 151.459 188.099 151.729C187.895 151.99 187.626 152.141 187.293 152.182C186.952 152.224 186.65 152.143 186.389 151.939C186.127 151.727 185.975 151.454 185.935 151.121ZM186.249 165.994C187.069 165.815 187.575 165.611 187.767 165.383C187.959 165.147 187.999 164.575 187.888 163.668L187.207 158.12C187.145 157.616 187.067 157.271 186.974 157.086C186.818 156.782 186.554 156.653 186.182 156.699C186.097 156.709 186.013 156.727 185.929 156.753C185.854 156.778 185.629 156.869 185.254 157.025L185.21 156.665L185.69 156.44C186.993 155.832 187.898 155.382 188.405 155.092C188.611 154.972 188.745 154.908 188.807 154.901C188.829 154.953 188.844 155.01 188.852 155.072L189.877 163.424C189.985 164.308 190.158 164.849 190.395 165.049C190.639 165.247 191.142 165.331 191.901 165.3L191.941 165.626L186.289 166.32L186.249 165.994Z" fill="#333333"/>
<path d="M200.968 152.398L201.199 153.21L198.899 153.862L200.718 160.363C200.88 160.934 201.051 161.352 201.232 161.618C201.56 162.085 201.986 162.244 202.513 162.095C202.783 162.018 202.998 161.888 203.157 161.705C203.324 161.52 203.496 161.252 203.672 160.901L204.036 161.066L203.884 161.475C203.642 162.112 203.334 162.601 202.96 162.943C202.586 163.284 202.196 163.513 201.79 163.628C200.903 163.879 200.19 163.655 199.65 162.955C199.356 162.576 199.101 162.007 198.886 161.248L196.948 154.416L195.719 154.764C195.675 154.752 195.639 154.738 195.61 154.722C195.589 154.704 195.573 154.676 195.562 154.638C195.541 154.563 195.54 154.502 195.559 154.456C195.584 154.401 195.665 154.272 195.803 154.07C196.2 153.495 196.474 153.044 196.625 152.717C196.781 152.38 197.122 151.52 197.647 150.137C197.745 150.109 197.803 150.101 197.823 150.111C197.85 150.12 197.877 150.173 197.905 150.271L198.691 153.044L200.968 152.398Z" fill="#333333"/>
<path d="M222.146 146.501C221.57 147.252 221.141 147.941 220.859 148.568C220.32 149.775 220.299 150.744 220.796 151.474C221.196 152.062 221.684 152.362 222.261 152.376C222.636 152.386 222.978 152.285 223.288 152.074C223.715 151.784 224.04 151.387 224.265 150.885C224.496 150.377 224.487 149.94 224.236 149.572L222.146 146.501ZM219.527 153.316C218.889 152.38 218.826 151.28 219.336 150.016C219.666 149.224 220.493 147.891 221.816 146.017L221.255 145.193C220.807 144.534 220.43 144.12 220.125 143.949C219.611 143.666 219.008 143.76 218.317 144.23C217.988 144.454 217.732 144.752 217.549 145.122C217.371 145.498 217.385 145.838 217.592 146.142C217.644 146.219 217.751 146.341 217.91 146.506C218.066 146.665 218.161 146.77 218.196 146.822C218.442 147.184 218.494 147.517 218.352 147.822C218.274 147.998 218.141 148.15 217.954 148.277C217.663 148.475 217.376 148.533 217.094 148.451C216.807 148.363 216.584 148.203 216.426 147.97C216.118 147.518 216.075 146.858 216.296 145.989C216.52 145.109 217.171 144.302 218.249 143.568C219.502 142.715 220.628 142.544 221.628 143.054C222.17 143.337 222.731 143.905 223.312 144.757L225.956 148.642C226.211 149.016 226.413 149.257 226.561 149.364C226.817 149.559 227.077 149.566 227.342 149.386C227.49 149.285 227.597 149.178 227.663 149.067C227.73 148.956 227.823 148.732 227.943 148.395L228.286 148.899C228.251 149.291 228.169 149.65 228.04 149.974C227.845 150.465 227.56 150.839 227.186 151.094C226.747 151.393 226.33 151.468 225.937 151.32C225.549 151.168 225.212 150.901 224.925 150.521C224.724 151.281 224.519 151.883 224.311 152.327C223.961 153.076 223.521 153.631 222.992 153.991C222.436 154.369 221.823 154.503 221.153 154.393C220.478 154.276 219.936 153.917 219.527 153.316Z" fill="#333333"/>
<path d="M233.82 145.666C234.179 145.17 234.369 144.797 234.39 144.546C234.425 144.162 234.185 143.746 233.673 143.3L229.102 139.323C228.666 138.944 228.329 138.754 228.09 138.754C227.857 138.748 227.626 138.878 227.395 139.143C227.287 139.267 227.211 139.366 227.166 139.441C227.127 139.51 227.086 139.599 227.044 139.707L226.734 139.438L227.076 138.617C227.199 138.32 227.389 137.823 227.645 137.124C227.901 136.425 228.042 136.061 228.067 136.031C228.093 136.002 228.123 135.997 228.158 136.017C228.192 136.036 228.251 136.082 228.333 136.154L229.527 137.192C229.504 136.147 229.577 135.325 229.746 134.727C229.909 134.123 230.185 133.597 230.575 133.149C231.103 132.542 231.73 132.238 232.455 132.238C232.844 132.244 233.283 132.352 233.774 132.561C233.711 131.741 233.715 131.076 233.785 130.567C233.906 129.689 234.221 128.959 234.729 128.375C235.555 127.426 236.492 127.129 237.541 127.482C238.136 127.679 238.905 128.187 239.848 129.008L243.517 132.2C243.935 132.564 244.301 132.722 244.613 132.672C244.924 132.612 245.314 132.361 245.782 131.918L246.011 132.118L242.542 136.105L242.295 135.89C242.694 135.336 242.883 134.911 242.862 134.613C242.847 134.31 242.594 133.945 242.105 133.519L238.295 130.204C237.723 129.707 237.248 129.402 236.869 129.29C236.196 129.087 235.583 129.304 235.029 129.941C234.695 130.324 234.491 130.814 234.417 131.412C234.374 131.758 234.377 132.232 234.424 132.832L238.95 136.77C239.428 137.186 239.862 137.419 240.253 137.469C240.649 137.513 241.092 137.272 241.582 136.745L241.812 136.945L238.281 141.003L238.051 140.803C238.467 140.182 238.642 139.707 238.575 139.38C238.508 139.052 238.083 138.547 237.299 137.865L234.823 135.711C233.916 134.922 233.24 134.437 232.795 134.257C232.048 133.949 231.401 134.111 230.852 134.741C230.539 135.101 230.332 135.542 230.229 136.064C230.121 136.581 230.111 137.11 230.199 137.652L235.034 141.86C235.482 142.25 235.858 142.442 236.163 142.438C236.472 142.427 236.858 142.163 237.32 141.643L237.55 141.843L234.05 145.866L233.82 145.666Z" fill="#333333"/>
<path d="M241.572 117.012C242.06 116.024 242.831 115.329 243.884 114.926C244.93 114.519 246.08 114.625 247.334 115.245L244.037 121.916C245.697 122.649 247.062 122.866 248.133 122.568C249.205 122.269 249.965 121.665 250.415 120.754C250.779 120.019 250.892 119.304 250.756 118.609C250.62 117.914 250.304 117.179 249.808 116.402L250.116 116.097C250.863 116.823 251.42 117.769 251.785 118.935C252.154 120.093 252.056 121.243 251.492 122.384C250.841 123.701 249.84 124.474 248.489 124.704C247.142 124.927 245.82 124.719 244.524 124.078C243.116 123.383 242.107 122.365 241.497 121.027C240.886 119.688 240.911 118.349 241.572 117.012ZM242.038 118C241.643 118.798 241.696 119.583 242.196 120.352C242.463 120.763 242.86 121.16 243.386 121.542L245.577 117.108C244.838 116.839 244.25 116.714 243.814 116.734C243.028 116.773 242.436 117.195 242.038 118Z" fill="#333333"/>
<path d="M246.958 102.955L247.769 103.187L247.11 105.486L253.593 107.367C254.164 107.531 254.609 107.606 254.93 107.592C255.5 107.56 255.86 107.281 256.011 106.756C256.088 106.485 256.091 106.234 256.02 106.002C255.95 105.763 255.813 105.476 255.608 105.141L255.94 104.919L256.207 105.264C256.621 105.805 256.874 106.324 256.967 106.822C257.06 107.32 257.048 107.772 256.932 108.178C256.678 109.064 256.112 109.552 255.233 109.641C254.755 109.691 254.137 109.608 253.379 109.39L246.552 107.434L246.2 108.662C246.167 108.694 246.136 108.717 246.107 108.733C246.08 108.742 246.048 108.741 246.01 108.73C245.935 108.708 245.883 108.677 245.854 108.636C245.82 108.586 245.753 108.449 245.655 108.226C245.375 107.585 245.136 107.114 244.938 106.814C244.734 106.503 244.183 105.76 243.285 104.585C243.313 104.487 243.336 104.433 243.356 104.422C243.377 104.404 243.437 104.409 243.534 104.437L246.306 105.231L246.958 102.955Z" fill="#333333"/>
<path d="M259.172 93.9501C259.954 94.0534 260.645 94.4321 261.244 95.0865C261.843 95.7408 262.247 96.4127 262.455 97.1022L261.961 97.2616C261.641 96.4628 261.256 95.8918 260.805 95.5486C260.354 95.1976 259.967 95.0007 259.641 94.9578C259.533 94.9435 259.459 94.9691 259.418 95.0347C259.378 95.1003 259.353 95.1719 259.343 95.2493L259.321 96.0385C259.279 96.3638 259.135 96.6482 258.89 96.8917C258.637 97.1341 258.309 97.2288 257.907 97.1756C257.597 97.1348 257.31 96.9826 257.045 96.7191C256.78 96.4557 256.682 96.0684 256.749 95.5572C256.813 95.0692 257.065 94.6571 257.503 94.321C257.934 93.9838 258.49 93.8602 259.172 93.9501Z" fill="#333333"/>
<path d="M247.429 73.2592C247.251 72.2991 247.347 71.427 247.718 70.6429C248.08 69.8526 248.556 69.4025 249.148 69.2926C249.401 69.2455 249.656 69.2896 249.911 69.4249C250.159 69.5616 250.317 69.8143 250.386 70.183C250.436 70.4518 250.388 70.7071 250.242 70.9487C250.095 71.1827 249.853 71.3785 249.517 71.5364L248.99 71.7774C248.601 71.9529 248.345 72.1792 248.222 72.4564C248.108 72.7398 248.089 73.0889 248.166 73.5037C248.329 74.3794 248.851 75.0492 249.731 75.5133C250.603 75.9712 251.673 76.0823 252.94 75.8469C254.1 75.6314 255.079 75.1077 255.878 74.2759C256.676 73.4364 256.97 72.4521 256.76 71.323C256.612 70.5241 256.218 69.8622 255.58 69.337C255.215 69.0394 254.665 68.7284 253.929 68.4042L254.065 68.0452C255.068 68.3118 255.883 68.6371 256.511 69.0211C257.713 69.7593 258.427 70.739 258.654 71.9603C258.877 73.1585 258.602 74.3063 257.828 75.4035C257.054 76.5008 255.857 77.2 254.237 77.5011C252.647 77.7965 251.186 77.5475 249.855 76.7539C248.523 75.9603 247.715 74.7954 247.429 73.2592Z" fill="#333333"/>
<path d="M250.589 62.4984C249.155 63.0978 247.754 63.1497 246.387 62.654C245.01 62.1542 244.021 61.187 243.422 59.7525C242.825 58.3252 242.8 56.9472 243.346 55.6186C243.891 54.2899 244.942 53.3003 246.499 52.6497C247.934 52.0503 249.371 51.9834 250.81 52.4489C252.249 52.9144 253.27 53.868 253.872 55.3097C254.451 56.6938 254.432 58.0775 253.816 59.4609C253.2 60.8444 252.125 61.8568 250.589 62.4984ZM244.197 59.7842C244.435 60.3537 244.829 60.7691 245.378 61.0306C246.335 61.4774 247.618 61.3649 249.225 60.6933C250.508 60.1571 251.585 59.3688 252.454 58.3283C253.32 57.2805 253.538 56.2413 253.107 55.2104C252.77 54.4031 252.139 53.9383 251.216 53.816C250.29 53.6865 249.225 53.8732 248.021 54.3762C246.774 54.8973 245.715 55.6658 244.844 56.6817C243.973 57.6976 243.757 58.7317 244.197 59.7842Z" fill="#333333"/>
<path d="M248.006 44.8592C247.629 44.4465 247.294 44.2093 247.002 44.1476C246.699 44.084 246.254 44.2594 245.666 44.6737L240.811 48.0982C240.403 48.3864 240.142 48.6273 240.03 48.821C239.873 49.1134 239.928 49.4479 240.193 49.8246C240.234 49.8821 240.28 49.9405 240.331 49.9998C240.378 50.0528 240.44 50.1194 240.515 50.1998L240.18 50.4362C239.919 50.2285 239.284 49.7488 238.276 48.9972L237.344 48.3064C237.313 48.2617 237.311 48.2249 237.338 48.196C237.361 48.1607 237.401 48.1228 237.459 48.0823L238.866 47.0894C237.903 46.8893 237.202 46.6953 236.764 46.5074C236.1 46.2301 235.579 45.8233 235.2 45.287C234.894 44.8529 234.739 44.3693 234.736 43.8361C234.735 42.8044 235.357 41.8495 236.602 40.9714L241.074 37.8171C241.534 37.4929 241.8 37.1662 241.874 36.8369C241.948 36.5077 241.835 36.1237 241.535 35.6851L241.803 35.496L244.687 39.5851L244.419 39.7742C244.027 39.3532 243.669 39.1177 243.347 39.0676C243.019 39.0221 242.529 39.2289 241.878 39.6882L237.789 42.5724C237.24 42.9596 236.858 43.3815 236.645 43.838C236.425 44.2989 236.509 44.8039 236.896 45.353C237.162 45.7296 237.56 46.0226 238.09 46.232C238.39 46.3455 238.83 46.4552 239.412 46.5613L244.775 42.7788C245.234 42.4546 245.472 42.1341 245.487 41.8172C245.496 41.5048 245.352 41.1239 245.054 40.6744L245.322 40.4853L248.274 44.6701L248.006 44.8592Z" fill="#333333"/>
<path d="M234.474 32.9747L234.191 32.7108C234.667 31.9371 234.956 31.2721 235.059 30.7158C235.256 29.7029 234.969 28.8367 234.198 28.1172C233.77 27.7174 233.323 27.52 232.859 27.525C232.384 27.5304 231.97 27.7215 231.619 28.0985C231.395 28.3384 231.25 28.6364 231.185 28.9924C231.12 29.3484 231.169 29.8 231.332 30.3471L231.779 31.7909C232.13 32.8235 232.293 33.6857 232.267 34.3775C232.241 35.0694 231.986 35.6752 231.501 36.195C230.904 36.8347 230.185 37.147 229.344 37.1318C228.503 37.1166 227.737 36.7866 227.046 36.1416C226.744 35.8591 226.466 35.4929 226.212 35.0428C225.953 34.5875 225.801 34.3385 225.755 34.2958C225.653 34.1999 225.565 34.1449 225.493 34.1308C225.42 34.1167 225.338 34.1251 225.245 34.1559L225.039 33.9641L227.21 31.5177L227.475 31.7656C227.073 32.4262 226.824 33.0014 226.731 33.491C226.552 34.3927 226.797 35.1553 227.465 35.7789C227.865 36.152 228.293 36.3224 228.751 36.29C229.209 36.2576 229.592 36.0758 229.901 35.7445C230.392 35.219 230.435 34.3828 230.03 33.236L229.467 31.5724C228.869 29.7745 228.98 28.4357 229.801 27.5561C230.43 26.8821 231.198 26.5681 232.106 26.6141C233.009 26.6548 233.868 27.0562 234.685 27.8184C235.028 28.1382 235.363 28.5578 235.69 29.0771C236.018 29.5964 236.222 29.8934 236.302 29.968C236.37 30.032 236.454 30.0623 236.553 30.0588C236.648 30.0611 236.741 30.0413 236.833 29.9994L237.056 30.2073L234.474 32.9747Z" fill="#333333"/>
<path d="M139.526 17.1728C138.955 17.6151 138.623 17.9785 138.528 18.2631C138.437 18.5543 138.56 18.9625 138.899 19.4876L141.765 23.9285C142.184 24.5783 142.545 25.0009 142.848 25.1961C143.148 25.4021 143.459 25.4014 143.781 25.1938C143.847 25.1514 143.929 25.0844 144.028 24.9927C144.124 24.9118 144.223 24.8201 144.324 24.7176L144.534 25.0425C144.245 25.4153 143.947 25.7976 143.643 26.1897C143.338 26.5817 143.129 26.8559 143.016 27.0124C142.768 27.349 142.521 27.7082 142.275 28.0903C142.229 28.12 142.192 28.1205 142.164 28.0919C142.13 28.0675 142.079 28.0029 142.011 27.8978L140.969 26.283C140.926 27.1383 140.817 27.8551 140.641 28.4332C140.459 29.0156 140.158 29.4423 139.738 29.7134C139.403 29.9295 139.065 30.0035 138.724 29.9356C138.387 29.8742 138.121 29.6925 137.926 29.3905C137.752 29.1214 137.688 28.842 137.733 28.5523C137.772 28.2668 137.913 28.0457 138.156 27.889C138.406 27.728 138.733 27.6798 139.137 27.7444C139.534 27.8131 139.806 27.8009 139.95 27.7077C140.18 27.5595 140.341 27.1903 140.435 26.6C140.532 26.0164 140.454 25.5277 140.2 25.1338L137.334 20.693C136.97 20.1284 136.584 19.8193 136.178 19.7655C135.775 19.7183 135.273 19.8983 134.671 20.3054L134.461 19.9804L139.316 16.8479L139.526 17.1728Z" fill="#333333"/>
<path d="M2 228.691C19.7562 228.691 19.7562 246.691 37.5125 246.691C55.2687 246.691 55.2687 228.691 73.025 228.691C90.7812 228.691 90.7812 246.691 108.496 246.691C126.253 246.691 126.253 228.691 143.967 228.691C161.723 228.691 161.723 246.691 179.438 246.691C197.194 246.691 197.194 228.691 214.949 228.691C232.706 228.691 232.706 246.691 250.463 246.691C268.218 246.691 268.218 228.691 285.975 228.691C303.731 228.691 303.731 246.691 321.488 246.691C339.243 246.691 339.243 228.691 357 228.691" stroke="#4F4F4F" stroke-width="3" stroke-miterlimit="10" stroke-linecap="round"/>
<path d="M2 278.691C19.7562 278.691 19.7562 296.691 37.5125 296.691C55.2687 296.691 55.2687 278.691 73.025 278.691C90.7812 278.691 90.7812 296.691 108.496 296.691C126.253 296.691 126.253 278.691 143.967 278.691C161.723 278.691 161.723 296.691 179.438 296.691C197.194 296.691 197.194 278.691 214.949 278.691C232.706 278.691 232.706 296.691 250.463 296.691C268.218 296.691 268.218 278.691 285.975 278.691C303.731 278.691 303.731 296.691 321.488 296.691C339.243 296.691 339.243 278.691 357 278.691" stroke="#4F4F4F" stroke-width="3" stroke-miterlimit="10" stroke-linecap="round"/>
</svg>
